<?xml version="1.0" standalone="no"?>
<!DOCTYPE svg PUBLIC "-//W3C//DTD SVG 1.1//EN" "http://www.w3.org/Graphics/SVG/1.1/DTD/svg11.dtd" >
<svg xmlns="http://www.w3.org/2000/svg" xmlns:xlink="http://www.w3.org/1999/xlink" version="1.1">
<metadata>
Created by FontForge 20161116 at Sat Aug 16 11:41:17 2014
 By Jimmy Warting
Copyright (c) 2014 by Hannes von Doehren, Livius Dietzel. All rights reserved.
</metadata>
<defs>
<font id="BrixSansMedium" horiz-adv-x="560" >
  <font-face 
    font-family="Brix Sans Medium"
    font-weight="500"
    font-stretch="normal"
    units-per-em="1000"
    panose-1="2 0 0 0 0 0 0 0 0 0"
    ascent="720"
    descent="-280"
    x-height="456"
    cap-height="676"
    bbox="-151 -227 1122 986"
    underline-thickness="50"
    underline-position="-100"
    stemh="94"
    stemv="109"
    unicode-range="U+0020-FB02"
  />
<missing-glyph horiz-adv-x="513" 
d="M50 0v656h413v-656h-413zM88 39h337v578h-337v-578z" />
    <glyph glyph-name="fi" unicode="fi" horiz-adv-x="570" 
d="M408 0v370h-212v-370h-100v370h-75v76l75 10v71c0 102 48 163 155 163h59v-86h-53c-47 0 -61 -30 -61 -78v-70h312v-456h-100zM457 554c-37 0 -65 18 -65 63c0 44 28 64 65 64c32 0 64 -20 64 -64c0 -45 -32 -63 -64 -63z" />
    <glyph glyph-name="fl" unicode="fl" horiz-adv-x="580" 
d="M310 690v-86h-53c-47 0 -61 -30 -61 -78v-70h126v-86h-126v-370h-100v370h-75v76l75 10v71c0 102 48 163 155 163h59zM395 690h100v-551c0 -35 10 -50 42 -50h24v-93h-54c-86 0 -112 53 -112 129v565z" />
    <glyph glyph-name="f_f" unicode="ff" horiz-adv-x="641" 
d="M614 690v-86h-53c-47 0 -61 -30 -61 -78v-70h126v-86h-126v-370h-100v370h-204v-370h-100v370h-75v76l75 10v71c0 102 48 163 155 163h59v-86h-53c-47 0 -61 -30 -61 -78v-70h204v71c0 102 48 163 155 163h59z" />
    <glyph glyph-name=".notdef" horiz-adv-x="513" 
d="M50 0v656h413v-656h-413zM88 39h337v578h-337v-578z" />
    <glyph glyph-name=".null" horiz-adv-x="0" 
 />
    <glyph glyph-name=".null" horiz-adv-x="0" 
 />
    <glyph glyph-name="space" unicode=" " horiz-adv-x="204" 
 />
    <glyph glyph-name="exclam" unicode="!" horiz-adv-x="240" 
d="M162 219h-84l-18 457h121zM121 -6c-41 0 -71 28 -71 67s30 68 71 68c40 0 70 -29 70 -68s-30 -67 -70 -67z" />
    <glyph glyph-name="quotedbl" unicode="&#x22;" horiz-adv-x="370" 
d="M230 432l-9 244h97l-11 -244h-77zM63 432l-11 244h99l-11 -244h-77z" />
    <glyph glyph-name="numbersign" unicode="#" horiz-adv-x="633" 
d="M134 186h-99l13 89h101l21 140h-98l11 90h101l26 171h97l-27 -171h117l27 171h96l-25 -171h103l-13 -90h-105l-21 -140h103l-12 -89h-106l-28 -186h-97l29 186h-117l-28 -186h-98zM266 415l-21 -140h118l21 140h-118z" />
    <glyph glyph-name="dollar" unicode="$" horiz-adv-x="549" 
d="M312 -103h-65v93c-133 7 -188 74 -213 125l78 59c22 -45 54 -84 135 -90v212l-28 8c-110 34 -158 95 -158 181c0 95 56 184 186 199v75h65v-73c98 -7 157 -51 188 -99l-76 -60c-24 35 -60 59 -112 65v-210l32 -9c111 -34 164 -91 164 -182c0 -112 -77 -186 -196 -199v-95
zM398 184c0 48 -33 75 -86 92v-190c56 11 86 46 86 98zM172 491c0 -46 23 -72 75 -90v187c-50 -12 -75 -50 -75 -97z" />
    <glyph glyph-name="percent" unicode="%" horiz-adv-x="824" 
d="M655 676l-405 -676h-82l402 676h85zM638 55c53 0 71 42 71 124s-18 124 -71 124s-71 -42 -71 -124s18 -124 71 -124zM638 363c107 0 150 -73 150 -184s-44 -185 -150 -185c-107 0 -150 74 -150 185s44 184 150 184zM184 373c53 0 71 42 71 124s-18 124 -71 124
s-71 -42 -71 -124s18 -124 71 -124zM184 681c107 0 150 -73 150 -184s-44 -185 -150 -185c-107 0 -150 74 -150 185s44 184 150 184z" />
    <glyph glyph-name="ampersand" unicode="&#x26;" horiz-adv-x="649" 
d="M526 360l73 -55l-90 -125l-20 -27l139 -145v-8h-116l-79 84c-51 -53 -116 -95 -210 -95c-118 0 -186 69 -186 158c0 92 75 149 138 194l11 8l-18 19c-32 34 -85 85 -85 155c0 89 72 164 194 164c112 0 187 -75 187 -164c0 -70 -51 -117 -123 -172l-23 -17l107 -113l13 17
zM223 75c61 0 107 32 147 76l-123 132l-17 -12c-52 -38 -96 -69 -96 -121c0 -42 39 -75 89 -75zM179 523c0 -41 27 -72 60 -105l18 -19l27 19c50 37 83 64 83 105c0 39 -33 78 -90 78c-62 0 -98 -39 -98 -78z" />
    <glyph glyph-name="quotesingle" unicode="'" horiz-adv-x="202" 
d="M62 432l-9 244h97l-11 -244h-77z" />
    <glyph glyph-name="parenleft" unicode="(" horiz-adv-x="281" 
d="M261 -193l-76 -29c-88 132 -143 272 -143 463c0 201 61 331 143 463l78 -30c-67 -131 -115 -269 -115 -433c0 -163 37 -289 113 -434z" />
    <glyph glyph-name="parenright" unicode=")" horiz-adv-x="280" 
d="M20 -193c76 145 113 271 113 434c0 164 -48 302 -115 433l77 30c83 -132 144 -262 144 -463c0 -191 -55 -331 -144 -463z" />
    <glyph glyph-name="asterisk" unicode="*" horiz-adv-x="466" 
d="M136 314l-61 56l95 111l-131 25l25 90l130 -45l-7 145h95l-8 -144l135 38l19 -89l-130 -22l86 -112l-75 -53l-80 122z" />
    <glyph glyph-name="plus" unicode="+" 
d="M42 226v87h189v197h95v-197h192v-87h-192v-196h-95v196h-189z" />
    <glyph glyph-name="comma" unicode="," horiz-adv-x="228" 
d="M176 130l-59 -240h-77l25 240h111z" />
    <glyph glyph-name="hyphen" unicode="-" horiz-adv-x="389" 
d="M58 313h273v-86h-273v86z" />
    <glyph glyph-name="period" unicode="." horiz-adv-x="241" 
d="M121 -6c-44 0 -75 30 -75 70c0 42 31 73 75 73c42 0 74 -31 74 -73c0 -40 -32 -70 -74 -70z" />
    <glyph glyph-name="slash" unicode="/" horiz-adv-x="367" 
d="M340 676l-210 -676h-103l208 676h105z" />
    <glyph glyph-name="zero" unicode="0" horiz-adv-x="599" 
d="M300 81c102 0 141 90 141 257s-39 257 -141 257c-103 0 -142 -90 -142 -257s39 -257 142 -257zM300 687c177 0 250 -137 250 -349s-74 -349 -250 -349c-178 0 -251 137 -251 349s75 349 251 349z" />
    <glyph glyph-name="one" unicode="1" horiz-adv-x="397" 
d="M320 0h-106v574l-179 -72l-27 83l219 91h93v-676z" />
    <glyph glyph-name="two" unicode="2" horiz-adv-x="522" 
d="M254 687c131 0 213 -85 213 -202c0 -95 -61 -169 -135 -247l-140 -150h285v-88h-427v76l210 226c61 65 97 119 97 183s-35 110 -103 110c-70 0 -104 -48 -104 -120h-106c0 125 70 212 210 212z" />
    <glyph glyph-name="three" unicode="3" horiz-adv-x="548" 
d="M369 346c68 -14 131 -74 131 -166c0 -113 -91 -191 -231 -191c-156 0 -225 80 -225 183h106c0 -55 44 -92 119 -92c74 0 121 42 121 106c0 71 -53 116 -141 116h-64v88h64c79 0 130 36 130 105c0 60 -41 100 -110 100c-72 0 -109 -39 -109 -91h-107c0 98 66 183 216 183
c136 0 220 -79 220 -187c0 -82 -54 -138 -120 -154z" />
    <glyph glyph-name="four" unicode="4" horiz-adv-x="575" 
d="M539 228v-88h-88v-140h-106v140h-317v79l312 457h111v-448h88zM141 228h204v304z" />
    <glyph glyph-name="five" unicode="5" horiz-adv-x="530" 
d="M489 217c0 -126 -79 -228 -231 -228c-156 0 -223 86 -223 192h106c0 -58 39 -101 116 -101c84 0 122 58 122 138c0 74 -42 124 -119 124c-45 0 -81 -17 -108 -38l-86 13l42 359h356v-88h-269l-22 -185c21 12 62 30 108 30c113 0 208 -66 208 -216z" />
    <glyph glyph-name="six" unicode="6" horiz-adv-x="566" 
d="M160 263c0 -98 39 -183 130 -183c82 0 124 54 124 135c0 79 -43 129 -124 129c-62 0 -108 -40 -130 -81zM402 504c0 56 -40 91 -105 91c-96 0 -139 -95 -139 -232c25 29 83 68 157 68c130 0 208 -85 208 -215c0 -122 -76 -227 -233 -227c-169 0 -241 138 -241 326
c0 220 75 372 248 372c145 0 212 -82 212 -183h-107z" />
    <glyph glyph-name="seven" unicode="7" horiz-adv-x="479" 
d="M93 0l245 588h-308v88h427v-77l-248 -599h-116z" />
    <glyph glyph-name="eight" unicode="8" horiz-adv-x="576" 
d="M288 -11c-143 0 -240 69 -240 194c0 94 61 147 129 165c-65 20 -115 69 -115 150c0 115 86 189 226 189c141 0 226 -74 226 -189c0 -81 -50 -130 -114 -150c66 -18 127 -71 127 -165c0 -125 -96 -194 -239 -194zM288 595c-71 0 -117 -35 -117 -102s51 -101 117 -101
s117 34 117 101s-46 102 -117 102zM287 80c80 0 131 40 131 112c0 73 -57 111 -131 111c-73 0 -129 -38 -129 -111c0 -72 51 -112 129 -112z" />
    <glyph glyph-name="nine" unicode="9" horiz-adv-x="567" 
d="M407 413c0 98 -39 183 -129 183c-83 0 -125 -54 -125 -135c0 -79 43 -129 125 -129c61 0 107 40 129 81zM58 172h107c0 -56 40 -91 104 -91c98 0 140 95 140 232c-24 -28 -83 -69 -157 -69c-130 0 -208 86 -208 216c0 122 76 227 234 227c169 0 240 -139 240 -326
c0 -220 -74 -372 -249 -372c-144 0 -211 82 -211 183z" />
    <glyph glyph-name="colon" unicode=":" horiz-adv-x="251" 
d="M126 -6c-41 0 -71 28 -71 67s30 68 71 68c40 0 70 -29 70 -68s-30 -67 -70 -67zM126 331c-41 0 -71 28 -71 67c0 40 30 68 71 68c40 0 70 -28 70 -68c0 -39 -30 -67 -70 -67z" />
    <glyph glyph-name="semicolon" unicode=";" horiz-adv-x="246" 
d="M125 331c-40 0 -70 28 -70 67c0 40 30 68 70 68s70 -28 70 -68c0 -39 -30 -67 -70 -67zM184 130l-59 -240h-76l25 240h110z" />
    <glyph glyph-name="less" unicode="&#x3c;" 
d="M67 219v102l410 162v-93l-324 -121l324 -120v-93z" />
    <glyph glyph-name="equal" unicode="=" 
d="M74 431h411v-87h-411v87zM74 196h411v-86h-411v86z" />
    <glyph glyph-name="greater" unicode="&#x3e;" 
d="M493 321v-102l-411 -163v93l324 120l-324 121v93z" />
    <glyph glyph-name="question" unicode="?" horiz-adv-x="450" 
d="M212 -6c-41 0 -70 28 -70 67s29 68 70 68c40 0 70 -29 70 -68s-30 -67 -70 -67zM215 686c130 0 201 -77 201 -173c0 -140 -152 -171 -152 -294h-103c0 153 153 192 153 291c0 44 -32 83 -92 83c-58 0 -91 -34 -91 -77l-98 9c0 87 55 161 182 161z" />
    <glyph glyph-name="at" unicode="@" horiz-adv-x="904" 
d="M546 330c-19 18 -45 37 -88 37c-78 0 -127 -86 -127 -178c0 -67 30 -94 74 -94c42 0 82 20 106 43zM526 74c-34 -31 -78 -60 -142 -60c-90 0 -142 56 -142 168c0 135 82 264 203 264c60 0 90 -22 112 -47l8 38h85l-47 -270c-10 -55 -6 -86 30 -86c67 0 142 81 142 262
c0 131 -75 238 -274 238c-248 0 -376 -190 -376 -399c0 -178 83 -284 273 -284c71 0 135 13 190 39l17 -71c-54 -25 -126 -45 -206 -45c-247 0 -356 145 -356 362c0 257 170 475 458 475c249 0 356 -146 356 -315c0 -212 -112 -337 -233 -337c-65 0 -90 28 -98 68z" />
    <glyph glyph-name="A" unicode="A" horiz-adv-x="616" 
d="M494 0l-55 165h-263l-55 -165h-116l239 676h127l240 -676h-117zM308 564l-103 -308h206z" />
    <glyph glyph-name="B" unicode="B" horiz-adv-x="588" 
d="M74 0v676h223c153 0 216 -70 216 -175c0 -78 -39 -127 -100 -145c69 -14 134 -67 134 -167c0 -138 -94 -189 -245 -189h-228zM183 90h113c99 0 139 34 139 106c0 66 -39 108 -139 108h-113v-214zM183 394h100c88 0 117 39 117 99c0 57 -30 93 -118 93h-99v-192z" />
    <glyph glyph-name="C" unicode="C" horiz-adv-x="588" 
d="M159 337c0 -152 52 -253 178 -253c62 0 113 35 138 83l84 -54c-41 -73 -117 -123 -226 -123c-193 0 -287 131 -287 348s94 348 287 348c109 0 185 -50 226 -123l-84 -54c-25 48 -76 83 -138 83c-126 0 -178 -101 -178 -255z" />
    <glyph glyph-name="D" unicode="D" horiz-adv-x="652" 
d="M74 0v676h202c232 0 329 -101 329 -338c0 -235 -96 -338 -329 -338h-202zM183 90h87c170 0 223 65 223 248c0 179 -53 248 -223 248h-87v-496z" />
    <glyph glyph-name="E" unicode="E" horiz-adv-x="542" 
d="M183 90h316v-90h-425v676h422v-90h-313v-198h274v-90h-274v-208z" />
    <glyph glyph-name="F" unicode="F" horiz-adv-x="520" 
d="M74 0v676h410v-90h-301v-217h256v-90h-256v-279h-109z" />
    <glyph glyph-name="G" unicode="G" horiz-adv-x="644" 
d="M342 274v91h261c3 -19 5 -47 5 -58c0 -173 -75 -317 -270 -317c-190 0 -292 118 -292 348c0 228 101 348 305 348c105 0 181 -47 220 -119l-82 -54c-30 49 -71 79 -142 79c-137 0 -188 -92 -188 -254c0 -174 54 -255 179 -255c117 0 159 85 159 191h-155z" />
    <glyph glyph-name="H" unicode="H" horiz-adv-x="678" 
d="M496 397v279h108v-676h-108v307h-313v-307h-109v676h109v-279h313z" />
    <glyph glyph-name="I" unicode="I" horiz-adv-x="258" 
d="M74 0v676h109v-676h-109z" />
    <glyph glyph-name="J" unicode="J" horiz-adv-x="485" 
d="M18 97l78 51c22 -42 50 -64 102 -64c73 0 114 40 114 150v442h103v-447c0 -162 -83 -239 -217 -239c-91 0 -150 45 -180 107z" />
    <glyph glyph-name="K" unicode="K" horiz-adv-x="611" 
d="M277 319l-94 -97v-222h-109v676h109v-316l285 316h132l-249 -279l249 -397h-129z" />
    <glyph glyph-name="L" unicode="L" horiz-adv-x="479" 
d="M183 90h279v-90h-388v676h109v-586z" />
    <glyph glyph-name="M" unicode="M" horiz-adv-x="857" 
d="M430 135l161 541h144l80 -676h-104l-59 549l-165 -549h-119l-158 546l-65 -546h-104l86 676h146z" />
    <glyph glyph-name="N" unicode="N" horiz-adv-x="679" 
d="M497 178v498h108v-676h-113l-309 503l1 -503h-110v676h116z" />
    <glyph glyph-name="O" unicode="O" horiz-adv-x="657" 
d="M159 337c0 -150 36 -253 168 -253c134 0 171 103 171 253c0 151 -38 255 -169 255c-130 0 -170 -104 -170 -255zM610 337c0 -200 -78 -347 -283 -347s-281 147 -281 347s76 349 283 349c206 0 281 -149 281 -349z" />
    <glyph glyph-name="P" unicode="P" horiz-adv-x="570" 
d="M300 256h-117v-256h-109v676h226c157 0 236 -78 236 -210c0 -131 -79 -210 -236 -210zM183 586v-240h110c97 0 130 49 130 120s-33 120 -130 120h-110z" />
    <glyph glyph-name="Q" unicode="Q" horiz-adv-x="657" 
d="M610 337c0 -80 -13 -152 -41 -209l77 -72l-60 -67l-70 67c-44 -42 -106 -66 -189 -66c-205 0 -281 147 -281 347s76 349 283 349c206 0 281 -149 281 -349zM159 337c0 -150 36 -253 168 -253c52 0 89 15 115 43l-157 152l57 63l142 -134c10 37 14 80 14 129
c0 151 -38 255 -169 255c-130 0 -170 -104 -170 -255z" />
    <glyph glyph-name="R" unicode="R" horiz-adv-x="599" 
d="M74 0v676h245c158 0 239 -74 239 -194c0 -97 -60 -165 -166 -186l181 -296h-123l-169 286h-98l1 -286h-110zM445 482c0 64 -33 104 -136 104h-126v-210h126c103 0 136 39 136 106z" />
    <glyph glyph-name="S" unicode="S" horiz-adv-x="544" 
d="M496 586l-77 -60c-27 41 -72 66 -137 66c-75 0 -113 -43 -113 -101c0 -48 26 -74 83 -92l88 -26c111 -34 163 -91 163 -181c0 -125 -94 -203 -236 -203c-151 0 -210 72 -237 126l77 60c24 -49 60 -92 160 -92c81 0 124 41 124 101c0 51 -33 77 -89 94l-88 26
c-110 34 -158 95 -158 181c0 104 68 201 226 201c113 0 180 -48 214 -100z" />
    <glyph glyph-name="T" unicode="T" horiz-adv-x="543" 
d="M29 676h484v-90h-187v-586h-109v586h-188v90z" />
    <glyph glyph-name="U" unicode="U" horiz-adv-x="647" 
d="M324 -10c-151 0 -255 76 -255 265v421h109v-420c0 -120 48 -172 146 -172c97 0 146 51 146 172v420h109v-421c0 -189 -106 -265 -255 -265z" />
    <glyph glyph-name="V" unicode="V" horiz-adv-x="601" 
d="M475 676h115l-221 -676h-138l-220 676h114l176 -564z" />
    <glyph glyph-name="W" unicode="W" horiz-adv-x="968" 
d="M422 676h124l150 -553l143 553h113l-185 -676h-134l-149 528l-149 -528h-133l-186 676h113l144 -553z" />
    <glyph glyph-name="X" unicode="X" horiz-adv-x="584" 
d="M19 676h124l148 -255l150 255h123l-200 -327l208 -349h-124l-157 270l-156 -270h-123l208 349z" />
    <glyph glyph-name="Y" unicode="Y" horiz-adv-x="583" 
d="M346 0h-109v266l-230 410h120l165 -311l163 311h121l-230 -410v-266z" />
    <glyph glyph-name="Z" unicode="Z" horiz-adv-x="519" 
d="M474 676v-80l-313 -506h322v-90h-450v78l313 508h-297v90h425z" />
    <glyph glyph-name="bracketleft" unicode="[" horiz-adv-x="314" 
d="M63 690h226v-85h-122v-736h122v-85h-226v906z" />
    <glyph glyph-name="backslash" unicode="\" horiz-adv-x="367" 
d="M237 0l-210 676h106l207 -676h-103z" />
    <glyph glyph-name="bracketright" unicode="]" horiz-adv-x="314" 
d="M25 690h226v-906h-226v85h122v736h-122v85z" />
    <glyph glyph-name="asciicircum" unicode="^" 
d="M30 450l250 249l249 -249l-67 -68l-181 181l-182 -181z" />
    <glyph glyph-name="underscore" unicode="_" horiz-adv-x="490" 
d="M45 -31h400v-68h-400v68z" />
    <glyph glyph-name="grave" unicode="`" horiz-adv-x="600" 
d="M211 696h104l74 -160h-91z" />
    <glyph glyph-name="a" unicode="a" horiz-adv-x="471" 
d="M414 0h-94v55c-29 -33 -77 -66 -149 -66c-83 0 -137 50 -137 131c0 97 85 140 216 150l64 7v36c0 46 -20 72 -84 72c-56 0 -83 -20 -83 -49v-22h-88c-1 10 -2 21 -2 31c0 71 64 121 179 121c111 0 178 -48 178 -152v-314zM137 126c0 -38 23 -58 68 -58c44 0 84 21 109 47
v98l-63 -9c-73 -10 -114 -32 -114 -78z" />
    <glyph glyph-name="b" unicode="b" horiz-adv-x="517" 
d="M161 690v-272c22 25 57 48 121 48c133 0 195 -90 195 -237c0 -144 -66 -240 -195 -240c-71 0 -114 26 -139 52l-30 -41h-52v690h100zM374 229c0 84 -26 144 -115 144c-53 0 -83 -24 -98 -43v-200c17 -23 51 -48 98 -48c91 0 115 63 115 147z" />
    <glyph glyph-name="c" unicode="c" horiz-adv-x="448" 
d="M39 228c0 130 61 238 207 238c81 0 144 -33 177 -97l-72 -51c-21 37 -52 59 -98 59c-81 0 -111 -63 -111 -149s30 -149 111 -149c46 0 78 22 99 58l71 -51c-32 -64 -96 -97 -177 -97c-146 0 -207 107 -207 239z" />
    <glyph glyph-name="d" unicode="d" horiz-adv-x="517" 
d="M356 418v272h101v-690h-96v40c-27 -28 -72 -51 -130 -51c-126 0 -190 90 -190 240c0 147 64 237 191 237c60 0 102 -24 124 -48zM143 229c0 -83 27 -147 113 -147c49 0 82 20 100 43v205c-17 20 -49 43 -99 43c-87 0 -114 -60 -114 -144z" />
    <glyph glyph-name="e" unicode="e" horiz-adv-x="471" 
d="M256 76c39 0 84 14 119 45l48 -66c-32 -35 -95 -66 -167 -66c-153 0 -217 100 -217 239c0 131 68 238 207 238c134 0 187 -97 187 -195c0 -23 -2 -56 -7 -75h-285c2 -73 38 -120 115 -120zM141 270h197c1 6 1 13 1 17c0 61 -38 97 -93 97c-72 0 -101 -50 -105 -114z" />
    <glyph glyph-name="f" unicode="f" horiz-adv-x="337" 
d="M310 690v-86h-53c-47 0 -61 -30 -61 -78v-70h126v-86h-126v-370h-100v370h-75v76l75 10v71c0 102 48 163 155 163h59z" />
    <glyph glyph-name="g" unicode="g" horiz-adv-x="515" 
d="M359 456h95v-487c0 -100 -75 -174 -199 -174c-122 0 -184 64 -184 144h89c0 -31 33 -63 95 -63c64 0 98 35 98 88v78c-27 -31 -72 -53 -119 -53c-130 0 -193 90 -193 240c0 149 66 237 193 237c62 0 100 -24 125 -51v41zM142 229c0 -82 25 -147 113 -147
c42 0 78 19 98 44v205c-14 18 -46 42 -98 42c-87 0 -113 -60 -113 -144z" />
    <glyph glyph-name="h" unicode="h" horiz-adv-x="518" 
d="M61 0v690h100v-281c27 29 73 57 143 57c108 0 158 -62 158 -178v-288h-101v278c0 63 -23 95 -93 95c-45 0 -85 -20 -107 -43v-330h-100z" />
    <glyph glyph-name="i" unicode="i" horiz-adv-x="224" 
d="M62 0v456h100v-456h-100zM111 554c-37 0 -65 18 -65 63c0 44 28 64 65 64c32 0 64 -20 64 -64c0 -45 -32 -63 -64 -63z" />
    <glyph glyph-name="j" unicode="j" horiz-adv-x="224" 
d="M37 -226l-58 66c61 34 83 73 83 138v478h101v-459c0 -107 -38 -179 -126 -223zM111 554c-37 0 -65 18 -65 63c0 44 28 64 65 64c33 0 65 -20 65 -64c0 -45 -32 -63 -65 -63z" />
    <glyph glyph-name="k" unicode="k" horiz-adv-x="483" 
d="M471 0h-113l-131 213l-66 -64v-149h-100v690h100v-422l191 188h124l-178 -173z" />
    <glyph glyph-name="l" unicode="l" horiz-adv-x="244" 
d="M58 690h100v-551c0 -35 10 -50 42 -50h24v-93h-54c-86 0 -112 53 -112 129v565z" />
    <glyph glyph-name="m" unicode="m" horiz-adv-x="809" 
d="M61 0v456h97v-53c27 32 69 63 131 63c74 0 113 -27 142 -69c30 36 83 69 159 69c114 0 162 -60 162 -170v-296h-101v288c0 56 -23 85 -88 85c-46 0 -82 -19 -104 -43v-330h-101v323c-17 31 -47 50 -94 50c-45 0 -78 -20 -103 -43v-330h-100z" />
    <glyph glyph-name="n" unicode="n" horiz-adv-x="518" 
d="M61 0v456h97v-53c26 36 76 63 145 63c108 0 158 -62 158 -178v-288h-100v278c0 63 -24 95 -94 95c-44 0 -85 -20 -106 -43v-330h-100z" />
    <glyph glyph-name="o" unicode="o" horiz-adv-x="500" 
d="M251 466c144 0 209 -101 209 -237c0 -139 -64 -240 -213 -240c-141 0 -208 102 -208 238c0 138 65 239 212 239zM249 80c76 0 109 56 109 147c0 94 -33 148 -109 148c-75 0 -107 -54 -107 -146c0 -95 33 -149 107 -149z" />
    <glyph glyph-name="p" unicode="p" horiz-adv-x="520" 
d="M161 37v-253h-100v672h96v-41c27 28 72 51 131 51c126 0 191 -90 191 -240c0 -147 -64 -237 -192 -237c-61 0 -104 24 -126 48zM377 226c0 83 -27 147 -115 147c-49 0 -83 -20 -101 -43v-205c17 -20 50 -43 101 -43c88 0 115 60 115 144z" />
    <glyph glyph-name="q" unicode="q" horiz-adv-x="513" 
d="M352 -216v253c-22 -25 -56 -48 -119 -48c-132 0 -193 90 -193 237c0 144 65 240 193 240c69 0 112 -26 137 -52l30 42h52v-672h-100zM142 226c0 -84 26 -144 113 -144c52 0 82 24 97 43v200c-17 23 -51 48 -97 48c-89 0 -113 -63 -113 -147z" />
    <glyph glyph-name="r" unicode="r" horiz-adv-x="350" 
d="M157 382h1c24 44 59 84 125 84c19 0 38 -2 54 -6l-9 -107c-20 6 -47 9 -68 9c-47 0 -80 -29 -99 -70v-292h-100v456h96v-74z" />
    <glyph glyph-name="s" unicode="s" horiz-adv-x="433" 
d="M390 400l-58 -60c-25 28 -63 49 -112 49c-53 0 -75 -26 -75 -57c0 -25 13 -44 49 -52l77 -18c87 -20 128 -65 128 -131c0 -74 -53 -142 -190 -142c-97 0 -152 42 -180 77l59 61c25 -29 60 -61 124 -61c50 0 85 19 85 57c0 27 -21 43 -58 52l-79 20
c-77 19 -116 65 -116 128c0 66 48 143 179 143c87 0 138 -34 167 -66z" />
    <glyph glyph-name="t" unicode="t" horiz-adv-x="345" 
d="M203 370v-229c0 -38 18 -59 55 -59c18 0 41 5 59 12l5 -88c-23 -9 -61 -17 -95 -17c-89 0 -125 57 -125 139v242h-84v76l84 10v113l101 16v-129h112v-86h-112z" />
    <glyph glyph-name="u" unicode="u" horiz-adv-x="518" 
d="M457 456v-456h-97v53c-26 -36 -76 -63 -145 -63c-108 0 -158 62 -158 178v288h100v-278c0 -63 24 -95 94 -95c44 0 85 20 106 43v330h100z" />
    <glyph glyph-name="v" unicode="v" horiz-adv-x="485" 
d="M363 456h108l-167 -456h-121l-169 456h108l121 -358z" />
    <glyph glyph-name="w" unicode="w" horiz-adv-x="763" 
d="M333 456h97l107 -348l103 348h105l-144 -456h-111l-109 328l-108 -328h-111l-145 456h105l104 -348z" />
    <glyph glyph-name="x" unicode="x" horiz-adv-x="467" 
d="M297 228l153 -228h-116l-100 160l-101 -160h-116l153 229l-153 227h116l101 -159l100 159h116z" />
    <glyph glyph-name="y" unicode="y" horiz-adv-x="485" 
d="M123 456l126 -315l116 315h109l-273 -672h-103l101 240l-190 432h114z" />
    <glyph glyph-name="z" unicode="z" horiz-adv-x="414" 
d="M374 456v-68l-212 -302h213v-86h-340v68l214 302h-204v86h329z" />
    <glyph glyph-name="braceleft" unicode="{" horiz-adv-x="306" 
d="M209 550v-200c0 -85 -40 -108 -79 -113c39 -5 79 -31 79 -112v-201c0 -48 19 -62 62 -62v-78c-113 0 -166 33 -166 140v192c0 61 -31 82 -92 82v78c61 0 92 20 92 84v190c0 104 52 140 166 140v-78c-42 0 -62 -14 -62 -62z" />
    <glyph glyph-name="bar" unicode="|" horiz-adv-x="194" 
d="M132 -216h-69v906h69v-906z" />
    <glyph glyph-name="braceright" unicode="}" horiz-adv-x="306" 
d="M97 350v200c0 48 -20 62 -62 62v78c114 0 166 -36 166 -140v-190c0 -64 31 -84 92 -84v-78c-61 0 -92 -21 -92 -82v-192c0 -107 -53 -140 -166 -140v78c43 0 62 14 62 62v201c0 81 40 107 79 112c-39 5 -79 28 -79 113z" />
    <glyph glyph-name="asciitilde" unicode="~" 
d="M461 320l-5 -97c-26 19 -56 34 -86 34c-58 0 -113 -68 -186 -68c-36 0 -69 16 -85 29l3 99c22 -19 45 -34 78 -34c63 0 107 68 190 68c40 0 71 -17 91 -31z" />
    <glyph glyph-name="uni00A0" unicode="&#xa0;" horiz-adv-x="204" 
 />
    <glyph glyph-name="Agrave" unicode="&#xc0;" horiz-adv-x="616" 
d="M494 0l-55 165h-263l-55 -165h-116l239 676h127l240 -676h-117zM308 564l-103 -308h206zM176 900h104l74 -160h-91z" />
    <glyph glyph-name="Aacute" unicode="&#xc1;" horiz-adv-x="616" 
d="M494 0l-55 165h-263l-55 -165h-116l239 676h127l240 -676h-117zM308 564l-103 -308h206zM334 900h104l-87 -160h-91z" />
    <glyph glyph-name="Acircumflex" unicode="&#xc2;" horiz-adv-x="616" 
d="M494 0l-55 165h-263l-55 -165h-116l239 676h127l240 -676h-117zM308 564l-103 -308h206zM259 900h100l101 -160h-91l-60 95l-61 -95h-91z" />
    <glyph glyph-name="Atilde" unicode="&#xc3;" horiz-adv-x="616" 
d="M494 0l-55 165h-263l-55 -165h-116l239 676h127l240 -676h-117zM308 564l-103 -308h206zM454 848l-4 -76c-21 15 -45 25 -69 25c-51 0 -90 -40 -148 -40c-30 0 -57 12 -69 23l4 76c17 -17 36 -25 65 -25c51 0 81 40 148 40c35 0 56 -12 73 -23z" />
    <glyph glyph-name="Adieresis" unicode="&#xc4;" horiz-adv-x="616" 
d="M494 0l-55 165h-263l-55 -165h-116l239 676h127l240 -676h-117zM308 564l-103 -308h206zM214 748c-37 0 -64 18 -64 63c0 44 27 64 64 64c32 0 64 -20 64 -64c0 -45 -32 -63 -64 -63zM404 748c-37 0 -65 18 -65 63c0 44 28 64 65 64c32 0 64 -20 64 -64
c0 -45 -32 -63 -64 -63z" />
    <glyph glyph-name="Amacron" unicode="&#x100;" horiz-adv-x="616" 
d="M494 0l-55 165h-263l-55 -165h-116l239 676h127l240 -676h-117zM308 564l-103 -308h206zM164 851h290v-82h-290v82z" />
    <glyph glyph-name="Abreve" unicode="&#x102;" horiz-adv-x="616" 
d="M494 0l-55 165h-263l-55 -165h-116l239 676h127l240 -676h-117zM308 564l-103 -308h206zM386 890h68c0 -82 -52 -146 -147 -146c-92 0 -144 64 -144 146h66c5 -42 35 -72 78 -72c45 0 74 30 79 72z" />
    <glyph glyph-name="Aring" unicode="&#xc5;" horiz-adv-x="616" 
d="M494 0l-55 165h-263l-55 -165h-116l239 676h127l240 -676h-117zM308 564l-103 -308h206zM202 811c0 53 37 98 105 98c71 0 108 -45 108 -98c0 -50 -37 -97 -108 -97c-68 0 -105 47 -105 97zM261 811c0 -24 17 -44 46 -44c31 0 47 20 47 44s-16 44 -47 44
c-29 0 -46 -20 -46 -44z" />
    <glyph glyph-name="Aringacute" unicode="&#x1fa;" horiz-adv-x="616" 
d="M203 811c0 44 27 82 74 92l53 83h99l-67 -90c34 -16 54 -48 54 -85c0 -50 -38 -96 -108 -96c-67 0 -105 46 -105 96zM261 811c0 -25 17 -44 47 -44c32 0 49 19 49 44s-17 46 -49 46c-30 0 -47 -21 -47 -46zM494 0l-55 165h-263l-55 -165h-116l239 676h127l240 -676h-117z
M308 564l-103 -308h206z" />
    <glyph glyph-name="Aogonek" unicode="&#x104;" horiz-adv-x="615" 
d="M610 0l-71 -54c-20 -16 -32 -31 -32 -48c0 -19 14 -34 38 -34c17 0 44 11 65 26v-83c-24 -13 -52 -23 -93 -23c-69 0 -113 35 -113 93c0 40 21 70 59 101l29 24l-54 163h-263l-55 -165h-116l239 676h127zM307 564l-103 -308h206z" />
    <glyph glyph-name="AE" unicode="&#xc6;" horiz-adv-x="943" 
d="M274 254h201v318zM112 0h-117l446 676h456v-90h-313v-198h274v-90h-274v-212h316v-86h-425v166h-255z" />
    <glyph glyph-name="AEacute" unicode="&#x1fc;" horiz-adv-x="943" 
d="M652 900h104l-87 -160h-91zM274 254h201v318zM112 0h-117l446 676h456v-90h-313v-198h274v-90h-274v-212h316v-86h-425v166h-255z" />
    <glyph glyph-name="Cacute" unicode="&#x106;" horiz-adv-x="587" 
d="M159 337c0 -152 52 -253 178 -253c62 0 113 35 138 83l84 -54c-41 -73 -117 -123 -226 -123c-193 0 -287 131 -287 348s94 348 287 348c109 0 185 -50 226 -123l-84 -54c-25 48 -76 83 -138 83c-126 0 -178 -101 -178 -255zM354 900h104l-87 -160h-91z" />
    <glyph glyph-name="Ccircumflex" unicode="&#x108;" horiz-adv-x="587" 
d="M159 337c0 -152 52 -253 178 -253c62 0 113 35 138 83l84 -54c-41 -73 -117 -123 -226 -123c-193 0 -287 131 -287 348s94 348 287 348c109 0 185 -50 226 -123l-84 -54c-25 48 -76 83 -138 83c-126 0 -178 -101 -178 -255zM280 900h100l101 -160h-91l-60 95l-61 -95h-91
z" />
    <glyph glyph-name="Ccaron" unicode="&#x10c;" horiz-adv-x="587" 
d="M159 337c0 -152 52 -253 178 -253c62 0 113 35 138 83l84 -54c-41 -73 -117 -123 -226 -123c-193 0 -287 131 -287 348s94 348 287 348c109 0 185 -50 226 -123l-84 -54c-25 48 -76 83 -138 83c-126 0 -178 -101 -178 -255zM380 740h-100l-102 160h91l61 -95l60 95h91z
" />
    <glyph glyph-name="Cdotaccent" unicode="&#x10a;" horiz-adv-x="587" 
d="M159 337c0 -152 52 -253 178 -253c62 0 113 35 138 83l84 -54c-41 -73 -117 -123 -226 -123c-193 0 -287 131 -287 348s94 348 287 348c109 0 185 -50 226 -123l-84 -54c-25 48 -76 83 -138 83c-126 0 -178 -101 -178 -255zM330 748c-37 0 -65 18 -65 63
c0 44 28 64 65 64c33 0 64 -20 64 -64c0 -45 -31 -63 -64 -63z" />
    <glyph glyph-name="Ccedilla" unicode="&#xc7;" horiz-adv-x="588" 
d="M159 337c0 -152 52 -253 178 -253c62 0 113 35 138 83l84 -54c-38 -68 -107 -116 -205 -122l-16 -41c51 0 94 -21 94 -81c0 -50 -42 -85 -109 -85c-37 0 -67 10 -92 23v66c23 -17 56 -30 84 -30c25 0 37 11 37 26c0 21 -18 28 -49 28h-39l-5 6l31 89
c-164 18 -244 145 -244 346c0 217 94 348 287 348c109 0 185 -50 226 -123l-84 -54c-25 48 -76 83 -138 83c-126 0 -178 -101 -178 -255z" />
    <glyph glyph-name="Dcaron" unicode="&#x10e;" horiz-adv-x="652" 
d="M74 0v676h202c232 0 329 -101 329 -338c0 -235 -96 -338 -329 -338h-202zM183 90h87c170 0 223 65 223 248c0 179 -53 248 -223 248h-87v-496zM346 740h-100l-102 160h91l61 -95l60 95h91z" />
    <glyph glyph-name="Dcroat" unicode="&#x110;" horiz-adv-x="660" 
d="M19 381h63v295h202c232 0 329 -101 329 -338c0 -235 -96 -338 -329 -338h-202v308h-63v73zM191 90h87c170 0 223 65 223 248c0 179 -53 248 -223 248h-87v-205h113v-73h-113v-218z" />
    <glyph glyph-name="Eth" unicode="&#xd0;" horiz-adv-x="660" 
d="M19 381h63v295h202c232 0 329 -101 329 -338c0 -235 -96 -338 -329 -338h-202v308h-63v73zM191 90h87c170 0 223 65 223 248c0 179 -53 248 -223 248h-87v-205h113v-73h-113v-218z" />
    <glyph glyph-name="Egrave" unicode="&#xc8;" horiz-adv-x="542" 
d="M183 90h316v-90h-425v676h422v-90h-313v-198h274v-90h-274v-208zM162 900h104l74 -160h-91z" />
    <glyph glyph-name="Eacute" unicode="&#xc9;" horiz-adv-x="542" 
d="M183 90h316v-90h-425v676h422v-90h-313v-198h274v-90h-274v-208zM312 900h104l-87 -160h-91z" />
    <glyph glyph-name="Ecircumflex" unicode="&#xca;" horiz-adv-x="542" 
d="M183 90h316v-90h-425v676h422v-90h-313v-198h274v-90h-274v-208zM237 900h100l101 -160h-91l-60 95l-61 -95h-91z" />
    <glyph glyph-name="Ecaron" unicode="&#x11a;" horiz-adv-x="542" 
d="M183 90h316v-90h-425v676h422v-90h-313v-198h274v-90h-274v-208zM337 740h-100l-102 160h91l61 -95l60 95h91z" />
    <glyph glyph-name="Edieresis" unicode="&#xcb;" horiz-adv-x="542" 
d="M183 90h316v-90h-425v676h422v-90h-313v-198h274v-90h-274v-208zM192 748c-37 0 -64 18 -64 63c0 44 27 64 64 64c32 0 64 -20 64 -64c0 -45 -32 -63 -64 -63zM382 748c-37 0 -65 18 -65 63c0 44 28 64 65 64c32 0 64 -20 64 -64c0 -45 -32 -63 -64 -63z" />
    <glyph glyph-name="Emacron" unicode="&#x112;" horiz-adv-x="542" 
d="M183 90h316v-90h-425v676h422v-90h-313v-198h274v-90h-274v-208zM142 851h290v-82h-290v82z" />
    <glyph glyph-name="Ebreve" unicode="&#x114;" horiz-adv-x="542" 
d="M183 90h316v-90h-425v676h422v-90h-313v-198h274v-90h-274v-208zM364 890h68c0 -82 -52 -146 -147 -146c-92 0 -144 64 -144 146h66c5 -42 35 -72 78 -72c45 0 74 30 79 72z" />
    <glyph glyph-name="Edotaccent" unicode="&#x116;" horiz-adv-x="542" 
d="M183 90h316v-90h-425v676h422v-90h-313v-198h274v-90h-274v-208zM287 748c-37 0 -65 18 -65 63c0 44 28 64 65 64c33 0 64 -20 64 -64c0 -45 -31 -63 -64 -63z" />
    <glyph glyph-name="Eogonek" unicode="&#x118;" horiz-adv-x="541" 
d="M499 0l-71 -54c-20 -16 -32 -31 -32 -48c0 -19 14 -34 38 -34c17 0 44 11 65 26v-83c-24 -13 -52 -23 -93 -23c-69 0 -113 35 -113 93c0 40 21 70 59 101l27 22h-306v676h422v-90h-313v-198h274v-90h-274v-208h316v-90h1z" />
    <glyph glyph-name="Gcircumflex" unicode="&#x11c;" horiz-adv-x="644" 
d="M342 274v91h261c3 -19 5 -47 5 -58c0 -173 -75 -317 -270 -317c-190 0 -292 118 -292 348c0 228 101 348 305 348c105 0 181 -47 220 -119l-82 -54c-30 49 -71 79 -142 79c-137 0 -188 -92 -188 -254c0 -174 54 -255 179 -255c117 0 159 85 159 191h-155zM294 900h100
l101 -160h-91l-60 95l-61 -95h-91z" />
    <glyph glyph-name="Gbreve" unicode="&#x11e;" horiz-adv-x="644" 
d="M342 274v91h261c3 -19 5 -47 5 -58c0 -173 -75 -317 -270 -317c-190 0 -292 118 -292 348c0 228 101 348 305 348c105 0 181 -47 220 -119l-82 -54c-30 49 -71 79 -142 79c-137 0 -188 -92 -188 -254c0 -174 54 -255 179 -255c117 0 159 85 159 191h-155zM422 890h68
c0 -82 -52 -146 -147 -146c-92 0 -144 64 -144 146h66c5 -42 35 -72 78 -72c45 0 74 30 79 72z" />
    <glyph glyph-name="Gdotaccent" unicode="&#x120;" horiz-adv-x="644" 
d="M342 274v91h261c3 -19 5 -47 5 -58c0 -173 -75 -317 -270 -317c-190 0 -292 118 -292 348c0 228 101 348 305 348c105 0 181 -47 220 -119l-82 -54c-30 49 -71 79 -142 79c-137 0 -188 -92 -188 -254c0 -174 54 -255 179 -255c117 0 159 85 159 191h-155zM345 748
c-37 0 -65 18 -65 63c0 44 28 64 65 64c33 0 64 -20 64 -64c0 -45 -31 -63 -64 -63z" />
    <glyph glyph-name="Gcommaaccent" unicode="&#x122;" horiz-adv-x="644" 
d="M342 274v91h261c3 -19 5 -47 5 -58c0 -173 -75 -317 -270 -317c-190 0 -292 118 -292 348c0 228 101 348 305 348c105 0 181 -47 220 -119l-82 -54c-30 49 -71 79 -142 79c-137 0 -188 -92 -188 -254c0 -174 54 -255 179 -255c117 0 159 85 159 191h-155zM405 -65
l-58 -151h-77l26 151h109z" />
    <glyph glyph-name="Hcircumflex" unicode="&#x124;" horiz-adv-x="678" 
d="M496 397v279h108v-676h-108v307h-313v-307h-109v676h109v-279h313zM291 900h100l101 -160h-91l-60 95l-61 -95h-91z" />
    <glyph glyph-name="Hbar" unicode="&#x126;" horiz-adv-x="681" 
d="M30 576h45v100h109v-100h313v100h108v-100h50v-72h-50v-504h-108v307h-313v-307h-109v504h-45v72zM497 397v107h-313v-107h313z" />
    <glyph glyph-name="Igrave" unicode="&#xcc;" horiz-adv-x="258" 
d="M74 0v676h109v-676h-109zM-3 900h104l74 -160h-91z" />
    <glyph glyph-name="Iacute" unicode="&#xcd;" horiz-adv-x="258" 
d="M74 0v676h109v-676h-109zM158 900h104l-87 -160h-91z" />
    <glyph glyph-name="Ibreve" unicode="&#x12c;" horiz-adv-x="258" 
d="M74 0v676h109v-676h-109zM206 890h68c0 -82 -52 -146 -147 -146c-92 0 -144 64 -144 146h66c5 -42 35 -72 78 -72c45 0 74 30 79 72z" />
    <glyph glyph-name="Icircumflex" unicode="&#xce;" horiz-adv-x="258" 
d="M74 0v676h109v-676h-109zM78 900h100l101 -160h-91l-60 95l-61 -95h-91z" />
    <glyph glyph-name="Itilde" unicode="&#x128;" horiz-adv-x="258" 
d="M74 0v676h109v-676h-109zM273 848l-4 -76c-21 15 -45 25 -69 25c-51 0 -90 -40 -148 -40c-30 0 -57 12 -69 23l4 76c17 -17 36 -25 65 -25c51 0 81 40 148 40c35 0 56 -12 73 -23z" />
    <glyph glyph-name="Idieresis" unicode="&#xcf;" horiz-adv-x="258" 
d="M74 0v676h109v-676h-109zM34 748c-37 0 -64 18 -64 63c0 44 27 64 64 64c32 0 64 -20 64 -64c0 -45 -32 -63 -64 -63zM224 748c-37 0 -65 18 -65 63c0 44 28 64 65 64c32 0 64 -20 64 -64c0 -45 -32 -63 -64 -63z" />
    <glyph glyph-name="Imacron" unicode="&#x12a;" horiz-adv-x="258" 
d="M74 0v676h109v-676h-109zM-16 851h290v-82h-290v82z" />
    <glyph glyph-name="Idotaccent" unicode="&#x130;" horiz-adv-x="258" 
d="M74 0v676h109v-676h-109zM129 748c-37 0 -65 18 -65 63c0 44 28 64 65 64c33 0 64 -20 64 -64c0 -45 -31 -63 -64 -63z" />
    <glyph glyph-name="Iogonek" unicode="&#x12e;" horiz-adv-x="258" 
d="M183 0l-71 -54c-20 -16 -32 -31 -32 -48c0 -19 14 -34 38 -34c17 0 44 11 65 26v-83c-24 -13 -52 -23 -93 -23c-69 0 -113 35 -113 93c0 40 21 70 59 101l38 31v667h109v-676z" />
    <glyph glyph-name="Jcircumflex" unicode="&#x134;" horiz-adv-x="485" 
d="M18 97l78 51c22 -42 50 -64 102 -64c73 0 114 40 114 150v442h103v-447c0 -162 -83 -239 -217 -239c-91 0 -150 45 -180 107zM315 900h100l101 -160h-91l-60 95l-61 -95h-91z" />
    <glyph glyph-name="Kcommaaccent" unicode="&#x136;" horiz-adv-x="611" 
d="M277 319l-94 -97v-222h-109v676h109v-316l285 316h132l-249 -279l249 -397h-129zM346 -65l-58 -151h-77l26 151h109z" />
    <glyph glyph-name="Lacute" unicode="&#x139;" horiz-adv-x="479" 
d="M183 90h279v-90h-388v676h109v-586zM160 900h104l-87 -160h-91z" />
    <glyph glyph-name="Lcaron" unicode="&#x13d;" horiz-adv-x="529" 
d="M183 90h279v-90h-388v676h109v-586zM516 677l-58 -151h-77l26 151h109z" />
    <glyph glyph-name="Lcommaaccent" unicode="&#x13b;" horiz-adv-x="479" 
d="M183 90h279v-90h-388v676h109v-586zM323 -65l-58 -151h-77l26 151h109z" />
    <glyph glyph-name="Lslash" unicode="&#x141;" horiz-adv-x="502" 
d="M206 90h279v-90h-388v253l-78 -34v81l78 34v342h109v-295l90 39v-80l-90 -40v-210z" />
    <glyph glyph-name="Ldot" unicode="&#x13f;" horiz-adv-x="512" 
d="M183 90h279v-90h-388v676h109v-586zM386 309c-44 0 -75 30 -75 70c0 42 31 73 75 73c42 0 74 -31 74 -73c0 -40 -32 -70 -74 -70z" />
    <glyph glyph-name="Nacute" unicode="&#x143;" horiz-adv-x="679" 
d="M497 178v498h108v-676h-113l-309 503l1 -503h-110v676h116zM365 900h104l-87 -160h-91z" />
    <glyph glyph-name="Ncaron" unicode="&#x147;" horiz-adv-x="679" 
d="M497 178v498h108v-676h-113l-309 503l1 -503h-110v676h116zM391 740h-100l-102 160h91l61 -95l60 95h91z" />
    <glyph glyph-name="Ntilde" unicode="&#xd1;" horiz-adv-x="679" 
d="M497 178v498h108v-676h-113l-309 503l1 -503h-110v676h116zM486 848l-4 -76c-21 15 -45 25 -69 25c-51 0 -90 -40 -148 -40c-30 0 -57 12 -69 23l4 76c17 -17 36 -25 65 -25c51 0 81 40 148 40c35 0 56 -12 73 -23z" />
    <glyph glyph-name="Ncommaaccent" unicode="&#x145;" horiz-adv-x="679" 
d="M497 178v498h108v-676h-113l-309 503l1 -503h-110v676h116zM401 -65l-58 -151h-77l26 151h109z" />
    <glyph glyph-name="Ograve" unicode="&#xd2;" horiz-adv-x="657" 
d="M159 337c0 -150 36 -253 168 -253c134 0 171 103 171 253c0 151 -38 255 -169 255c-130 0 -170 -104 -170 -255zM610 337c0 -200 -78 -347 -283 -347s-281 147 -281 347s76 349 283 349c206 0 281 -149 281 -349zM202 900h104l74 -160h-91z" />
    <glyph glyph-name="Oacute" unicode="&#xd3;" horiz-adv-x="657" 
d="M159 337c0 -150 36 -253 168 -253c134 0 171 103 171 253c0 151 -38 255 -169 255c-130 0 -170 -104 -170 -255zM610 337c0 -200 -78 -347 -283 -347s-281 147 -281 347s76 349 283 349c206 0 281 -149 281 -349zM356 900h104l-87 -160h-91z" />
    <glyph glyph-name="Ocircumflex" unicode="&#xd4;" horiz-adv-x="657" 
d="M159 337c0 -150 36 -253 168 -253c134 0 171 103 171 253c0 151 -38 255 -169 255c-130 0 -170 -104 -170 -255zM610 337c0 -200 -78 -347 -283 -347s-281 147 -281 347s76 349 283 349c206 0 281 -149 281 -349zM279 900h100l101 -160h-91l-60 95l-61 -95h-91z" />
    <glyph glyph-name="Otilde" unicode="&#xd5;" horiz-adv-x="657" 
d="M159 337c0 -150 36 -253 168 -253c134 0 171 103 171 253c0 151 -38 255 -169 255c-130 0 -170 -104 -170 -255zM610 337c0 -200 -78 -347 -283 -347s-281 147 -281 347s76 349 283 349c206 0 281 -149 281 -349zM474 848l-4 -76c-21 15 -45 25 -69 25
c-51 0 -90 -40 -148 -40c-30 0 -57 12 -69 23l4 76c17 -17 36 -25 65 -25c51 0 81 40 148 40c35 0 56 -12 73 -23z" />
    <glyph glyph-name="Odieresis" unicode="&#xd6;" horiz-adv-x="657" 
d="M159 337c0 -150 36 -253 168 -253c134 0 171 103 171 253c0 151 -38 255 -169 255c-130 0 -170 -104 -170 -255zM610 337c0 -200 -78 -347 -283 -347s-281 147 -281 347s76 349 283 349c206 0 281 -149 281 -349zM234 748c-37 0 -64 18 -64 63c0 44 27 64 64 64
c32 0 64 -20 64 -64c0 -45 -32 -63 -64 -63zM424 748c-37 0 -65 18 -65 63c0 44 28 64 65 64c32 0 64 -20 64 -64c0 -45 -32 -63 -64 -63z" />
    <glyph glyph-name="Omacron" unicode="&#x14c;" horiz-adv-x="657" 
d="M159 337c0 -150 36 -253 168 -253c134 0 171 103 171 253c0 151 -38 255 -169 255c-130 0 -170 -104 -170 -255zM610 337c0 -200 -78 -347 -283 -347s-281 147 -281 347s76 349 283 349c206 0 281 -149 281 -349zM184 851h290v-82h-290v82z" />
    <glyph glyph-name="Obreve" unicode="&#x14e;" horiz-adv-x="657" 
d="M159 337c0 -150 36 -253 168 -253c134 0 171 103 171 253c0 151 -38 255 -169 255c-130 0 -170 -104 -170 -255zM610 337c0 -200 -78 -347 -283 -347s-281 147 -281 347s76 349 283 349c206 0 281 -149 281 -349zM407 890h68c0 -82 -52 -146 -147 -146
c-92 0 -144 64 -144 146h66c5 -42 35 -72 78 -72c45 0 74 30 79 72z" />
    <glyph glyph-name="Ohungarumlaut" unicode="&#x150;" horiz-adv-x="657" 
d="M159 337c0 -150 36 -253 168 -253c134 0 171 103 171 253c0 151 -38 255 -169 255c-130 0 -170 -104 -170 -255zM610 337c0 -200 -78 -347 -283 -347s-281 147 -281 347s76 349 283 349c206 0 281 -149 281 -349zM269 900h104l-87 -160h-91zM439 900h104l-87 -160h-91z
" />
    <glyph glyph-name="Oslash" unicode="&#xd8;" horiz-adv-x="659" 
d="M611 337c0 -200 -78 -347 -283 -347c-75 0 -132 19 -175 53l-33 -43h-91l75 98c-40 61 -57 144 -57 239c0 200 76 349 283 349c76 0 135 -20 178 -56l35 46h93l-79 -104c38 -61 54 -142 54 -235zM160 337c0 -55 5 -103 17 -142l268 352c-26 29 -64 45 -115 45
c-130 0 -170 -104 -170 -255zM499 337c0 52 -5 99 -16 138l-267 -350c25 -26 62 -41 112 -41c134 0 171 103 171 253z" />
    <glyph glyph-name="Oslashacute" unicode="&#x1fe;" horiz-adv-x="659" 
d="M352 900h99l-83 -159h-87zM611 337c0 -200 -78 -347 -283 -347c-75 0 -132 19 -175 53l-33 -43h-91l75 98c-40 61 -57 144 -57 239c0 200 76 349 283 349c76 0 135 -20 178 -56l35 46h93l-79 -104c38 -61 54 -142 54 -235zM160 337c0 -55 5 -103 17 -142l268 352
c-26 29 -64 45 -115 45c-130 0 -170 -104 -170 -255zM499 337c0 52 -5 99 -16 138l-267 -350c25 -26 62 -41 112 -41c134 0 171 103 171 253z" />
    <glyph glyph-name="OE" unicode="&#x152;" horiz-adv-x="882" 
d="M524 90h316v-90h-425c-25 -6 -56 -10 -88 -10c-205 0 -281 147 -281 347s76 349 283 349c31 0 61 -4 87 -10h421v-90h-313v-198h274v-90h-274v-208zM327 84c33 0 64 5 88 15v476c-25 11 -54 17 -86 17c-130 0 -170 -104 -170 -255c0 -150 36 -253 168 -253z" />
    <glyph glyph-name="Racute" unicode="&#x154;" horiz-adv-x="599" 
d="M74 0v676h245c158 0 239 -74 239 -194c0 -97 -60 -165 -166 -186l181 -296h-123l-169 286h-98l1 -286h-110zM445 482c0 64 -33 104 -136 104h-126v-210h126c103 0 136 39 136 106zM308 900h104l-87 -160h-91z" />
    <glyph glyph-name="Rcaron" unicode="&#x158;" horiz-adv-x="599" 
d="M74 0v676h245c158 0 239 -74 239 -194c0 -97 -60 -165 -166 -186l181 -296h-123l-169 286h-98l1 -286h-110zM445 482c0 64 -33 104 -136 104h-126v-210h126c103 0 136 39 136 106zM334 740h-100l-102 160h91l61 -95l60 95h91z" />
    <glyph glyph-name="Rcommaaccent" unicode="&#x156;" horiz-adv-x="599" 
d="M74 0v676h245c158 0 239 -74 239 -194c0 -97 -60 -165 -166 -186l181 -296h-123l-169 286h-98l1 -286h-110zM445 482c0 64 -33 104 -136 104h-126v-210h126c103 0 136 39 136 106zM347 -65l-58 -151h-77l26 151h109z" />
    <glyph glyph-name="Sacute" unicode="&#x15a;" horiz-adv-x="544" 
d="M496 586l-77 -60c-27 41 -72 66 -137 66c-75 0 -113 -43 -113 -101c0 -48 26 -74 83 -92l88 -26c111 -34 163 -91 163 -181c0 -125 -94 -203 -236 -203c-151 0 -210 72 -237 126l77 60c24 -49 60 -92 160 -92c81 0 124 41 124 101c0 51 -33 77 -89 94l-88 26
c-110 34 -158 95 -158 181c0 104 68 201 226 201c113 0 180 -48 214 -100zM300 900h104l-87 -160h-91z" />
    <glyph glyph-name="Scircumflex" unicode="&#x15c;" horiz-adv-x="544" 
d="M496 586l-77 -60c-27 41 -72 66 -137 66c-75 0 -113 -43 -113 -101c0 -48 26 -74 83 -92l88 -26c111 -34 163 -91 163 -181c0 -125 -94 -203 -236 -203c-151 0 -210 72 -237 126l77 60c24 -49 60 -92 160 -92c81 0 124 41 124 101c0 51 -33 77 -89 94l-88 26
c-110 34 -158 95 -158 181c0 104 68 201 226 201c113 0 180 -48 214 -100zM225 900h100l101 -160h-91l-60 95l-61 -95h-91z" />
    <glyph glyph-name="Scaron" unicode="&#x160;" horiz-adv-x="544" 
d="M496 586l-77 -60c-27 41 -72 66 -137 66c-75 0 -113 -43 -113 -101c0 -48 26 -74 83 -92l88 -26c111 -34 163 -91 163 -181c0 -125 -94 -203 -236 -203c-151 0 -210 72 -237 126l77 60c24 -49 60 -92 160 -92c81 0 124 41 124 101c0 51 -33 77 -89 94l-88 26
c-110 34 -158 95 -158 181c0 104 68 201 226 201c113 0 180 -48 214 -100zM324 740h-100l-102 160h91l61 -95l60 95h91z" />
    <glyph glyph-name="Scedilla" unicode="&#x15e;" horiz-adv-x="544" 
d="M496 586l-77 -60c-27 41 -72 66 -137 66c-75 0 -113 -43 -113 -101c0 -48 26 -74 83 -92l88 -26c111 -34 163 -91 163 -181c0 -117 -82 -192 -209 -202l-16 -40c51 0 94 -21 94 -81c0 -50 -42 -85 -109 -85c-37 0 -67 10 -92 23v66c23 -17 56 -30 84 -30
c25 0 37 11 37 26c0 21 -18 28 -49 28h-39l-5 6l30 88c-123 10 -175 74 -199 124l77 60c24 -49 60 -92 160 -92c81 0 124 41 124 101c0 51 -33 77 -89 94l-88 26c-110 34 -158 95 -158 181c0 104 68 201 226 201c113 0 180 -48 214 -100z" />
    <glyph glyph-name="Scommaaccent" unicode="&#x218;" horiz-adv-x="544" 
d="M496 586l-77 -60c-27 41 -72 66 -137 66c-75 0 -113 -43 -113 -101c0 -48 26 -74 83 -92l88 -26c111 -34 163 -91 163 -181c0 -125 -94 -203 -236 -203c-151 0 -210 72 -237 126l77 60c24 -49 60 -92 160 -92c81 0 124 41 124 101c0 51 -33 77 -89 94l-88 26
c-110 34 -158 95 -158 181c0 104 68 201 226 201c113 0 180 -48 214 -100zM334 -65l-58 -151h-77l26 151h109z" />
    <glyph glyph-name="Tcaron" unicode="&#x164;" horiz-adv-x="543" 
d="M29 676h484v-90h-187v-586h-109v586h-188v90zM324 740h-100l-102 160h91l61 -95l60 95h91z" />
    <glyph glyph-name="Tcommaaccent" unicode="&#x162;" horiz-adv-x="543" 
d="M29 676h484v-90h-187v-586h-21l-20 -50c51 0 94 -21 94 -81c0 -50 -42 -85 -109 -85c-37 0 -67 10 -92 23v66c23 -17 56 -30 84 -30c25 0 37 11 37 26c0 21 -18 28 -49 28h-39l-5 6l33 97h-22v586h-188v90z" />
    <glyph glyph-name="uni021A" unicode="&#x21a;" horiz-adv-x="542" 
d="M29 676h484v-90h-187v-586h-109v586h-188v90zM324 -65l-58 -151h-77l26 151h109z" />
    <glyph glyph-name="Tbar" unicode="&#x166;" horiz-adv-x="546" 
d="M130 367h89v219h-188v90h484v-90h-187v-219h87v-73h-87v-294h-109v294h-89v73z" />
    <glyph glyph-name="Thorn" unicode="&#xde;" horiz-adv-x="568" 
d="M300 130h-117v-130h-109v677h109v-127h117c157 0 236 -78 236 -210c0 -131 -79 -210 -236 -210zM183 460v-240h110c97 0 130 49 130 120s-33 120 -130 120h-110z" />
    <glyph glyph-name="Ugrave" unicode="&#xd9;" horiz-adv-x="647" 
d="M324 -10c-151 0 -255 76 -255 265v421h109v-420c0 -120 48 -172 146 -172c97 0 146 51 146 172v420h109v-421c0 -189 -106 -265 -255 -265zM193 900h104l74 -160h-91z" />
    <glyph glyph-name="Uacute" unicode="&#xda;" horiz-adv-x="647" 
d="M324 -10c-151 0 -255 76 -255 265v421h109v-420c0 -120 48 -172 146 -172c97 0 146 51 146 172v420h109v-421c0 -189 -106 -265 -255 -265zM351 900h104l-87 -160h-91z" />
    <glyph glyph-name="Ucircumflex" unicode="&#xdb;" horiz-adv-x="647" 
d="M324 -10c-151 0 -255 76 -255 265v421h109v-420c0 -120 48 -172 146 -172c97 0 146 51 146 172v420h109v-421c0 -189 -106 -265 -255 -265zM273 900h100l101 -160h-91l-60 95l-61 -95h-91z" />
    <glyph glyph-name="Utilde" unicode="&#x168;" horiz-adv-x="647" 
d="M324 -10c-151 0 -255 76 -255 265v421h109v-420c0 -120 48 -172 146 -172c97 0 146 51 146 172v420h109v-421c0 -189 -106 -265 -255 -265zM468 848l-4 -76c-21 15 -45 25 -69 25c-51 0 -90 -40 -148 -40c-30 0 -57 12 -69 23l4 76c17 -17 36 -25 65 -25
c51 0 81 40 148 40c35 0 56 -12 73 -23z" />
    <glyph glyph-name="Udieresis" unicode="&#xdc;" horiz-adv-x="647" 
d="M324 -10c-151 0 -255 76 -255 265v421h109v-420c0 -120 48 -172 146 -172c97 0 146 51 146 172v420h109v-421c0 -189 -106 -265 -255 -265zM229 748c-37 0 -64 18 -64 63c0 44 27 64 64 64c32 0 64 -20 64 -64c0 -45 -32 -63 -64 -63zM419 748c-37 0 -65 18 -65 63
c0 44 28 64 65 64c32 0 64 -20 64 -64c0 -45 -32 -63 -64 -63z" />
    <glyph glyph-name="Umacron" unicode="&#x16a;" horiz-adv-x="647" 
d="M324 -10c-151 0 -255 76 -255 265v421h109v-420c0 -120 48 -172 146 -172c97 0 146 51 146 172v420h109v-421c0 -189 -106 -265 -255 -265zM179 851h290v-82h-290v82z" />
    <glyph glyph-name="Ubreve" unicode="&#x16c;" horiz-adv-x="647" 
d="M324 -10c-151 0 -255 76 -255 265v421h109v-420c0 -120 48 -172 146 -172c97 0 146 51 146 172v420h109v-421c0 -189 -106 -265 -255 -265zM401 890h68c0 -82 -52 -146 -147 -146c-92 0 -144 64 -144 146h66c5 -42 35 -72 78 -72c45 0 74 30 79 72z" />
    <glyph glyph-name="Uring" unicode="&#x16e;" horiz-adv-x="647" 
d="M324 -10c-151 0 -255 76 -255 265v421h109v-420c0 -120 48 -172 146 -172c97 0 146 51 146 172v420h109v-421c0 -189 -106 -265 -255 -265zM217 825c0 53 37 98 105 98c71 0 108 -45 108 -98c0 -50 -37 -97 -108 -97c-68 0 -105 47 -105 97zM276 825c0 -24 17 -44 46 -44
c31 0 47 20 47 44s-16 44 -47 44c-29 0 -46 -20 -46 -44z" />
    <glyph glyph-name="Uhungarumlaut" unicode="&#x170;" horiz-adv-x="647" 
d="M324 -10c-151 0 -255 76 -255 265v421h109v-420c0 -120 48 -172 146 -172c97 0 146 51 146 172v420h109v-421c0 -189 -106 -265 -255 -265zM266 900h104l-87 -160h-91zM436 900h104l-87 -160h-91z" />
    <glyph glyph-name="Uogonek" unicode="&#x172;" horiz-adv-x="647" 
d="M579 255c0 -162 -78 -241 -194 -260l-64 -49c-20 -16 -32 -31 -32 -48c0 -19 14 -34 38 -34c17 0 44 11 65 26v-83c-24 -13 -52 -23 -93 -23c-69 0 -113 35 -113 93c0 40 21 70 59 101l20 17c-119 18 -196 97 -196 260v421h109v-420c0 -120 48 -172 146 -172
c97 0 146 51 146 172v420h109v-421z" />
    <glyph glyph-name="Wacute" unicode="&#x1e82;" horiz-adv-x="968" 
d="M422 676h124l150 -553l143 553h113l-185 -676h-134l-149 528l-149 -528h-133l-186 676h113l144 -553zM513 900h104l-87 -160h-91z" />
    <glyph glyph-name="Wcircumflex" unicode="&#x174;" horiz-adv-x="968" 
d="M422 676h124l150 -553l143 553h113l-185 -676h-134l-149 528l-149 -528h-133l-186 676h113l144 -553zM435 900h100l101 -160h-91l-60 95l-61 -95h-91z" />
    <glyph glyph-name="Wdieresis" unicode="&#x1e84;" horiz-adv-x="968" 
d="M422 676h124l150 -553l143 553h113l-185 -676h-134l-149 528l-149 -528h-133l-186 676h113l144 -553zM390 748c-37 0 -64 18 -64 63c0 44 27 64 64 64c32 0 64 -20 64 -64c0 -45 -32 -63 -64 -63zM580 748c-37 0 -65 18 -65 63c0 44 28 64 65 64c32 0 64 -20 64 -64
c0 -45 -32 -63 -64 -63z" />
    <glyph glyph-name="Wgrave" unicode="&#x1e80;" horiz-adv-x="968" 
d="M422 676h124l150 -553l143 553h113l-185 -676h-134l-149 528l-149 -528h-133l-186 676h113l144 -553zM353 900h104l74 -160h-91z" />
    <glyph glyph-name="Yacute" unicode="&#xdd;" horiz-adv-x="583" 
d="M346 0h-109v266l-230 410h120l165 -311l163 311h121l-230 -410v-266zM318 900h104l-87 -160h-91z" />
    <glyph glyph-name="Ycircumflex" unicode="&#x176;" horiz-adv-x="583" 
d="M346 0h-109v266l-230 410h120l165 -311l163 311h121l-230 -410v-266zM242 900h100l101 -160h-91l-60 95l-61 -95h-91z" />
    <glyph glyph-name="Ydieresis" unicode="&#x178;" horiz-adv-x="583" 
d="M346 0h-109v266l-230 410h120l165 -311l163 311h121l-230 -410v-266zM197 748c-37 0 -64 18 -64 63c0 44 27 64 64 64c32 0 64 -20 64 -64c0 -45 -32 -63 -64 -63zM387 748c-37 0 -65 18 -65 63c0 44 28 64 65 64c32 0 64 -20 64 -64c0 -45 -32 -63 -64 -63z" />
    <glyph glyph-name="Ygrave" unicode="&#x1ef2;" horiz-adv-x="583" 
d="M346 0h-109v266l-230 410h120l165 -311l163 311h121l-230 -410v-266zM165 900h104l74 -160h-91z" />
    <glyph glyph-name="Zacute" unicode="&#x179;" horiz-adv-x="519" 
d="M474 676v-80l-313 -506h322v-90h-450v78l313 508h-297v90h425zM290 900h104l-87 -160h-91z" />
    <glyph glyph-name="Zcaron" unicode="&#x17d;" horiz-adv-x="519" 
d="M474 676v-80l-313 -506h322v-90h-450v78l313 508h-297v90h425zM311 740h-100l-102 160h91l61 -95l60 95h91z" />
    <glyph glyph-name="Zdotaccent" unicode="&#x17b;" horiz-adv-x="519" 
d="M474 676v-80l-313 -506h322v-90h-450v78l313 508h-297v90h425zM261 748c-37 0 -65 18 -65 63c0 44 28 64 65 64c33 0 64 -20 64 -64c0 -45 -31 -63 -64 -63z" />
    <glyph glyph-name="agrave" unicode="&#xe0;" horiz-adv-x="471" 
d="M414 0h-94v55c-29 -33 -77 -66 -149 -66c-83 0 -137 50 -137 131c0 97 85 140 216 150l64 7v36c0 46 -20 72 -84 72c-56 0 -83 -20 -83 -49v-22h-88c-1 10 -2 21 -2 31c0 71 64 121 179 121c111 0 178 -48 178 -152v-314zM137 126c0 -38 23 -58 68 -58c44 0 84 21 109 47
v98l-63 -9c-73 -10 -114 -32 -114 -78zM118 696h104l74 -160h-91z" />
    <glyph glyph-name="aacute" unicode="&#xe1;" horiz-adv-x="471" 
d="M414 0h-94v55c-29 -33 -77 -66 -149 -66c-83 0 -137 50 -137 131c0 97 85 140 216 150l64 7v36c0 46 -20 72 -84 72c-56 0 -83 -20 -83 -49v-22h-88c-1 10 -2 21 -2 31c0 71 64 121 179 121c111 0 178 -48 178 -152v-314zM137 126c0 -38 23 -58 68 -58c44 0 84 21 109 47
v98l-63 -9c-73 -10 -114 -32 -114 -78zM269 696h104l-87 -160h-91z" />
    <glyph glyph-name="acircumflex" unicode="&#xe2;" horiz-adv-x="471" 
d="M414 0h-94v55c-29 -33 -77 -66 -149 -66c-83 0 -137 50 -137 131c0 97 85 140 216 150l64 7v36c0 46 -20 72 -84 72c-56 0 -83 -20 -83 -49v-22h-88c-1 10 -2 21 -2 31c0 71 64 121 179 121c111 0 178 -48 178 -152v-314zM137 126c0 -38 23 -58 68 -58c44 0 84 21 109 47
v98l-63 -9c-73 -10 -114 -32 -114 -78zM192 696h100l101 -160h-91l-60 95l-61 -95h-91z" />
    <glyph glyph-name="atilde" unicode="&#xe3;" horiz-adv-x="471" 
d="M414 0h-94v55c-29 -33 -77 -66 -149 -66c-83 0 -137 50 -137 131c0 97 85 140 216 150l64 7v36c0 46 -20 72 -84 72c-56 0 -83 -20 -83 -49v-22h-88c-1 10 -2 21 -2 31c0 71 64 121 179 121c111 0 178 -48 178 -152v-314zM137 126c0 -38 23 -58 68 -58c44 0 84 21 109 47
v98l-63 -9c-73 -10 -114 -32 -114 -78zM388 644l-4 -76c-21 15 -45 25 -69 25c-51 0 -90 -40 -148 -40c-30 0 -57 12 -69 23l4 76c17 -17 36 -25 65 -25c51 0 81 40 148 40c35 0 56 -12 73 -23z" />
    <glyph glyph-name="adieresis" unicode="&#xe4;" horiz-adv-x="471" 
d="M414 0h-94v55c-29 -33 -77 -66 -149 -66c-83 0 -137 50 -137 131c0 97 85 140 216 150l64 7v36c0 46 -20 72 -84 72c-56 0 -83 -20 -83 -49v-22h-88c-1 10 -2 21 -2 31c0 71 64 121 179 121c111 0 178 -48 178 -152v-314zM137 126c0 -38 23 -58 68 -58c44 0 84 21 109 47
v98l-63 -9c-73 -10 -114 -32 -114 -78zM148 544c-37 0 -64 18 -64 63c0 44 27 64 64 64c32 0 64 -20 64 -64c0 -45 -32 -63 -64 -63zM338 544c-37 0 -65 18 -65 63c0 44 28 64 65 64c32 0 64 -20 64 -64c0 -45 -32 -63 -64 -63z" />
    <glyph glyph-name="amacron" unicode="&#x101;" horiz-adv-x="471" 
d="M414 0h-94v55c-29 -33 -77 -66 -149 -66c-83 0 -137 50 -137 131c0 97 85 140 216 150l64 7v36c0 46 -20 72 -84 72c-56 0 -83 -20 -83 -49v-22h-88c-1 10 -2 21 -2 31c0 71 64 121 179 121c111 0 178 -48 178 -152v-314zM137 126c0 -38 23 -58 68 -58c44 0 84 21 109 47
v98l-63 -9c-73 -10 -114 -32 -114 -78zM98 647h290v-82h-290v82z" />
    <glyph glyph-name="abreve" unicode="&#x103;" horiz-adv-x="471" 
d="M414 0h-94v55c-29 -33 -77 -66 -149 -66c-83 0 -137 50 -137 131c0 97 85 140 216 150l64 7v36c0 46 -20 72 -84 72c-56 0 -83 -20 -83 -49v-22h-88c-1 10 -2 21 -2 31c0 71 64 121 179 121c111 0 178 -48 178 -152v-314zM137 126c0 -38 23 -58 68 -58c44 0 84 21 109 47
v98l-63 -9c-73 -10 -114 -32 -114 -78zM319 686h68c0 -82 -52 -146 -147 -146c-92 0 -144 64 -144 146h66c5 -42 35 -72 78 -72c45 0 74 30 79 72z" />
    <glyph glyph-name="aring" unicode="&#xe5;" horiz-adv-x="471" 
d="M414 0h-94v55c-29 -33 -77 -66 -149 -66c-83 0 -137 50 -137 131c0 97 85 140 216 150l64 7v36c0 46 -20 72 -84 72c-56 0 -83 -20 -83 -49v-22h-88c-1 10 -2 21 -2 31c0 71 64 121 179 121c111 0 178 -48 178 -152v-314zM137 126c0 -38 23 -58 68 -58c44 0 84 21 109 47
v98l-63 -9c-73 -10 -114 -32 -114 -78zM137 621c0 53 37 98 105 98c71 0 108 -45 108 -98c0 -50 -37 -97 -108 -97c-68 0 -105 47 -105 97zM196 621c0 -24 17 -44 46 -44c31 0 47 20 47 44s-16 44 -47 44c-29 0 -46 -20 -46 -44z" />
    <glyph glyph-name="aringacute" unicode="&#x1fb;" horiz-adv-x="471" 
d="M137 611c0 47 30 86 83 95l43 74h97l-65 -84c35 -16 55 -48 55 -85c0 -51 -38 -96 -108 -96c-67 0 -105 45 -105 96zM195 611c0 -25 17 -44 47 -44c32 0 49 19 49 44s-17 46 -49 46c-30 0 -47 -21 -47 -46zM414 0h-94v55c-29 -33 -77 -66 -149 -66
c-83 0 -137 50 -137 131c0 97 85 140 216 150l64 7v36c0 46 -20 72 -84 72c-56 0 -83 -20 -83 -49v-22h-88c-1 10 -2 21 -2 31c0 71 64 121 179 121c111 0 178 -48 178 -152v-314zM137 126c0 -38 23 -58 68 -58c44 0 84 21 109 47v98l-63 -9c-73 -10 -114 -32 -114 -78z" />
    <glyph glyph-name="aogonek" unicode="&#x105;" horiz-adv-x="471" 
d="M413 0h1l-78 -53c-20 -14 -27 -28 -27 -44c0 -18 13 -28 33 -28c29 0 48 10 57 15l5 -68c-9 -5 -30 -14 -57 -17c-12 -1 -24 -1 -36 1c-62 4 -97 31 -97 79c0 35 18 65 53 86l52 33v51c-29 -33 -77 -66 -149 -66c-83 0 -137 50 -137 131c0 97 85 140 216 150l64 7v36
c0 46 -20 72 -84 72c-56 0 -83 -20 -83 -49v-22h-88c-1 10 -2 21 -2 31c0 71 64 121 179 121c111 0 178 -48 178 -152v-314zM136 126c0 -38 23 -58 68 -58c44 0 84 21 109 47v98l-63 -9c-73 -10 -114 -32 -114 -78z" />
    <glyph glyph-name="ae" unicode="&#xe6;" horiz-adv-x="746" 
d="M532 76c38 0 84 14 118 45l48 -66c-32 -35 -95 -66 -166 -66c-82 0 -136 28 -170 76c-38 -43 -97 -76 -179 -76c-96 0 -149 50 -149 131c0 97 84 140 215 150l64 7v36c0 46 -19 72 -84 72c-55 0 -82 -20 -82 -49v-22h-88c-2 10 -3 21 -3 31c0 71 65 121 179 121
c70 0 119 -20 146 -61c31 38 77 61 140 61c134 0 187 -97 187 -195c0 -23 -2 -56 -6 -75h-286c2 -73 38 -120 116 -120zM136 126c0 -38 24 -58 68 -58s84 21 109 47v98l-62 -9c-74 -10 -115 -32 -115 -78zM416 270h197c1 6 1 13 1 17c0 61 -38 97 -93 97
c-71 0 -100 -50 -105 -114z" />
    <glyph glyph-name="aeacute" unicode="&#x1fd;" horiz-adv-x="746" 
d="M413 696h104l-87 -160h-91zM532 76c38 0 84 14 118 45l48 -66c-32 -35 -95 -66 -166 -66c-82 0 -136 28 -170 76c-38 -43 -97 -76 -179 -76c-96 0 -149 50 -149 131c0 97 84 140 215 150l64 7v36c0 46 -19 72 -84 72c-55 0 -82 -20 -82 -49v-22h-88c-2 10 -3 21 -3 31
c0 71 65 121 179 121c70 0 119 -20 146 -61c31 38 77 61 140 61c134 0 187 -97 187 -195c0 -23 -2 -56 -6 -75h-286c2 -73 38 -120 116 -120zM136 126c0 -38 24 -58 68 -58s84 21 109 47v98l-62 -9c-74 -10 -115 -32 -115 -78zM416 270h197c1 6 1 13 1 17
c0 61 -38 97 -93 97c-71 0 -100 -50 -105 -114z" />
    <glyph glyph-name="cacute" unicode="&#x107;" horiz-adv-x="448" 
d="M39 228c0 130 61 238 207 238c81 0 144 -33 177 -97l-72 -51c-21 37 -52 59 -98 59c-81 0 -111 -63 -111 -149s30 -149 111 -149c46 0 78 22 99 58l71 -51c-32 -64 -96 -97 -177 -97c-146 0 -207 107 -207 239zM274 696h104l-87 -160h-91z" />
    <glyph glyph-name="ccircumflex" unicode="&#x109;" horiz-adv-x="448" 
d="M39 228c0 130 61 238 207 238c81 0 144 -33 177 -97l-72 -51c-21 37 -52 59 -98 59c-81 0 -111 -63 -111 -149s30 -149 111 -149c46 0 78 22 99 58l71 -51c-32 -64 -96 -97 -177 -97c-146 0 -207 107 -207 239zM201 696h100l101 -160h-91l-60 95l-61 -95h-91z" />
    <glyph glyph-name="ccaron" unicode="&#x10d;" horiz-adv-x="448" 
d="M39 228c0 130 61 238 207 238c81 0 144 -33 177 -97l-72 -51c-21 37 -52 59 -98 59c-81 0 -111 -63 -111 -149s30 -149 111 -149c46 0 78 22 99 58l71 -51c-32 -64 -96 -97 -177 -97c-146 0 -207 107 -207 239zM303 536h-100l-102 160h91l61 -95l60 95h91z" />
    <glyph glyph-name="cdotaccent" unicode="&#x10b;" horiz-adv-x="448" 
d="M39 228c0 130 61 238 207 238c81 0 144 -33 177 -97l-72 -51c-21 37 -52 59 -98 59c-81 0 -111 -63 -111 -149s30 -149 111 -149c46 0 78 22 99 58l71 -51c-32 -64 -96 -97 -177 -97c-146 0 -207 107 -207 239zM255 544c-37 0 -65 18 -65 63c0 44 28 64 65 64
c33 0 64 -20 64 -64c0 -45 -31 -63 -64 -63z" />
    <glyph glyph-name="ccedilla" unicode="&#xe7;" horiz-adv-x="448" 
d="M39 228c0 130 61 238 207 238c81 0 144 -33 177 -97l-72 -51c-21 37 -52 59 -98 59c-81 0 -111 -63 -111 -149s30 -149 111 -149c46 0 78 22 99 58l71 -51c-29 -58 -83 -90 -152 -96l-16 -40c51 0 94 -21 94 -81c0 -50 -42 -85 -109 -85c-37 0 -67 10 -92 23v66
c23 -17 56 -30 84 -30c25 0 37 11 37 26c0 21 -18 28 -49 28h-39l-5 6l30 89c-117 17 -167 116 -167 236z" />
    <glyph glyph-name="dcaron" unicode="&#x10f;" horiz-adv-x="518" 
d="M356 418v272h101v-690h-96v40c-27 -28 -72 -51 -130 -51c-126 0 -190 90 -190 240c0 147 64 237 191 237c60 0 102 -24 124 -48zM143 229c0 -83 27 -147 113 -147c49 0 82 20 100 43v205c-17 20 -49 43 -99 43c-87 0 -114 -60 -114 -144zM634 690l-58 -151h-77l26 151
h109z" />
    <glyph glyph-name="dcroat" unicode="&#x111;" horiz-adv-x="518" 
d="M261 600h95v90h101v-90h63v-73h-63v-527h-96v40c-27 -28 -72 -51 -130 -51c-126 0 -190 90 -190 240c0 147 64 237 191 237c60 0 102 -24 124 -48v109h-95v73zM143 229c0 -83 27 -147 113 -147c49 0 82 20 100 43v205c-17 20 -49 43 -99 43c-87 0 -114 -60 -114 -144z
" />
    <glyph glyph-name="eth" unicode="&#xf0;" horiz-adv-x="525" 
d="M209 690h123c21 -19 40 -42 58 -67l63 27l26 -62l-54 -24c34 -70 56 -155 56 -250c0 -167 -56 -325 -226 -325c-146 0 -216 95 -216 231c0 135 73 227 194 227c79 0 126 -41 150 -84c-1 55 -18 111 -45 163l-76 -34l-27 64l68 29c-28 40 -60 75 -94 105zM255 77
c90 0 119 91 121 184c-21 48 -61 91 -125 91c-77 0 -112 -55 -112 -137c0 -74 32 -138 116 -138z" />
    <glyph glyph-name="egrave" unicode="&#xe8;" horiz-adv-x="471" 
d="M256 76c39 0 84 14 119 45l48 -66c-32 -35 -95 -66 -167 -66c-153 0 -217 100 -217 239c0 131 68 238 207 238c134 0 187 -97 187 -195c0 -23 -2 -56 -7 -75h-285c2 -73 38 -120 115 -120zM141 270h197c1 6 1 13 1 17c0 61 -38 97 -93 97c-72 0 -101 -50 -105 -114z
M125 696h104l74 -160h-91z" />
    <glyph glyph-name="eacute" unicode="&#xe9;" horiz-adv-x="471" 
d="M256 76c39 0 84 14 119 45l48 -66c-32 -35 -95 -66 -167 -66c-153 0 -217 100 -217 239c0 131 68 238 207 238c134 0 187 -97 187 -195c0 -23 -2 -56 -7 -75h-285c2 -73 38 -120 115 -120zM141 270h197c1 6 1 13 1 17c0 61 -38 97 -93 97c-72 0 -101 -50 -105 -114z
M269 696h104l-87 -160h-91z" />
    <glyph glyph-name="ecircumflex" unicode="&#xea;" horiz-adv-x="471" 
d="M256 76c39 0 84 14 119 45l48 -66c-32 -35 -95 -66 -167 -66c-153 0 -217 100 -217 239c0 131 68 238 207 238c134 0 187 -97 187 -195c0 -23 -2 -56 -7 -75h-285c2 -73 38 -120 115 -120zM141 270h197c1 6 1 13 1 17c0 61 -38 97 -93 97c-72 0 -101 -50 -105 -114z
M198 696h100l101 -160h-91l-60 95l-61 -95h-91z" />
    <glyph glyph-name="ecaron" unicode="&#x11b;" horiz-adv-x="471" 
d="M256 76c39 0 84 14 119 45l48 -66c-32 -35 -95 -66 -167 -66c-153 0 -217 100 -217 239c0 131 68 238 207 238c134 0 187 -97 187 -195c0 -23 -2 -56 -7 -75h-285c2 -73 38 -120 115 -120zM141 270h197c1 6 1 13 1 17c0 61 -38 97 -93 97c-72 0 -101 -50 -105 -114z
M299 536h-100l-102 160h91l61 -95l60 95h91z" />
    <glyph glyph-name="edieresis" unicode="&#xeb;" horiz-adv-x="471" 
d="M256 76c39 0 84 14 119 45l48 -66c-32 -35 -95 -66 -167 -66c-153 0 -217 100 -217 239c0 131 68 238 207 238c134 0 187 -97 187 -195c0 -23 -2 -56 -7 -75h-285c2 -73 38 -120 115 -120zM141 270h197c1 6 1 13 1 17c0 61 -38 97 -93 97c-72 0 -101 -50 -105 -114z
M155 544c-37 0 -64 18 -64 63c0 44 27 64 64 64c32 0 64 -20 64 -64c0 -45 -32 -63 -64 -63zM345 544c-37 0 -65 18 -65 63c0 44 28 64 65 64c32 0 64 -20 64 -64c0 -45 -32 -63 -64 -63z" />
    <glyph glyph-name="emacron" unicode="&#x113;" horiz-adv-x="471" 
d="M256 76c39 0 84 14 119 45l48 -66c-32 -35 -95 -66 -167 -66c-153 0 -217 100 -217 239c0 131 68 238 207 238c134 0 187 -97 187 -195c0 -23 -2 -56 -7 -75h-285c2 -73 38 -120 115 -120zM141 270h197c1 6 1 13 1 17c0 61 -38 97 -93 97c-72 0 -101 -50 -105 -114z
M104 647h290v-82h-290v82z" />
    <glyph glyph-name="ebreve" unicode="&#x115;" horiz-adv-x="471" 
d="M256 76c39 0 84 14 119 45l48 -66c-32 -35 -95 -66 -167 -66c-153 0 -217 100 -217 239c0 131 68 238 207 238c134 0 187 -97 187 -195c0 -23 -2 -56 -7 -75h-285c2 -73 38 -120 115 -120zM141 270h197c1 6 1 13 1 17c0 61 -38 97 -93 97c-72 0 -101 -50 -105 -114z
M324 686h68c0 -82 -52 -146 -147 -146c-92 0 -144 64 -144 146h66c5 -42 35 -72 78 -72c45 0 74 30 79 72z" />
    <glyph glyph-name="edotaccent" unicode="&#x117;" horiz-adv-x="471" 
d="M256 76c39 0 84 14 119 45l48 -66c-32 -35 -95 -66 -167 -66c-153 0 -217 100 -217 239c0 131 68 238 207 238c134 0 187 -97 187 -195c0 -23 -2 -56 -7 -75h-285c2 -73 38 -120 115 -120zM141 270h197c1 6 1 13 1 17c0 61 -38 97 -93 97c-72 0 -101 -50 -105 -114z
M254 544c-37 0 -65 18 -65 63c0 44 28 64 65 64c33 0 64 -20 64 -64c0 -45 -31 -63 -64 -63z" />
    <glyph glyph-name="eogonek" unicode="&#x119;" horiz-adv-x="472" 
d="M424 55l-76 -81c-36 -38 -45 -59 -45 -76c0 -19 15 -34 38 -34c18 0 45 11 66 26v-83c-24 -13 -52 -23 -93 -23c-69 0 -113 35 -113 93c0 35 17 68 61 112h-6c-153 0 -217 100 -217 239c0 131 68 238 207 238c134 0 187 -97 187 -195c0 -23 -2 -56 -7 -75h-285
c2 -73 38 -120 115 -120c39 0 84 14 119 45l48 -66h1zM141 270h197c1 6 1 13 1 17c0 61 -38 97 -93 97c-72 0 -101 -50 -105 -114z" />
    <glyph glyph-name="gcircumflex" unicode="&#x11d;" horiz-adv-x="515" 
d="M359 456h95v-487c0 -100 -75 -174 -199 -174c-122 0 -184 64 -184 144h89c0 -31 33 -63 95 -63c64 0 98 35 98 88v78c-27 -31 -72 -53 -119 -53c-130 0 -193 90 -193 240c0 149 66 237 193 237c62 0 100 -24 125 -51v41zM142 229c0 -82 25 -147 113 -147
c42 0 78 19 98 44v205c-14 18 -46 42 -98 42c-87 0 -113 -60 -113 -144zM216 696h100l101 -160h-91l-60 95l-61 -95h-91z" />
    <glyph glyph-name="gbreve" unicode="&#x11f;" horiz-adv-x="515" 
d="M359 456h95v-487c0 -100 -75 -174 -199 -174c-122 0 -184 64 -184 144h89c0 -31 33 -63 95 -63c64 0 98 35 98 88v78c-27 -31 -72 -53 -119 -53c-130 0 -193 90 -193 240c0 149 66 237 193 237c62 0 100 -24 125 -51v41zM142 229c0 -82 25 -147 113 -147
c42 0 78 19 98 44v205c-14 18 -46 42 -98 42c-87 0 -113 -60 -113 -144zM341 686h68c0 -82 -52 -146 -147 -146c-92 0 -144 64 -144 146h66c5 -42 35 -72 78 -72c45 0 74 30 79 72z" />
    <glyph glyph-name="gdotaccent" unicode="&#x121;" horiz-adv-x="515" 
d="M359 456h95v-487c0 -100 -75 -174 -199 -174c-122 0 -184 64 -184 144h89c0 -31 33 -63 95 -63c64 0 98 35 98 88v78c-27 -31 -72 -53 -119 -53c-130 0 -193 90 -193 240c0 149 66 237 193 237c62 0 100 -24 125 -51v41zM142 229c0 -82 25 -147 113 -147
c42 0 78 19 98 44v205c-14 18 -46 42 -98 42c-87 0 -113 -60 -113 -144zM265 544c-37 0 -65 18 -65 63c0 44 28 64 65 64c33 0 64 -20 64 -64c0 -45 -31 -63 -64 -63z" />
    <glyph glyph-name="gcommaaccent" unicode="&#x123;" horiz-adv-x="515" 
d="M359 456h95v-487c0 -100 -75 -174 -199 -174c-122 0 -184 64 -184 144h89c0 -31 33 -63 95 -63c64 0 98 35 98 88v78c-27 -31 -72 -53 -119 -53c-130 0 -193 90 -193 240c0 149 66 237 193 237c62 0 100 -24 125 -51v41zM142 229c0 -82 25 -147 113 -147
c42 0 78 19 98 44v205c-14 18 -46 42 -98 42c-87 0 -113 -60 -113 -144zM210 550l59 180h79l-26 -180h-112z" />
    <glyph glyph-name="hcircumflex" unicode="&#x125;" horiz-adv-x="518" 
d="M61 0v690h100v-281c27 29 73 57 143 57c108 0 158 -62 158 -178v-288h-101v278c0 63 -23 95 -93 95c-45 0 -85 -20 -107 -43v-330h-100zM218 891h100l101 -160h-91l-60 95l-61 -95h-91z" />
    <glyph glyph-name="hbar" unicode="&#x127;" horiz-adv-x="519" 
d="M7 600h55v90h100v-90h104v-73h-104v-118c27 29 73 57 143 57c108 0 158 -62 158 -178v-288h-101v278c0 63 -23 95 -93 95c-45 0 -85 -20 -107 -43v-330h-100v527h-55v73z" />
    <glyph glyph-name="dotlessi" unicode="&#x131;" horiz-adv-x="222" 
d="M61 0v456h100v-456h-100z" />
    <glyph glyph-name="igrave" unicode="&#xec;" horiz-adv-x="223" 
d="M62 0v456h100v-456h-100zM-14 696h104l74 -160h-91z" />
    <glyph glyph-name="iacute" unicode="&#xed;" horiz-adv-x="223" 
d="M61 0v456h100v-456h-100zM133 696h104l-87 -160h-91z" />
    <glyph glyph-name="ibreve" unicode="&#x12d;" horiz-adv-x="224" 
d="M62 0v456h100v-456h-100zM189 686h68c0 -82 -52 -146 -147 -146c-92 0 -144 64 -144 146h66c5 -42 35 -72 78 -72c45 0 74 30 79 72z" />
    <glyph glyph-name="icircumflex" unicode="&#xee;" horiz-adv-x="224" 
d="M62 0v456h100v-456h-100zM63 696h100l101 -160h-91l-60 95l-61 -95h-91z" />
    <glyph glyph-name="itilde" unicode="&#x129;" horiz-adv-x="224" 
d="M62 0v456h100v-456h-100zM255 644l-4 -76c-21 15 -45 25 -69 25c-51 0 -90 -40 -148 -40c-30 0 -57 12 -69 23l4 76c17 -17 36 -25 65 -25c51 0 81 40 148 40c35 0 56 -12 73 -23z" />
    <glyph glyph-name="idieresis" unicode="&#xef;" horiz-adv-x="224" 
d="M62 0v456h100v-456h-100zM17 544c-37 0 -64 18 -64 63c0 44 27 64 64 64c32 0 64 -20 64 -64c0 -45 -32 -63 -64 -63zM207 544c-37 0 -65 18 -65 63c0 44 28 64 65 64c32 0 64 -20 64 -64c0 -45 -32 -63 -64 -63z" />
    <glyph glyph-name="imacron" unicode="&#x12b;" horiz-adv-x="224" 
d="M62 0v456h100v-456h-100zM-34 647h290v-82h-290v82z" />
    <glyph glyph-name="iogonek" unicode="&#x12f;" horiz-adv-x="224" 
d="M162 0l-71 -54c-20 -16 -32 -31 -32 -48c0 -19 14 -34 38 -34c17 0 44 11 65 26v-83c-24 -13 -52 -23 -93 -23c-69 0 -113 35 -113 93c0 40 21 70 59 101l48 39v439h100v-456h-1zM112 554c-37 0 -65 18 -65 63c0 44 28 64 65 64c32 0 64 -20 64 -64
c0 -45 -32 -63 -64 -63z" />
    <glyph glyph-name="dotlessj" unicode="&#x237;" horiz-adv-x="223" 
d="M36 -226l-57 66c60 34 82 73 82 138v478h101v-459c0 -107 -38 -179 -126 -223z" />
    <glyph glyph-name="jcircumflex" unicode="&#x135;" horiz-adv-x="224" 
d="M63 696h100l101 -160h-91l-60 95l-61 -95h-91zM37 -226l-57 66c60 34 82 73 82 138v478h101v-459c0 -107 -38 -179 -126 -223z" />
    <glyph glyph-name="kcommaaccent" unicode="&#x137;" horiz-adv-x="481" 
d="M471 0h-113l-131 213l-66 -64v-149h-100v690h100v-422l191 188h124l-178 -173zM310 -65l-58 -151h-77l26 151h109z" />
    <glyph glyph-name="kgreenlandic" unicode="&#x138;" horiz-adv-x="482" 
d="M471 0h-114l-130 213l-66 -64v-149h-100v456h100v-188l190 188h125l-179 -173z" />
    <glyph glyph-name="lacute" unicode="&#x13a;" horiz-adv-x="243" 
d="M58 690h100v-551c0 -35 10 -50 42 -50h24v-93h-54c-86 0 -112 53 -112 129v565zM136 891h104l-87 -160h-91z" />
    <glyph glyph-name="lcaron" unicode="&#x13e;" horiz-adv-x="243" 
d="M58 690h100v-551c0 -35 10 -50 42 -50h24v-93h-54c-86 0 -112 53 -112 129v565zM345 690l-58 -151h-77l26 151h109z" />
    <glyph glyph-name="lcommaaccent" unicode="&#x13c;" horiz-adv-x="243" 
d="M58 690h100v-551c0 -35 10 -50 42 -50h24v-93h-54c-86 0 -112 53 -112 129v565zM201 -65l-58 -151h-77l26 151h109z" />
    <glyph glyph-name="lslash" unicode="&#x142;" horiz-adv-x="268" 
d="M247 372l-68 -31v-202c0 -35 10 -50 42 -50h24v-93h-54c-86 0 -112 53 -112 129v172l-58 -26v80l58 26v313h100v-269l68 31v-80z" />
    <glyph glyph-name="ldot" unicode="&#x140;" horiz-adv-x="386" 
d="M58 690h100v-551c0 -35 10 -50 42 -50h24v-93h-54c-86 0 -112 53 -112 129v565zM302 298c-44 0 -75 30 -75 70c0 42 31 73 75 73c42 0 74 -31 74 -73c0 -40 -32 -70 -74 -70z" />
    <glyph glyph-name="nacute" unicode="&#x144;" horiz-adv-x="518" 
d="M61 0v456h97v-53c26 36 76 63 145 63c108 0 158 -62 158 -178v-288h-100v278c0 63 -24 95 -94 95c-44 0 -85 -20 -106 -43v-330h-100zM297 696h104l-87 -160h-91z" />
    <glyph glyph-name="ncaron" unicode="&#x148;" horiz-adv-x="518" 
d="M61 0v456h97v-53c26 36 76 63 145 63c108 0 158 -62 158 -178v-288h-100v278c0 63 -24 95 -94 95c-44 0 -85 -20 -106 -43v-330h-100zM312 536h-100l-102 160h91l61 -95l60 95h91z" />
    <glyph glyph-name="ntilde" unicode="&#xf1;" horiz-adv-x="518" 
d="M61 0v456h97v-53c26 36 76 63 145 63c108 0 158 -62 158 -178v-288h-100v278c0 63 -24 95 -94 95c-44 0 -85 -20 -106 -43v-330h-100zM409 644l-4 -76c-21 15 -45 25 -69 25c-51 0 -90 -40 -148 -40c-30 0 -57 12 -69 23l4 76c17 -17 36 -25 65 -25c51 0 81 40 148 40
c35 0 56 -12 73 -23z" />
    <glyph glyph-name="ncommaaccent" unicode="&#x146;" horiz-adv-x="518" 
d="M61 0v456h97v-53c26 36 76 63 145 63c108 0 158 -62 158 -178v-288h-100v278c0 63 -24 95 -94 95c-44 0 -85 -20 -106 -43v-330h-100zM317 -65l-58 -151h-77l26 151h109z" />
    <glyph glyph-name="napostrophe" unicode="&#x149;" horiz-adv-x="519" 
d="M62 0v456h97v-53c26 36 76 63 145 63c108 0 158 -62 158 -178v-288h-100v278c0 63 -24 95 -94 95c-44 0 -85 -20 -106 -43v-330h-100zM104 697l-58 -151h-77l26 151h109z" />
    <glyph glyph-name="ograve" unicode="&#xf2;" horiz-adv-x="500" 
d="M251 466c144 0 209 -101 209 -237c0 -139 -64 -240 -213 -240c-141 0 -208 102 -208 238c0 138 65 239 212 239zM249 80c76 0 109 56 109 147c0 94 -33 148 -109 148c-75 0 -107 -54 -107 -146c0 -95 33 -149 107 -149zM128 696h104l74 -160h-91z" />
    <glyph glyph-name="oacute" unicode="&#xf3;" horiz-adv-x="500" 
d="M251 466c144 0 209 -101 209 -237c0 -139 -64 -240 -213 -240c-141 0 -208 102 -208 238c0 138 65 239 212 239zM249 80c76 0 109 56 109 147c0 94 -33 148 -109 148c-75 0 -107 -54 -107 -146c0 -95 33 -149 107 -149zM273 696h104l-87 -160h-91z" />
    <glyph glyph-name="ocircumflex" unicode="&#xf4;" horiz-adv-x="500" 
d="M251 466c144 0 209 -101 209 -237c0 -139 -64 -240 -213 -240c-141 0 -208 102 -208 238c0 138 65 239 212 239zM249 80c76 0 109 56 109 147c0 94 -33 148 -109 148c-75 0 -107 -54 -107 -146c0 -95 33 -149 107 -149zM201 696h100l101 -160h-91l-60 95l-61 -95h-91z
" />
    <glyph glyph-name="otilde" unicode="&#xf5;" horiz-adv-x="500" 
d="M251 466c144 0 209 -101 209 -237c0 -139 -64 -240 -213 -240c-141 0 -208 102 -208 238c0 138 65 239 212 239zM249 80c76 0 109 56 109 147c0 94 -33 148 -109 148c-75 0 -107 -54 -107 -146c0 -95 33 -149 107 -149zM398 644l-4 -76c-21 15 -45 25 -69 25
c-51 0 -90 -40 -148 -40c-30 0 -57 12 -69 23l4 76c17 -17 36 -25 65 -25c51 0 81 40 148 40c35 0 56 -12 73 -23z" />
    <glyph glyph-name="odieresis" unicode="&#xf6;" horiz-adv-x="500" 
d="M251 466c144 0 209 -101 209 -237c0 -139 -64 -240 -213 -240c-141 0 -208 102 -208 238c0 138 65 239 212 239zM249 80c76 0 109 56 109 147c0 94 -33 148 -109 148c-75 0 -107 -54 -107 -146c0 -95 33 -149 107 -149zM156 544c-37 0 -64 18 -64 63c0 44 27 64 64 64
c32 0 64 -20 64 -64c0 -45 -32 -63 -64 -63zM346 544c-37 0 -65 18 -65 63c0 44 28 64 65 64c32 0 64 -20 64 -64c0 -45 -32 -63 -64 -63z" />
    <glyph glyph-name="omacron" unicode="&#x14d;" horiz-adv-x="500" 
d="M251 466c144 0 209 -101 209 -237c0 -139 -64 -240 -213 -240c-141 0 -208 102 -208 238c0 138 65 239 212 239zM249 80c76 0 109 56 109 147c0 94 -33 148 -109 148c-75 0 -107 -54 -107 -146c0 -95 33 -149 107 -149zM106 647h290v-82h-290v82z" />
    <glyph glyph-name="obreve" unicode="&#x14f;" horiz-adv-x="500" 
d="M251 466c144 0 209 -101 209 -237c0 -139 -64 -240 -213 -240c-141 0 -208 102 -208 238c0 138 65 239 212 239zM249 80c76 0 109 56 109 147c0 94 -33 148 -109 148c-75 0 -107 -54 -107 -146c0 -95 33 -149 107 -149zM328 686h68c0 -82 -52 -146 -147 -146
c-92 0 -144 64 -144 146h66c5 -42 35 -72 78 -72c45 0 74 30 79 72z" />
    <glyph glyph-name="ohungarumlaut" unicode="&#x151;" horiz-adv-x="500" 
d="M251 466c144 0 209 -101 209 -237c0 -139 -64 -240 -213 -240c-141 0 -208 102 -208 238c0 138 65 239 212 239zM249 80c76 0 109 56 109 147c0 94 -33 148 -109 148c-75 0 -107 -54 -107 -146c0 -95 33 -149 107 -149zM186 696h104l-87 -160h-91zM356 696h104l-87 -160
h-91z" />
    <glyph glyph-name="oslash" unicode="&#xf8;" horiz-adv-x="500" 
d="M251 466c48 0 87 -12 118 -32l17 22h81l-51 -66c30 -42 44 -98 44 -161c0 -139 -64 -240 -213 -240c-47 0 -86 11 -117 31l-15 -20h-78l48 63c-31 42 -46 99 -46 164c0 138 65 239 212 239zM142 229c0 -31 3 -57 10 -79l159 208c-16 11 -37 17 -62 17
c-75 0 -107 -54 -107 -146zM249 80c76 0 109 56 109 147c0 29 -3 54 -10 75l-159 -206c16 -11 36 -16 60 -16z" />
    <glyph glyph-name="oslashacute" unicode="&#x1ff;" horiz-adv-x="500" 
d="M251 466c48 0 87 -12 118 -32l17 22h81l-51 -66c30 -42 44 -98 44 -161c0 -139 -64 -240 -213 -240c-47 0 -86 11 -117 31l-15 -20h-78l48 63c-31 42 -46 99 -46 164c0 138 65 239 212 239zM142 229c0 -31 3 -57 10 -79l159 208c-16 11 -37 17 -62 17
c-75 0 -107 -54 -107 -146zM249 80c76 0 109 56 109 147c0 29 -3 54 -10 75l-159 -206c16 -11 36 -16 60 -16zM273 696h104l-87 -160h-91z" />
    <glyph glyph-name="oe" unicode="&#x153;" horiz-adv-x="796" 
d="M581 76c39 0 84 14 119 45l48 -66c-33 -35 -95 -66 -167 -66c-83 0 -137 30 -169 81c-32 -50 -85 -81 -165 -81c-141 0 -208 102 -208 238c0 138 65 239 212 239c79 0 131 -32 162 -82c32 50 83 82 157 82c134 0 188 -97 188 -195c0 -23 -3 -56 -7 -75h-285
c2 -73 37 -120 115 -120zM249 80c76 0 109 56 109 147c0 94 -33 148 -109 148c-75 0 -107 -54 -107 -146c0 -95 33 -149 107 -149zM466 270h197c1 6 1 13 1 17c0 61 -38 97 -94 97c-71 0 -100 -50 -104 -114z" />
    <glyph glyph-name="racute" unicode="&#x155;" horiz-adv-x="350" 
d="M157 382h1c24 44 59 84 125 84c19 0 38 -2 54 -6l-9 -107c-20 6 -47 9 -68 9c-47 0 -80 -29 -99 -70v-292h-100v456h96v-74zM208 696h104l-87 -160h-91z" />
    <glyph glyph-name="rcaron" unicode="&#x159;" horiz-adv-x="350" 
d="M158 382h1c24 44 59 84 125 84c19 0 38 -2 54 -6l-9 -107c-20 6 -47 9 -68 9c-47 0 -80 -29 -99 -70v-292h-100v456h96v-74zM243 536h-100l-102 160h91l61 -95l60 95h91z" />
    <glyph glyph-name="rcommaaccent" unicode="&#x157;" horiz-adv-x="350" 
d="M157 382h1c24 44 59 84 125 84c19 0 38 -2 54 -6l-9 -107c-20 6 -47 9 -68 9c-47 0 -80 -29 -99 -70v-292h-100v456h96v-74zM166 -65l-58 -151h-77l26 151h109z" />
    <glyph glyph-name="sacute" unicode="&#x15b;" horiz-adv-x="432" 
d="M390 400l-58 -60c-25 28 -63 49 -112 49c-53 0 -75 -26 -75 -57c0 -25 13 -44 49 -52l77 -18c87 -20 128 -65 128 -131c0 -74 -53 -142 -190 -142c-97 0 -152 42 -180 77l59 61c25 -29 60 -61 124 -61c50 0 85 19 85 57c0 27 -21 43 -58 52l-79 20
c-77 19 -116 65 -116 128c0 66 48 143 179 143c87 0 138 -34 167 -66zM251 696h104l-87 -160h-91z" />
    <glyph glyph-name="scircumflex" unicode="&#x15d;" horiz-adv-x="432" 
d="M390 400l-58 -60c-25 28 -63 49 -112 49c-53 0 -75 -26 -75 -57c0 -25 13 -44 49 -52l77 -18c87 -20 128 -65 128 -131c0 -74 -53 -142 -190 -142c-97 0 -152 42 -180 77l59 61c25 -29 60 -61 124 -61c50 0 85 19 85 57c0 27 -21 43 -58 52l-79 20
c-77 19 -116 65 -116 128c0 66 48 143 179 143c87 0 138 -34 167 -66zM171 696h100l101 -160h-91l-60 95l-61 -95h-91z" />
    <glyph glyph-name="scaron" unicode="&#x161;" horiz-adv-x="432" 
d="M390 400l-58 -60c-25 28 -63 49 -112 49c-53 0 -75 -26 -75 -57c0 -25 13 -44 49 -52l77 -18c87 -20 128 -65 128 -131c0 -74 -53 -142 -190 -142c-97 0 -152 42 -180 77l59 61c25 -29 60 -61 124 -61c50 0 85 19 85 57c0 27 -21 43 -58 52l-79 20
c-77 19 -116 65 -116 128c0 66 48 143 179 143c87 0 138 -34 167 -66zM273 536h-100l-102 160h91l61 -95l60 95h91z" />
    <glyph glyph-name="scedilla" unicode="&#x15f;" horiz-adv-x="433" 
d="M390 400l-58 -60c-25 28 -63 49 -112 49c-53 0 -75 -26 -75 -57c0 -25 13 -44 49 -52l77 -18c87 -20 128 -65 128 -131c0 -68 -44 -130 -156 -140l-16 -41c51 0 94 -21 94 -81c0 -50 -42 -85 -109 -85c-37 0 -67 10 -92 23v66c23 -17 56 -30 84 -30c25 0 37 11 37 26
c0 21 -18 28 -49 28h-39l-5 6l30 88c-78 8 -124 44 -149 75l59 61c25 -29 60 -61 124 -61c50 0 85 19 85 57c0 27 -21 43 -58 52l-79 20c-77 19 -116 65 -116 128c0 66 48 143 179 143c87 0 138 -34 167 -66z" />
    <glyph glyph-name="scommaaccent" unicode="&#x219;" horiz-adv-x="432" 
d="M390 400l-58 -60c-25 28 -63 49 -112 49c-53 0 -75 -26 -75 -57c0 -25 13 -44 49 -52l77 -18c87 -20 128 -65 128 -131c0 -74 -53 -142 -190 -142c-97 0 -152 42 -180 77l59 61c25 -29 60 -61 124 -61c50 0 85 19 85 57c0 27 -21 43 -58 52l-79 20
c-77 19 -116 65 -116 128c0 66 48 143 179 143c87 0 138 -34 167 -66zM281 -65l-58 -151h-77l26 151h109z" />
    <glyph glyph-name="germandbls" unicode="&#xdf;" horiz-adv-x="554" 
d="M61 0v486c0 130 59 214 190 214c136 0 193 -82 193 -170c0 -84 -82 -137 -82 -174c0 -22 22 -39 45 -55l36 -25c56 -38 86 -79 86 -142c0 -85 -65 -145 -167 -145c-48 0 -84 10 -122 29l30 80c23 -14 49 -27 81 -27c49 0 75 29 75 63c0 30 -12 53 -51 79l-41 28
c-46 33 -75 55 -75 104c0 65 82 107 82 176c0 58 -35 90 -93 90c-76 0 -90 -50 -90 -120v-491h-97z" />
    <glyph glyph-name="tcaron" unicode="&#x165;" horiz-adv-x="345" 
d="M203 370v-229c0 -38 18 -59 55 -59c18 0 41 5 59 12l5 -88c-23 -9 -61 -17 -95 -17c-89 0 -125 57 -125 139v242h-84v76l84 10v113l101 16v-129h112v-86h-112zM436 690l-58 -151h-77l26 151h109z" />
    <glyph glyph-name="tcommaaccent" unicode="&#x163;" horiz-adv-x="345" 
d="M203 370v-229c0 -38 18 -59 55 -59c18 0 41 5 59 12l5 -88c-22 -8 -56 -16 -88 -17l-15 -39c51 0 94 -21 94 -81c0 -50 -42 -85 -109 -85c-37 0 -67 10 -92 23v66c23 -17 56 -30 84 -30c25 0 37 11 37 26c0 21 -18 28 -49 28h-39l-5 6l33 95c-50 19 -71 67 -71 130v242
h-84v76l84 10v113l101 16v-129h112v-86h-112z" />
    <glyph glyph-name="uni021B" unicode="&#x21b;" horiz-adv-x="345" 
d="M203 370v-229c0 -38 18 -59 55 -59c18 0 41 5 59 12l5 -88c-23 -9 -61 -17 -95 -17c-89 0 -125 57 -125 139v242h-84v76l84 10v113l101 16v-129h112v-86h-112zM259 -65l-58 -151h-77l26 151h109z" />
    <glyph glyph-name="tbar" unicode="&#x167;" horiz-adv-x="349" 
d="M37 281h68v89h-84v76l84 10v113l101 16v-129h112v-86h-112v-89h90v-73h-90v-67c0 -38 18 -59 55 -59c18 0 41 5 59 12l5 -88c-23 -9 -61 -17 -95 -17c-89 0 -125 57 -125 139v80h-68v73z" />
    <glyph glyph-name="thorn" unicode="&#xfe;" horiz-adv-x="520" 
d="M161 37v-253h-100v891h100v-257c27 28 69 48 127 48c126 0 192 -90 192 -240c0 -147 -65 -237 -193 -237c-60 0 -103 24 -126 48zM377 226c0 83 -27 147 -114 147c-50 0 -84 -20 -102 -43v-205c18 -20 50 -43 101 -43c88 0 115 60 115 144z" />
    <glyph glyph-name="ugrave" unicode="&#xf9;" horiz-adv-x="518" 
d="M132 696h104l74 -160h-91zM457 456v-456h-97v53c-26 -36 -76 -63 -145 -63c-108 0 -158 62 -158 178v288h100v-278c0 -63 24 -95 94 -95c44 0 85 20 106 43v330h100z" />
    <glyph glyph-name="uacute" unicode="&#xfa;" horiz-adv-x="518" 
d="M282 696h104l-87 -160h-91zM457 456v-456h-97v53c-26 -36 -76 -63 -145 -63c-108 0 -158 62 -158 178v288h100v-278c0 -63 24 -95 94 -95c44 0 85 20 106 43v330h100z" />
    <glyph glyph-name="ucircumflex" unicode="&#xfb;" horiz-adv-x="518" 
d="M205 696h100l101 -160h-91l-60 95l-61 -95h-91zM457 456v-456h-97v53c-26 -36 -76 -63 -145 -63c-108 0 -158 62 -158 178v288h100v-278c0 -63 24 -95 94 -95c44 0 85 20 106 43v330h100z" />
    <glyph glyph-name="utilde" unicode="&#x169;" horiz-adv-x="518" 
d="M404 644l-4 -76c-21 15 -45 25 -69 25c-51 0 -90 -40 -148 -40c-30 0 -57 12 -69 23l4 76c17 -17 36 -25 65 -25c51 0 81 40 148 40c35 0 56 -12 73 -23zM457 456v-456h-97v53c-26 -36 -76 -63 -145 -63c-108 0 -158 62 -158 178v288h100v-278c0 -63 24 -95 94 -95
c44 0 85 20 106 43v330h100z" />
    <glyph glyph-name="udieresis" unicode="&#xfc;" horiz-adv-x="518" 
d="M163 544c-37 0 -64 18 -64 63c0 44 27 64 64 64c32 0 64 -20 64 -64c0 -45 -32 -63 -64 -63zM353 544c-37 0 -65 18 -65 63c0 44 28 64 65 64c32 0 64 -20 64 -64c0 -45 -32 -63 -64 -63zM457 456v-456h-97v53c-26 -36 -76 -63 -145 -63c-108 0 -158 62 -158 178v288h100
v-278c0 -63 24 -95 94 -95c44 0 85 20 106 43v330h100z" />
    <glyph glyph-name="umacron" unicode="&#x16b;" horiz-adv-x="518" 
d="M115 647h290v-82h-290v82zM457 456v-456h-97v53c-26 -36 -76 -63 -145 -63c-108 0 -158 62 -158 178v288h100v-278c0 -63 24 -95 94 -95c44 0 85 20 106 43v330h100z" />
    <glyph glyph-name="ubreve" unicode="&#x16d;" horiz-adv-x="518" 
d="M336 686h68c0 -82 -52 -146 -147 -146c-92 0 -144 64 -144 146h66c5 -42 35 -72 78 -72c45 0 74 30 79 72zM457 456v-456h-97v53c-26 -36 -76 -63 -145 -63c-108 0 -158 62 -158 178v288h100v-278c0 -63 24 -95 94 -95c44 0 85 20 106 43v330h100z" />
    <glyph glyph-name="uring" unicode="&#x16f;" horiz-adv-x="518" 
d="M150 621c0 53 37 98 105 98c71 0 108 -45 108 -98c0 -50 -37 -97 -108 -97c-68 0 -105 47 -105 97zM209 621c0 -24 17 -44 46 -44c31 0 47 20 47 44s-16 44 -47 44c-29 0 -46 -20 -46 -44zM457 456v-456h-97v53c-26 -36 -76 -63 -145 -63c-108 0 -158 62 -158 178v288
h100v-278c0 -63 24 -95 94 -95c44 0 85 20 106 43v330h100z" />
    <glyph glyph-name="uhungarumlaut" unicode="&#x171;" horiz-adv-x="518" 
d="M457 456v-456h-97v53c-26 -36 -76 -63 -145 -63c-108 0 -158 62 -158 178v288h100v-278c0 -63 24 -95 94 -95c44 0 85 20 106 43v330h100zM194 696h104l-87 -160h-91zM364 696h104l-87 -160h-91z" />
    <glyph glyph-name="uogonek" unicode="&#x173;" horiz-adv-x="518" 
d="M457 456v-456l-71 -54c-20 -16 -32 -31 -32 -48c0 -19 14 -34 38 -34c17 0 44 11 65 26v-83c-24 -13 -52 -23 -93 -23c-69 0 -113 35 -113 93c0 40 21 70 59 101l50 40v35c-26 -36 -76 -63 -145 -63c-108 0 -158 62 -158 178v288h100v-278c0 -63 24 -95 94 -95
c44 0 85 20 106 43v330h100z" />
    <glyph glyph-name="wacute" unicode="&#x1e83;" horiz-adv-x="762" 
d="M333 456h97l107 -348l103 348h105l-144 -456h-111l-109 328l-108 -328h-111l-145 456h105l104 -348zM407 696h104l-87 -160h-91z" />
    <glyph glyph-name="wcircumflex" unicode="&#x175;" horiz-adv-x="762" 
d="M333 456h97l107 -348l103 348h105l-144 -456h-111l-109 328l-108 -328h-111l-145 456h105l104 -348zM332 696h100l101 -160h-91l-60 95l-61 -95h-91z" />
    <glyph glyph-name="wdieresis" unicode="&#x1e85;" horiz-adv-x="762" 
d="M333 456h97l107 -348l103 348h105l-144 -456h-111l-109 328l-108 -328h-111l-145 456h105l104 -348zM287 544c-37 0 -64 18 -64 63c0 44 27 64 64 64c32 0 64 -20 64 -64c0 -45 -32 -63 -64 -63zM477 544c-37 0 -65 18 -65 63c0 44 28 64 65 64c32 0 64 -20 64 -64
c0 -45 -32 -63 -64 -63z" />
    <glyph glyph-name="wgrave" unicode="&#x1e81;" horiz-adv-x="762" 
d="M333 456h97l107 -348l103 348h105l-144 -456h-111l-109 328l-108 -328h-111l-145 456h105l104 -348zM252 696h104l74 -160h-91z" />
    <glyph glyph-name="yacute" unicode="&#xfd;" horiz-adv-x="485" 
d="M123 456l126 -315l116 315h109l-273 -672h-103l101 240l-190 432h114zM277 696h104l-87 -160h-91z" />
    <glyph glyph-name="ycircumflex" unicode="&#x177;" horiz-adv-x="485" 
d="M123 456l126 -315l116 315h109l-273 -672h-103l101 240l-190 432h114zM198 696h100l101 -160h-91l-60 95l-61 -95h-91z" />
    <glyph glyph-name="ydieresis" unicode="&#xff;" horiz-adv-x="485" 
d="M123 456l126 -315l116 315h109l-273 -672h-103l101 240l-190 432h114zM153 544c-37 0 -64 18 -64 63c0 44 27 64 64 64c32 0 64 -20 64 -64c0 -45 -32 -63 -64 -63zM343 544c-37 0 -65 18 -65 63c0 44 28 64 65 64c32 0 64 -20 64 -64c0 -45 -32 -63 -64 -63z" />
    <glyph glyph-name="ygrave" unicode="&#x1ef3;" horiz-adv-x="485" 
d="M123 456l126 -315l116 315h109l-273 -672h-103l101 240l-190 432h114zM123 696h104l74 -160h-91z" />
    <glyph glyph-name="zacute" unicode="&#x17a;" horiz-adv-x="414" 
d="M374 456v-68l-212 -302h213v-86h-340v68l214 302h-204v86h329zM243 696h104l-87 -160h-91z" />
    <glyph glyph-name="zcaron" unicode="&#x17e;" horiz-adv-x="414" 
d="M374 456v-68l-212 -302h213v-86h-340v68l214 302h-204v86h329zM264 536h-100l-102 160h91l61 -95l60 95h91z" />
    <glyph glyph-name="zdotaccent" unicode="&#x17c;" horiz-adv-x="414" 
d="M374 456v-68l-212 -302h213v-86h-340v68l214 302h-204v86h329zM222 544c-37 0 -65 18 -65 63c0 44 28 64 65 64c33 0 64 -20 64 -64c0 -45 -31 -63 -64 -63z" />
    <glyph glyph-name="IJ" unicode="&#x132;" horiz-adv-x="746" 
d="M73 0v676h109v-676h-109zM279 97l78 51c22 -42 50 -64 102 -64c73 0 114 40 114 150v442h103v-447c0 -162 -83 -239 -217 -239c-91 0 -150 45 -180 107z" />
    <glyph glyph-name="ij" unicode="&#x133;" horiz-adv-x="444" 
d="M61 0v456h100v-456h-100zM110 554c-37 0 -65 18 -65 63c0 44 28 64 65 64c32 0 64 -20 64 -64c0 -45 -32 -63 -64 -63zM257 -226l-58 66c61 34 83 73 83 138v478h101v-459c0 -107 -38 -179 -126 -223zM331 554c-37 0 -65 18 -65 63c0 44 28 64 65 64c33 0 65 -20 65 -64
c0 -45 -32 -63 -65 -63z" />
    <glyph glyph-name="acute" unicode="&#xb4;" horiz-adv-x="600" 
d="M285 696h104l-87 -160h-91z" />
    <glyph glyph-name="circumflex" unicode="&#x2c6;" horiz-adv-x="600" 
d="M250 696h100l101 -160h-91l-60 95l-61 -95h-91z" />
    <glyph glyph-name="caron" unicode="&#x2c7;" horiz-adv-x="600" 
d="M350 536h-100l-102 160h91l61 -95l60 95h91z" />
    <glyph glyph-name="tilde" unicode="&#x2dc;" horiz-adv-x="600" 
d="M445 644l-4 -76c-21 15 -45 25 -69 25c-51 0 -90 -40 -148 -40c-30 0 -57 12 -69 23l4 76c17 -17 36 -25 65 -25c51 0 81 40 148 40c35 0 56 -12 73 -23z" />
    <glyph glyph-name="dieresis" unicode="&#xa8;" horiz-adv-x="600" 
d="M205 544c-37 0 -64 18 -64 63c0 44 27 64 64 64c32 0 64 -20 64 -64c0 -45 -32 -63 -64 -63zM395 544c-37 0 -65 18 -65 63c0 44 28 64 65 64c32 0 64 -20 64 -64c0 -45 -32 -63 -64 -63z" />
    <glyph glyph-name="macron" unicode="&#xaf;" horiz-adv-x="600" 
d="M155 647h290v-82h-290v82z" />
    <glyph glyph-name="breve" unicode="&#x2d8;" horiz-adv-x="600" 
d="M377 686h68c0 -82 -52 -146 -147 -146c-92 0 -144 64 -144 146h66c5 -42 35 -72 78 -72c45 0 74 30 79 72z" />
    <glyph glyph-name="ring" unicode="&#x2da;" horiz-adv-x="600" 
d="M193 621c0 53 37 98 105 98c71 0 108 -45 108 -98c0 -50 -37 -97 -108 -97c-68 0 -105 47 -105 97zM252 621c0 -24 17 -44 46 -44c31 0 47 20 47 44s-16 44 -47 44c-29 0 -46 -20 -46 -44z" />
    <glyph glyph-name="hungarumlaut" unicode="&#x2dd;" horiz-adv-x="600" 
d="M200 696h104l-87 -160h-91zM370 696h104l-87 -160h-91z" />
    <glyph glyph-name="dotaccent" unicode="&#x2d9;" horiz-adv-x="600" 
d="M300 544c-37 0 -65 18 -65 63c0 44 28 64 65 64c33 0 64 -20 64 -64c0 -45 -31 -63 -64 -63z" />
    <glyph glyph-name="cedilla" unicode="&#xb8;" horiz-adv-x="600" 
d="M273 7l63 -7l-20 -50c51 0 94 -21 94 -81c0 -50 -42 -85 -109 -85c-37 0 -67 10 -92 23v66c23 -17 56 -30 84 -30c25 0 37 11 37 26c0 21 -18 28 -49 28h-39l-5 6z" />
    <glyph glyph-name="ogonek" unicode="&#x2db;" horiz-adv-x="600" 
d="M405 0l-71 -54c-20 -16 -32 -31 -32 -48c0 -19 14 -34 38 -34c17 0 44 11 65 26v-83c-24 -13 -52 -23 -93 -23c-69 0 -113 35 -113 93c0 40 21 70 59 101l53 43z" />
    <glyph glyph-name="commaaccent" unicode="&#xf6c3;" horiz-adv-x="600" 
d="M367 -65l-58 -151h-77l26 151h109z" />
    <glyph glyph-name="ellipsis" unicode="&#x2026;" horiz-adv-x="652" 
d="M116 -6c-41 0 -70 28 -70 67s29 68 70 68c40 0 70 -29 70 -68s-30 -67 -70 -67zM536 -6c-40 0 -70 28 -70 67s30 68 70 68s70 -29 70 -68s-30 -67 -70 -67zM329 -6c-40 0 -70 28 -70 67s30 68 70 68c41 0 71 -29 71 -68s-30 -67 -71 -67z" />
    <glyph glyph-name="uni00AD" unicode="&#xad;" horiz-adv-x="389" 
d="M58 313h273v-86h-273v86z" />
    <glyph glyph-name="exclamdown" unicode="&#xa1;" horiz-adv-x="231" 
d="M74 241h84l18 -457h-122zM115 466c40 0 70 -29 70 -67c0 -39 -30 -68 -70 -68s-70 29 -70 68c0 38 30 67 70 67z" />
    <glyph glyph-name="questiondown" unicode="&#xbf;" horiz-adv-x="443" 
d="M236 466c41 0 70 -28 70 -67s-29 -68 -70 -68c-40 0 -70 29 -70 68s30 67 70 67zM233 -226c-130 0 -201 77 -201 173c0 140 152 171 152 294h103c0 -153 -153 -192 -153 -291c0 -44 32 -83 92 -83c58 0 91 34 91 77l98 -9c0 -87 -55 -161 -182 -161z" />
    <glyph glyph-name="quoteleft" unicode="&#x2018;" horiz-adv-x="222" 
d="M42 436l58 240h77l-25 -240h-110z" />
    <glyph glyph-name="quoteright" unicode="&#x2019;" horiz-adv-x="216" 
d="M186 676l-60 -240h-76l25 240h111z" />
    <glyph glyph-name="quotedblleft" unicode="&#x201c;" horiz-adv-x="379" 
d="M199 436l58 240h77l-25 -240h-110zM42 436l58 240h77l-25 -240h-110z" />
    <glyph glyph-name="quotedblright" unicode="&#x201d;" horiz-adv-x="373" 
d="M186 676l-60 -240h-76l25 240h111zM343 676l-60 -240h-76l25 240h111z" />
    <glyph glyph-name="quotesinglbase" unicode="&#x201a;" horiz-adv-x="228" 
d="M176 130l-59 -240h-77l25 240h111z" />
    <glyph glyph-name="quotedblbase" unicode="&#x201e;" horiz-adv-x="385" 
d="M175 129l-59 -240h-76l25 240h110zM332 129l-59 -240h-76l25 240h110z" />
    <glyph glyph-name="guilsinglleft" unicode="&#x2039;" horiz-adv-x="320" 
d="M24 270l190 223l64 -46l-133 -178l134 -177l-65 -45z" />
    <glyph glyph-name="guilsinglright" unicode="&#x203a;" horiz-adv-x="320" 
d="M106 493l190 -223l-190 -223l-65 45l134 177l-133 178z" />
    <glyph glyph-name="guillemotleft" unicode="&#xab;" horiz-adv-x="525" 
d="M24 270l190 223l64 -46l-133 -178l134 -177l-65 -45zM229 270l190 223l64 -46l-133 -178l134 -177l-65 -45z" />
    <glyph glyph-name="guillemotright" unicode="&#xbb;" horiz-adv-x="525" 
d="M311 493l190 -223l-190 -223l-65 45l134 177l-133 178zM106 493l190 -223l-190 -223l-65 45l134 177l-133 178z" />
    <glyph glyph-name="endash" unicode="&#x2013;" horiz-adv-x="590" 
d="M58 313h474v-86h-474v86z" />
    <glyph glyph-name="emdash" unicode="&#x2014;" horiz-adv-x="730" 
d="M58 313h614v-86h-614v86z" />
    <glyph glyph-name="bullet" unicode="&#x2022;" horiz-adv-x="392" 
d="M196 149c-73 0 -126 51 -126 120c0 70 53 121 126 121s126 -51 126 -121c0 -69 -53 -120 -126 -120z" />
    <glyph glyph-name="periodcentered" unicode="&#xb7;" horiz-adv-x="250" 
d="M126 202c-44 0 -75 30 -75 70c0 42 31 73 75 73c42 0 74 -31 74 -73c0 -40 -32 -70 -74 -70z" />
    <glyph glyph-name="uni2219" unicode="&#x2219;" horiz-adv-x="250" 
d="M126 202c-44 0 -75 30 -75 70c0 42 31 73 75 73c42 0 74 -31 74 -73c0 -40 -32 -70 -74 -70z" />
    <glyph glyph-name="dagger" unicode="&#x2020;" horiz-adv-x="422" 
d="M28 303h149v387h69v-387h149v-66h-149v-453h-69v453h-149v66z" />
    <glyph glyph-name="daggerdbl" unicode="&#x2021;" horiz-adv-x="469" 
d="M51 449h149v241h69v-241h149v-66h-149v-288h149v-66h-149v-245h-69v245h-149v66h149v288h-149v66z" />
    <glyph glyph-name="section" unicode="&#xa7;" horiz-adv-x="556" 
d="M506 273c0 -43 -22 -88 -67 -120c42 -26 65 -60 65 -109c0 -83 -69 -158 -230 -158c-111 0 -193 39 -234 97l60 64c36 -44 89 -80 179 -80c68 0 116 19 116 63c0 38 -52 57 -93 72l-100 36c-90 33 -143 78 -143 153c0 45 21 91 65 124c-41 26 -64 62 -64 110
c0 73 67 161 222 161c96 0 171 -29 219 -90l-65 -64c-42 49 -96 71 -162 71c-59 0 -106 -27 -106 -64c0 -38 40 -55 101 -76l82 -29c101 -34 155 -81 155 -161zM204 379c-25 -16 -41 -43 -41 -68c0 -41 34 -64 101 -88l94 -34c22 15 43 39 43 67c0 46 -38 70 -99 90z" />
    <glyph glyph-name="paragraph" unicode="&#xb6;" horiz-adv-x="518" 
d="M203 456h112v-481h-90v180c-135 0 -195 48 -195 149c0 92 53 152 173 152zM345 -227l-54 64c55 31 79 66 79 132v487h91v-468c0 -88 -18 -167 -116 -215z" />
    <glyph glyph-name="brokenbar" unicode="&#xa6;" horiz-adv-x="202" 
d="M136 306h-70v384h70v-384zM66 170h70v-386h-70v386z" />
    <glyph glyph-name="copyright" unicode="&#xa9;" horiz-adv-x="820" 
d="M45 335c0 216 157 365 365 365c210 0 365 -149 365 -365c0 -212 -155 -365 -365 -365c-208 0 -365 153 -365 365zM123 335c0 -175 120 -290 287 -290c168 0 287 115 287 290c0 177 -119 290 -287 290c-167 0 -287 -113 -287 -290zM308 334c0 -76 32 -123 102 -123
c45 0 75 21 96 50l58 -57c-36 -42 -83 -71 -158 -71c-106 0 -187 75 -187 202c0 125 83 200 187 200c77 0 121 -33 156 -69l-57 -55c-26 25 -49 46 -94 46c-68 0 -103 -48 -103 -123z" />
    <glyph glyph-name="uni2117" unicode="&#x2117;" horiz-adv-x="820" 
d="M45 335c0 216 157 365 365 365c210 0 365 -149 365 -365c0 -212 -155 -365 -365 -365c-208 0 -365 153 -365 365zM123 335c0 -175 120 -290 287 -290c168 0 287 115 287 290c0 177 -119 290 -287 290c-167 0 -287 -113 -287 -290zM280 530h152c105 0 153 -52 153 -127
c0 -74 -48 -123 -153 -123h-76v-143h-76v393zM506 405c0 32 -16 63 -72 63h-78v-125h78c56 0 72 28 72 62z" />
    <glyph glyph-name="registered" unicode="&#xae;" horiz-adv-x="820" 
d="M488 415c0 27 -18 57 -74 57h-78v-114h73c59 0 79 31 79 57zM261 136v395h149c107 0 152 -41 152 -114c0 -55 -37 -96 -100 -109l109 -172h-84l-100 163h-51v-163h-75zM45 335c0 216 157 365 365 365c210 0 365 -149 365 -365c0 -212 -155 -365 -365 -365
c-208 0 -365 153 -365 365zM123 335c0 -175 120 -290 287 -290c168 0 287 115 287 290c0 177 -119 290 -287 290c-167 0 -287 -113 -287 -290z" />
    <glyph glyph-name="trademark" unicode="&#x2122;" horiz-adv-x="634" 
d="M47 607h206v-41h-78v-196h-52v196h-76v41zM432 426l46 181h71l25 -237h-50l-15 181l-50 -181h-57l-46 179l-18 -179h-50l26 237h73z" />
    <glyph glyph-name="currency" unicode="&#xa4;" horiz-adv-x="548" 
d="M421 351c7 -21 12 -49 12 -77c0 -29 -4 -55 -12 -78l81 -83l-70 -70l-79 78c-21 -10 -50 -17 -81 -17c-32 0 -61 7 -82 18l-74 -74l-66 65l76 79c-9 23 -13 51 -13 81c0 27 4 52 12 74l-79 83l70 68l75 -76c22 13 51 19 83 19c34 0 64 -7 85 -20l74 75l66 -65zM273 195
c51 0 73 30 73 78c0 49 -22 78 -73 78s-72 -29 -72 -77c0 -49 21 -79 72 -79z" />
    <glyph glyph-name="Euro" unicode="&#x20ac;" horiz-adv-x="572" 
d="M39 437h55c22 152 101 249 261 249c69 0 122 -16 175 -41l-34 -90c-39 20 -86 36 -143 36c-92 0 -135 -62 -150 -154h251l-25 -69h-233v-28c0 -14 0 -27 1 -39h209l-25 -68h-174c19 -88 67 -149 153 -149c42 0 94 11 144 43l27 -93c-51 -28 -109 -45 -176 -45
c-152 0 -236 88 -260 244h-56v68h48v67h-48v69z" />
    <glyph glyph-name="cent" unicode="&#xa2;" horiz-adv-x="475" 
d="M46 228c0 130 60 238 207 238c10 0 19 -1 29 -2l18 76l56 -13l-19 -76c40 -15 72 -43 92 -82l-71 -51c-12 19 -25 34 -42 44l-69 -283h13c46 0 77 22 98 58l71 -51c-32 -64 -95 -97 -176 -97c-10 0 -19 1 -27 2l-15 -62l-55 13l14 61c-87 33 -124 121 -124 225zM148 228
c0 -57 13 -104 46 -129l67 278h-1c-81 0 -112 -63 -112 -149z" />
    <glyph glyph-name="sterling" unicode="&#xa3;" horiz-adv-x="562" 
d="M36 332h64v111c0 130 57 243 217 243c99 0 162 -40 212 -97l-67 -69c-42 49 -84 70 -141 70c-85 0 -117 -61 -117 -147v-111h180v-68h-180v-178h281v-86h-385v264h-64v68z" />
    <glyph glyph-name="florin" unicode="&#x192;" horiz-adv-x="354" 
d="M219 368v-441c0 -81 -42 -153 -139 -153c-33 0 -62 5 -76 10v89c18 -5 39 -8 54 -8c49 0 63 29 63 79v424h-92v88h92v91c0 81 41 153 144 153c28 0 57 -5 70 -10v-89c-17 5 -36 8 -54 8c-46 0 -62 -26 -62 -78v-75h101v-88h-101z" />
    <glyph glyph-name="yen" unicode="&#xa5;" horiz-adv-x="598" 
d="M67 302h161l-35 67h-126v68h89l-127 239h118l150 -305l153 305h119l-130 -239h91v-68h-129l-36 -67h165v-69h-182v-233h-104v233h-177v69z" />
    <glyph glyph-name="rupee" unicode="&#x20a8;" horiz-adv-x="546" 
d="M52 676l453 1v-69h-123c26 -25 41 -61 44 -99h79v-69h-80c-10 -79 -70 -137 -158 -153l175 -287h-124l-163 276h-103v84h105c99 0 142 25 158 80h-263v69h264c-15 56 -52 81 -148 81h-116v86z" />
    <glyph glyph-name="ordfeminine" unicode="&#xaa;" horiz-adv-x="354" 
d="M295 350h-68v32c-20 -21 -50 -39 -94 -39c-57 0 -89 31 -89 81c0 61 55 90 142 96l38 3v21c0 25 -14 40 -51 40c-36 0 -49 -11 -49 -27v-13h-64c-1 7 -1 13 -1 21c0 43 43 74 117 74s119 -30 119 -95v-194zM116 429c0 -23 16 -32 39 -32c28 0 52 11 69 30v53l-36 -6
c-46 -6 -72 -19 -72 -45z" />
    <glyph glyph-name="ordmasculine" unicode="&#xba;" horiz-adv-x="358" 
d="M180 639c97 0 137 -64 137 -147c0 -86 -40 -149 -139 -149c-96 0 -137 64 -137 148s41 148 139 148zM179 405c45 0 64 34 64 86c0 54 -19 86 -64 86s-64 -33 -64 -84c0 -55 19 -88 64 -88z" />
    <glyph glyph-name="onesuperior" unicode="&#xb9;" horiz-adv-x="245" 
d="M197 429h-76v289l-99 -36l-19 56l128 49h66v-358z" />
    <glyph glyph-name="twosuperior" unicode="&#xb2;" horiz-adv-x="317" 
d="M155 793c77 0 127 -46 127 -110c0 -49 -37 -90 -79 -131l-68 -63h150v-59h-251v50l118 116c32 30 52 57 52 87c0 29 -18 50 -49 50c-37 0 -52 -22 -52 -57h-76c0 70 42 117 128 117z" />
    <glyph glyph-name="threesuperior" unicode="&#xb3;" horiz-adv-x="330" 
d="M225 611c40 -9 72 -41 72 -86c0 -60 -54 -102 -137 -102c-93 0 -133 43 -133 101h75c0 -25 22 -40 58 -40c34 0 59 17 59 45c0 32 -25 52 -72 52h-37v59h37c41 0 66 16 66 48c0 27 -20 44 -53 44c-34 0 -52 -17 -52 -39h-77c0 55 39 99 129 99c81 0 132 -41 132 -100
c0 -40 -29 -72 -67 -81z" />
    <glyph glyph-name="fraction" unicode="&#x2044;" horiz-adv-x="184" 
d="M336 676l-405 -676h-82l402 676h85z" />
    <glyph glyph-name="uni2215" unicode="&#x2215;" horiz-adv-x="463" 
d="M476 676l-405 -676h-82l402 676h85z" />
    <glyph glyph-name="onehalf" unicode="&#xbd;" horiz-adv-x="762" 
d="M610 676l-405 -676h-82l402 676h85zM589 363c77 0 127 -46 127 -110c0 -49 -37 -90 -79 -131l-68 -63h150v-59h-251v50l118 116c32 30 52 57 52 87c0 29 -18 50 -49 50c-37 0 -52 -22 -52 -57h-76c0 70 42 117 128 117zM222 318h-76v289l-99 -36l-19 56l128 49h66v-358z
" />
    <glyph glyph-name="onethird" unicode="&#x2153;" horiz-adv-x="773" 
d="M660 182c40 -9 72 -41 72 -86c0 -60 -54 -102 -137 -102c-93 0 -133 43 -133 101h75c0 -25 22 -40 58 -40c34 0 59 17 59 45c0 32 -25 52 -72 52h-37v59h37c41 0 66 16 66 48c0 27 -20 44 -53 44c-34 0 -52 -17 -52 -39h-77c0 55 39 99 129 99c81 0 132 -41 132 -100
c0 -40 -29 -72 -67 -81zM611 676l-405 -676h-82l402 676h85zM223 318h-76v289l-99 -36l-19 56l128 49h66v-358z" />
    <glyph glyph-name="onequarter" unicode="&#xbc;" horiz-adv-x="728" 
d="M691 128v-59h-45v-69h-76v69h-178v52l174 237h80v-230h45zM471 128h99v134zM610 676l-405 -676h-82l402 676h85zM222 318h-76v289l-99 -36l-19 56l128 49h66v-358z" />
    <glyph glyph-name="oneeighth" unicode="&#x215b;" horiz-adv-x="781" 
d="M598 -6c-86 0 -143 37 -143 104c0 46 29 74 68 86c-37 12 -61 38 -61 78c0 63 51 101 136 101s134 -38 134 -101c0 -40 -24 -66 -61 -78c39 -12 69 -39 69 -86c0 -67 -56 -104 -142 -104zM597 154c-38 0 -64 -20 -64 -51s29 -48 65 -48c35 0 63 17 63 48s-25 51 -64 51z
M597 303c-34 0 -56 -16 -56 -45c0 -31 24 -46 56 -46c33 0 57 15 57 46c0 29 -22 45 -57 45zM611 676l-405 -676h-82l402 676h85zM223 318h-76v289l-99 -36l-19 56l128 49h66v-358z" />
    <glyph glyph-name="twothirds" unicode="&#x2154;" horiz-adv-x="817" 
d="M169 681c77 0 127 -46 127 -110c0 -49 -37 -90 -79 -131l-68 -63h150v-59h-251v50l118 116c32 30 52 57 52 87c0 29 -18 50 -49 50c-37 0 -52 -22 -52 -57h-76c0 70 42 117 128 117zM708 182c40 -9 72 -41 72 -86c0 -60 -54 -102 -137 -102c-93 0 -133 43 -133 101h75
c0 -25 22 -40 58 -40c34 0 59 17 59 45c0 32 -25 52 -72 52h-37v59h37c41 0 66 16 66 48c0 27 -20 44 -53 44c-34 0 -52 -17 -52 -39h-77c0 55 39 99 129 99c81 0 132 -41 132 -100c0 -40 -29 -72 -67 -81zM658 676l-405 -676h-82l402 676h85z" />
    <glyph glyph-name="threequarters" unicode="&#xbe;" horiz-adv-x="760" 
d="M238 500c40 -9 72 -41 72 -86c0 -60 -54 -102 -137 -102c-93 0 -133 43 -133 101h75c0 -25 22 -40 58 -40c34 0 59 17 59 45c0 32 -25 52 -72 52h-37v59h37c41 0 66 16 66 48c0 27 -20 44 -53 44c-34 0 -52 -17 -52 -39h-77c0 55 39 99 129 99c81 0 132 -41 132 -100
c0 -40 -29 -72 -67 -81zM646 676l-405 -676h-82l402 676h85zM726 128v-59h-45v-69h-76v69h-178v52l174 237h80v-230h45zM506 128h99v134z" />
    <glyph glyph-name="threeeighths" unicode="&#x215c;" horiz-adv-x="813" 
d="M238 500c40 -9 72 -41 72 -86c0 -60 -54 -102 -137 -102c-93 0 -133 43 -133 101h75c0 -25 22 -40 58 -40c34 0 59 17 59 45c0 32 -25 52 -72 52h-37v59h37c41 0 66 16 66 48c0 27 -20 44 -53 44c-34 0 -52 -17 -52 -39h-77c0 55 39 99 129 99c81 0 132 -41 132 -100
c0 -40 -29 -72 -67 -81zM646 676l-405 -676h-82l402 676h85zM634 -6c-86 0 -143 37 -143 104c0 46 29 74 68 86c-37 12 -61 38 -61 78c0 63 51 101 136 101s134 -38 134 -101c0 -40 -24 -66 -61 -78c39 -12 69 -39 69 -86c0 -67 -56 -104 -142 -104zM633 154
c-38 0 -64 -20 -64 -51s29 -48 65 -48c35 0 63 17 63 48s-25 51 -64 51zM633 303c-34 0 -56 -16 -56 -45c0 -31 24 -46 56 -46c33 0 57 15 57 46c0 29 -22 45 -57 45z" />
    <glyph glyph-name="fiveeighths" unicode="&#x215d;" horiz-adv-x="803" 
d="M304 433c0 -70 -48 -121 -138 -121c-92 0 -132 44 -132 103h76c0 -26 20 -42 56 -42c40 0 60 25 60 60c0 32 -22 56 -60 56c-22 0 -41 -8 -54 -18l-61 10l26 195h211v-59h-150l-11 -79c13 5 33 11 55 11c63 0 122 -32 122 -116zM635 676l-405 -676h-82l402 676h85z
M623 -6c-86 0 -143 37 -143 104c0 46 29 74 68 86c-37 12 -61 38 -61 78c0 63 51 101 136 101s134 -38 134 -101c0 -40 -24 -66 -61 -78c39 -12 69 -39 69 -86c0 -67 -56 -104 -142 -104zM622 154c-38 0 -64 -20 -64 -51s29 -48 65 -48c35 0 63 17 63 48s-25 51 -64 51z
M622 303c-34 0 -56 -16 -56 -45c0 -31 24 -46 56 -46c33 0 57 15 57 46c0 29 -22 45 -57 45z" />
    <glyph glyph-name="seveneighths" unicode="&#x215e;" horiz-adv-x="733" 
d="M67 318l140 299h-170v59h255v-51l-143 -307h-82zM553 -6c-86 0 -143 37 -143 104c0 46 29 74 68 86c-37 12 -61 38 -61 78c0 63 51 101 136 101s134 -38 134 -101c0 -40 -24 -66 -61 -78c39 -12 69 -39 69 -86c0 -67 -56 -104 -142 -104zM552 154c-38 0 -64 -20 -64 -51
s29 -48 65 -48c35 0 63 17 63 48s-25 51 -64 51zM552 303c-34 0 -56 -16 -56 -45c0 -31 24 -46 56 -46c33 0 57 15 57 46c0 29 -22 45 -57 45zM566 676l-405 -676h-82l402 676h85z" />
    <glyph glyph-name="perthousand" unicode="&#x2030;" horiz-adv-x="1157" 
d="M655 676l-405 -676h-82l402 676h85zM638 55c53 0 71 42 71 124s-18 124 -71 124s-71 -42 -71 -124s18 -124 71 -124zM638 363c107 0 150 -73 150 -184s-44 -185 -150 -185c-107 0 -150 74 -150 185s44 184 150 184zM184 373c53 0 71 42 71 124s-18 124 -71 124
s-71 -42 -71 -124s18 -124 71 -124zM184 681c107 0 150 -73 150 -184s-44 -185 -150 -185c-107 0 -150 74 -150 185s44 184 150 184zM972 55c53 0 71 42 71 124s-18 124 -71 124s-71 -42 -71 -124s18 -124 71 -124zM972 363c107 0 150 -73 150 -184s-44 -185 -150 -185
c-107 0 -150 74 -150 185s44 184 150 184z" />
    <glyph glyph-name="minus" unicode="&#x2212;" 
d="M41 227v87h477v-87h-477z" />
    <glyph glyph-name="plusminus" unicode="&#xb1;" 
d="M41 363v86h189v197h96v-197h192v-86h-192v-160h-96v160h-189zM41 30v86h477v-86h-477z" />
    <glyph glyph-name="multiply" unicode="&#xd7;" 
d="M122 48l-63 64l155 155l-159 159l66 68l160 -160l157 157l64 -63l-158 -157l160 -160l-67 -67l-159 160z" />
    <glyph glyph-name="divide" unicode="&#xf7;" 
d="M41 227v86h477v-86h-477zM282 19c-41 0 -70 29 -70 68s29 67 70 67c40 0 70 -28 70 -67s-30 -68 -70 -68zM282 385c-41 0 -70 28 -70 67c0 40 29 68 70 68c40 0 70 -28 70 -68c0 -39 -30 -67 -70 -67z" />
    <glyph glyph-name="notequal" unicode="&#x2260;" 
d="M75 431h216l27 109l55 -13l-24 -96h137v-87h-158l-37 -148h195v-86h-216l-28 -116l-54 12l25 104h-138v86h159l36 148h-195v87z" />
    <glyph glyph-name="approxequal" unicode="&#x2248;" 
d="M479 431l11 -82c-26 -28 -58 -47 -104 -47c-82 0 -146 65 -213 65c-41 0 -71 -29 -91 -41l-10 81c28 27 70 47 109 47c73 0 137 -66 209 -66c35 0 71 29 89 43zM478 216l11 -82c-26 -27 -58 -47 -104 -47c-81 0 -143 66 -211 66c-40 0 -73 -28 -92 -40l-11 82
c28 26 70 44 109 44c74 0 140 -66 210 -66c35 0 70 29 88 43z" />
    <glyph glyph-name="lessequal" unicode="&#x2264;" 
d="M71 354v102l410 162v-93l-324 -121l324 -120v-93zM70 27v84h410v-84h-410z" />
    <glyph glyph-name="greaterequal" unicode="&#x2265;" 
d="M71 27v84h410v-84h-410zM494 456v-102l-411 -163v93l324 120l-324 121v93z" />
    <glyph glyph-name="logicalnot" unicode="&#xac;" 
d="M35 309v87h477v-277h-96v190h-381z" />
    <glyph glyph-name="Delta" unicode="&#x2206;" horiz-adv-x="705" 
d="M22 0l270 676h122l269 -676h-661zM534 86l-181 483l-183 -483h364z" />
    <glyph glyph-name="uni0394" unicode="&#x394;" horiz-adv-x="664" 
d="M1 0l270 676h122l269 -676h-661zM513 86l-181 483l-183 -483h364z" />
    <glyph glyph-name="Omega" unicode="&#x2126;" horiz-adv-x="716" 
d="M50 86h150c-74 58 -143 159 -143 279c0 166 84 322 300 322c218 0 302 -156 302 -322c0 -120 -70 -221 -143 -279h150v-86h-264v86c75 55 144 154 144 273c0 132 -54 234 -189 234c-134 0 -187 -102 -187 -234c0 -119 69 -218 144 -273v-86h-264v86z" />
    <glyph glyph-name="uni03A9" unicode="&#x3a9;" horiz-adv-x="710" 
d="M47 86h150c-74 58 -143 159 -143 279c0 166 84 322 300 322c218 0 302 -156 302 -322c0 -120 -70 -221 -143 -279h150v-86h-264v86c75 55 144 154 144 273c0 132 -54 234 -189 234c-134 0 -187 -102 -187 -234c0 -119 69 -218 144 -273v-86h-264v86z" />
    <glyph glyph-name="mu" unicode="&#xb5;" horiz-adv-x="520" 
d="M161 -216h-101v672h101v-287c2 -57 26 -86 93 -86c44 0 85 20 106 43v330h101v-456h-98v53c-25 -36 -75 -63 -145 -63c-21 0 -40 3 -57 7v-213z" />
    <glyph glyph-name="uni03BC" unicode="&#x3bc;" horiz-adv-x="522" 
d="M162 -216h-101v672h101v-287c2 -57 26 -86 93 -86c44 0 85 20 106 43v330h101v-456h-98v53c-25 -36 -75 -63 -145 -63c-21 0 -40 3 -57 7v-213z" />
    <glyph glyph-name="pi" unicode="&#x3c0;" horiz-adv-x="584" 
d="M112 0v370h-92v86h529v-86h-96v-230c0 -38 20 -59 56 -59c7 0 17 1 28 2v-89c-18 -3 -41 -5 -58 -5c-89 0 -124 59 -124 139v242h-146v-370h-97z" />
    <glyph glyph-name="degree" unicode="&#xb0;" horiz-adv-x="349" 
d="M38 546c0 75 48 140 135 140c89 0 139 -65 139 -140c0 -73 -50 -138 -139 -138c-87 0 -135 65 -135 138zM99 546c0 -42 26 -79 74 -79c50 0 76 37 76 79c0 43 -26 81 -76 81c-48 0 -74 -38 -74 -81z" />
    <glyph glyph-name="afii61289" unicode="&#x2113;" horiz-adv-x="380" 
d="M355 33c-34 -28 -76 -44 -123 -44c-70 0 -110 42 -110 128v115c-11 -10 -46 -38 -68 -54l-34 55c29 22 78 61 102 85v220c0 117 51 169 122 169c69 0 106 -50 106 -133c0 -103 -59 -192 -159 -286v-160c0 -47 20 -70 50 -70c28 0 61 15 87 35zM280 566
c0 46 -20 66 -43 66c-27 0 -46 -27 -46 -80v-176c50 53 89 121 89 190z" />
    <glyph glyph-name="estimated" unicode="&#x212e;" horiz-adv-x="737" 
d="M702 338h-511v-230c49 -49 109 -74 183 -74c105 0 182 45 245 152l45 -27c-78 -121 -157 -171 -290 -171c-199 0 -327 154 -327 350c0 197 128 350 327 350c195 0 327 -145 328 -350zM191 384h369v184c-54 50 -116 75 -187 75c-73 0 -133 -26 -182 -75v-184z" />
    <glyph glyph-name="eng" unicode="&#x14b;" horiz-adv-x="517" 
d="M60 0v456h97v-53c26 36 76 63 146 63c108 0 158 -62 158 -178v-291c0 -107 -38 -179 -126 -223l-57 66c60 34 82 73 82 138v300c0 63 -23 95 -93 95c-45 0 -85 -20 -107 -43v-330h-100z" />
    <glyph glyph-name="Eng" unicode="&#x14a;" horiz-adv-x="678" 
d="M478 -226l-62 71c60 32 80 68 80 133v14l-314 511l1 -503h-110v676h116l307 -498v498h108v-679c0 -107 -39 -179 -126 -223z" />
    <glyph glyph-name="infinity" unicode="&#x221e;" horiz-adv-x="724" 
d="M678 265c0 -93 -64 -159 -152 -159c-70 0 -123 42 -162 100c-42 -55 -91 -99 -165 -99c-84 0 -152 62 -152 155c0 91 65 157 150 157c75 0 124 -45 167 -103c37 56 87 105 161 105c86 0 153 -63 153 -156zM598 263c0 49 -32 82 -80 82c-44 0 -79 -46 -104 -84
c29 -40 61 -78 104 -78c49 0 80 33 80 80zM314 261c-26 39 -66 84 -107 84c-47 0 -81 -36 -81 -83c0 -50 35 -80 81 -80c44 0 82 42 107 79z" />
    <glyph glyph-name="partialdiff" unicode="&#x2202;" horiz-adv-x="525" 
d="M209 690h123c85 -76 149 -210 149 -376c0 -167 -56 -325 -226 -325c-146 0 -216 95 -216 231c0 135 73 227 194 227c79 0 126 -41 150 -84c-2 121 -81 246 -174 327zM255 77c90 0 119 91 121 184c-21 48 -61 91 -125 91c-77 0 -113 -55 -113 -137c0 -74 33 -138 117 -138
z" />
    <glyph glyph-name="integral" unicode="&#x222b;" horiz-adv-x="369" 
d="M233 546v-619c0 -81 -41 -153 -154 -153c-17 0 -47 5 -60 10v85c18 -1 39 -4 62 -4c41 0 55 26 55 69v619c0 81 42 153 154 153c18 0 47 -5 60 -10v-85c-18 1 -39 4 -61 4c-41 0 -56 -26 -56 -69z" />
    <glyph glyph-name="radical" unicode="&#x221a;" horiz-adv-x="617" 
d="M608 696l-244 -912h-110l-141 326l-71 -33l-32 72l162 72l128 -314l206 789h102z" />
    <glyph glyph-name="summation" unicode="&#x2211;" horiz-adv-x="588" 
d="M549 -131v-86h-510v105l251 350l-251 333v105h508v-86h-406l264 -351l-264 -370h408z" />
    <glyph glyph-name="product" unicode="&#x220f;" horiz-adv-x="746" 
d="M37 676h672v-86h-66v-806h-103v807h-332v-807h-104v806h-67v86z" />
    <glyph glyph-name="lozenge" unicode="&#x25ca;" horiz-adv-x="607" 
d="M467 353l-163 246l-166 -246l166 -256zM581 353l-231 -353h-94l-231 353l231 343h94z" />
    <glyph glyph-name="uniF8FF" unicode="&#xf8ff;" horiz-adv-x="588" 
d="M87 0v656h413v-656h-413zM125 39h337v578h-337v-578z" />
    <glyph glyph-name="exclam.sc" horiz-adv-x="230" 
d="M154 169h-79l-16 338h112zM115 -4c-36 0 -63 24 -63 56c0 33 27 57 63 57c35 0 62 -24 62 -57c0 -32 -27 -56 -62 -56z" />
    <glyph glyph-name="numbersign.sc" horiz-adv-x="539" 
d="M115 129h-80l13 81h81l15 95h-79l12 80h80l20 122h90l-22 -122h86l21 122h90l-20 -122h82l-12 -80h-84l-15 -95h82l-12 -81h-84l-22 -129h-90l22 129h-84l-22 -129h-91zM233 305l-15 -95h85l16 95h-86z" />
    <glyph glyph-name="dollar.sc" horiz-adv-x="465" 
d="M259 -77h-46v70c-110 4 -158 53 -179 92l70 55c18 -32 46 -59 109 -63v135l-28 8c-94 28 -129 78 -129 141c0 72 46 142 157 152v56h46v-55c84 -4 132 -38 159 -74l-69 -55c-18 24 -49 41 -90 45v-136l32 -8c95 -28 133 -75 133 -139c0 -90 -67 -145 -165 -153v-71z
M323 139c0 31 -23 49 -64 61v-123c42 6 64 28 64 62zM158 366c0 -28 16 -47 55 -59v121c-37 -7 -55 -32 -55 -62z" />
    <glyph glyph-name="percent.sc" horiz-adv-x="694" 
d="M547 507l-326 -507h-75l325 507h76zM536 49c41 0 53 28 53 88c0 59 -12 88 -53 88c-40 0 -54 -29 -54 -88c0 -60 14 -88 54 -88zM536 278c90 0 125 -56 125 -141s-36 -142 -125 -142c-90 0 -125 57 -125 142s36 141 125 141zM159 282c41 0 53 29 53 88
c0 60 -12 88 -53 88c-40 0 -54 -28 -54 -88c0 -59 14 -88 54 -88zM159 512c90 0 125 -57 125 -142s-36 -141 -125 -141c-90 0 -125 56 -125 141s36 142 125 142z" />
    <glyph glyph-name="ampersand.sc" horiz-adv-x="547" 
d="M433 272l67 -48l-70 -87l-16 -20l112 -111v-6h-105l-60 60c-41 -38 -93 -68 -168 -68c-96 0 -153 51 -153 122c0 70 62 114 112 147l5 3l-9 10c-25 25 -68 64 -68 115c0 69 58 126 158 126c92 0 153 -57 153 -126c0 -51 -40 -89 -100 -132l-11 -7l75 -75l11 14zM198 68
c41 0 75 20 106 49l-89 90l-14 -9c-36 -25 -72 -46 -72 -80c0 -27 27 -50 69 -50zM169 389c0 -27 19 -49 45 -73l9 -9l16 10c39 26 64 45 64 72s-24 50 -66 50c-43 0 -68 -22 -68 -50z" />
    <glyph glyph-name="section.sc" horiz-adv-x="472" 
d="M423 209c0 -30 -15 -64 -50 -88c33 -20 49 -45 49 -81c0 -63 -53 -125 -191 -125c-89 0 -154 27 -187 71l49 57c30 -31 77 -57 144 -57c51 0 83 12 83 40c0 22 -30 33 -70 46l-77 24c-77 25 -119 61 -119 119c0 31 14 66 49 91c-32 20 -49 47 -49 82c0 56 54 127 185 127
c84 0 136 -23 174 -64l-54 -59c-31 32 -77 49 -129 49c-42 0 -75 -15 -75 -39c0 -22 28 -33 74 -48l67 -21c84 -26 127 -64 127 -124zM176 275c-16 -10 -26 -26 -26 -41c0 -30 28 -45 82 -61l68 -21c12 8 27 23 27 40c0 34 -31 50 -76 62z" />
    <glyph glyph-name="paragraph.sc" horiz-adv-x="462" 
d="M184 342h94v-349h-83v118c-108 0 -156 40 -156 114c0 71 45 117 145 117zM309 -170l-52 55c42 26 63 52 63 94v363h83v-345c0 -63 -14 -126 -94 -167z" />
    <glyph glyph-name="parenleft.sc" horiz-adv-x="264" 
d="M232 -140l-69 -27c-74 99 -119 207 -119 348c0 146 49 245 119 347l71 -27c-54 -100 -92 -208 -92 -320c0 -118 29 -212 90 -321z" />
    <glyph glyph-name="slash.sc" horiz-adv-x="316" 
d="M289 507v-9l-168 -498h-92v10l164 497h96z" />
    <glyph glyph-name="parenright.sc" horiz-adv-x="264" 
d="M32 -140c61 109 90 203 90 321c0 112 -38 220 -91 320l71 27c69 -102 118 -201 118 -347c0 -141 -46 -249 -118 -348z" />
    <glyph glyph-name="bracketleft.sc" horiz-adv-x="294" 
d="M61 522h196v-77h-98v-530h98v-77h-196v684z" />
    <glyph glyph-name="backslash.sc" horiz-adv-x="322" 
d="M28 498v9h95l171 -497v-10h-93z" />
    <glyph glyph-name="bracketright.sc" horiz-adv-x="294" 
d="M38 522h195v-684h-195v77h98v530h-98v77z" />
    <glyph glyph-name="braceleft.sc" horiz-adv-x="289" 
d="M198 405v-139c0 -65 -33 -84 -68 -88c35 -4 68 -26 68 -87v-141c0 -34 15 -43 47 -43v-69c-98 0 -144 26 -144 106v138c0 45 -28 61 -76 61v69c49 0 76 15 76 64v135c0 78 46 107 144 107v-69c-31 0 -47 -10 -47 -44z" />
    <glyph glyph-name="bar.sc" horiz-adv-x="180" 
d="M119 -162h-58v684h58v-684z" />
    <glyph glyph-name="braceright.sc" horiz-adv-x="289" 
d="M90 266v139c0 34 -15 44 -47 44v69c99 0 144 -29 144 -107v-135c0 -49 27 -64 76 -64v-69c-48 0 -76 -16 -76 -61v-138c0 -80 -46 -106 -144 -106v69c32 0 47 9 47 43v141c0 61 33 83 68 87c-35 4 -68 23 -68 88z" />
    <glyph glyph-name="zero.sc" horiz-adv-x="508" 
d="M254 73c78 0 106 62 106 181c0 118 -28 180 -106 180c-77 0 -105 -62 -105 -180c0 -119 28 -181 105 -181zM254 515c148 0 207 -103 207 -261c0 -159 -61 -262 -207 -262c-147 0 -207 103 -207 262c0 158 62 261 207 261z" />
    <glyph glyph-name="one.sc" horiz-adv-x="347" 
d="M277 0h-99v415l-141 -51l-24 74l179 69h85v-507z" />
    <glyph glyph-name="two.sc" horiz-adv-x="447" 
d="M218 515c108 0 176 -64 176 -154c0 -71 -50 -129 -109 -186l-102 -96h218v-79h-350v67l167 166c47 44 75 83 75 128c0 42 -25 73 -75 73c-52 0 -76 -33 -76 -83h-99c0 97 58 164 175 164z" />
    <glyph glyph-name="three.sc" horiz-adv-x="467" 
d="M316 259c55 -12 103 -58 103 -123c0 -86 -76 -144 -190 -144c-129 0 -185 60 -185 142h99c0 -38 32 -61 86 -61c53 0 89 26 89 69c0 47 -38 77 -107 77h-51v79h51c61 0 98 23 98 70c0 40 -30 66 -80 66c-51 0 -79 -25 -79 -59h-99c0 77 54 140 178 140
c112 0 182 -59 182 -142c0 -58 -42 -103 -95 -114z" />
    <glyph glyph-name="four.sc" horiz-adv-x="485" 
d="M446 179v-79h-66v-100h-98v100h-252v70l246 337h104v-328h66zM133 179h149v200z" />
    <glyph glyph-name="five.sc" horiz-adv-x="452" 
d="M410 163c0 -96 -66 -171 -192 -171c-127 0 -182 63 -182 145h98c0 -39 30 -64 84 -64c62 0 90 37 90 91c0 48 -31 81 -88 81c-34 0 -62 -11 -81 -25l-78 13l34 274h293v-79h-212l-17 -119c17 8 47 18 81 18c90 0 170 -47 170 -164z" />
    <glyph glyph-name="six.sc" horiz-adv-x="481" 
d="M149 195c0 -67 30 -122 96 -122c61 0 91 35 91 89c0 52 -31 86 -91 86c-47 0 -80 -27 -96 -53zM328 375c0 36 -29 59 -77 59c-72 0 -103 -63 -103 -152c21 20 65 43 123 43c103 0 167 -63 167 -161c0 -93 -63 -172 -193 -172c-140 0 -199 105 -199 244
c0 162 60 279 205 279c122 0 175 -63 175 -140h-98z" />
    <glyph glyph-name="seven.sc" horiz-adv-x="408" 
d="M77 0l196 428h-242v79h353v-68l-201 -439h-106z" />
    <glyph glyph-name="eight.sc" horiz-adv-x="489" 
d="M244 -8c-118 0 -198 52 -198 147c0 67 47 107 102 122c-52 15 -91 53 -91 110c0 89 71 144 188 144c116 0 186 -55 186 -144c0 -57 -38 -95 -90 -110c54 -15 101 -55 101 -122c0 -95 -79 -147 -198 -147zM244 434c-52 0 -85 -24 -85 -67c0 -46 37 -68 85 -68s85 22 85 68
c0 43 -33 67 -85 67zM244 73c59 0 96 26 96 73c0 50 -42 75 -96 75s-96 -25 -96 -75c0 -47 38 -73 96 -73z" />
    <glyph glyph-name="nine.sc" horiz-adv-x="482" 
d="M333 311c0 68 -30 123 -95 123c-62 0 -92 -35 -92 -89c0 -52 31 -86 92 -86c46 0 79 27 95 52zM56 132h99c0 -36 28 -59 75 -59c74 0 104 64 104 152c-20 -19 -65 -44 -123 -44c-103 0 -167 64 -167 162c0 93 64 172 194 172c139 0 198 -106 198 -244
c0 -162 -59 -279 -206 -279c-121 0 -174 63 -174 140z" />
    <glyph glyph-name="question.sc" horiz-adv-x="383" 
d="M180 -4c-37 0 -62 24 -62 56c0 33 25 57 62 57c36 0 62 -24 62 -57c0 -32 -26 -56 -62 -56zM183 515c107 0 166 -60 166 -135c0 -103 -122 -126 -122 -211h-95c0 113 123 141 123 207c0 30 -23 55 -65 55c-45 0 -67 -23 -67 -48l-90 9c0 65 44 123 150 123z" />
    <glyph glyph-name="a.sc" horiz-adv-x="523" 
d="M404 0l-42 115h-202l-41 -115h-108l192 507h117l192 -507h-108zM262 406l-76 -211h151z" />
    <glyph glyph-name="b.sc" horiz-adv-x="504" 
d="M69 0v507h187c128 0 179 -54 179 -133c0 -56 -30 -91 -79 -107c56 -11 107 -51 107 -123c0 -106 -80 -144 -204 -144h-190zM171 80h84c75 0 103 25 103 71c0 42 -27 70 -103 70h-84v-141zM171 302h72c65 0 87 24 87 63c0 37 -22 62 -88 62h-71v-125z" />
    <glyph glyph-name="c.sc" horiz-adv-x="501" 
d="M149 253c0 -111 41 -177 135 -177c49 0 86 28 105 60l77 -48c-33 -57 -95 -96 -185 -96c-158 0 -237 98 -237 262s79 261 237 261c90 0 152 -39 185 -96l-77 -48c-19 32 -56 60 -105 60c-94 0 -135 -66 -135 -178z" />
    <glyph glyph-name="d.sc" horiz-adv-x="553" 
d="M69 0v507h170c186 0 269 -77 269 -253s-84 -254 -269 -254h-170zM171 80h62c127 0 170 44 170 174c0 126 -43 173 -170 173h-62v-347z" />
    <glyph glyph-name="e.sc" horiz-adv-x="468" 
d="M171 80h252v-80h-354v507h351v-80h-249v-131h215v-81h-215v-135z" />
    <glyph glyph-name="f.sc" horiz-adv-x="446" 
d="M69 0v507h339v-80h-237v-145h200v-81h-200v-201h-102z" />
    <glyph glyph-name="g.sc" horiz-adv-x="544" 
d="M286 195v81h218c2 -17 4 -40 4 -49c0 -127 -64 -235 -223 -235c-154 0 -241 90 -241 262c0 174 87 261 253 261c84 0 149 -35 181 -92l-76 -49c-23 34 -55 57 -110 57c-101 0 -144 -60 -144 -177c0 -127 44 -179 137 -179c86 0 120 54 120 120h-119z" />
    <glyph glyph-name="h.sc" horiz-adv-x="578" 
d="M408 303v204h101v-507h-101v222h-237v-222h-102v507h102v-204h237z" />
    <glyph glyph-name="i.sc" horiz-adv-x="241" 
d="M69 0v507h102v-507h-102z" />
    <glyph glyph-name="j.sc" horiz-adv-x="413" 
d="M20 76l72 45c15 -27 36 -45 77 -45c55 0 83 27 83 98v333h96v-340c0 -115 -67 -175 -179 -175c-76 0 -125 36 -149 84z" />
    <glyph glyph-name="k.sc" horiz-adv-x="523" 
d="M241 227l-70 -67v-160h-102v507h102v-222l215 222h121l-197 -209l196 -298h-118z" />
    <glyph glyph-name="l.sc" horiz-adv-x="412" 
d="M171 80h219v-80h-321v507h102v-427z" />
    <glyph glyph-name="m.sc" horiz-adv-x="715" 
d="M358 121l120 386h134l60 -507h-95l-42 392l-123 -392h-111l-116 389l-48 -389h-96l67 507h135z" />
    <glyph glyph-name="n.sc" horiz-adv-x="577" 
d="M407 162v345h100v-507h-103l-233 350l1 -350h-103v507h108z" />
    <glyph glyph-name="o.sc" horiz-adv-x="552" 
d="M149 253c0 -105 26 -177 126 -177s129 72 129 177s-30 178 -127 178s-128 -73 -128 -178zM508 253c0 -149 -66 -261 -233 -261s-231 112 -231 261s63 262 233 262c168 0 231 -114 231 -262z" />
    <glyph glyph-name="p.sc" horiz-adv-x="489" 
d="M259 185h-88v-185h-102v507h190c127 0 195 -58 195 -161s-68 -161 -195 -161zM171 427v-161h81c72 0 97 31 97 80c0 48 -25 81 -97 81h-81z" />
    <glyph glyph-name="q.sc" horiz-adv-x="552" 
d="M508 253c0 -58 -10 -110 -32 -152l59 -50l-54 -59l-54 47c-37 -30 -87 -47 -152 -47c-167 0 -231 112 -231 261s63 262 233 262c168 0 231 -114 231 -262zM149 253c0 -105 26 -177 126 -177c35 0 61 9 81 25l-121 106l52 56l108 -93c6 24 9 52 9 83
c0 105 -30 178 -127 178s-128 -73 -128 -178z" />
    <glyph glyph-name="r.sc" horiz-adv-x="512" 
d="M69 0v507h205c133 0 196 -54 196 -149c0 -74 -44 -129 -129 -143l140 -215h-113l-129 206h-68v-206h-102zM366 358c0 41 -24 69 -102 69h-93v-140h93c78 0 102 26 102 71z" />
    <glyph glyph-name="s.sc" horiz-adv-x="462" 
d="M415 440l-69 -55c-21 28 -56 46 -106 46c-55 0 -82 -29 -82 -65c0 -29 18 -48 59 -60l70 -20c96 -28 134 -75 134 -139c0 -99 -81 -155 -195 -155c-122 0 -173 52 -196 93l71 55c20 -35 48 -64 125 -64c60 0 90 26 90 63c0 32 -22 50 -65 62l-69 19
c-94 28 -129 78 -129 141c0 78 53 154 187 154c93 0 147 -36 175 -75z" />
    <glyph glyph-name="t.sc" horiz-adv-x="459" 
d="M31 507h398v-80h-148v-427h-102v427h-148v80z" />
    <glyph glyph-name="u.sc" horiz-adv-x="548" 
d="M274 -7c-124 0 -210 59 -210 200v314h102v-312c0 -80 33 -119 108 -119s108 39 108 119v312h102v-314c0 -141 -87 -200 -210 -200z" />
    <glyph glyph-name="v.sc" horiz-adv-x="511" 
d="M388 507h107l-175 -507h-130l-173 507h105l134 -406z" />
    <glyph glyph-name="w.sc" horiz-adv-x="811" 
d="M348 507h115l114 -397l106 397h104l-144 -507h-125l-113 373l-113 -373h-124l-145 507h105l107 -397z" />
    <glyph glyph-name="x.sc" horiz-adv-x="501" 
d="M23 507h114l113 -181l114 181h114l-161 -246l166 -261h-114l-119 190l-118 -190h-114l166 261z" />
    <glyph glyph-name="y.sc" horiz-adv-x="493" 
d="M298 0h-102v197l-185 310h111l126 -221l123 221h112l-185 -310v-197z" />
    <glyph glyph-name="z.sc" horiz-adv-x="446" 
d="M399 507v-71l-243 -356h250v-80h-369v70l243 357h-231v80h350z" />
    <glyph glyph-name="agrave.sc" horiz-adv-x="523" 
d="M404 0l-42 115h-202l-41 -115h-108l192 507h117l192 -507h-108zM262 406l-76 -211h151zM131 726h99l75 -159h-87z" />
    <glyph glyph-name="aacute.sc" horiz-adv-x="523" 
d="M404 0l-42 115h-202l-41 -115h-108l192 507h117l192 -507h-108zM262 406l-76 -211h151zM293 726h99l-87 -159h-87z" />
    <glyph glyph-name="acircumflex.sc" horiz-adv-x="523" 
d="M404 0l-42 115h-202l-41 -115h-108l192 507h117l192 -507h-108zM262 406l-76 -211h151zM212 726h100l101 -160h-91l-60 95l-61 -95h-91z" />
    <glyph glyph-name="atilde.sc" horiz-adv-x="523" 
d="M404 0l-42 115h-202l-41 -115h-108l192 507h117l192 -507h-108zM262 406l-76 -211h151zM407 674l-4 -76c-21 15 -45 25 -69 25c-51 0 -90 -40 -148 -40c-30 0 -57 12 -69 23l4 76c17 -17 36 -25 65 -25c51 0 81 40 148 40c35 0 56 -12 73 -23z" />
    <glyph glyph-name="adieresis.sc" horiz-adv-x="523" 
d="M404 0l-42 115h-202l-41 -115h-108l192 507h117l192 -507h-108zM262 406l-76 -211h151zM168 578c-36 0 -62 17 -62 60s26 62 62 62c31 0 62 -19 62 -62s-31 -60 -62 -60zM356 578c-36 0 -62 17 -62 60s26 62 62 62c31 0 62 -19 62 -62s-31 -60 -62 -60z" />
    <glyph glyph-name="amacron.sc" horiz-adv-x="523" 
d="M404 0l-42 115h-202l-41 -115h-108l192 507h117l192 -507h-108zM262 406l-76 -211h151zM118 670h288v-79h-288v79z" />
    <glyph glyph-name="abreve.sc" horiz-adv-x="523" 
d="M404 0l-42 115h-202l-41 -115h-108l192 507h117l192 -507h-108zM262 406l-76 -211h151zM340 706h68c0 -82 -52 -146 -147 -146c-92 0 -144 64 -144 146h66c5 -42 35 -72 78 -72c45 0 74 30 79 72z" />
    <glyph glyph-name="aring.sc" horiz-adv-x="523" 
d="M404 0l-42 115h-202l-41 -115h-108l192 507h117l192 -507h-108zM262 406l-76 -211h151zM156 649c0 53 37 98 105 98c71 0 108 -45 108 -98c0 -50 -37 -97 -108 -97c-68 0 -105 47 -105 97zM215 649c0 -23 17 -43 46 -43c31 0 47 20 47 43c0 24 -16 44 -47 44
c-29 0 -46 -20 -46 -44z" />
    <glyph glyph-name="aringacute.sc" horiz-adv-x="523" 
d="M154 649c0 43 26 78 70 90l55 84h99l-68 -88c36 -16 57 -48 57 -86c0 -50 -38 -96 -108 -96c-67 0 -105 46 -105 96zM212 649c0 -25 17 -44 47 -44c32 0 49 19 49 44s-17 46 -49 46c-30 0 -47 -21 -47 -46zM404 0l-42 115h-202l-41 -115h-108l192 507h117l192 -507h-108z
M262 406l-76 -211h151z" />
    <glyph glyph-name="aogonek.sc" horiz-adv-x="521" 
d="M511 0l-71 -54c-20 -16 -32 -31 -32 -48c0 -19 14 -34 38 -34c17 0 44 11 65 26v-83c-24 -13 -52 -23 -93 -23c-69 0 -113 35 -113 93c0 40 21 70 59 101l36 29l-39 108h-202l-41 -115h-108l192 507h117zM261 406l-76 -211h151z" />
    <glyph glyph-name="ae.sc" horiz-adv-x="799" 
d="M502 80h252v-80h-353v115h-196l-83 -115h-121l376 507h374v-80h-249v-131h216v-81h-216v-135zM263 195h138v191z" />
    <glyph glyph-name="aeacute.sc" horiz-adv-x="799" 
d="M570 726h99l-87 -159h-87zM502 80h252v-80h-353v115h-196l-83 -115h-121l376 507h374v-80h-249v-131h216v-81h-216v-135zM263 195h138v191z" />
    <glyph glyph-name="cacute.sc" horiz-adv-x="501" 
d="M149 253c0 -111 41 -177 135 -177c49 0 86 28 105 60l77 -48c-33 -57 -95 -96 -185 -96c-158 0 -237 98 -237 262s79 261 237 261c90 0 152 -39 185 -96l-77 -48c-19 32 -56 60 -105 60c-94 0 -135 -66 -135 -178zM299 726h99l-87 -159h-87z" />
    <glyph glyph-name="ccircumflex.sc" horiz-adv-x="501" 
d="M149 253c0 -111 41 -177 135 -177c49 0 86 28 105 60l77 -48c-33 -57 -95 -96 -185 -96c-158 0 -237 98 -237 262s79 261 237 261c90 0 152 -39 185 -96l-77 -48c-19 32 -56 60 -105 60c-94 0 -135 -66 -135 -178zM222 726h100l101 -160h-91l-60 95l-61 -95h-91z" />
    <glyph glyph-name="ccaron.sc" horiz-adv-x="501" 
d="M149 253c0 -111 41 -177 135 -177c49 0 86 28 105 60l77 -48c-33 -57 -95 -96 -185 -96c-158 0 -237 98 -237 262s79 261 237 261c90 0 152 -39 185 -96l-77 -48c-19 32 -56 60 -105 60c-94 0 -135 -66 -135 -178zM322 566h-100l-102 160h91l61 -95l60 95h91z" />
    <glyph glyph-name="cdotaccent.sc" horiz-adv-x="501" 
d="M149 253c0 -111 41 -177 135 -177c49 0 86 28 105 60l77 -48c-33 -57 -95 -96 -185 -96c-158 0 -237 98 -237 262s79 261 237 261c90 0 152 -39 185 -96l-77 -48c-19 32 -56 60 -105 60c-94 0 -135 -66 -135 -178zM272 578c-36 0 -62 17 -62 60s26 62 62 62
c31 0 62 -19 62 -62s-31 -60 -62 -60z" />
    <glyph glyph-name="ccedilla.sc" horiz-adv-x="501" 
d="M149 253c0 -111 41 -177 135 -177c49 0 86 28 105 60l77 -48c-29 -50 -81 -87 -154 -94l-17 -44c51 0 94 -21 94 -81c0 -50 -42 -85 -109 -85c-37 0 -67 10 -92 23v66c23 -17 56 -30 84 -30c25 0 37 11 37 26c0 21 -18 28 -49 28h-39l-5 6l31 91
c-135 12 -203 108 -203 260c0 164 79 261 237 261c90 0 152 -39 185 -96l-77 -48c-19 32 -56 60 -105 60c-94 0 -135 -66 -135 -178z" />
    <glyph glyph-name="dcaron.sc" horiz-adv-x="553" 
d="M69 0v507h170c186 0 269 -77 269 -253s-84 -254 -269 -254h-170zM171 80h62c127 0 170 44 170 174c0 126 -43 173 -170 173h-62v-347zM308 566h-100l-102 160h91l61 -95l60 95h91z" />
    <glyph glyph-name="dcroat.sc" horiz-adv-x="562" 
d="M21 295h57v212h170c186 0 269 -77 269 -253s-84 -254 -269 -254h-170v222h-57v73zM180 80h62c127 0 170 44 170 174c0 126 -43 173 -170 173h-62v-132h100v-73h-100v-142z" />
    <glyph glyph-name="eth.sc" horiz-adv-x="562" 
d="M21 295h57v212h170c186 0 269 -77 269 -253s-84 -254 -269 -254h-170v222h-57v73zM180 80h62c127 0 170 44 170 174c0 126 -43 173 -170 173h-62v-132h100v-73h-100v-142z" />
    <glyph glyph-name="egrave.sc" horiz-adv-x="468" 
d="M171 80h252v-80h-354v507h351v-80h-249v-131h215v-81h-215v-135zM118 726h99l75 -159h-87z" />
    <glyph glyph-name="eacute.sc" horiz-adv-x="468" 
d="M171 80h252v-80h-354v507h351v-80h-249v-131h215v-81h-215v-135zM273 726h99l-87 -159h-87z" />
    <glyph glyph-name="ecircumflex.sc" horiz-adv-x="468" 
d="M171 80h252v-80h-354v507h351v-80h-249v-131h215v-81h-215v-135zM194 726h100l101 -160h-91l-60 95l-61 -95h-91z" />
    <glyph glyph-name="ecaron.sc" horiz-adv-x="468" 
d="M171 80h252v-80h-354v507h351v-80h-249v-131h215v-81h-215v-135zM294 566h-100l-102 160h91l61 -95l60 95h91z" />
    <glyph glyph-name="edieresis.sc" horiz-adv-x="468" 
d="M171 80h252v-80h-354v507h351v-80h-249v-131h215v-81h-215v-135zM150 578c-36 0 -62 17 -62 60s26 62 62 62c31 0 62 -19 62 -62s-31 -60 -62 -60zM338 578c-36 0 -62 17 -62 60s26 62 62 62c31 0 62 -19 62 -62s-31 -60 -62 -60z" />
    <glyph glyph-name="emacron.sc" horiz-adv-x="468" 
d="M171 80h252v-80h-354v507h351v-80h-249v-131h215v-81h-215v-135zM100 670h288v-79h-288v79z" />
    <glyph glyph-name="ebreve.sc" horiz-adv-x="468" 
d="M171 80h252v-80h-354v507h351v-80h-249v-131h215v-81h-215v-135zM321 706h68c0 -82 -52 -146 -147 -146c-92 0 -144 64 -144 146h66c5 -42 35 -72 78 -72c45 0 74 30 79 72z" />
    <glyph glyph-name="edotaccent.sc" horiz-adv-x="468" 
d="M171 80h252v-80h-354v507h351v-80h-249v-131h215v-81h-215v-135zM244 578c-36 0 -62 17 -62 60s26 62 62 62c31 0 62 -19 62 -62s-31 -60 -62 -60z" />
    <glyph glyph-name="eogonek.sc" horiz-adv-x="467" 
d="M170 80h252v-80h-1l-71 -54c-20 -16 -32 -31 -32 -48c0 -19 14 -34 38 -34c17 0 44 11 65 26v-83c-24 -13 -52 -23 -93 -23c-69 0 -113 35 -113 93c0 40 21 70 59 101l27 22h-233v507h351v-80h-249v-131h215v-81h-215v-135z" />
    <glyph glyph-name="gcircumflex.sc" horiz-adv-x="544" 
d="M286 195v81h218c2 -17 4 -40 4 -49c0 -127 -64 -235 -223 -235c-154 0 -241 90 -241 262c0 174 87 261 253 261c84 0 149 -35 181 -92l-76 -49c-23 34 -55 57 -110 57c-101 0 -144 -60 -144 -177c0 -127 44 -179 137 -179c86 0 120 54 120 120h-119zM231 726h100
l101 -160h-91l-60 95l-61 -95h-91z" />
    <glyph glyph-name="gbreve.sc" horiz-adv-x="544" 
d="M286 195v81h218c2 -17 4 -40 4 -49c0 -127 -64 -235 -223 -235c-154 0 -241 90 -241 262c0 174 87 261 253 261c84 0 149 -35 181 -92l-76 -49c-23 34 -55 57 -110 57c-101 0 -144 -60 -144 -177c0 -127 44 -179 137 -179c86 0 120 54 120 120h-119zM359 706h68
c0 -82 -52 -146 -147 -146c-92 0 -144 64 -144 146h66c5 -42 35 -72 78 -72c45 0 74 30 79 72z" />
    <glyph glyph-name="gdotaccent.sc" horiz-adv-x="544" 
d="M286 195v81h218c2 -17 4 -40 4 -49c0 -127 -64 -235 -223 -235c-154 0 -241 90 -241 262c0 174 87 261 253 261c84 0 149 -35 181 -92l-76 -49c-23 34 -55 57 -110 57c-101 0 -144 -60 -144 -177c0 -127 44 -179 137 -179c86 0 120 54 120 120h-119zM281 578
c-36 0 -62 17 -62 60s26 62 62 62c31 0 62 -19 62 -62s-31 -60 -62 -60z" />
    <glyph glyph-name="gcommaaccent.sc" horiz-adv-x="544" 
d="M286 195v81h218c2 -17 4 -40 4 -49c0 -127 -64 -235 -223 -235c-154 0 -241 90 -241 262c0 174 87 261 253 261c84 0 149 -35 181 -92l-76 -49c-23 34 -55 57 -110 57c-101 0 -144 -60 -144 -177c0 -127 44 -179 137 -179c86 0 120 54 120 120h-119zM341 -65l-58 -151
h-77l26 151h109z" />
    <glyph glyph-name="hcircumflex.sc" horiz-adv-x="578" 
d="M408 303v204h101v-507h-101v222h-237v-222h-102v507h102v-204h237zM239 726h100l101 -160h-91l-60 95l-61 -95h-91z" />
    <glyph glyph-name="hbar.sc" horiz-adv-x="579" 
d="M33 437h37v70h101v-70h237v70h101v-70h39v-69h-39v-368h-101v222h-237v-222h-101v368h-37v69zM408 303v65h-237v-65h237z" />
    <glyph glyph-name="igrave.sc" horiz-adv-x="241" 
d="M69 0v507h102v-507h-102zM-10 726h99l75 -159h-87z" />
    <glyph glyph-name="iacute.sc" horiz-adv-x="241" 
d="M69 0v507h102v-507h-102zM152 726h99l-87 -159h-87z" />
    <glyph glyph-name="ibreve.sc" horiz-adv-x="241" 
d="M69 0v507h102v-507h-102zM198 706h68c0 -82 -52 -146 -147 -146c-92 0 -144 64 -144 146h66c5 -42 35 -72 78 -72c45 0 74 30 79 72z" />
    <glyph glyph-name="icircumflex.sc" horiz-adv-x="241" 
d="M69 0v507h102v-507h-102zM70 726h100l101 -160h-91l-60 95l-61 -95h-91z" />
    <glyph glyph-name="itilde.sc" horiz-adv-x="241" 
d="M69 0v507h102v-507h-102zM265 674l-4 -76c-21 15 -45 25 -69 25c-51 0 -90 -40 -148 -40c-30 0 -57 12 -69 23l4 76c17 -17 36 -25 65 -25c51 0 81 40 148 40c35 0 56 -12 73 -23z" />
    <glyph glyph-name="idieresis.sc" horiz-adv-x="241" 
d="M69 0v507h102v-507h-102zM27 578c-36 0 -62 17 -62 60s26 62 62 62c31 0 62 -19 62 -62s-31 -60 -62 -60zM215 578c-36 0 -62 17 -62 60s26 62 62 62c31 0 62 -19 62 -62s-31 -60 -62 -60z" />
    <glyph glyph-name="imacron.sc" horiz-adv-x="241" 
d="M69 0v507h102v-507h-102zM-23 670h288v-79h-288v79z" />
    <glyph glyph-name="idotaccent.sc" horiz-adv-x="241" 
d="M69 0v507h102v-507h-102zM121 578c-36 0 -62 17 -62 60s26 62 62 62c31 0 62 -19 62 -62s-31 -60 -62 -60z" />
    <glyph glyph-name="iogonek.sc" horiz-adv-x="240" 
d="M171 0l-71 -54c-20 -16 -32 -31 -32 -48c0 -19 14 -34 38 -34c17 0 44 11 65 26v-83c-24 -13 -52 -23 -93 -23c-69 0 -113 35 -113 93c0 40 21 70 59 101l45 36v493h102v-507z" />
    <glyph glyph-name="jcircumflex.sc" horiz-adv-x="414" 
d="M20 76l72 45c15 -27 36 -45 77 -45c55 0 83 27 83 98v333h96v-340c0 -115 -67 -175 -179 -175c-76 0 -125 36 -149 84zM251 726h100l101 -160h-91l-60 95l-61 -95h-91z" />
    <glyph glyph-name="kcommaaccent.sc" horiz-adv-x="523" 
d="M241 227l-70 -67v-160h-102v507h102v-222l215 222h121l-197 -209l196 -298h-118zM313 -65l-58 -151h-77l26 151h109z" />
    <glyph glyph-name="lacute.sc" horiz-adv-x="412" 
d="M171 80h219v-80h-321v507h102v-427zM153 726h99l-87 -159h-87z" />
    <glyph glyph-name="lcaron.sc" horiz-adv-x="459" 
d="M171 80h219v-80h-321v507h102v-427zM440 507l-58 -162h-72l25 162h105z" />
    <glyph glyph-name="lcommaaccent.sc" horiz-adv-x="412" 
d="M171 80h219v-80h-321v507h102v-427zM278 -65l-58 -151h-77l26 151h109z" />
    <glyph glyph-name="lslash.sc" horiz-adv-x="419" 
d="M179 80h219v-80h-321v187l-55 -24v81l55 23v240h102v-196l69 30v-80l-69 -30v-151z" />
    <glyph glyph-name="ldot.sc" horiz-adv-x="449" 
d="M171 80h219v-80h-321v507h102v-427zM339 230c-36 0 -62 17 -62 60s26 62 62 62c31 0 62 -19 62 -62s-31 -60 -62 -60z" />
    <glyph glyph-name="nacute.sc" horiz-adv-x="577" 
d="M407 162v345h100v-507h-103l-233 350l1 -350h-103v507h108zM320 726h99l-87 -159h-87z" />
    <glyph glyph-name="ncaron.sc" horiz-adv-x="577" 
d="M407 162v345h100v-507h-103l-233 350l1 -350h-103v507h108zM338 566h-100l-102 160h91l61 -95l60 95h91z" />
    <glyph glyph-name="ntilde.sc" horiz-adv-x="577" 
d="M407 162v345h100v-507h-103l-233 350l1 -350h-103v507h108zM433 674l-4 -76c-21 15 -45 25 -69 25c-51 0 -90 -40 -148 -40c-30 0 -57 12 -69 23l4 76c17 -17 36 -25 65 -25c51 0 81 40 148 40c35 0 56 -12 73 -23z" />
    <glyph glyph-name="ncommaaccent.sc" horiz-adv-x="577" 
d="M407 162v345h100v-507h-103l-233 350l1 -350h-103v507h108zM345 -65l-58 -151h-77l26 151h109z" />
    <glyph glyph-name="ograve.sc" horiz-adv-x="552" 
d="M149 253c0 -105 26 -177 126 -177s129 72 129 177s-30 178 -127 178s-128 -73 -128 -178zM508 253c0 -149 -66 -261 -233 -261s-231 112 -231 261s63 262 233 262c168 0 231 -114 231 -262zM151 726h99l75 -159h-87z" />
    <glyph glyph-name="oacute.sc" horiz-adv-x="552" 
d="M149 253c0 -105 26 -177 126 -177s129 72 129 177s-30 178 -127 178s-128 -73 -128 -178zM508 253c0 -149 -66 -261 -233 -261s-231 112 -231 261s63 262 233 262c168 0 231 -114 231 -262zM306 726h99l-87 -159h-87z" />
    <glyph glyph-name="ocircumflex.sc" horiz-adv-x="552" 
d="M149 253c0 -105 26 -177 126 -177s129 72 129 177s-30 178 -127 178s-128 -73 -128 -178zM508 253c0 -149 -66 -261 -233 -261s-231 112 -231 261s63 262 233 262c168 0 231 -114 231 -262zM227 726h100l101 -160h-91l-60 95l-61 -95h-91z" />
    <glyph glyph-name="otilde.sc" horiz-adv-x="552" 
d="M149 253c0 -105 26 -177 126 -177s129 72 129 177s-30 178 -127 178s-128 -73 -128 -178zM508 253c0 -149 -66 -261 -233 -261s-231 112 -231 261s63 262 233 262c168 0 231 -114 231 -262zM422 674l-4 -76c-21 15 -45 25 -69 25c-51 0 -90 -40 -148 -40
c-30 0 -57 12 -69 23l4 76c17 -17 36 -25 65 -25c51 0 81 40 148 40c35 0 56 -12 73 -23z" />
    <glyph glyph-name="odieresis.sc" horiz-adv-x="552" 
d="M149 253c0 -105 26 -177 126 -177s129 72 129 177s-30 178 -127 178s-128 -73 -128 -178zM508 253c0 -149 -66 -261 -233 -261s-231 112 -231 261s63 262 233 262c168 0 231 -114 231 -262zM183 578c-36 0 -62 17 -62 60s26 62 62 62c31 0 62 -19 62 -62s-31 -60 -62 -60
zM371 578c-36 0 -62 17 -62 60s26 62 62 62c31 0 62 -19 62 -62s-31 -60 -62 -60z" />
    <glyph glyph-name="omacron.sc" horiz-adv-x="552" 
d="M149 253c0 -105 26 -177 126 -177s129 72 129 177s-30 178 -127 178s-128 -73 -128 -178zM508 253c0 -149 -66 -261 -233 -261s-231 112 -231 261s63 262 233 262c168 0 231 -114 231 -262zM133 670h288v-79h-288v79z" />
    <glyph glyph-name="obreve.sc" horiz-adv-x="552" 
d="M149 253c0 -105 26 -177 126 -177s129 72 129 177s-30 178 -127 178s-128 -73 -128 -178zM508 253c0 -149 -66 -261 -233 -261s-231 112 -231 261s63 262 233 262c168 0 231 -114 231 -262zM354 706h68c0 -82 -52 -146 -147 -146c-92 0 -144 64 -144 146h66
c5 -42 35 -72 78 -72c45 0 74 30 79 72z" />
    <glyph glyph-name="ohungarumlaut.sc" horiz-adv-x="552" 
d="M149 253c0 -105 26 -177 126 -177s129 72 129 177s-30 178 -127 178s-128 -73 -128 -178zM508 253c0 -149 -66 -261 -233 -261s-231 112 -231 261s63 262 233 262c168 0 231 -114 231 -262zM222 726h99l-87 -159h-87zM388 726h99l-87 -159h-87z" />
    <glyph glyph-name="oslash.sc" horiz-adv-x="552" 
d="M508 253c0 -149 -66 -261 -233 -261c-56 0 -100 12 -134 34l-20 -26h-80l53 70c-35 46 -50 110 -50 183c0 149 63 262 233 262c54 0 97 -12 130 -33l19 25h83l-53 -69c36 -47 52 -112 52 -185zM404 253c0 38 -4 72 -14 99l-193 -253c19 -15 44 -23 78 -23
c100 0 129 72 129 177zM149 253c0 -37 3 -69 11 -96l192 252c-19 14 -43 22 -75 22c-97 0 -128 -73 -128 -178z" />
    <glyph glyph-name="oslashacute.sc" horiz-adv-x="552" 
d="M303 726h99l-87 -159h-87zM508 253c0 -149 -66 -261 -233 -261c-56 0 -100 12 -134 34l-20 -26h-80l53 70c-35 46 -50 110 -50 183c0 149 63 262 233 262c54 0 97 -12 130 -33l19 25h83l-53 -69c36 -47 52 -112 52 -185zM404 253c0 38 -4 72 -14 99l-193 -253
c19 -15 44 -23 78 -23c100 0 129 72 129 177zM149 253c0 -37 3 -69 11 -96l192 252c-19 14 -43 22 -75 22c-97 0 -128 -73 -128 -178z" />
    <glyph glyph-name="oe.sc" horiz-adv-x="735" 
d="M439 80h251v-80h-337c-23 -5 -49 -8 -78 -8c-167 0 -231 112 -231 261s63 262 233 262c27 0 53 -3 75 -8h335v-80h-248v-131h215v-81h-215v-135zM275 76c25 0 45 2 62 8v338c-17 6 -36 9 -60 9c-97 0 -128 -73 -128 -178s26 -177 126 -177z" />
    <glyph glyph-name="racute.sc" horiz-adv-x="512" 
d="M69 0v507h205c133 0 196 -54 196 -149c0 -74 -44 -129 -129 -143l140 -215h-113l-129 206h-68v-206h-102zM366 358c0 41 -24 69 -102 69h-93v-140h93c78 0 102 26 102 71zM266 726h99l-87 -159h-87z" />
    <glyph glyph-name="rcaron.sc" horiz-adv-x="512" 
d="M69 0v507h205c133 0 196 -54 196 -149c0 -74 -44 -129 -129 -143l140 -215h-113l-129 206h-68v-206h-102zM366 358c0 41 -24 69 -102 69h-93v-140h93c78 0 102 26 102 71zM287 566h-100l-102 160h91l61 -95l60 95h91z" />
    <glyph glyph-name="rcommaaccent.sc" horiz-adv-x="512" 
d="M69 0v507h205c133 0 196 -54 196 -149c0 -74 -44 -129 -129 -143l140 -215h-113l-129 206h-68v-206h-102zM366 358c0 41 -24 69 -102 69h-93v-140h93c78 0 102 26 102 71zM304 -65l-58 -151h-77l26 151h109z" />
    <glyph glyph-name="sacute.sc" horiz-adv-x="462" 
d="M415 440l-69 -55c-21 28 -56 46 -106 46c-55 0 -82 -29 -82 -65c0 -29 18 -48 59 -60l70 -20c96 -28 134 -75 134 -139c0 -99 -81 -155 -195 -155c-122 0 -173 52 -196 93l71 55c20 -35 48 -64 125 -64c60 0 90 26 90 63c0 32 -22 50 -65 62l-69 19
c-94 28 -129 78 -129 141c0 78 53 154 187 154c93 0 147 -36 175 -75zM267 726h99l-87 -159h-87z" />
    <glyph glyph-name="scircumflex.sc" horiz-adv-x="462" 
d="M415 440l-69 -55c-21 28 -56 46 -106 46c-55 0 -82 -29 -82 -65c0 -29 18 -48 59 -60l70 -20c96 -28 134 -75 134 -139c0 -99 -81 -155 -195 -155c-122 0 -173 52 -196 93l71 55c20 -35 48 -64 125 -64c60 0 90 26 90 63c0 32 -22 50 -65 62l-69 19
c-94 28 -129 78 -129 141c0 78 53 154 187 154c93 0 147 -36 175 -75zM182 726h100l101 -160h-91l-60 95l-61 -95h-91z" />
    <glyph glyph-name="scaron.sc" horiz-adv-x="462" 
d="M415 440l-69 -55c-21 28 -56 46 -106 46c-55 0 -82 -29 -82 -65c0 -29 18 -48 59 -60l70 -20c96 -28 134 -75 134 -139c0 -99 -81 -155 -195 -155c-122 0 -173 52 -196 93l71 55c20 -35 48 -64 125 -64c60 0 90 26 90 63c0 32 -22 50 -65 62l-69 19
c-94 28 -129 78 -129 141c0 78 53 154 187 154c93 0 147 -36 175 -75zM282 566h-100l-102 160h91l61 -95l60 95h91z" />
    <glyph glyph-name="scedilla.sc" horiz-adv-x="462" 
d="M415 440l-69 -55c-21 28 -56 46 -106 46c-55 0 -82 -29 -82 -65c0 -29 18 -48 59 -60l70 -20c96 -28 134 -75 134 -139c0 -88 -64 -142 -158 -153l-17 -44c51 0 94 -21 94 -81c0 -50 -42 -85 -109 -85c-37 0 -67 10 -92 23v66c23 -17 56 -30 84 -30c25 0 37 11 37 26
c0 21 -18 28 -49 28h-39l-5 6l31 90c-102 7 -147 54 -168 92l71 55c20 -35 48 -64 125 -64c60 0 90 26 90 63c0 32 -22 50 -65 62l-69 19c-94 28 -129 78 -129 141c0 78 53 154 187 154c93 0 147 -36 175 -75z" />
    <glyph glyph-name="scommaaccent.sc" horiz-adv-x="462" 
d="M415 440l-69 -55c-21 28 -56 46 -106 46c-55 0 -82 -29 -82 -65c0 -29 18 -48 59 -60l70 -20c96 -28 134 -75 134 -139c0 -99 -81 -155 -195 -155c-122 0 -173 52 -196 93l71 55c20 -35 48 -64 125 -64c60 0 90 26 90 63c0 32 -22 50 -65 62l-69 19
c-94 28 -129 78 -129 141c0 78 53 154 187 154c93 0 147 -36 175 -75zM296 -65l-58 -151h-77l26 151h109z" />
    <glyph glyph-name="tcaron.sc" horiz-adv-x="460" 
d="M31 507h398v-80h-148v-427h-102v427h-148v80zM280 566h-100l-102 160h91l61 -95l60 95h91z" />
    <glyph glyph-name="tcommaaccent.sc" horiz-adv-x="459" 
d="M31 507h398v-80h-148v-427h-19l-20 -50c51 0 94 -21 94 -81c0 -50 -42 -85 -109 -85c-37 0 -67 10 -92 23v66c23 -17 56 -30 84 -30c25 0 37 11 37 26c0 21 -18 28 -49 28h-39l-5 6l33 97h-17v427h-148v80z" />
    <glyph glyph-name="uni021A.sc" horiz-adv-x="461" 
d="M284 -65l-58 -151h-77l26 151h109zM32 507h398v-80h-148v-427h-102v427h-148v80z" />
    <glyph glyph-name="tbar.sc" horiz-adv-x="464" 
d="M103 279h78v148h-148v80h398v-80h-148v-148h79v-73h-79v-206h-102v206h-78v73z" />
    <glyph glyph-name="thorn.sc" horiz-adv-x="487" 
d="M259 92h-88v-92h-102v507h102v-93h88c127 0 195 -58 195 -161s-68 -161 -195 -161zM171 334v-161h81c72 0 97 31 97 80c0 48 -25 81 -97 81h-81z" />
    <glyph glyph-name="ugrave.sc" horiz-adv-x="548" 
d="M274 -7c-124 0 -210 59 -210 200v314h102v-312c0 -80 33 -119 108 -119s108 39 108 119v312h102v-314c0 -141 -87 -200 -210 -200zM146 726h99l75 -159h-87z" />
    <glyph glyph-name="uacute.sc" horiz-adv-x="548" 
d="M274 -7c-124 0 -210 59 -210 200v314h102v-312c0 -80 33 -119 108 -119s108 39 108 119v312h102v-314c0 -141 -87 -200 -210 -200zM303 726h99l-87 -159h-87z" />
    <glyph glyph-name="ucircumflex.sc" horiz-adv-x="548" 
d="M274 -7c-124 0 -210 59 -210 200v314h102v-312c0 -80 33 -119 108 -119s108 39 108 119v312h102v-314c0 -141 -87 -200 -210 -200zM224 726h100l101 -160h-91l-60 95l-61 -95h-91z" />
    <glyph glyph-name="utilde.sc" horiz-adv-x="548" 
d="M274 -7c-124 0 -210 59 -210 200v314h102v-312c0 -80 33 -119 108 -119s108 39 108 119v312h102v-314c0 -141 -87 -200 -210 -200zM419 674l-4 -76c-21 15 -45 25 -69 25c-51 0 -90 -40 -148 -40c-30 0 -57 12 -69 23l4 76c17 -17 36 -25 65 -25c51 0 81 40 148 40
c35 0 56 -12 73 -23z" />
    <glyph glyph-name="udieresis.sc" horiz-adv-x="548" 
d="M274 -7c-124 0 -210 59 -210 200v314h102v-312c0 -80 33 -119 108 -119s108 39 108 119v312h102v-314c0 -141 -87 -200 -210 -200zM180 578c-36 0 -62 17 -62 60s26 62 62 62c31 0 62 -19 62 -62s-31 -60 -62 -60zM368 578c-36 0 -62 17 -62 60s26 62 62 62
c31 0 62 -19 62 -62s-31 -60 -62 -60z" />
    <glyph glyph-name="umacron.sc" horiz-adv-x="548" 
d="M274 -7c-124 0 -210 59 -210 200v314h102v-312c0 -80 33 -119 108 -119s108 39 108 119v312h102v-314c0 -141 -87 -200 -210 -200zM130 670h288v-79h-288v79z" />
    <glyph glyph-name="ubreve.sc" horiz-adv-x="548" 
d="M274 -7c-124 0 -210 59 -210 200v314h102v-312c0 -80 33 -119 108 -119s108 39 108 119v312h102v-314c0 -141 -87 -200 -210 -200zM351 706h68c0 -82 -52 -146 -147 -146c-92 0 -144 64 -144 146h66c5 -42 35 -72 78 -72c45 0 74 30 79 72z" />
    <glyph glyph-name="uring.sc" horiz-adv-x="548" 
d="M274 -7c-124 0 -210 59 -210 200v314h102v-312c0 -80 33 -119 108 -119s108 39 108 119v312h102v-314c0 -141 -87 -200 -210 -200zM167 649c0 53 37 98 105 98c71 0 108 -45 108 -98c0 -50 -37 -97 -108 -97c-68 0 -105 47 -105 97zM226 649c0 -23 17 -43 46 -43
c31 0 47 20 47 43c0 24 -16 44 -47 44c-29 0 -46 -20 -46 -44z" />
    <glyph glyph-name="uhungarumlaut.sc" horiz-adv-x="548" 
d="M274 -7c-124 0 -210 59 -210 200v314h102v-312c0 -80 33 -119 108 -119s108 39 108 119v312h102v-314c0 -141 -87 -200 -210 -200zM221 726h99l-87 -159h-87zM387 726h99l-87 -159h-87z" />
    <glyph glyph-name="uogonek.sc" horiz-adv-x="548" 
d="M484 193c0 -106 -49 -165 -125 -188l-65 -50c-20 -16 -32 -31 -32 -48c0 -19 14 -34 38 -34c17 0 44 11 65 26v-83c-24 -13 -52 -23 -93 -23c-69 0 -113 35 -113 93c0 40 21 70 59 101l11 9c-100 13 -165 74 -165 197v314h102v-312c0 -80 33 -119 108 -119
s108 39 108 119v312h102v-314z" />
    <glyph glyph-name="wacute.sc" horiz-adv-x="811" 
d="M348 507h115l114 -397l106 397h104l-144 -507h-125l-113 373l-113 -373h-124l-145 507h105l107 -397zM437 726h99l-87 -159h-87z" />
    <glyph glyph-name="wcircumflex.sc" horiz-adv-x="811" 
d="M348 507h115l114 -397l106 397h104l-144 -507h-125l-113 373l-113 -373h-124l-145 507h105l107 -397zM356 726h100l101 -160h-91l-60 95l-61 -95h-91z" />
    <glyph glyph-name="wdieresis.sc" horiz-adv-x="811" 
d="M348 507h115l114 -397l106 397h104l-144 -507h-125l-113 373l-113 -373h-124l-145 507h105l107 -397zM312 578c-36 0 -62 17 -62 60s26 62 62 62c31 0 62 -19 62 -62s-31 -60 -62 -60zM500 578c-36 0 -62 17 -62 60s26 62 62 62c31 0 62 -19 62 -62s-31 -60 -62 -60z" />
    <glyph glyph-name="wgrave.sc" horiz-adv-x="811" 
d="M348 507h115l114 -397l106 397h104l-144 -507h-125l-113 373l-113 -373h-124l-145 507h105l107 -397zM274 726h99l75 -159h-87z" />
    <glyph glyph-name="yacute.sc" horiz-adv-x="493" 
d="M298 0h-102v197l-185 310h111l126 -221l123 221h112l-185 -310v-197zM278 726h99l-87 -159h-87z" />
    <glyph glyph-name="ycircumflex.sc" horiz-adv-x="493" 
d="M298 0h-102v197l-185 310h111l126 -221l123 221h112l-185 -310v-197zM198 726h100l101 -160h-91l-60 95l-61 -95h-91z" />
    <glyph glyph-name="ydieresis.sc" horiz-adv-x="493" 
d="M298 0h-102v197l-185 310h111l126 -221l123 221h112l-185 -310v-197zM154 578c-36 0 -62 17 -62 60s26 62 62 62c31 0 62 -19 62 -62s-31 -60 -62 -60zM342 578c-36 0 -62 17 -62 60s26 62 62 62c31 0 62 -19 62 -62s-31 -60 -62 -60z" />
    <glyph glyph-name="ygrave.sc" horiz-adv-x="493" 
d="M298 0h-102v197l-185 310h111l126 -221l123 221h112l-185 -310v-197zM122 726h99l75 -159h-87z" />
    <glyph glyph-name="zacute.sc" horiz-adv-x="445" 
d="M399 507v-71l-243 -356h250v-80h-369v70l243 357h-231v80h350zM251 726h99l-87 -159h-87z" />
    <glyph glyph-name="zcaron.sc" horiz-adv-x="445" 
d="M399 507v-71l-243 -356h250v-80h-369v70l243 357h-231v80h350zM272 566h-100l-102 160h91l61 -95l60 95h91z" />
    <glyph glyph-name="zdotaccent.sc" horiz-adv-x="445" 
d="M399 507v-71l-243 -356h250v-80h-369v70l243 357h-231v80h350zM222 578c-36 0 -62 17 -62 60s26 62 62 62c31 0 62 -19 62 -62s-31 -60 -62 -60z" />
    <glyph glyph-name="ij.sc" horiz-adv-x="649" 
d="M67 0v507h102v-507h-102zM256 76l72 45c15 -27 36 -45 77 -45c55 0 83 27 83 98v333h96v-340c0 -115 -67 -175 -179 -175c-76 0 -125 36 -149 84z" />
    <glyph glyph-name="germandbls.sc" horiz-adv-x="921" 
d="M875 440l-69 -55c-21 28 -56 46 -106 46c-55 0 -82 -29 -82 -65c0 -29 18 -48 59 -60l70 -20c96 -28 134 -75 134 -139c0 -99 -81 -155 -195 -155c-122 0 -173 52 -196 93l71 55c20 -35 48 -64 125 -64c60 0 90 26 90 63c0 32 -22 50 -65 62l-69 19
c-94 28 -129 78 -129 141c0 78 53 154 187 154c93 0 147 -36 175 -75zM415 440l-69 -55c-21 28 -56 46 -106 46c-55 0 -82 -29 -82 -65c0 -29 18 -48 59 -60l70 -20c96 -28 134 -75 134 -139c0 -99 -81 -155 -195 -155c-122 0 -173 52 -196 93l71 55c20 -35 48 -64 125 -64
c60 0 90 26 90 63c0 32 -22 50 -65 62l-69 19c-94 28 -129 78 -129 141c0 78 53 154 187 154c93 0 147 -36 175 -75z" />
    <glyph glyph-name="fi.sc" horiz-adv-x="694" 
d="M69 0v507h339v-80h-237v-145h200v-81h-200v-201h-102zM522 0v507h102v-507h-102z" />
    <glyph glyph-name="fl.sc" horiz-adv-x="865" 
d="M69 0v507h339v-80h-237v-145h200v-81h-200v-201h-102zM624 80h219v-80h-321v507h102v-427z" />
    <glyph glyph-name="eng.sc" horiz-adv-x="575" 
d="M406 162v345h100v-511c0 -62 -21 -125 -100 -167l-65 65c41 21 62 51 64 105l-235 351c0 -116 1 -233 1 -350h-103v507h108z" />
    <glyph glyph-name="grave.sc" horiz-adv-x="600" 
d="M213 726h99l75 -159h-87z" />
    <glyph glyph-name="acute.sc" horiz-adv-x="600" 
d="M288 726h99l-87 -159h-87z" />
    <glyph glyph-name="circumflex.sc" horiz-adv-x="600" 
d="M250 726h100l101 -160h-91l-60 95l-61 -95h-91z" />
    <glyph glyph-name="caron.sc" horiz-adv-x="600" 
d="M350 566h-100l-102 160h91l61 -95l60 95h91z" />
    <glyph glyph-name="caronalt.sc" horiz-adv-x="600" 
d="M365 507l-58 -162h-72l25 162h105z" />
    <glyph glyph-name="tilde.sc" horiz-adv-x="600" 
d="M445 674l-4 -76c-21 15 -45 25 -69 25c-51 0 -90 -40 -148 -40c-30 0 -57 12 -69 23l4 76c17 -17 36 -25 65 -25c51 0 81 40 148 40c35 0 56 -12 73 -23z" />
    <glyph glyph-name="dieresis.sc" horiz-adv-x="600" 
d="M206 578c-36 0 -62 17 -62 60s26 62 62 62c31 0 62 -19 62 -62s-31 -60 -62 -60zM394 578c-36 0 -62 17 -62 60s26 62 62 62c31 0 62 -19 62 -62s-31 -60 -62 -60z" />
    <glyph glyph-name="macron.sc" horiz-adv-x="600" 
d="M156 670h288v-79h-288v79z" />
    <glyph glyph-name="breve.sc" horiz-adv-x="600" 
d="M377 706h68c0 -82 -52 -146 -147 -146c-92 0 -144 64 -144 146h66c5 -42 35 -72 78 -72c45 0 74 30 79 72z" />
    <glyph glyph-name="ring.sc" horiz-adv-x="600" 
d="M193 649c0 53 37 98 105 98c71 0 108 -45 108 -98c0 -50 -37 -97 -108 -97c-68 0 -105 47 -105 97zM252 649c0 -23 17 -43 46 -43c31 0 47 20 47 43c0 24 -16 44 -47 44c-29 0 -46 -20 -46 -44z" />
    <glyph glyph-name="hungarumlaut.sc" horiz-adv-x="600" 
d="M205 726h99l-87 -159h-87zM371 726h99l-87 -159h-87z" />
    <glyph glyph-name="dotaccent.sc" horiz-adv-x="600" 
d="M300 578c-36 0 -62 17 -62 60s26 62 62 62c31 0 62 -19 62 -62s-31 -60 -62 -60z" />
    <glyph glyph-name="exclamdown.sc" horiz-adv-x="229" 
d="M76 338h78l16 -338h-111zM115 511c36 0 62 -24 62 -56c0 -33 -26 -57 -62 -57s-62 24 -62 57c0 32 26 56 62 56z" />
    <glyph glyph-name="questiondown.sc" horiz-adv-x="383" 
d="M203 511c37 0 62 -24 62 -56c0 -33 -25 -57 -62 -57c-36 0 -63 24 -63 57c0 32 27 56 63 56zM200 -8c-107 0 -166 60 -166 135c0 103 122 126 122 211h95c0 -113 -123 -141 -123 -207c0 -30 23 -55 65 -55c45 0 67 23 67 48l90 -9c0 -65 -45 -123 -150 -123z" />
    <glyph glyph-name="Euro.sc" horiz-adv-x="482" 
d="M39 332h44c18 112 83 183 216 183c56 0 97 -12 142 -30l-31 -80c-30 13 -69 25 -114 25c-68 0 -100 -39 -112 -98h199l-22 -59h-182v-18c0 -9 0 -17 1 -25h166l-22 -59h-135c15 -57 53 -95 114 -95c32 0 73 8 113 30l24 -83c-41 -19 -87 -31 -141 -31
c-123 0 -194 63 -215 179h-45v59h38v43h-38v59z" />
    <glyph glyph-name="cent.sc" horiz-adv-x="405" 
d="M44 171c0 96 48 179 169 179c8 0 16 0 24 -1l15 56l48 -10l-15 -57c33 -12 59 -34 75 -64l-61 -46c-8 15 -20 26 -34 34l-51 -193h7c35 0 63 17 79 45l60 -46c-26 -51 -79 -76 -147 -76c-7 0 -13 0 -19 1l-12 -47l-47 10l12 46c-73 24 -103 92 -103 169zM134 171
c0 -40 11 -70 34 -87l49 189c-57 -2 -83 -42 -83 -102z" />
    <glyph glyph-name="sterling.sc" horiz-adv-x="476" 
d="M38 253h51v79c0 97 47 183 179 183c83 0 132 -32 175 -76l-61 -61c-33 33 -65 50 -110 50c-62 0 -86 -38 -86 -96v-79h138v-59h-138v-118h220v-76h-317v194h-51v59z" />
    <glyph glyph-name="florin.sc" horiz-adv-x="323" 
d="M195 265v-321c0 -60 -37 -114 -116 -114c-30 0 -56 5 -67 10v78c14 -5 33 -6 45 -6c35 0 46 20 46 52v301h-71v77h71v70c0 59 36 113 121 113c24 0 50 -5 61 -9v-77c-14 3 -31 5 -45 5c-32 0 -45 -17 -45 -51v-51h78v-77h-78z" />
    <glyph glyph-name="yen.sc" horiz-adv-x="508" 
d="M57 230h129l-23 42h-106v60h72l-98 175h109l112 -216l113 216h110l-101 -175h75v-60h-109l-24 -42h133v-59h-150v-171h-97v171h-145v59z" />
    <glyph glyph-name="rupee.sc" horiz-adv-x="475" 
d="M50 507h385v-64h-101c16 -15 29 -38 32 -64h69v-51h-69c-7 -59 -45 -102 -108 -118l135 -210h-115l-124 198h-104v79h83c89 0 118 14 124 51h-207v51h207c-6 33 -27 49 -94 49h-113v79z" />
    <glyph glyph-name="perthousand.sc" horiz-adv-x="971" 
d="M547 507l-326 -507h-75l325 507h76zM536 49c41 0 53 28 53 88c0 59 -12 88 -53 88c-40 0 -54 -29 -54 -88c0 -60 14 -88 54 -88zM536 278c90 0 125 -56 125 -141s-36 -142 -125 -142c-90 0 -125 57 -125 142s36 141 125 141zM159 282c41 0 53 29 53 88
c0 60 -12 88 -53 88c-40 0 -54 -28 -54 -88c0 -59 14 -88 54 -88zM159 512c90 0 125 -57 125 -142s-36 -141 -125 -141c-90 0 -125 56 -125 141s36 142 125 142zM814 49c40 0 53 28 53 88c0 59 -13 88 -53 88c-41 0 -54 -29 -54 -88c0 -60 13 -88 54 -88zM814 278
c89 0 124 -56 124 -141s-36 -142 -124 -142c-91 0 -126 57 -126 142s36 141 126 141z" />
    <glyph glyph-name="zero.tf" 
d="M280 81c99 0 133 90 133 257s-34 257 -133 257s-133 -90 -133 -257s34 -257 133 -257zM280 687c174 0 242 -137 242 -349s-70 -349 -242 -349c-174 0 -243 137 -243 349s71 349 243 349z" />
    <glyph glyph-name="one.tf" 
d="M78 0v90h173v479l-161 -65l-29 86l203 86h95v-586h147v-90h-428z" />
    <glyph glyph-name="two.tf" 
d="M273 687c131 0 213 -85 213 -202c0 -95 -61 -169 -135 -247l-140 -150h285v-88h-427v76l210 226c61 65 97 119 97 183s-35 110 -103 110c-70 0 -104 -48 -104 -120h-106c0 125 70 212 210 212z" />
    <glyph glyph-name="three.tf" 
d="M375 346c68 -14 131 -74 131 -166c0 -113 -91 -191 -231 -191c-156 0 -225 80 -225 183h106c0 -55 44 -92 119 -92c74 0 121 42 121 106c0 71 -53 116 -141 116h-64v88h64c79 0 130 36 130 105c0 60 -41 100 -110 100c-72 0 -109 -39 -109 -91h-107c0 98 66 183 216 183
c136 0 220 -79 220 -187c0 -82 -54 -138 -120 -154z" />
    <glyph glyph-name="four.tf" 
d="M531 228v-88h-88v-140h-106v140h-317v79l312 457h111v-448h88zM133 228h204v304z" />
    <glyph glyph-name="five.tf" 
d="M504 217c0 -126 -79 -228 -231 -228c-156 0 -223 86 -223 192h106c0 -58 39 -101 116 -101c84 0 122 58 122 138c0 74 -42 124 -119 124c-45 0 -81 -17 -108 -38l-86 13l42 359h356v-88h-269l-22 -185c21 12 62 30 108 30c113 0 208 -66 208 -216z" />
    <glyph glyph-name="six.tf" 
d="M157 263c0 -98 39 -183 130 -183c82 0 124 54 124 135c0 79 -43 129 -124 129c-62 0 -108 -40 -130 -81zM399 504c0 56 -40 91 -105 91c-96 0 -139 -95 -139 -232c25 29 83 68 157 68c130 0 208 -85 208 -215c0 -122 -76 -227 -233 -227c-169 0 -241 138 -241 326
c0 220 75 372 248 372c145 0 212 -82 212 -183h-107z" />
    <glyph glyph-name="seven.tf" 
d="M133 0l245 588h-308v88h427v-77l-248 -599h-116z" />
    <glyph glyph-name="eight.tf" 
d="M280 -11c-143 0 -240 69 -240 194c0 94 61 147 129 165c-65 20 -115 69 -115 150c0 115 86 189 226 189c141 0 226 -74 226 -189c0 -81 -50 -130 -114 -150c66 -18 127 -71 127 -165c0 -125 -96 -194 -239 -194zM280 595c-71 0 -117 -35 -117 -102s51 -101 117 -101
s117 34 117 101s-46 102 -117 102zM279 80c80 0 131 40 131 112c0 73 -57 111 -131 111c-73 0 -129 -38 -129 -111c0 -72 51 -112 129 -112z" />
    <glyph glyph-name="nine.tf" 
d="M403 413c0 98 -39 183 -129 183c-83 0 -125 -54 -125 -135c0 -79 43 -129 125 -129c61 0 107 40 129 81zM54 172h107c0 -56 40 -91 104 -91c98 0 140 95 140 232c-24 -28 -83 -69 -157 -69c-130 0 -208 86 -208 216c0 122 76 227 234 227c169 0 240 -139 240 -326
c0 -220 -74 -372 -249 -372c-144 0 -211 82 -211 183z" />
    <glyph glyph-name="zero.tosf" 
d="M280 84c98 0 135 76 135 203c0 128 -37 205 -135 205s-135 -77 -135 -205c0 -127 37 -203 135 -203zM280 586c166 0 244 -117 244 -299c0 -180 -79 -298 -244 -298c-167 0 -244 118 -244 298c0 182 79 299 244 299z" />
    <glyph glyph-name="one.tosf" 
d="M93 0v93h165v373l-157 -57l-28 82l198 84h91v-482h140v-93h-409z" />
    <glyph glyph-name="two.tosf" 
d="M488 0h-413v69l215 181c57 47 93 86 93 141c0 57 -36 105 -107 105c-76 0 -106 -48 -106 -113h-102c0 117 73 203 208 203c147 0 212 -97 212 -187c0 -91 -55 -149 -123 -201l-136 -116h259v-82z" />
    <glyph glyph-name="three.tosf" 
d="M375 245c68 -14 131 -74 131 -166c0 -113 -91 -191 -231 -191c-156 0 -225 80 -225 183h106c0 -55 44 -92 119 -92c74 0 121 42 121 106c0 71 -53 116 -141 116h-64v88h64c79 0 130 36 130 105c0 60 -41 100 -110 100c-72 0 -109 -39 -109 -91h-107c0 98 66 183 216 183
c136 0 220 -79 220 -187c0 -82 -54 -138 -120 -154z" />
    <glyph glyph-name="four.tosf" 
d="M530 128v-88h-88v-140h-106v140h-317v79l312 457h111v-448h88zM132 128h204v304z" />
    <glyph glyph-name="five.tosf" 
d="M502 116c0 -126 -79 -228 -231 -228c-156 0 -223 86 -223 192h106c0 -58 39 -101 116 -101c84 0 122 58 122 138c0 74 -42 124 -119 124c-45 0 -81 -17 -108 -38l-86 13l42 359h356v-88h-269l-22 -185c21 12 62 30 108 30c113 0 208 -66 208 -216z" />
    <glyph glyph-name="six.tosf" 
d="M157 263c0 -98 39 -183 130 -183c82 0 124 54 124 135c0 79 -43 129 -124 129c-62 0 -108 -40 -130 -81zM399 504c0 56 -40 91 -105 91c-96 0 -139 -95 -139 -232c25 29 83 68 157 68c130 0 208 -85 208 -215c0 -122 -76 -227 -233 -227c-169 0 -241 138 -241 326
c0 220 75 372 248 372c145 0 212 -82 212 -183h-107z" />
    <glyph glyph-name="seven.tosf" 
d="M133 -100l245 588h-308v88h427v-77l-248 -599h-116z" />
    <glyph glyph-name="eight.tosf" 
d="M280 -11c-143 0 -240 69 -240 194c0 94 61 147 129 165c-65 20 -115 69 -115 150c0 115 86 189 226 189c141 0 226 -74 226 -189c0 -81 -50 -130 -114 -150c66 -18 127 -71 127 -165c0 -125 -96 -194 -239 -194zM280 595c-71 0 -117 -35 -117 -102s51 -101 117 -101
s117 34 117 101s-46 102 -117 102zM279 80c80 0 131 40 131 112c0 73 -57 111 -131 111c-73 0 -129 -38 -129 -111c0 -72 51 -112 129 -112z" />
    <glyph glyph-name="nine.tosf" 
d="M403 312c0 98 -39 183 -129 183c-83 0 -125 -54 -125 -135c0 -79 43 -129 125 -129c61 0 107 40 129 81zM54 71h107c0 -56 40 -91 104 -91c98 0 140 95 140 232c-24 -28 -83 -69 -157 -69c-130 0 -208 86 -208 216c0 122 76 227 234 227c169 0 240 -139 240 -326
c0 -220 -74 -372 -249 -372c-144 0 -211 82 -211 183z" />
    <glyph glyph-name="Euro.tf" 
d="M33 437h55c22 152 101 249 261 249c69 0 122 -16 175 -41l-34 -90c-39 20 -86 36 -143 36c-92 0 -135 -62 -150 -154h251l-25 -69h-233v-28c0 -14 0 -27 1 -39h209l-25 -68h-174c19 -88 67 -149 153 -149c42 0 94 11 144 43l27 -93c-51 -28 -109 -45 -176 -45
c-152 0 -236 88 -260 244h-56v68h48v67h-48v69z" />
    <glyph glyph-name="cent.tf" 
d="M88 228c0 130 60 238 207 238c10 0 19 -1 29 -2l18 76l56 -13l-19 -76c40 -15 72 -43 92 -82l-71 -51c-12 19 -25 34 -42 44l-69 -283h13c46 0 77 22 98 58l71 -51c-32 -64 -95 -97 -176 -97c-10 0 -19 1 -27 2l-15 -62l-55 13l14 61c-87 33 -124 121 -124 225zM190 228
c0 -57 13 -104 46 -129l67 278h-1c-81 0 -112 -63 -112 -149z" />
    <glyph glyph-name="sterling.tf" 
d="M35 332h64v111c0 130 57 243 217 243c99 0 162 -40 212 -97l-67 -69c-42 49 -84 70 -141 70c-85 0 -117 -61 -117 -147v-111h180v-68h-180v-178h281v-86h-385v264h-64v68z" />
    <glyph glyph-name="florin.tf" 
d="M326 368v-441c0 -81 -42 -153 -139 -153c-33 0 -62 5 -76 10v89c18 -5 39 -8 54 -8c49 0 63 29 63 79v424h-92v88h92v91c0 81 41 153 144 153c28 0 57 -5 70 -10v-89c-17 5 -36 8 -54 8c-46 0 -62 -26 -62 -78v-75h101v-88h-101z" />
    <glyph glyph-name="yen.tf" 
d="M48 302h161l-35 67h-126v68h89l-127 239h118l150 -305l153 305h119l-130 -239h91v-68h-129l-36 -67h165v-69h-182v-233h-104v233h-177v69z" />
    <glyph glyph-name="rupee.tf" 
d="M59 676l453 1v-69h-123c26 -25 41 -61 44 -99h79v-69h-80c-10 -79 -70 -137 -158 -153l175 -287h-124l-163 276h-103v84h105c99 0 142 25 158 80h-263v69h264c-15 56 -52 81 -148 81h-116v86z" />
    <glyph glyph-name="dollar.tf" 
d="M317 -103h-65v93c-133 7 -188 74 -213 125l78 59c22 -45 54 -84 135 -90v212l-28 8c-110 34 -158 95 -158 181c0 95 56 184 186 199v75h65v-73c98 -7 157 -51 188 -99l-76 -60c-24 35 -60 59 -112 65v-210l32 -9c111 -34 164 -91 164 -182c0 -112 -77 -186 -196 -199v-95
zM403 184c0 48 -33 75 -86 92v-190c56 11 86 46 86 98zM177 491c0 -46 23 -72 75 -90v187c-50 -12 -75 -50 -75 -97z" />
    <glyph glyph-name="zero.osf" horiz-adv-x="599" 
d="M299 84c103 0 142 76 142 203c0 128 -39 205 -142 205c-102 0 -141 -77 -141 -205c0 -127 39 -203 141 -203zM299 586c172 0 251 -117 251 -299c0 -180 -81 -298 -251 -298c-171 0 -250 118 -250 298c0 182 80 299 250 299z" />
    <glyph glyph-name="one.osf" horiz-adv-x="384" 
d="M307 0h-105v474l-158 -64l-27 83l197 82h93v-575z" />
    <glyph glyph-name="two.osf" horiz-adv-x="519" 
d="M467 0h-413v69l215 181c57 47 93 86 93 141c0 57 -36 105 -107 105c-76 0 -106 -48 -106 -113h-102c0 117 73 203 208 203c147 0 212 -97 212 -187c0 -91 -55 -149 -123 -201l-136 -116h259v-82z" />
    <glyph glyph-name="three.osf" horiz-adv-x="547" 
d="M368 246c68 -14 131 -74 131 -166c0 -113 -91 -191 -231 -191c-156 0 -225 80 -225 183h106c0 -55 44 -92 119 -92c74 0 121 42 121 106c0 71 -53 116 -141 116h-64v88h64c79 0 130 36 130 105c0 60 -41 100 -110 100c-72 0 -109 -39 -109 -91h-107c0 98 66 183 216 183
c136 0 220 -79 220 -187c0 -82 -54 -138 -120 -154z" />
    <glyph glyph-name="four.osf" horiz-adv-x="578" 
d="M539 128v-88h-88v-140h-106v140h-317v79l312 457h111v-448h88zM141 128h204v304z" />
    <glyph glyph-name="five.osf" horiz-adv-x="533" 
d="M489 117c0 -126 -79 -228 -231 -228c-156 0 -223 86 -223 192h106c0 -58 39 -101 116 -101c84 0 122 58 122 138c0 74 -42 124 -119 124c-45 0 -81 -17 -108 -38l-86 13l42 359h356v-88h-269l-22 -185c21 12 62 30 108 30c113 0 208 -66 208 -216z" />
    <glyph glyph-name="six.osf" horiz-adv-x="567" 
d="M160 263c0 -98 39 -183 130 -183c82 0 124 54 124 135c0 79 -43 129 -124 129c-62 0 -108 -40 -130 -81zM402 504c0 56 -40 91 -105 91c-96 0 -139 -95 -139 -232c25 29 83 68 157 68c130 0 208 -85 208 -215c0 -122 -76 -227 -233 -227c-169 0 -241 138 -241 326
c0 220 75 372 248 372c145 0 212 -82 212 -183h-107z" />
    <glyph glyph-name="seven.osf" horiz-adv-x="493" 
d="M100 -100l245 588h-308v88h427v-77l-248 -599h-116z" />
    <glyph glyph-name="eight.osf" horiz-adv-x="576" 
d="M288 -11c-143 0 -240 69 -240 194c0 94 61 147 129 165c-65 20 -115 69 -115 150c0 115 86 189 226 189c141 0 226 -74 226 -189c0 -81 -50 -130 -114 -150c66 -18 127 -71 127 -165c0 -125 -96 -194 -239 -194zM288 595c-71 0 -117 -35 -117 -102s51 -101 117 -101
s117 34 117 101s-46 102 -117 102zM287 80c80 0 131 40 131 112c0 73 -57 111 -131 111c-73 0 -129 -38 -129 -111c0 -72 51 -112 129 -112z" />
    <glyph glyph-name="nine.osf" horiz-adv-x="566" 
d="M406 312c0 98 -39 183 -129 183c-83 0 -125 -54 -125 -135c0 -79 43 -129 125 -129c61 0 107 40 129 81zM57 71h107c0 -56 40 -91 104 -91c98 0 140 95 140 232c-24 -28 -83 -69 -157 -69c-130 0 -208 86 -208 216c0 122 76 227 234 227c169 0 240 -139 240 -326
c0 -220 -74 -372 -249 -372c-144 0 -211 82 -211 183z" />
    <glyph glyph-name="zerosuperior" unicode="&#x2070;" horiz-adv-x="362" 
d="M181 483c53 0 71 42 71 124s-18 124 -71 124s-71 -42 -71 -124s18 -124 71 -124zM181 791c107 0 150 -73 150 -184s-44 -185 -150 -185c-107 0 -150 74 -150 185s44 184 150 184z" />
    <glyph glyph-name="foursuperior" unicode="&#x2074;" horiz-adv-x="340" 
d="M316 558v-59h-45v-69h-76v69h-178v52l174 237h80v-230h45zM96 558h99v134z" />
    <glyph glyph-name="fivesuperior" unicode="&#x2075;" horiz-adv-x="321" 
d="M293 545c0 -70 -48 -121 -138 -121c-92 0 -132 44 -132 103h76c0 -26 20 -42 56 -42c40 0 60 25 60 60c0 32 -22 56 -60 56c-22 0 -41 -8 -54 -18l-61 10l26 195h211v-59h-150l-11 -79c13 5 33 11 55 11c63 0 122 -32 122 -116z" />
    <glyph glyph-name="sixsuperior" unicode="&#x2076;" horiz-adv-x="343" 
d="M109 565c0 -46 20 -82 65 -82c41 0 61 24 61 59s-20 58 -61 58c-32 0 -54 -17 -65 -35zM180 731c-50 0 -71 -43 -71 -101c15 12 46 28 86 28c73 0 118 -44 118 -115c0 -65 -45 -121 -139 -121c-101 0 -143 75 -143 171c0 115 42 198 149 198c89 0 125 -45 125 -99h-75
c0 24 -18 39 -50 39z" />
    <glyph glyph-name="sevensuperior" unicode="&#x2077;" horiz-adv-x="288" 
d="M48 430l140 299h-170v59h255v-51l-143 -307h-82z" />
    <glyph glyph-name="eightsuperior" unicode="&#x2078;" horiz-adv-x="348" 
d="M174 423c-86 0 -143 37 -143 104c0 46 29 74 68 86c-37 12 -61 38 -61 78c0 63 51 101 136 101s134 -38 134 -101c0 -40 -24 -66 -61 -78c39 -12 69 -39 69 -86c0 -67 -56 -104 -142 -104zM173 583c-38 0 -64 -20 -64 -51s29 -48 65 -48c35 0 63 17 63 48s-25 51 -64 51z
M173 732c-34 0 -56 -16 -56 -45c0 -31 24 -46 56 -46c33 0 57 15 57 46c0 29 -22 45 -57 45z" />
    <glyph glyph-name="ninesuperior" unicode="&#x2079;" horiz-adv-x="343" 
d="M233 648c0 46 -20 83 -64 83c-42 0 -62 -24 -62 -60c0 -35 21 -57 62 -57c31 0 53 17 64 34zM36 522h77c0 -24 19 -39 49 -39c52 0 72 42 72 101c-15 -13 -46 -29 -86 -29c-73 0 -119 45 -119 115c0 65 46 121 140 121c101 0 142 -75 142 -172c0 -113 -40 -197 -149 -197
c-87 0 -126 45 -126 100z" />
    <glyph glyph-name="zeroinferior" unicode="&#x2080;" horiz-adv-x="362" 
d="M181 -45c53 0 71 42 71 124s-18 124 -71 124s-71 -42 -71 -124s18 -124 71 -124zM181 263c107 0 150 -73 150 -184s-44 -185 -150 -185c-107 0 -150 74 -150 185s44 184 150 184z" />
    <glyph glyph-name="oneinferior" unicode="&#x2081;" horiz-adv-x="245" 
d="M197 -100h-76v289l-99 -36l-19 56l128 49h66v-358z" />
    <glyph glyph-name="twoinferior" unicode="&#x2082;" horiz-adv-x="317" 
d="M155 263c77 0 127 -46 127 -110c0 -49 -37 -90 -79 -131l-68 -63h150v-59h-251v50l118 116c32 30 52 57 52 87c0 29 -18 50 -49 50c-37 0 -52 -22 -52 -57h-76c0 70 42 117 128 117z" />
    <glyph glyph-name="threeinferior" unicode="&#x2083;" horiz-adv-x="329" 
d="M225 82c40 -9 72 -41 72 -86c0 -60 -54 -102 -137 -102c-93 0 -133 43 -133 101h75c0 -25 22 -40 58 -40c34 0 59 17 59 45c0 32 -25 52 -72 52h-37v59h37c41 0 66 16 66 48c0 27 -20 44 -53 44c-34 0 -52 -17 -52 -39h-77c0 55 39 99 129 99c81 0 132 -41 132 -100
c0 -40 -29 -72 -67 -81z" />
    <glyph glyph-name="fourinferior" unicode="&#x2084;" horiz-adv-x="341" 
d="M316 28v-59h-45v-69h-76v69h-178v52l174 237h80v-230h45zM96 28h99v134z" />
    <glyph glyph-name="fiveinferior" unicode="&#x2085;" horiz-adv-x="321" 
d="M293 15c0 -70 -48 -121 -138 -121c-92 0 -132 44 -132 103h76c0 -26 20 -42 56 -42c40 0 60 25 60 60c0 32 -22 56 -60 56c-22 0 -41 -8 -54 -18l-61 10l26 195h211v-59h-150l-11 -79c13 5 33 11 55 11c63 0 122 -32 122 -116z" />
    <glyph glyph-name="sixinferior" unicode="&#x2086;" horiz-adv-x="343" 
d="M109 37c0 -46 20 -82 65 -82c41 0 61 24 61 59s-20 58 -61 58c-32 0 -54 -17 -65 -35zM180 203c-50 0 -71 -43 -71 -101c15 12 46 28 86 28c73 0 118 -44 118 -115c0 -65 -45 -121 -139 -121c-101 0 -143 75 -143 171c0 115 42 198 149 198c89 0 125 -45 125 -99h-75
c0 24 -18 39 -50 39z" />
    <glyph glyph-name="seveninferior" unicode="&#x2087;" horiz-adv-x="289" 
d="M48 -100l140 299h-170v59h255v-51l-143 -307h-82z" />
    <glyph glyph-name="eightinferior" unicode="&#x2088;" horiz-adv-x="348" 
d="M174 -106c-86 0 -143 37 -143 104c0 46 29 74 68 86c-37 12 -61 38 -61 78c0 63 51 101 136 101s134 -38 134 -101c0 -40 -24 -66 -61 -78c39 -12 69 -39 69 -86c0 -67 -56 -104 -142 -104zM173 54c-38 0 -64 -20 -64 -51s29 -48 65 -48c35 0 63 17 63 48s-25 51 -64 51z
M173 203c-34 0 -56 -16 -56 -45c0 -31 24 -46 56 -46c33 0 57 15 57 46c0 29 -22 45 -57 45z" />
    <glyph glyph-name="nineinferior" unicode="&#x2089;" horiz-adv-x="343" 
d="M233 120c0 46 -20 83 -64 83c-42 0 -62 -24 -62 -60c0 -35 21 -57 62 -57c31 0 53 17 64 34zM36 -6h77c0 -24 19 -39 49 -39c52 0 72 42 72 101c-15 -13 -46 -29 -86 -29c-73 0 -119 45 -119 115c0 65 46 121 140 121c101 0 142 -75 142 -172c0 -113 -40 -197 -149 -197
c-87 0 -126 45 -126 100z" />
    <glyph glyph-name="zero.denom" horiz-adv-x="360" 
d="M180 55c53 0 71 42 71 124s-18 124 -71 124s-71 -42 -71 -124s18 -124 71 -124zM180 363c107 0 150 -73 150 -184s-44 -185 -150 -185c-107 0 -150 74 -150 185s44 184 150 184z" />
    <glyph glyph-name="one.denom" horiz-adv-x="243" 
d="M196 0h-76v289l-99 -36l-19 56l128 49h66v-358z" />
    <glyph glyph-name="two.denom" horiz-adv-x="315" 
d="M154 363c77 0 127 -46 127 -110c0 -49 -37 -90 -79 -131l-68 -63h150v-59h-251v50l118 116c32 30 52 57 52 87c0 29 -18 50 -49 50c-37 0 -52 -22 -52 -57h-76c0 70 42 117 128 117z" />
    <glyph glyph-name="three.denom" horiz-adv-x="326" 
d="M224 182c40 -9 72 -41 72 -86c0 -60 -54 -102 -137 -102c-93 0 -133 43 -133 101h75c0 -25 22 -40 58 -40c34 0 59 17 59 45c0 32 -25 52 -72 52h-37v59h37c41 0 66 16 66 48c0 27 -20 44 -53 44c-34 0 -52 -17 -52 -39h-77c0 55 39 99 129 99c81 0 132 -41 132 -100
c0 -40 -29 -72 -67 -81z" />
    <glyph glyph-name="four.denom" horiz-adv-x="337" 
d="M315 128v-59h-45v-69h-76v69h-178v52l174 237h80v-230h45zM95 128h99v134z" />
    <glyph glyph-name="five.denom" horiz-adv-x="318" 
d="M292 115c0 -70 -48 -121 -138 -121c-92 0 -132 44 -132 103h76c0 -26 20 -42 56 -42c40 0 60 25 60 60c0 32 -22 56 -60 56c-22 0 -41 -8 -54 -18l-61 10l26 195h211v-59h-150l-11 -79c13 5 33 11 55 11c63 0 122 -32 122 -116z" />
    <glyph glyph-name="six.denom" horiz-adv-x="340" 
d="M108 137c0 -46 20 -82 65 -82c41 0 61 24 61 59s-20 58 -61 58c-32 0 -54 -17 -65 -35zM179 303c-50 0 -71 -43 -71 -101c15 12 46 28 86 28c73 0 118 -44 118 -115c0 -65 -45 -121 -139 -121c-101 0 -143 75 -143 171c0 115 42 198 149 198c89 0 125 -45 125 -99h-75
c0 24 -18 39 -50 39z" />
    <glyph glyph-name="seven.denom" horiz-adv-x="285" 
d="M47 0l140 299h-170v59h255v-51l-143 -307h-82z" />
    <glyph glyph-name="eight.denom" horiz-adv-x="345" 
d="M173 -6c-86 0 -143 37 -143 104c0 46 29 74 68 86c-37 12 -61 38 -61 78c0 63 51 101 136 101s134 -38 134 -101c0 -40 -24 -66 -61 -78c39 -12 69 -39 69 -86c0 -67 -56 -104 -142 -104zM172 154c-38 0 -64 -20 -64 -51s29 -48 65 -48c35 0 63 17 63 48s-25 51 -64 51z
M172 303c-34 0 -56 -16 -56 -45c0 -31 24 -46 56 -46c33 0 57 15 57 46c0 29 -22 45 -57 45z" />
    <glyph glyph-name="nine.denom" horiz-adv-x="340" 
d="M232 220c0 46 -20 83 -64 83c-42 0 -62 -24 -62 -60c0 -35 21 -57 62 -57c31 0 53 17 64 34zM35 94h77c0 -24 19 -39 49 -39c52 0 72 42 72 101c-15 -13 -46 -29 -86 -29c-73 0 -119 45 -119 115c0 65 46 121 140 121c101 0 142 -75 142 -172c0 -113 -40 -197 -149 -197
c-87 0 -126 45 -126 100z" />
    <glyph glyph-name="zero.num" horiz-adv-x="363" 
d="M181 373c53 0 71 42 71 124s-18 124 -71 124s-71 -42 -71 -124s18 -124 71 -124zM181 681c107 0 150 -73 150 -184s-44 -185 -150 -185c-107 0 -150 74 -150 185s44 184 150 184z" />
    <glyph glyph-name="one.num" horiz-adv-x="246" 
d="M197 318h-76v289l-99 -36l-19 56l128 49h66v-358z" />
    <glyph glyph-name="two.num" horiz-adv-x="318" 
d="M155 681c77 0 127 -46 127 -110c0 -49 -37 -90 -79 -131l-68 -63h150v-59h-251v50l118 116c32 30 52 57 52 87c0 29 -18 50 -49 50c-37 0 -52 -22 -52 -57h-76c0 70 42 117 128 117z" />
    <glyph glyph-name="three.num" horiz-adv-x="330" 
d="M225 500c40 -9 72 -41 72 -86c0 -60 -54 -102 -137 -102c-93 0 -133 43 -133 101h75c0 -25 22 -40 58 -40c34 0 59 17 59 45c0 32 -25 52 -72 52h-37v59h37c41 0 66 16 66 48c0 27 -20 44 -53 44c-34 0 -52 -17 -52 -39h-77c0 55 39 99 129 99c81 0 132 -41 132 -100
c0 -40 -29 -72 -67 -81z" />
    <glyph glyph-name="four.num" horiz-adv-x="340" 
d="M316 446v-59h-45v-69h-76v69h-178v52l174 237h80v-230h45zM96 446h99v134z" />
    <glyph glyph-name="five.num" horiz-adv-x="322" 
d="M293 433c0 -70 -48 -121 -138 -121c-92 0 -132 44 -132 103h76c0 -26 20 -42 56 -42c40 0 60 25 60 60c0 32 -22 56 -60 56c-22 0 -41 -8 -54 -18l-61 10l26 195h211v-59h-150l-11 -79c13 5 33 11 55 11c63 0 122 -32 122 -116z" />
    <glyph glyph-name="six.num" horiz-adv-x="344" 
d="M109 455c0 -46 20 -82 65 -82c41 0 61 24 61 59s-20 58 -61 58c-32 0 -54 -17 -65 -35zM180 621c-50 0 -71 -43 -71 -101c15 12 46 28 86 28c73 0 118 -44 118 -115c0 -65 -45 -121 -139 -121c-101 0 -143 75 -143 171c0 115 42 198 149 198c89 0 125 -45 125 -99h-75
c0 24 -18 39 -50 39z" />
    <glyph glyph-name="seven.num" horiz-adv-x="289" 
d="M48 318l140 299h-170v59h255v-51l-143 -307h-82z" />
    <glyph glyph-name="eight.num" horiz-adv-x="349" 
d="M174 312c-86 0 -143 37 -143 104c0 46 29 74 68 86c-37 12 -61 38 -61 78c0 63 51 101 136 101s134 -38 134 -101c0 -40 -24 -66 -61 -78c39 -12 69 -39 69 -86c0 -67 -56 -104 -142 -104zM173 472c-38 0 -64 -20 -64 -51s29 -48 65 -48c35 0 63 17 63 48s-25 51 -64 51z
M173 621c-34 0 -56 -16 -56 -45c0 -31 24 -46 56 -46c33 0 57 15 57 46c0 29 -22 45 -57 45z" />
    <glyph glyph-name="nine.num" horiz-adv-x="344" 
d="M233 538c0 46 -20 83 -64 83c-42 0 -62 -24 -62 -60c0 -35 21 -57 62 -57c31 0 53 17 64 34zM36 412h77c0 -24 19 -39 49 -39c52 0 72 42 72 101c-15 -13 -46 -29 -86 -29c-73 0 -119 45 -119 115c0 65 46 121 140 121c101 0 142 -75 142 -172c0 -113 -40 -197 -149 -197
c-87 0 -126 45 -126 100z" />
    <glyph glyph-name="arrowleft" unicode="&#x2190;" horiz-adv-x="750" 
d="M54 283l278 278l57 -58l-176 -177h463v-86h-463l176 -177l-57 -58z" />
    <glyph glyph-name="arrowup" unicode="&#x2191;" horiz-adv-x="750" 
d="M375 617l278 -278l-59 -58l-176 177v-464h-87v464l-176 -176l-58 57z" />
    <glyph glyph-name="arrowright" unicode="&#x2192;" horiz-adv-x="750" 
d="M696 293l-278 -278l-57 58l176 177h-463v86h463l-176 177l57 58z" />
    <glyph glyph-name="arrowdown" unicode="&#x2193;" horiz-adv-x="750" 
d="M375 -41l-278 277l59 58l176 -177v464h87v-464l176 176l58 -57z" />
    <glyph glyph-name="uni2196" unicode="&#x2196;" horiz-adv-x="750" 
d="M157 519h393v-82h-250l328 -328l-61 -62l-328 329v-250h-82v393z" />
    <glyph glyph-name="uni2197" unicode="&#x2197;" horiz-adv-x="750" 
d="M593 519v-393h-83v250l-328 -329l-61 62l328 328h-249v82h393z" />
    <glyph glyph-name="uni2198" unicode="&#x2198;" horiz-adv-x="750" 
d="M590 57h-393v82h250l-328 328l61 62l328 -329v250h82v-393z" />
    <glyph glyph-name="uni2199" unicode="&#x2199;" horiz-adv-x="750" 
d="M159 57v393h82v-250l329 329l61 -62l-328 -328h249v-82h-393z" />
    <glyph glyph-name="parenleft.case" horiz-adv-x="293" 
d="M265 -93l-76 -29c-88 132 -143 272 -143 463c0 201 61 331 143 463l78 -30c-67 -131 -115 -269 -115 -433c0 -163 37 -289 113 -434z" />
    <glyph glyph-name="parenright.case" horiz-adv-x="293" 
d="M29 -93c76 145 113 271 113 434c0 164 -48 302 -115 433l77 30c83 -132 144 -262 144 -463c0 -191 -55 -331 -144 -463z" />
    <glyph glyph-name="hyphen.case" horiz-adv-x="395" 
d="M61 373h273v-86h-273v86z" />
    <glyph glyph-name="bracketleft.case" horiz-adv-x="329" 
d="M66 790h226v-85h-122v-736h122v-85h-226v906z" />
    <glyph glyph-name="bracketright.case" horiz-adv-x="329" 
d="M37 790h226v-906h-226v85h122v736h-122v85z" />
    <glyph glyph-name="braceleft.case" horiz-adv-x="325" 
d="M219 650v-200c0 -85 -40 -108 -79 -113c39 -5 79 -31 79 -112v-201c0 -48 19 -62 62 -62v-78c-113 0 -166 33 -166 140v192c0 61 -31 82 -92 82v78c61 0 92 20 92 84v190c0 104 52 140 166 140v-78c-42 0 -62 -14 -62 -62z" />
    <glyph glyph-name="bar.case" horiz-adv-x="200" 
d="M135 -116h-69v906h69v-906z" />
    <glyph glyph-name="braceright.case" horiz-adv-x="325" 
d="M105 450v200c0 48 -20 62 -62 62v78c114 0 166 -36 166 -140v-190c0 -64 31 -84 92 -84v-78c-61 0 -92 -21 -92 -82v-192c0 -107 -53 -140 -166 -140v78c43 0 62 14 62 62v201c0 81 40 107 79 112c-39 5 -79 28 -79 113z" />
    <glyph glyph-name="guilsinglleft.case" horiz-adv-x="345" 
d="M35 330l190 223l64 -46l-133 -178l134 -177l-65 -45z" />
    <glyph glyph-name="guilsinglright.case" horiz-adv-x="345" 
d="M120 553l190 -223l-190 -223l-65 45l134 177l-133 178z" />
    <glyph glyph-name="guillemotleft.case" horiz-adv-x="550" 
d="M35 330l190 223l64 -46l-133 -178l134 -177l-65 -45zM240 330l190 223l64 -46l-133 -178l134 -177l-65 -45z" />
    <glyph glyph-name="guillemotright.case" horiz-adv-x="550" 
d="M325 553l190 -223l-190 -223l-65 45l134 177l-133 178zM120 553l190 -223l-190 -223l-65 45l134 177l-133 178z" />
    <glyph glyph-name="endash.case" horiz-adv-x="595" 
d="M61 373h474v-86h-474v86z" />
    <glyph glyph-name="emdash.case" horiz-adv-x="735" 
d="M61 373h614v-86h-614v86z" />
    <glyph glyph-name="bullet.case" horiz-adv-x="389" 
d="M195 209c-73 0 -126 51 -126 120c0 70 53 121 126 121s126 -51 126 -121c0 -69 -53 -120 -126 -120z" />
    <glyph glyph-name="periodcentered.case" horiz-adv-x="258" 
d="M130 302c-44 0 -75 30 -75 70c0 42 31 73 75 73c42 0 74 -31 74 -73c0 -40 -32 -70 -74 -70z" />
    <glyph glyph-name="a.alt" horiz-adv-x="518" 
d="M361 416v40h96v-456h-96v40c-27 -28 -72 -50 -130 -50c-126 0 -190 89 -190 239c0 147 63 237 190 237c59 0 101 -20 130 -50zM143 229c0 -83 27 -147 113 -147c49 0 82 20 100 43v206c-18 22 -49 43 -100 43c-86 0 -113 -63 -113 -145z" />
    <glyph glyph-name="agrave.alt" horiz-adv-x="518" 
d="M361 416v40h96v-456h-96v40c-27 -28 -72 -50 -130 -50c-126 0 -190 89 -190 239c0 147 63 237 190 237c59 0 101 -20 130 -50zM143 229c0 -83 27 -147 113 -147c49 0 82 20 100 43v206c-18 22 -49 43 -100 43c-86 0 -113 -63 -113 -145zM141 696h104l74 -160h-91z" />
    <glyph glyph-name="aacute.alt" horiz-adv-x="518" 
d="M361 416v40h96v-456h-96v40c-27 -28 -72 -50 -130 -50c-126 0 -190 89 -190 239c0 147 63 237 190 237c59 0 101 -20 130 -50zM143 229c0 -83 27 -147 113 -147c49 0 82 20 100 43v206c-18 22 -49 43 -100 43c-86 0 -113 -63 -113 -145zM289 696h104l-87 -160h-91z" />
    <glyph glyph-name="acircumflex.alt" horiz-adv-x="518" 
d="M361 416v40h96v-456h-96v40c-27 -28 -72 -50 -130 -50c-126 0 -190 89 -190 239c0 147 63 237 190 237c59 0 101 -20 130 -50zM143 229c0 -83 27 -147 113 -147c49 0 82 20 100 43v206c-18 22 -49 43 -100 43c-86 0 -113 -63 -113 -145zM215 696h100l101 -160h-91l-60 95
l-61 -95h-91z" />
    <glyph glyph-name="atilde.alt" horiz-adv-x="518" 
d="M361 416v40h96v-456h-96v40c-27 -28 -72 -50 -130 -50c-126 0 -190 89 -190 239c0 147 63 237 190 237c59 0 101 -20 130 -50zM143 229c0 -83 27 -147 113 -147c49 0 82 20 100 43v206c-18 22 -49 43 -100 43c-86 0 -113 -63 -113 -145zM410 644l-4 -76
c-21 15 -45 25 -69 25c-51 0 -90 -40 -148 -40c-30 0 -57 12 -69 23l4 76c17 -17 36 -25 65 -25c51 0 81 40 148 40c35 0 56 -12 73 -23z" />
    <glyph glyph-name="adieresis.alt" horiz-adv-x="518" 
d="M361 416v40h96v-456h-96v40c-27 -28 -72 -50 -130 -50c-126 0 -190 89 -190 239c0 147 63 237 190 237c59 0 101 -20 130 -50zM143 229c0 -83 27 -147 113 -147c49 0 82 20 100 43v206c-18 22 -49 43 -100 43c-86 0 -113 -63 -113 -145zM170 544c-37 0 -64 18 -64 63
c0 44 27 64 64 64c32 0 64 -20 64 -64c0 -45 -32 -63 -64 -63zM360 544c-37 0 -65 18 -65 63c0 44 28 64 65 64c32 0 64 -20 64 -64c0 -45 -32 -63 -64 -63z" />
    <glyph glyph-name="amacron.alt" horiz-adv-x="518" 
d="M361 416v40h96v-456h-96v40c-27 -28 -72 -50 -130 -50c-126 0 -190 89 -190 239c0 147 63 237 190 237c59 0 101 -20 130 -50zM143 229c0 -83 27 -147 113 -147c49 0 82 20 100 43v206c-18 22 -49 43 -100 43c-86 0 -113 -63 -113 -145zM120 647h290v-82h-290v82z" />
    <glyph glyph-name="abreve.alt" horiz-adv-x="518" 
d="M361 416v40h96v-456h-96v40c-27 -28 -72 -50 -130 -50c-126 0 -190 89 -190 239c0 147 63 237 190 237c59 0 101 -20 130 -50zM143 229c0 -83 27 -147 113 -147c49 0 82 20 100 43v206c-18 22 -49 43 -100 43c-86 0 -113 -63 -113 -145zM343 686h68
c0 -82 -52 -146 -147 -146c-92 0 -144 64 -144 146h66c5 -42 35 -72 78 -72c45 0 74 30 79 72z" />
    <glyph glyph-name="aring.alt" horiz-adv-x="518" 
d="M159 621c0 53 37 98 105 98c71 0 108 -45 108 -98c0 -50 -37 -97 -108 -97c-68 0 -105 47 -105 97zM218 621c0 -24 17 -44 46 -44c31 0 47 20 47 44s-16 44 -47 44c-29 0 -46 -20 -46 -44zM361 416v40h96v-456h-96v40c-27 -28 -72 -50 -130 -50c-126 0 -190 89 -190 239
c0 147 63 237 190 237c59 0 101 -20 130 -50zM143 229c0 -83 27 -147 113 -147c49 0 82 20 100 43v206c-18 22 -49 43 -100 43c-86 0 -113 -63 -113 -145z" />
    <glyph glyph-name="aringacute.alt" horiz-adv-x="518" 
d="M159 610c0 47 29 86 82 96l42 75h101l-64 -86c34 -16 53 -48 53 -85c0 -50 -38 -96 -109 -96c-68 0 -105 46 -105 96zM219 610c0 -23 16 -42 45 -42c31 0 48 19 48 42c0 24 -17 45 -48 45c-29 0 -45 -21 -45 -45zM361 416v40h96v-456h-96v40c-27 -28 -72 -50 -130 -50
c-126 0 -190 89 -190 239c0 147 63 237 190 237c59 0 101 -20 130 -50zM143 229c0 -83 27 -147 113 -147c49 0 82 20 100 43v206c-18 22 -49 43 -100 43c-86 0 -113 -63 -113 -145z" />
    <glyph glyph-name="g.alt" horiz-adv-x="492" 
d="M465 461v-80h-73c23 -21 36 -51 36 -89c0 -99 -70 -153 -186 -153c-29 0 -54 3 -68 6c-5 -8 -12 -22 -12 -34c0 -20 12 -32 46 -32h80c109 0 168 -42 168 -130c0 -94 -82 -162 -228 -162c-140 0 -202 54 -202 119c0 51 41 93 76 103c-20 9 -34 38 -34 62
c0 38 24 70 48 91c-44 24 -75 68 -75 136c0 102 67 168 201 168c45 0 81 -9 101 -17zM239 212c71 0 97 30 97 84c0 53 -29 85 -97 85c-73 0 -102 -32 -102 -85c0 -52 27 -84 102 -84zM157 -5c-22 -13 -37 -35 -37 -62c0 -40 28 -68 108 -68c82 0 127 25 127 73
c0 30 -18 57 -72 57h-126z" />
    <glyph glyph-name="gcircumflex.alt" horiz-adv-x="492" 
d="M465 461v-80h-73c23 -21 36 -51 36 -89c0 -99 -70 -153 -186 -153c-29 0 -54 3 -68 6c-5 -8 -12 -22 -12 -34c0 -20 12 -32 46 -32h80c109 0 168 -42 168 -130c0 -94 -82 -162 -228 -162c-140 0 -202 54 -202 119c0 51 41 93 76 103c-20 9 -34 38 -34 62
c0 38 24 70 48 91c-44 24 -75 68 -75 136c0 102 67 168 201 168c45 0 81 -9 101 -17zM239 212c71 0 97 30 97 84c0 53 -29 85 -97 85c-73 0 -102 -32 -102 -85c0 -52 27 -84 102 -84zM157 -5c-22 -13 -37 -35 -37 -62c0 -40 28 -68 108 -68c82 0 127 25 127 73
c0 30 -18 57 -72 57h-126zM196 696h100l101 -160h-91l-60 95l-61 -95h-91z" />
    <glyph glyph-name="gbreve.alt" horiz-adv-x="492" 
d="M317 686h68c0 -82 -52 -146 -147 -146c-92 0 -144 64 -144 146h66c5 -42 35 -72 78 -72c45 0 74 30 79 72zM465 461v-80h-73c23 -21 36 -51 36 -89c0 -99 -70 -153 -186 -153c-29 0 -54 3 -68 6c-5 -8 -12 -22 -12 -34c0 -20 12 -32 46 -32h80c109 0 168 -42 168 -130
c0 -94 -82 -162 -228 -162c-140 0 -202 54 -202 119c0 51 41 93 76 103c-20 9 -34 38 -34 62c0 38 24 70 48 91c-44 24 -75 68 -75 136c0 102 67 168 201 168c45 0 81 -9 101 -17zM239 212c71 0 97 30 97 84c0 53 -29 85 -97 85c-73 0 -102 -32 -102 -85
c0 -52 27 -84 102 -84zM157 -5c-22 -13 -37 -35 -37 -62c0 -40 28 -68 108 -68c82 0 127 25 127 73c0 30 -18 57 -72 57h-126z" />
    <glyph glyph-name="gdotaccent.alt" horiz-adv-x="492" 
d="M239 544c-37 0 -65 18 -65 63c0 44 28 64 65 64c33 0 64 -20 64 -64c0 -45 -31 -63 -64 -63zM465 461v-80h-73c23 -21 36 -51 36 -89c0 -99 -70 -153 -186 -153c-29 0 -54 3 -68 6c-5 -8 -12 -22 -12 -34c0 -20 12 -32 46 -32h80c109 0 168 -42 168 -130
c0 -94 -82 -162 -228 -162c-140 0 -202 54 -202 119c0 51 41 93 76 103c-20 9 -34 38 -34 62c0 38 24 70 48 91c-44 24 -75 68 -75 136c0 102 67 168 201 168c45 0 81 -9 101 -17zM239 212c71 0 97 30 97 84c0 53 -29 85 -97 85c-73 0 -102 -32 -102 -85
c0 -52 27 -84 102 -84zM157 -5c-22 -13 -37 -35 -37 -62c0 -40 28 -68 108 -68c82 0 127 25 127 73c0 30 -18 57 -72 57h-126z" />
    <glyph glyph-name="circle" unicode="&#x25cb;" horiz-adv-x="770" 
d="M46 338c0 206 139 348 339 348s340 -142 340 -348c0 -205 -140 -349 -340 -349s-339 144 -339 349zM119 338c0 -171 104 -278 266 -278s266 107 266 278s-104 277 -266 277s-266 -106 -266 -277z" />
    <glyph glyph-name="brokenbar.sc" horiz-adv-x="199" 
d="M129 290h-59v292h59v-292zM70 188h59v-290h-59v290z" />
    <glyph glyph-name="gcommaaccent.alt" horiz-adv-x="492" 
d="M465 461v-80h-73c23 -21 36 -51 36 -89c0 -99 -70 -153 -186 -153c-29 0 -54 3 -68 6c-5 -8 -12 -22 -12 -34c0 -20 12 -32 46 -32h80c109 0 168 -42 168 -130c0 -94 -82 -162 -228 -162c-140 0 -202 54 -202 119c0 51 41 93 76 103c-20 9 -34 38 -34 62
c0 38 24 70 48 91c-44 24 -75 68 -75 136c0 102 67 168 201 168c45 0 81 -9 101 -17zM239 212c71 0 97 30 97 84c0 53 -29 85 -97 85c-73 0 -102 -32 -102 -85c0 -52 27 -84 102 -84zM157 -5c-22 -13 -37 -35 -37 -62c0 -40 28 -68 108 -68c82 0 127 25 127 73
c0 30 -18 57 -72 57h-126zM186 553l59 178h79l-25 -178h-113z" />
    <glyph glyph-name="aogonek.alt" horiz-adv-x="518" 
d="M361 416v40h96v-456l-71 -54c-20 -16 -32 -31 -32 -48c0 -19 14 -34 38 -34c17 0 44 11 65 26v-83c-24 -13 -52 -23 -93 -23c-69 0 -113 35 -113 93c0 40 21 70 59 101l51 41v21c-27 -28 -72 -50 -130 -50c-126 0 -190 89 -190 239c0 147 63 237 190 237
c59 0 101 -20 130 -50zM143 229c0 -83 27 -147 113 -147c49 0 82 20 100 43v206c-18 22 -49 43 -100 43c-86 0 -113 -63 -113 -145z" />
    </font>
</defs>
</svg>
