<?xml version="1.0" standalone="no"?>
<!DOCTYPE svg PUBLIC "-//W3C//DTD SVG 1.1//EN" "http://www.w3.org/Graphics/SVG/1.1/DTD/svg11.dtd" >
<svg xmlns="http://www.w3.org/2000/svg" xmlns:xlink="http://www.w3.org/1999/xlink" version="1.1">
<metadata>
Created by FontForge 20161116 at Sat Aug 16 11:41:06 2014
 By Jimmy Wärting
Copyright (c) 2014 by Hannes von Doehren, Livius Dietzel. All rights reserved.
</metadata>
<defs>
<font id="BrixSansLight-Italic" horiz-adv-x="560" >
  <font-face 
    font-family="Brix Sans Light"
    font-weight="300"
    font-style="italic"
    font-stretch="normal"
    units-per-em="1000"
    panose-1="2 0 0 0 0 0 0 0 0 0"
    ascent="720"
    descent="-280"
    x-height="456"
    cap-height="676"
    bbox="-190 -227 993 975"
    underline-thickness="50"
    underline-position="-100"
    slope="-10"
    stemh="57"
    stemv="63"
    unicode-range="U+0020-FB02"
  />
<missing-glyph horiz-adv-x="513" 
d="M50 0v656h413v-656h-413zM88 40h337v576h-337v-576z" />
    <glyph glyph-name="fi" unicode="fi" horiz-adv-x="533" 
d="M352 0l71 403h-242l-109 -619h-59l109 619h-76l7 43l78 10l14 76c17 95 56 158 150 158h53l-10 -53h-43c-56 0 -79 -34 -92 -105l-13 -76h302l-81 -456h-59zM483 579c-23 0 -39 11 -39 37c0 39 25 58 56 58c20 0 39 -13 39 -39c0 -39 -29 -56 -56 -56z" />
    <glyph glyph-name="fl" unicode="fl" horiz-adv-x="515" 
d="M348 690l-10 -53h-43c-56 0 -79 -34 -92 -105l-13 -76h133l-9 -53h-133l-109 -619h-59l109 619h-76l7 43l78 10l14 76c17 95 56 158 150 158h53zM439 690h59l-100 -570c-10 -50 -3 -66 28 -66h31l-9 -55h-36c-72 0 -87 40 -73 118z" />
    <glyph glyph-name="f_f" unicode="ff" horiz-adv-x="592" 
d="M631 690l-10 -53h-43c-57 0 -80 -34 -92 -105l-14 -76h134l-9 -53h-134l-109 -619h-58l109 619h-224l-109 -619h-59l109 619h-76l7 43l78 10l14 76c17 95 56 158 150 158h53l-10 -53h-43c-56 0 -79 -34 -92 -105l-13 -76h224l13 76c17 95 57 158 151 158h53z" />
    <glyph glyph-name=".notdef" horiz-adv-x="513" 
d="M50 0v656h413v-656h-413zM88 40h337v576h-337v-576z" />
    <glyph glyph-name=".null" horiz-adv-x="0" 
 />
    <glyph glyph-name=".null" horiz-adv-x="0" 
 />
    <glyph glyph-name="space" unicode=" " horiz-adv-x="227" 
 />
    <glyph glyph-name="exclam" unicode="!" horiz-adv-x="221" 
d="M123 206h-49l72 470h72zM64 -7c-25 0 -45 21 -45 45c0 33 26 56 58 56c26 0 45 -20 45 -44c0 -34 -26 -57 -58 -57z" />
    <glyph glyph-name="quotedbl" unicode="&#x22;" horiz-adv-x="336" 
d="M240 432l36 244h64l-53 -244h-47zM99 432l32 244h67l-53 -244h-46z" />
    <glyph glyph-name="numbersign" unicode="#" horiz-adv-x="586" 
d="M130 213h-96l14 54h100l52 167h-95l14 54h100l61 188h57l-61 -188h141l62 188h56l-60 -188h103l-14 -54h-107l-53 -167h102l-15 -54h-106l-68 -213h-57l68 213h-141l-68 -213h-58zM258 434l-53 -167h141l53 167h-141z" />
    <glyph glyph-name="dollar" unicode="$" horiz-adv-x="523" 
d="M215 -103h-47l16 94c-123 9 -157 78 -170 129l53 30c11 -50 36 -96 127 -102l48 270l-24 9c-67 24 -119 63 -119 145c0 101 73 202 208 213l13 74h47l-13 -74c88 -7 143 -50 162 -98l-53 -34c-18 45 -59 71 -119 75l-47 -264l34 -12c66 -24 126 -60 126 -149
c0 -112 -80 -205 -226 -212zM300 298l-14 5l-45 -255c101 9 152 71 152 151c0 55 -41 81 -93 99zM164 475c0 -50 33 -76 87 -95l2 -1l43 248c-88 -12 -132 -77 -132 -152z" />
    <glyph glyph-name="percent" unicode="%" horiz-adv-x="756" 
d="M667 676l-508 -676h-61l506 676h63zM534 36c82 0 111 85 111 185c0 53 -19 87 -62 87c-74 0 -111 -79 -111 -185c0 -53 19 -87 62 -87zM584 348c73 0 112 -43 112 -127c0 -118 -48 -226 -163 -226c-83 0 -111 54 -111 128c0 124 53 225 162 225zM192 367
c82 0 111 85 111 185c0 53 -19 87 -62 87c-74 0 -111 -79 -111 -185c0 -53 19 -87 62 -87zM242 679c73 0 112 -43 112 -127c0 -118 -48 -226 -163 -226c-83 0 -111 54 -111 128c0 124 53 225 162 225z" />
    <glyph glyph-name="ampersand" unicode="&#x26;" horiz-adv-x="622" 
d="M540 355l43 -37l-122 -145c-8 -10 -16 -20 -25 -30l105 -137l-1 -6h-69l-75 100c-60 -63 -128 -111 -221 -111c-106 0 -150 59 -150 128c0 102 90 159 167 211l22 15l-22 31c-24 31 -62 82 -62 140c0 95 78 172 201 172c100 0 155 -62 155 -138c0 -78 -55 -121 -140 -179
l-53 -36l108 -144l19 22zM178 44c71 0 129 44 184 102l-116 155l-22 -15c-78 -54 -139 -93 -139 -166c0 -44 34 -76 93 -76zM189 514c0 -41 23 -72 46 -104l26 -35l52 36c67 46 113 78 113 135c0 42 -31 86 -97 86c-83 0 -140 -55 -140 -118z" />
    <glyph glyph-name="quotesingle" unicode="'" horiz-adv-x="194" 
d="M99 432l34 244h66l-54 -244h-46z" />
    <glyph glyph-name="parenleft" unicode="(" horiz-adv-x="263" 
d="M150 -206l-49 -16c-38 93 -63 208 -63 320c0 288 92 444 221 605l50 -16c-120 -176 -207 -323 -207 -588c0 -97 18 -210 48 -305z" />
    <glyph glyph-name="parenright" unicode=")" horiz-adv-x="263" 
d="M-57 -206c150 223 205 362 205 587c0 109 -21 220 -49 306l49 16c35 -86 64 -196 64 -320c0 -255 -66 -408 -223 -605z" />
    <glyph glyph-name="asterisk" unicode="*" horiz-adv-x="452" 
d="M143 337l-36 38l118 120l-132 39l28 54l128 -50l21 158h62l-34 -157l143 46l4 -58l-140 -34l67 -123l-52 -33l-60 130z" />
    <glyph glyph-name="plus" unicode="+" 
d="M53 243v53h195v201h57v-201h198v-53h-198v-200h-57v200h-195z" />
    <glyph glyph-name="comma" unicode="," horiz-adv-x="213" 
d="M116 95l-83 -208h-48l61 208h70z" />
    <glyph glyph-name="hyphen" unicode="-" horiz-adv-x="393" 
d="M71 296h246v-53h-246v53z" />
    <glyph glyph-name="period" unicode="." horiz-adv-x="223" 
d="M67 -7c-26 0 -46 21 -46 46c0 34 27 58 60 58c27 0 46 -21 46 -46c0 -34 -26 -58 -60 -58z" />
    <glyph glyph-name="slash" unicode="/" horiz-adv-x="331" 
d="M366 676l-318 -676h-62l315 676h65z" />
    <glyph glyph-name="zero" unicode="0" horiz-adv-x="586" 
d="M252 46c156 0 226 177 226 398c0 111 -38 186 -123 186c-157 0 -227 -176 -227 -398c0 -111 38 -186 124 -186zM359 686c121 0 183 -98 183 -242c0 -250 -87 -454 -296 -454c-120 0 -181 97 -181 242c0 250 87 454 294 454z" />
    <glyph glyph-name="one" unicode="1" horiz-adv-x="364" 
d="M227 0h-62l108 608l-195 -79l-8 57l220 90h57z" />
    <glyph glyph-name="two" unicode="2" horiz-adv-x="498" 
d="M308 686c104 0 167 -68 167 -162c0 -111 -70 -181 -168 -275l-203 -194h306l-10 -55h-393l8 49l251 238c92 88 144 149 144 235c0 62 -36 108 -105 108c-82 0 -133 -58 -147 -140h-62c18 115 92 196 212 196z" />
    <glyph glyph-name="three" unicode="3" horiz-adv-x="528" 
d="M347 346c51 -13 105 -57 105 -143c0 -123 -94 -213 -239 -213c-141 0 -196 79 -180 170h60c-12 -65 33 -114 123 -114c106 0 172 67 172 158c0 71 -55 117 -138 117h-58l10 55h57c97 0 175 53 175 149c0 60 -40 105 -115 105c-88 0 -141 -54 -152 -117h-63
c14 89 84 173 218 173c109 0 176 -66 176 -158c0 -107 -79 -166 -151 -182z" />
    <glyph glyph-name="four" unicode="4" horiz-adv-x="553" 
d="M500 209l-10 -55h-99l-27 -154h-62l27 154h-314l9 50l396 472h63l-82 -467h99zM99 209h240l65 367z" />
    <glyph glyph-name="five" unicode="5" horiz-adv-x="513" 
d="M450 254c0 -140 -88 -264 -245 -264c-145 0 -193 89 -175 188h59c-12 -72 21 -133 118 -133c117 0 178 99 178 206c0 72 -40 120 -116 120c-49 0 -91 -20 -129 -46l-56 5l100 346h323l-10 -55h-271l-67 -232c22 15 70 38 119 38c102 0 172 -62 172 -173z" />
    <glyph glyph-name="six" unicode="6" horiz-adv-x="550" 
d="M129 268c-3 -16 -5 -38 -5 -52c-1 -99 33 -171 118 -171c116 0 181 92 181 203c0 75 -41 123 -123 123c-69 0 -137 -50 -171 -103zM460 513c11 73 -30 117 -110 117c-109 0 -190 -116 -215 -289c27 35 97 85 174 85c112 0 179 -65 179 -175c0 -147 -90 -261 -248 -261
c-125 0 -179 95 -179 229c0 245 101 467 292 467c128 0 184 -76 167 -173h-60z" />
    <glyph glyph-name="seven" unicode="7" horiz-adv-x="449" 
d="M57 0l347 621h-312l9 55h385l-8 -50l-348 -626h-73z" />
    <glyph glyph-name="eight" unicode="8" horiz-adv-x="556" 
d="M233 -10c-115 0 -192 57 -192 166c0 120 87 182 163 197c-51 15 -93 55 -93 129c0 121 94 204 233 204c108 0 181 -56 181 -157c0 -106 -71 -166 -146 -183c49 -13 102 -52 102 -139c0 -137 -104 -217 -248 -217zM341 630c-97 0 -166 -55 -166 -150
c0 -64 50 -103 121 -103c88 0 164 53 164 149c0 67 -45 104 -119 104zM237 46c106 0 180 60 180 163c0 71 -54 113 -132 113c-96 0 -179 -60 -179 -162c0 -74 50 -114 131 -114z" />
    <glyph glyph-name="nine" unicode="9" horiz-adv-x="552" 
d="M443 408c3 16 5 38 5 52c1 99 -33 171 -118 171c-116 0 -181 -92 -181 -203c0 -75 41 -123 123 -123c69 0 137 50 171 103zM52 163h60c-11 -73 30 -117 110 -117c109 0 190 116 215 289c-27 -35 -97 -85 -174 -85c-112 0 -179 65 -179 175c0 147 90 261 248 261
c125 0 179 -95 179 -229c0 -245 -101 -467 -292 -467c-128 0 -184 76 -167 173z" />
    <glyph glyph-name="colon" unicode=":" horiz-adv-x="238" 
d="M69 -7c-25 0 -43 19 -43 43c0 34 27 58 60 58c25 0 43 -19 43 -43c0 -33 -28 -58 -60 -58zM136 364c-26 0 -44 21 -44 45c0 34 25 57 58 57c25 0 44 -20 44 -45c0 -34 -25 -57 -58 -57z" />
    <glyph glyph-name="semicolon" unicode=";" horiz-adv-x="233" 
d="M133 364c-26 0 -44 21 -44 45c0 34 25 57 57 57c26 0 45 -20 45 -45c0 -34 -26 -57 -58 -57zM123 95l-83 -208h-48l61 208h70z" />
    <glyph glyph-name="less" unicode="&#x3c;" 
d="M73 241v58l378 169v-59l-322 -139l322 -138v-60z" />
    <glyph glyph-name="equal" unicode="=" 
d="M88 412h378v-53h-378v53zM88 181h378v-52h-378v52z" />
    <glyph glyph-name="greater" unicode="&#x3e;" 
d="M479 299v-58l-378 -169v60l322 138l-322 139v59z" />
    <glyph glyph-name="question" unicode="?" horiz-adv-x="432" 
d="M156 -7c-25 0 -44 20 -44 44c0 34 26 57 58 57c26 0 45 -20 45 -44c0 -33 -26 -57 -59 -57zM272 686c100 0 160 -62 160 -146c0 -154 -180 -180 -207 -334h-65c31 172 208 211 208 329c0 47 -31 93 -97 93c-63 0 -115 -38 -126 -101l-60 3c15 87 76 156 187 156z" />
    <glyph glyph-name="at" unicode="@" horiz-adv-x="868" 
d="M555 343c-11 24 -32 55 -87 55c-104 0 -191 -121 -191 -241c0 -57 29 -86 71 -86c56 0 104 32 134 62zM482 80c-33 -34 -85 -61 -143 -61c-73 0 -120 46 -120 134c0 146 111 296 246 296c59 0 93 -24 109 -54l16 45h54l-101 -296c-18 -53 -15 -78 15 -78
c90 0 212 123 212 337c0 103 -61 199 -231 199c-277 0 -451 -238 -451 -500c0 -133 65 -227 224 -227c72 0 138 17 196 45l5 -49c-55 -25 -122 -47 -202 -47c-188 0 -277 112 -277 277c0 293 204 552 506 552c200 0 284 -116 284 -250c0 -243 -153 -386 -270 -386
c-57 0 -76 24 -72 63z" />
    <glyph glyph-name="A" unicode="A" horiz-adv-x="580" 
d="M446 0l-29 190h-280l-97 -190h-71l353 676h76l116 -676h-68zM352 611l-187 -366h243z" />
    <glyph glyph-name="B" unicode="B" 
d="M39 0l119 676h185c107 0 174 -50 174 -143c0 -99 -55 -166 -130 -182c58 -12 104 -58 104 -139c0 -157 -96 -212 -256 -212h-196zM111 55h128c135 0 187 50 187 159c0 64 -42 108 -139 108h-129zM168 377h119c126 0 162 73 162 153c0 56 -34 91 -119 91h-119z" />
    <glyph glyph-name="C" unicode="C" horiz-adv-x="566" 
d="M129 249c0 -111 43 -202 154 -202c64 0 125 33 164 89l49 -35c-48 -65 -119 -111 -218 -111c-145 0 -215 103 -215 258c0 277 122 438 324 438c95 0 167 -44 190 -112l-54 -33c-18 58 -74 88 -138 88c-160 0 -256 -139 -256 -380z" />
    <glyph glyph-name="D" unicode="D" horiz-adv-x="628" 
d="M39 0l119 676h167c178 0 262 -81 262 -230c0 -324 -142 -446 -368 -446h-180zM111 55h109c176 0 301 98 301 388c0 110 -56 178 -202 178h-108z" />
    <glyph glyph-name="E" unicode="E" horiz-adv-x="516" 
d="M111 55h315l-10 -55h-377l119 676h373l-9 -55h-311l-43 -245h279l-10 -55h-279z" />
    <glyph glyph-name="F" unicode="F" horiz-adv-x="502" 
d="M39 0l119 676h370l-10 -55h-307l-47 -265h264l-9 -56h-265l-52 -300h-63z" />
    <glyph glyph-name="G" unicode="G" horiz-adv-x="623" 
d="M339 301l10 57h231c-1 -7 -1 -20 -2 -22c-5 -145 -72 -346 -296 -346c-147 0 -218 101 -218 256c0 286 128 440 337 440c104 0 163 -45 188 -110l-50 -33c-25 59 -66 86 -141 86c-170 0 -269 -134 -269 -381c0 -117 45 -202 156 -202c157 0 216 136 224 255h-170z" />
    <glyph glyph-name="H" unicode="H" horiz-adv-x="647" 
d="M515 384l51 292h63l-120 -676h-63l59 329h-346l-57 -329h-63l119 676h63l-52 -292h346z" />
    <glyph glyph-name="I" unicode="I" horiz-adv-x="240" 
d="M39 0l119 676h63l-119 -676h-63z" />
    <glyph glyph-name="J" unicode="J" horiz-adv-x="470" 
d="M-7 87l52 31c20 -53 54 -71 109 -71c98 0 142 64 165 192l77 437h61l-77 -441c-30 -166 -101 -245 -229 -245c-83 0 -139 39 -158 97z" />
    <glyph glyph-name="K" unicode="K" horiz-adv-x="576" 
d="M271 353l-128 -117l-41 -236h-63l119 676h63l-62 -348l379 348h85l-301 -281l181 -395h-74z" />
    <glyph glyph-name="L" unicode="L" horiz-adv-x="455" 
d="M111 55h283l-10 -55h-345l119 676h63z" />
    <glyph glyph-name="M" unicode="M" horiz-adv-x="824" 
d="M374 83l292 593h88l-30 -676h-64l30 600l-294 -600h-69l-80 602l-184 -602h-62l210 676h84z" />
    <glyph glyph-name="N" unicode="N" horiz-adv-x="656" 
d="M474 100l101 576h63l-120 -676h-69l-245 578l-101 -578h-64l120 676h70z" />
    <glyph glyph-name="O" unicode="O" horiz-adv-x="642" 
d="M128 239c0 -110 41 -192 151 -192c149 0 256 117 256 388c0 109 -40 194 -152 194c-207 0 -255 -209 -255 -390zM600 435c0 -227 -82 -445 -324 -445c-144 0 -212 101 -212 249c0 229 80 447 322 447c148 0 214 -102 214 -251z" />
    <glyph glyph-name="P" unicode="P" horiz-adv-x="539" 
d="M286 275h-136l-48 -275h-63l119 676h192c124 0 183 -64 183 -164c0 -135 -73 -237 -247 -237zM211 621l-52 -290h131c140 0 177 86 177 179c0 63 -34 111 -126 111h-130z" />
    <glyph glyph-name="Q" unicode="Q" horiz-adv-x="642" 
d="M600 435c0 -134 -29 -264 -101 -349l44 -59l-46 -38l-41 56c-47 -35 -106 -55 -180 -55c-144 0 -212 101 -212 249c0 229 80 447 322 447c148 0 214 -102 214 -251zM128 239c0 -110 41 -192 151 -192c53 0 101 15 141 47l-137 190l43 35l135 -182c46 63 74 160 74 298
c0 109 -40 194 -152 194c-207 0 -255 -209 -255 -390z" />
    <glyph glyph-name="R" unicode="R" horiz-adv-x="570" 
d="M39 0l119 676h210c127 0 191 -58 191 -154c0 -127 -80 -202 -206 -210l134 -312h-70l-128 308h-133l-55 -308h-62zM493 520c0 62 -37 101 -135 101h-147l-46 -258h147c134 0 181 62 181 157z" />
    <glyph glyph-name="S" unicode="S" horiz-adv-x="526" 
d="M518 587l-52 -34c-20 49 -67 76 -136 76c-106 0 -163 -71 -163 -154c0 -50 33 -76 87 -95l79 -28c67 -24 127 -60 127 -149c0 -116 -86 -213 -244 -213c-147 0 -185 75 -199 130l53 30c12 -53 40 -103 149 -103c116 0 175 66 175 152c0 55 -41 81 -92 99l-82 29
c-66 24 -118 63 -118 145c0 107 82 214 231 214c101 0 166 -47 185 -99z" />
    <glyph glyph-name="T" unicode="T" horiz-adv-x="509" 
d="M102 676h443l-9 -55h-190l-110 -621h-63l110 621h-190z" />
    <glyph glyph-name="U" unicode="U" horiz-adv-x="629" 
d="M273 -10c-139 0 -228 69 -195 259l76 427h63l-76 -430c-26 -145 26 -199 134 -199c105 0 178 53 204 199l75 430h63l-75 -427c-33 -190 -135 -259 -269 -259z" />
    <glyph glyph-name="V" unicode="V" horiz-adv-x="568" 
d="M546 676h70l-342 -676h-79l-103 676h66l85 -609z" />
    <glyph glyph-name="W" unicode="W" horiz-adv-x="924" 
d="M492 676h74l60 -600l271 600h71l-311 -676h-80l-61 589l-267 -589h-80l-73 676h66l59 -600z" />
    <glyph glyph-name="X" unicode="X" horiz-adv-x="542" 
d="M104 676h71l113 -281l214 281h77l-252 -326l145 -350h-70l-122 301l-229 -301h-77l268 350z" />
    <glyph glyph-name="Y" unicode="Y" horiz-adv-x="544" 
d="M254 0h-63l48 273l-150 403h68l121 -341l241 341h76l-293 -403z" />
    <glyph glyph-name="Z" unicode="Z" horiz-adv-x="490" 
d="M513 676l-9 -50l-426 -571h330l-10 -55h-409l8 49l427 572h-307l10 55h386z" />
    <glyph glyph-name="bracketleft" unicode="[" horiz-adv-x="279" 
d="M145 690h176l-9 -52h-116l-141 -802h116l-9 -52h-176z" />
    <glyph glyph-name="backslash" unicode="\" horiz-adv-x="323" 
d="M184 0l-80 676h59l78 -676h-57z" />
    <glyph glyph-name="bracketright" unicode="]" horiz-adv-x="279" 
d="M103 690h176l-160 -906h-176l9 52h116l141 802h-115z" />
    <glyph glyph-name="asciicircum" unicode="^" 
d="M94 469l260 229l179 -229l-44 -42l-145 189l-212 -189z" />
    <glyph glyph-name="underscore" unicode="_" horiz-adv-x="485" 
d="M1 -31h380l-8 -47h-380z" />
    <glyph glyph-name="grave" unicode="`" horiz-adv-x="570" 
d="M339 696h63l46 -151h-53z" />
    <glyph glyph-name="a" unicode="a" horiz-adv-x="500" 
d="M390 408l8 48h59l-80 -456h-58l9 44c-31 -29 -73 -54 -133 -54c-107 0 -157 67 -157 179c0 185 84 297 228 297c62 0 104 -28 124 -58zM100 173c0 -76 28 -128 106 -128c61 0 106 33 132 67l41 231c-12 30 -44 67 -107 67c-116 0 -172 -95 -172 -237z" />
    <glyph glyph-name="b" unicode="b" horiz-adv-x="501" 
d="M206 690l-50 -281c29 32 75 57 131 57c107 0 158 -66 158 -176c0 -166 -70 -300 -232 -300c-64 0 -106 28 -127 59l-24 -49h-37l122 690h59zM383 285c0 71 -29 125 -108 125c-65 0 -109 -39 -130 -69l-40 -226c11 -32 43 -70 105 -70c125 0 173 107 173 240z" />
    <glyph glyph-name="c" unicode="c" horiz-adv-x="439" 
d="M38 170c0 157 73 296 230 296c73 0 127 -30 149 -88l-47 -31c-16 45 -52 65 -102 65c-125 0 -169 -124 -169 -238c0 -72 34 -130 109 -130c48 0 90 20 122 64l43 -31c-40 -56 -98 -87 -170 -87c-110 0 -165 72 -165 180z" />
    <glyph glyph-name="d" unicode="d" horiz-adv-x="500" 
d="M390 408l50 282h59l-122 -690h-58l9 44c-31 -29 -73 -54 -133 -54c-107 0 -157 67 -157 179c0 185 84 297 228 297c62 0 104 -28 124 -58zM100 173c0 -76 28 -128 106 -128c61 0 106 33 132 67l41 231c-12 30 -44 67 -107 67c-116 0 -172 -95 -172 -237z" />
    <glyph glyph-name="e" unicode="e" horiz-adv-x="454" 
d="M203 43c43 0 94 17 132 54l24 -45c-31 -32 -92 -62 -158 -62c-128 0 -165 81 -165 170c0 168 83 306 227 306c97 0 148 -63 148 -154c0 -41 -12 -76 -21 -102h-290c-14 -97 8 -167 103 -167zM108 259h237c2 7 9 20 9 52c0 58 -31 103 -92 103c-88 0 -135 -69 -154 -155z
" />
    <glyph glyph-name="f" unicode="f" horiz-adv-x="309" 
d="M348 690l-10 -53h-43c-56 0 -79 -34 -92 -105l-13 -76h133l-9 -53h-133l-109 -619h-59l109 619h-76l7 43l78 10l14 76c17 95 56 158 150 158h53z" />
    <glyph glyph-name="g" unicode="g" horiz-adv-x="497" 
d="M396 456h58l-88 -494c-16 -93 -91 -164 -197 -164c-114 0 -161 65 -150 131h56c-6 -39 21 -80 96 -80c74 0 123 45 135 112l15 85c-28 -29 -70 -56 -125 -56c-111 0 -158 71 -158 179c0 167 76 297 227 297c67 0 104 -28 122 -61zM100 173c0 -69 27 -128 105 -128
c53 0 99 31 128 68l41 229c-16 35 -49 68 -104 68c-122 0 -170 -113 -170 -237z" />
    <glyph glyph-name="h" unicode="h" horiz-adv-x="503" 
d="M25 0l122 690h59l-49 -281c33 31 92 57 147 57c112 0 151 -57 131 -172l-52 -294h-59l52 291c14 83 -6 119 -88 119c-58 0 -108 -28 -142 -62l-62 -348h-59z" />
    <glyph glyph-name="i" unicode="i" horiz-adv-x="207" 
d="M25 0l81 456h59l-81 -456h-59zM156 579c-22 0 -39 11 -39 37c0 39 25 58 56 58c21 0 39 -13 39 -39c0 -39 -29 -56 -56 -56z" />
    <glyph glyph-name="j" unicode="j" horiz-adv-x="207" 
d="M-67 -226l-22 46c68 24 93 61 108 147l86 489h59l-86 -487c-20 -113 -61 -167 -145 -195zM155 579c-23 0 -39 11 -39 37c0 39 25 58 56 58c20 0 39 -13 39 -39c0 -39 -28 -56 -56 -56z" />
    <glyph glyph-name="k" unicode="k" horiz-adv-x="448" 
d="M376 0h-65l-107 238l-92 -78l-28 -160h-59l122 690h59l-79 -449l250 215h83l-209 -179z" />
    <glyph glyph-name="l" unicode="l" horiz-adv-x="220" 
d="M145 690h59l-100 -570c-10 -50 -3 -66 28 -66h31l-9 -55h-36c-72 0 -87 40 -73 118z" />
    <glyph glyph-name="m" unicode="m" horiz-adv-x="777" 
d="M25 0l81 456h58l-9 -49c34 33 86 59 135 59c71 0 109 -26 130 -69c41 42 99 69 160 69c109 0 150 -54 130 -169l-52 -297h-59l52 294c15 83 -9 116 -83 116c-55 0 -100 -26 -133 -62l-62 -348h-58l61 346c-12 43 -44 64 -98 64s-99 -29 -133 -61l-61 -349h-59z" />
    <glyph glyph-name="n" unicode="n" horiz-adv-x="503" 
d="M25 0l81 456h58l-9 -50c34 35 91 60 149 60c111 0 152 -56 131 -172l-53 -294h-58l51 291c15 83 -4 119 -87 119c-58 0 -109 -26 -143 -62l-61 -348h-59z" />
    <glyph glyph-name="o" unicode="o" horiz-adv-x="488" 
d="M270 466c116 0 164 -77 164 -182c0 -139 -70 -294 -235 -294c-112 0 -162 77 -162 184c0 143 74 292 233 292zM201 45c126 0 172 133 172 239c0 76 -30 127 -105 127c-120 0 -170 -127 -170 -237c0 -77 31 -129 103 -129z" />
    <glyph glyph-name="p" unicode="p" horiz-adv-x="503" 
d="M92 48l-46 -264h-59l119 672h57l-7 -44c27 27 70 54 132 54c108 0 157 -71 157 -181c0 -186 -84 -295 -227 -295c-65 0 -108 26 -126 58zM384 282c0 70 -27 128 -108 128c-60 0 -106 -31 -131 -67l-41 -231c13 -30 43 -67 108 -67c116 0 172 95 172 237z" />
    <glyph glyph-name="q" unicode="q" horiz-adv-x="499" 
d="M279 -216l45 256c-28 -25 -65 -50 -126 -50c-107 0 -159 64 -159 176c0 161 64 300 229 300c69 0 107 -28 127 -59l24 49h37l-118 -672h-59zM100 170c0 -78 33 -125 108 -125c65 0 108 39 129 67l41 228c-12 32 -42 70 -105 70c-136 0 -173 -124 -173 -240z" />
    <glyph glyph-name="r" unicode="r" horiz-adv-x="323" 
d="M151 386h1c28 45 70 80 129 80c24 0 44 -2 59 -6l-18 -64c-15 6 -34 9 -49 9c-60 0 -102 -44 -135 -102l-54 -303h-59l81 456h58z" />
    <glyph glyph-name="s" unicode="s" horiz-adv-x="413" 
d="M380 403l-42 -36c-18 27 -53 49 -106 49c-79 0 -109 -46 -109 -93c0 -26 17 -50 61 -63l46 -14c76 -23 112 -55 112 -113c0 -82 -68 -143 -185 -143c-91 0 -135 42 -154 76l42 36c19 -30 43 -62 114 -62c69 0 121 31 121 89c0 34 -26 53 -75 67l-47 14
c-64 20 -96 58 -96 108c0 70 49 148 173 148c73 0 124 -33 145 -63z" />
    <glyph glyph-name="t" unicode="t" horiz-adv-x="316" 
d="M183 403l-50 -280c-9 -51 4 -78 49 -78c21 0 46 8 66 18l1 -52c-22 -11 -52 -21 -82 -21c-85 0 -108 51 -93 129l50 284h-83l7 43l85 10l20 116l62 12l-23 -128h124l-9 -53h-124z" />
    <glyph glyph-name="u" unicode="u" horiz-adv-x="502" 
d="M460 456l-81 -456h-58l9 50c-34 -35 -91 -60 -149 -60c-111 0 -152 56 -131 172l53 294h58l-51 -291c-15 -83 4 -119 87 -119c58 0 109 26 143 62l61 348h59z" />
    <glyph glyph-name="v" unicode="v" horiz-adv-x="451" 
d="M388 456h68l-243 -456h-72l-84 456h63l64 -397z" />
    <glyph glyph-name="w" unicode="w" horiz-adv-x="721" 
d="M357 456h65l50 -387l184 387h68l-225 -456h-67l-54 378l-187 -378h-66l-65 456h63l47 -387z" />
    <glyph glyph-name="x" unicode="x" horiz-adv-x="424" 
d="M240 228l107 -228h-67l-81 184l-145 -184h-74l185 229l-105 227h66l82 -183l145 183h75z" />
    <glyph glyph-name="y" unicode="y" horiz-adv-x="459" 
d="M119 456l84 -350l194 350h71l-387 -672h-67l147 253l-107 419h65z" />
    <glyph glyph-name="z" unicode="z" horiz-adv-x="390" 
d="M375 456l-8 -45l-287 -358h229l-9 -53h-309l8 45l288 358h-214l9 53h293z" />
    <glyph glyph-name="braceleft" unicode="{" horiz-adv-x="278" 
d="M218 554l-37 -215c-12 -69 -34 -94 -64 -104c24 -16 38 -47 27 -103l-38 -213c-12 -67 6 -86 56 -86l-8 -49c-90 0 -125 39 -107 136l37 210c10 62 -7 82 -70 82l10 50c61 0 87 22 98 83l37 212c19 107 58 133 155 133l-10 -51c-52 0 -74 -19 -86 -85z" />
    <glyph glyph-name="bar" unicode="|" horiz-adv-x="253" 
d="M143 -216h-47v906h47v-906z" />
    <glyph glyph-name="braceright" unicode="}" horiz-adv-x="278" 
d="M46 -80l38 216c12 69 33 96 63 105c-23 16 -38 46 -27 102l38 212c12 67 -6 86 -56 86l8 49c90 0 125 -40 108 -138l-37 -208c-11 -62 6 -82 69 -82l-9 -50c-62 0 -87 -19 -98 -81l-38 -215c-19 -106 -58 -132 -155 -132l10 51c52 0 75 19 86 85z" />
    <glyph glyph-name="asciitilde" unicode="~" 
d="M450 297l-23 -55c-17 19 -38 37 -67 37c-50 0 -104 -76 -174 -76c-37 0 -71 21 -82 36l20 57c15 -17 33 -37 65 -37c56 0 102 77 175 77c43 0 74 -26 86 -39z" />
    <glyph glyph-name="uni00A0" unicode="&#xa0;" horiz-adv-x="227" 
 />
    <glyph glyph-name="Agrave" unicode="&#xc0;" horiz-adv-x="580" 
d="M446 0l-29 190h-280l-97 -190h-71l353 676h76l116 -676h-68zM352 611l-187 -366h243zM292 899h63l46 -151h-53z" />
    <glyph glyph-name="Aacute" unicode="&#xc1;" horiz-adv-x="580" 
d="M446 0l-29 190h-280l-97 -190h-71l353 676h76l116 -676h-68zM352 611l-187 -366h243zM443 899h68l-109 -151h-60z" />
    <glyph glyph-name="Acircumflex" unicode="&#xc2;" horiz-adv-x="580" 
d="M446 0l-29 190h-280l-97 -190h-71l353 676h76l116 -676h-68zM352 611l-187 -366h243zM371 899h61l70 -151h-55l-51 107l-89 -107h-60z" />
    <glyph glyph-name="Atilde" unicode="&#xc3;" horiz-adv-x="580" 
d="M518 829l-17 -49c-13 15 -32 25 -52 25c-37 0 -83 -37 -137 -37c-26 0 -49 13 -57 26l15 48c11 -15 27 -25 51 -25c41 0 81 38 137 38c32 0 50 -16 60 -26zM446 0l-29 190h-280l-97 -190h-71l353 676h76l116 -676h-68zM352 611l-187 -366h243z" />
    <glyph glyph-name="Adieresis" unicode="&#xc4;" horiz-adv-x="580" 
d="M296 772c-23 0 -41 13 -41 39c0 39 22 56 53 56c21 0 41 -14 41 -41c0 -39 -26 -54 -53 -54zM464 772c-23 0 -40 13 -40 39c0 39 22 56 53 56c20 0 41 -14 41 -41c0 -39 -26 -54 -54 -54zM446 0l-29 190h-280l-97 -190h-71l353 676h76l116 -676h-68zM352 611l-187 -366
h243z" />
    <glyph glyph-name="Amacron" unicode="&#x100;" horiz-adv-x="580" 
d="M260 838h260l-10 -51h-258zM446 0l-29 190h-280l-97 -190h-71l353 676h76l116 -676h-68zM352 611l-187 -366h243z" />
    <glyph glyph-name="Abreve" unicode="&#x102;" horiz-adv-x="580" 
d="M476 884h45c-13 -76 -66 -132 -145 -132c-75 0 -116 56 -103 132h45c-7 -48 15 -84 64 -84c51 0 84 36 94 84zM446 0l-29 190h-280l-97 -190h-71l353 676h76l116 -676h-68zM352 611l-187 -366h243z" />
    <glyph glyph-name="Aring" unicode="&#xc5;" horiz-adv-x="580" 
d="M287 795c0 61 45 106 112 106c53 0 85 -35 85 -78c0 -62 -46 -107 -114 -107c-51 0 -83 35 -83 79zM331 799c0 -26 16 -44 44 -44c39 0 64 27 64 64c0 26 -16 43 -45 43c-37 0 -63 -26 -63 -63zM446 0l-29 190h-280l-97 -190h-71l353 676h76l116 -676h-68zM352 611
l-187 -366h243z" />
    <glyph glyph-name="Aringacute" unicode="&#x1fa;" horiz-adv-x="580" 
d="M288 796c0 55 37 98 95 103l68 76h65l-79 -81c28 -10 47 -38 47 -73c0 -61 -48 -104 -112 -104c-55 0 -84 36 -84 79zM331 799c0 -26 16 -43 44 -43c39 0 64 26 64 63c0 26 -16 44 -45 44c-37 0 -63 -26 -63 -64zM446 0l-29 190h-280l-97 -190h-71l353 676h76l116 -676
h-68zM352 611l-187 -366h243z" />
    <glyph glyph-name="Aogonek" unicode="&#x104;" horiz-adv-x="580" 
d="M514 0l-83 -62c-30 -23 -43 -41 -43 -66c0 -18 11 -37 39 -37c20 0 42 11 63 25l-9 -56c-18 -9 -40 -20 -72 -20c-54 0 -84 33 -84 75c0 45 27 75 65 103l55 41l-28 187h-280l-97 -190h-71l353 676h76zM352 611l-187 -366h243z" />
    <glyph glyph-name="AE" unicode="&#xc6;" horiz-adv-x="899" 
d="M231 244h234l67 374zM35 0h-77l547 676h410l-10 -55h-310l-44 -245h280l-10 -55h-279l-47 -267h314l-9 -54h-378l34 189h-266z" />
    <glyph glyph-name="AEacute" unicode="&#x1fc;" horiz-adv-x="899" 
d="M766 899h68l-109 -151h-60zM231 244h234l67 374zM35 0h-77l547 676h410l-10 -55h-310l-44 -245h280l-10 -55h-279l-47 -267h314l-9 -54h-378l34 189h-266z" />
    <glyph glyph-name="Cacute" unicode="&#x106;" horiz-adv-x="566" 
d="M129 249c0 -111 43 -202 154 -202c64 0 125 33 164 89l49 -35c-48 -65 -119 -111 -218 -111c-145 0 -215 103 -215 258c0 277 122 438 324 438c95 0 167 -44 190 -112l-54 -33c-18 58 -74 88 -138 88c-160 0 -256 -139 -256 -380zM472 899h68l-109 -151h-60z" />
    <glyph glyph-name="Ccircumflex" unicode="&#x108;" horiz-adv-x="566" 
d="M400 899h61l70 -151h-55l-51 107l-89 -107h-60zM129 249c0 -111 43 -202 154 -202c64 0 125 33 164 89l49 -35c-48 -65 -119 -111 -218 -111c-145 0 -215 103 -215 258c0 277 122 438 324 438c95 0 167 -44 190 -112l-54 -33c-18 58 -74 88 -138 88
c-160 0 -256 -139 -256 -380z" />
    <glyph glyph-name="Ccaron" unicode="&#x10c;" horiz-adv-x="566" 
d="M433 748h-61l-70 151h55l52 -107l88 107h59zM129 249c0 -111 43 -202 154 -202c64 0 125 33 164 89l49 -35c-48 -65 -119 -111 -218 -111c-145 0 -215 103 -215 258c0 277 122 438 324 438c95 0 167 -44 190 -112l-54 -33c-18 58 -74 88 -138 88
c-160 0 -256 -139 -256 -380z" />
    <glyph glyph-name="Cdotaccent" unicode="&#x10a;" horiz-adv-x="566" 
d="M409 772c-22 0 -41 13 -41 39c0 40 23 56 54 56c21 0 41 -15 41 -41c0 -39 -26 -54 -54 -54zM129 249c0 -111 43 -202 154 -202c64 0 125 33 164 89l49 -35c-48 -65 -119 -111 -218 -111c-145 0 -215 103 -215 258c0 277 122 438 324 438c95 0 167 -44 190 -112l-54 -33
c-18 58 -74 88 -138 88c-160 0 -256 -139 -256 -380z" />
    <glyph glyph-name="Ccedilla" unicode="&#xc7;" horiz-adv-x="566" 
d="M129 249c0 -111 43 -202 154 -202c64 0 125 33 164 89l49 -35c-46 -62 -112 -106 -204 -110l-27 -51c41 0 72 -18 72 -65c0 -51 -38 -91 -106 -91c-30 0 -58 11 -77 22l9 47c18 -16 43 -25 70 -25c32 0 49 19 49 41c0 25 -20 32 -50 32h-30l-2 5l44 86
c-122 15 -181 113 -181 256c0 277 122 438 324 438c95 0 167 -44 190 -112l-54 -33c-18 58 -74 88 -138 88c-160 0 -256 -139 -256 -380z" />
    <glyph glyph-name="Dcaron" unicode="&#x10e;" horiz-adv-x="628" 
d="M39 0l119 676h167c178 0 262 -81 262 -230c0 -324 -142 -446 -368 -446h-180zM111 55h109c176 0 301 98 301 388c0 110 -56 178 -202 178h-108zM401 748h-61l-70 151h55l52 -107l88 107h59z" />
    <glyph glyph-name="Dcroat" unicode="&#x110;" horiz-adv-x="633" 
d="M44 0l56 322h-66l9 47h66l54 307h167c178 0 262 -81 262 -230c0 -324 -142 -446 -368 -446h-180zM116 55h109c177 0 302 98 302 388c0 110 -56 178 -202 178h-109l-45 -252h112l-8 -47h-112z" />
    <glyph glyph-name="Eth" unicode="&#xd0;" horiz-adv-x="633" 
d="M44 0l56 322h-66l9 47h66l54 307h167c178 0 262 -81 262 -230c0 -324 -142 -446 -368 -446h-180zM116 55h109c177 0 302 98 302 388c0 110 -56 178 -202 178h-109l-45 -252h112l-8 -47h-112z" />
    <glyph glyph-name="Egrave" unicode="&#xc8;" horiz-adv-x="516" 
d="M111 55h315l-10 -55h-377l119 676h373l-9 -55h-311l-43 -245h279l-10 -55h-279zM281 899h63l46 -151h-53z" />
    <glyph glyph-name="Eacute" unicode="&#xc9;" horiz-adv-x="516" 
d="M426 899h68l-109 -151h-60zM111 55h315l-10 -55h-377l119 676h373l-9 -55h-311l-43 -245h279l-10 -55h-279z" />
    <glyph glyph-name="Ecircumflex" unicode="&#xca;" horiz-adv-x="516" 
d="M355 899h61l70 -151h-55l-51 107l-89 -107h-60zM111 55h315l-10 -55h-377l119 676h373l-9 -55h-311l-43 -245h279l-10 -55h-279z" />
    <glyph glyph-name="Ecaron" unicode="&#x11a;" horiz-adv-x="516" 
d="M389 748h-61l-70 151h55l52 -107l88 107h59zM111 55h315l-10 -55h-377l119 676h373l-9 -55h-311l-43 -245h279l-10 -55h-279z" />
    <glyph glyph-name="Edieresis" unicode="&#xcb;" horiz-adv-x="516" 
d="M280 772c-23 0 -41 13 -41 39c0 39 22 56 53 56c21 0 41 -14 41 -41c0 -39 -26 -54 -53 -54zM448 772c-23 0 -40 13 -40 39c0 39 22 56 53 56c20 0 41 -14 41 -41c0 -39 -26 -54 -54 -54zM111 55h315l-10 -55h-377l119 676h373l-9 -55h-311l-43 -245h279l-10 -55h-279z
" />
    <glyph glyph-name="Emacron" unicode="&#x112;" horiz-adv-x="516" 
d="M245 838h260l-10 -51h-258zM111 55h315l-10 -55h-377l119 676h373l-9 -55h-311l-43 -245h279l-10 -55h-279z" />
    <glyph glyph-name="Ebreve" unicode="&#x114;" horiz-adv-x="516" 
d="M460 884h45c-13 -76 -66 -132 -145 -132c-75 0 -116 56 -103 132h45c-7 -48 15 -84 64 -84c51 0 84 36 94 84zM111 55h315l-10 -55h-377l119 676h373l-9 -55h-311l-43 -245h279l-10 -55h-279z" />
    <glyph glyph-name="Edotaccent" unicode="&#x116;" horiz-adv-x="516" 
d="M365 772c-22 0 -41 13 -41 39c0 40 23 56 54 56c21 0 41 -15 41 -41c0 -39 -26 -54 -54 -54zM111 55h315l-10 -55h-377l119 676h373l-9 -55h-311l-43 -245h279l-10 -55h-279z" />
    <glyph glyph-name="Eogonek" unicode="&#x118;" horiz-adv-x="516" 
d="M111 55h315l-10 -55l-83 -62c-30 -23 -43 -41 -43 -66c0 -18 11 -37 39 -37c20 0 42 11 63 25l-9 -56c-18 -9 -40 -20 -72 -20c-54 0 -84 33 -84 75c0 45 27 75 65 103l51 38h-304l119 676h373l-9 -55h-311l-43 -245h279l-10 -55h-279z" />
    <glyph glyph-name="Gcircumflex" unicode="&#x11c;" horiz-adv-x="623" 
d="M339 301l10 57h231c-1 -7 -1 -20 -2 -22c-5 -145 -72 -346 -296 -346c-147 0 -218 101 -218 256c0 286 128 440 337 440c104 0 163 -45 188 -110l-50 -33c-25 59 -66 86 -141 86c-170 0 -269 -134 -269 -381c0 -117 45 -202 156 -202c157 0 216 136 224 255h-170z
M414 899h61l70 -151h-55l-51 107l-89 -107h-60z" />
    <glyph glyph-name="Gbreve" unicode="&#x11e;" horiz-adv-x="623" 
d="M521 884h45c-13 -76 -66 -132 -145 -132c-75 0 -116 56 -103 132h45c-7 -48 15 -84 64 -84c51 0 84 36 94 84zM339 301l10 57h231c-1 -7 -1 -20 -2 -22c-5 -145 -72 -346 -296 -346c-147 0 -218 101 -218 256c0 286 128 440 337 440c104 0 163 -45 188 -110l-50 -33
c-25 59 -66 86 -141 86c-170 0 -269 -134 -269 -381c0 -117 45 -202 156 -202c157 0 216 136 224 255h-170z" />
    <glyph glyph-name="Gdotaccent" unicode="&#x120;" horiz-adv-x="623" 
d="M424 772c-22 0 -41 13 -41 39c0 40 23 56 54 56c21 0 41 -15 41 -41c0 -39 -26 -54 -54 -54zM339 301l10 57h231c-1 -7 -1 -20 -2 -22c-5 -145 -72 -346 -296 -346c-147 0 -218 101 -218 256c0 286 128 440 337 440c104 0 163 -45 188 -110l-50 -33
c-25 59 -66 86 -141 86c-170 0 -269 -134 -269 -381c0 -117 45 -202 156 -202c157 0 216 136 224 255h-170z" />
    <glyph glyph-name="Gcommaaccent" unicode="&#x122;" horiz-adv-x="623" 
d="M313 -70l-72 -146h-48l50 146h70zM339 301l10 57h231c-1 -7 -1 -20 -2 -22c-5 -145 -72 -346 -296 -346c-147 0 -218 101 -218 256c0 286 128 440 337 440c104 0 163 -45 188 -110l-50 -33c-25 59 -66 86 -141 86c-170 0 -269 -134 -269 -381c0 -117 45 -202 156 -202
c157 0 216 136 224 255h-170z" />
    <glyph glyph-name="Hcircumflex" unicode="&#x124;" horiz-adv-x="647" 
d="M515 384l51 292h63l-120 -676h-63l59 329h-346l-57 -329h-63l119 676h63l-52 -292h346zM403 899h61l70 -151h-55l-51 107l-89 -107h-60z" />
    <glyph glyph-name="Hbar" unicode="&#x126;" horiz-adv-x="648" 
d="M94 557h44l21 119h63l-21 -119h345l22 119h62l-21 -119h48l-9 -46h-47l-91 -511h-62l58 329h-345l-58 -329h-63l90 511h-44zM516 384l22 127h-345l-23 -127h346z" />
    <glyph glyph-name="Igrave" unicode="&#xcc;" horiz-adv-x="240" 
d="M39 0l119 676h63l-119 -676h-63zM119 899h63l46 -151h-53z" />
    <glyph glyph-name="Iacute" unicode="&#xcd;" horiz-adv-x="240" 
d="M273 899h68l-109 -151h-60zM39 0l119 676h63l-119 -676h-63z" />
    <glyph glyph-name="Ibreve" unicode="&#x12c;" horiz-adv-x="240" 
d="M304 884h45c-13 -76 -66 -132 -145 -132c-75 0 -116 56 -103 132h45c-7 -48 15 -84 64 -84c51 0 84 36 94 84zM39 0l119 676h63l-119 -676h-63z" />
    <glyph glyph-name="Icircumflex" unicode="&#xce;" horiz-adv-x="240" 
d="M198 899h61l70 -151h-55l-51 107l-89 -107h-60zM39 0l119 676h63l-119 -676h-63z" />
    <glyph glyph-name="Itilde" unicode="&#x128;" horiz-adv-x="240" 
d="M345 829l-17 -49c-13 15 -32 25 -52 25c-37 0 -83 -37 -137 -37c-26 0 -49 13 -57 26l15 48c11 -15 27 -25 51 -25c41 0 81 38 137 38c32 0 50 -16 60 -26zM39 0l119 676h63l-119 -676h-63z" />
    <glyph glyph-name="Idieresis" unicode="&#xcf;" horiz-adv-x="240" 
d="M123 772c-23 0 -41 13 -41 39c0 39 22 56 53 56c21 0 41 -14 41 -41c0 -39 -26 -54 -53 -54zM291 772c-23 0 -40 13 -40 39c0 39 22 56 53 56c20 0 41 -14 41 -41c0 -39 -26 -54 -54 -54zM39 0l119 676h63l-119 -676h-63z" />
    <glyph glyph-name="Imacron" unicode="&#x12a;" horiz-adv-x="240" 
d="M88 838h260l-10 -51h-258zM39 0l119 676h63l-119 -676h-63z" />
    <glyph glyph-name="Idotaccent" unicode="&#x130;" horiz-adv-x="240" 
d="M207 772c-22 0 -41 13 -41 39c0 40 23 56 54 56c21 0 41 -15 41 -41c0 -39 -26 -54 -54 -54zM39 0l119 676h63l-119 -676h-63z" />
    <glyph glyph-name="Iogonek" unicode="&#x12e;" horiz-adv-x="241" 
d="M102 0l-83 -62c-30 -23 -43 -41 -43 -66c0 -18 11 -37 39 -37c20 0 42 11 63 25l-9 -56c-18 -9 -40 -20 -72 -20c-54 0 -84 33 -84 75c0 45 27 75 65 103l63 47l118 667h63l-119 -676h-1z" />
    <glyph glyph-name="Jcircumflex" unicode="&#x134;" horiz-adv-x="470" 
d="M-7 87l52 31c20 -53 54 -71 109 -71c98 0 142 64 165 192l77 437h61l-77 -441c-30 -166 -101 -245 -229 -245c-83 0 -139 39 -158 97zM438 899h61l70 -151h-55l-51 107l-89 -107h-60z" />
    <glyph glyph-name="Kcommaaccent" unicode="&#x136;" horiz-adv-x="576" 
d="M271 353l-128 -117l-41 -236h-63l119 676h63l-62 -348l379 348h85l-301 -281l181 -395h-74zM251 -70l-72 -146h-48l50 146h70z" />
    <glyph glyph-name="Lacute" unicode="&#x139;" horiz-adv-x="454" 
d="M111 55h283l-10 -55h-345l119 676h63zM274 899h68l-109 -151h-60z" />
    <glyph glyph-name="Lcaron" unicode="&#x13d;" horiz-adv-x="501" 
d="M545 677l-72 -146h-48l50 146h70zM111 55h283l-10 -55h-345l119 676h63z" />
    <glyph glyph-name="Lcommaaccent" unicode="&#x13b;" horiz-adv-x="454" 
d="M235 -70l-72 -146h-48l50 146h70zM111 55h283l-10 -55h-345l119 676h63z" />
    <glyph glyph-name="Lslash" unicode="&#x141;" horiz-adv-x="470" 
d="M127 55h283l-10 -55h-345l46 264l-83 -34l9 53l83 34l64 359h63l-59 -332l95 39l-9 -52l-95 -40z" />
    <glyph glyph-name="Ldot" unicode="&#x13f;" horiz-adv-x="481" 
d="M111 55h283l-10 -55h-345l119 676h63zM375 313c-26 0 -46 21 -46 46c0 34 27 58 60 58c27 0 46 -21 46 -46c0 -34 -26 -58 -60 -58z" />
    <glyph glyph-name="Nacute" unicode="&#x143;" horiz-adv-x="656" 
d="M474 100l101 576h63l-120 -676h-69l-245 578l-101 -578h-64l120 676h70zM480 899h68l-109 -151h-60z" />
    <glyph glyph-name="Ncaron" unicode="&#x147;" horiz-adv-x="656" 
d="M441 748h-61l-70 151h55l52 -107l88 107h59zM474 100l101 576h63l-120 -676h-69l-245 578l-101 -578h-64l120 676h70z" />
    <glyph glyph-name="Ntilde" unicode="&#xd1;" horiz-adv-x="656" 
d="M554 829l-17 -49c-13 15 -32 25 -52 25c-37 0 -83 -37 -137 -37c-26 0 -49 13 -57 26l15 48c11 -15 27 -25 51 -25c41 0 81 38 137 38c32 0 50 -16 60 -26zM474 100l101 576h63l-120 -676h-69l-245 578l-101 -578h-64l120 676h70z" />
    <glyph glyph-name="Ncommaaccent" unicode="&#x145;" horiz-adv-x="656" 
d="M307 -70l-72 -146h-48l50 146h70zM474 100l101 576h63l-120 -676h-69l-245 578l-101 -578h-64l120 676h70z" />
    <glyph glyph-name="Ograve" unicode="&#xd2;" horiz-adv-x="642" 
d="M128 239c0 -110 41 -192 151 -192c149 0 256 117 256 388c0 109 -40 194 -152 194c-207 0 -255 -209 -255 -390zM600 435c0 -227 -82 -445 -324 -445c-144 0 -212 101 -212 249c0 229 80 447 322 447c148 0 214 -102 214 -251zM325 899h63l46 -151h-53z" />
    <glyph glyph-name="Oacute" unicode="&#xd3;" horiz-adv-x="642" 
d="M474 899h68l-109 -151h-60zM128 239c0 -110 41 -192 151 -192c149 0 256 117 256 388c0 109 -40 194 -152 194c-207 0 -255 -209 -255 -390zM600 435c0 -227 -82 -445 -324 -445c-144 0 -212 101 -212 249c0 229 80 447 322 447c148 0 214 -102 214 -251z" />
    <glyph glyph-name="Ocircumflex" unicode="&#xd4;" horiz-adv-x="642" 
d="M400 899h61l70 -151h-55l-51 107l-89 -107h-60zM128 239c0 -110 41 -192 151 -192c149 0 256 117 256 388c0 109 -40 194 -152 194c-207 0 -255 -209 -255 -390zM600 435c0 -227 -82 -445 -324 -445c-144 0 -212 101 -212 249c0 229 80 447 322 447
c148 0 214 -102 214 -251z" />
    <glyph glyph-name="Otilde" unicode="&#xd5;" horiz-adv-x="642" 
d="M547 829l-17 -49c-13 15 -32 25 -52 25c-37 0 -83 -37 -137 -37c-26 0 -49 13 -57 26l15 48c11 -15 27 -25 51 -25c41 0 81 38 137 38c32 0 50 -16 60 -26zM128 239c0 -110 41 -192 151 -192c149 0 256 117 256 388c0 109 -40 194 -152 194c-207 0 -255 -209 -255 -390z
M600 435c0 -227 -82 -445 -324 -445c-144 0 -212 101 -212 249c0 229 80 447 322 447c148 0 214 -102 214 -251z" />
    <glyph glyph-name="Odieresis" unicode="&#xd6;" horiz-adv-x="642" 
d="M325 772c-23 0 -41 13 -41 39c0 39 22 56 53 56c21 0 41 -14 41 -41c0 -39 -26 -54 -53 -54zM493 772c-23 0 -40 13 -40 39c0 39 22 56 53 56c20 0 41 -14 41 -41c0 -39 -26 -54 -54 -54zM128 239c0 -110 41 -192 151 -192c149 0 256 117 256 388c0 109 -40 194 -152 194
c-207 0 -255 -209 -255 -390zM600 435c0 -227 -82 -445 -324 -445c-144 0 -212 101 -212 249c0 229 80 447 322 447c148 0 214 -102 214 -251z" />
    <glyph glyph-name="Omacron" unicode="&#x14c;" horiz-adv-x="642" 
d="M291 838h260l-10 -51h-258zM128 239c0 -110 41 -192 151 -192c149 0 256 117 256 388c0 109 -40 194 -152 194c-207 0 -255 -209 -255 -390zM600 435c0 -227 -82 -445 -324 -445c-144 0 -212 101 -212 249c0 229 80 447 322 447c148 0 214 -102 214 -251z" />
    <glyph glyph-name="Obreve" unicode="&#x14e;" horiz-adv-x="642" 
d="M507 884h45c-13 -76 -66 -132 -145 -132c-75 0 -116 56 -103 132h45c-7 -48 15 -84 64 -84c51 0 84 36 94 84zM128 239c0 -110 41 -192 151 -192c149 0 256 117 256 388c0 109 -40 194 -152 194c-207 0 -255 -209 -255 -390zM600 435c0 -227 -82 -445 -324 -445
c-144 0 -212 101 -212 249c0 229 80 447 322 447c148 0 214 -102 214 -251z" />
    <glyph glyph-name="Ohungarumlaut" unicode="&#x150;" horiz-adv-x="642" 
d="M402 899h67l-109 -151h-58zM539 899h68l-110 -151h-57zM128 239c0 -110 41 -192 151 -192c149 0 256 117 256 388c0 109 -40 194 -152 194c-207 0 -255 -209 -255 -390zM600 435c0 -227 -82 -445 -324 -445c-144 0 -212 101 -212 249c0 229 80 447 322 447
c148 0 214 -102 214 -251z" />
    <glyph glyph-name="Oslash" unicode="&#xd8;" horiz-adv-x="642" 
d="M600 435c0 -227 -82 -445 -324 -445c-72 0 -125 25 -160 68l-52 -58h-62l89 100c-18 38 -27 86 -27 139c0 229 80 447 322 447c75 0 128 -26 163 -71l55 61h64l-93 -105c16 -38 25 -84 25 -136zM128 239c0 -31 3 -60 10 -86l367 412c-23 39 -62 64 -122 64
c-207 0 -255 -209 -255 -390zM535 435c0 29 -3 57 -9 81l-367 -410c24 -37 62 -59 120 -59c149 0 256 117 256 388z" />
    <glyph glyph-name="Oslashacute" unicode="&#x1fe;" horiz-adv-x="642" 
d="M600 435c0 -227 -82 -445 -324 -445c-72 0 -125 25 -160 68l-52 -58h-62l89 100c-18 38 -27 86 -27 139c0 229 80 447 322 447c75 0 128 -26 163 -71l55 61h64l-93 -105c16 -38 25 -84 25 -136zM128 239c0 -31 3 -60 10 -86l367 412c-23 39 -62 64 -122 64
c-207 0 -255 -209 -255 -390zM535 435c0 29 -3 57 -9 81l-367 -410c24 -37 62 -59 120 -59c149 0 256 117 256 388zM474 899h68l-109 -151h-60z" />
    <glyph glyph-name="OE" unicode="&#x152;" horiz-adv-x="839" 
d="M436 55h314l-10 -55h-376c-27 -6 -61 -10 -94 -10c-147 0 -207 108 -207 249c0 203 66 447 328 447c32 0 66 -4 93 -10h372l-10 -55h-310l-44 -245h279l-10 -55h-278zM278 47c33 0 66 4 95 11l98 555c-26 10 -57 16 -89 16c-197 0 -254 -200 -254 -390
c0 -110 41 -192 150 -192z" />
    <glyph glyph-name="Racute" unicode="&#x154;" horiz-adv-x="570" 
d="M39 0l119 676h210c127 0 191 -58 191 -154c0 -127 -80 -202 -206 -210l134 -312h-70l-128 308h-133l-55 -308h-62zM493 520c0 62 -37 101 -135 101h-147l-46 -258h147c134 0 181 62 181 157zM417 899h68l-109 -151h-60z" />
    <glyph glyph-name="Rcaron" unicode="&#x158;" horiz-adv-x="570" 
d="M379 748h-61l-70 151h55l52 -107l88 107h59zM39 0l119 676h210c127 0 191 -58 191 -154c0 -127 -80 -202 -206 -210l134 -312h-70l-128 308h-133l-55 -308h-62zM493 520c0 62 -37 101 -135 101h-147l-46 -258h147c134 0 181 62 181 157z" />
    <glyph glyph-name="Rcommaaccent" unicode="&#x156;" horiz-adv-x="570" 
d="M248 -70l-72 -146h-48l50 146h70zM39 0l119 676h210c127 0 191 -58 191 -154c0 -127 -80 -202 -206 -210l134 -312h-70l-128 308h-133l-55 -308h-62zM493 520c0 62 -37 101 -135 101h-147l-46 -258h147c134 0 181 62 181 157z" />
    <glyph glyph-name="Sacute" unicode="&#x15a;" horiz-adv-x="526" 
d="M518 587l-52 -34c-20 49 -67 76 -136 76c-106 0 -163 -71 -163 -154c0 -50 33 -76 87 -95l79 -28c67 -24 127 -60 127 -149c0 -116 -86 -213 -244 -213c-147 0 -185 75 -199 130l53 30c12 -53 40 -103 149 -103c116 0 175 66 175 152c0 55 -41 81 -92 99l-82 29
c-66 24 -118 63 -118 145c0 107 82 214 231 214c101 0 166 -47 185 -99zM414 899h68l-109 -151h-60z" />
    <glyph glyph-name="Scircumflex" unicode="&#x15c;" horiz-adv-x="526" 
d="M343 899h61l70 -151h-55l-51 107l-89 -107h-60zM518 587l-52 -34c-20 49 -67 76 -136 76c-106 0 -163 -71 -163 -154c0 -50 33 -76 87 -95l79 -28c67 -24 127 -60 127 -149c0 -116 -86 -213 -244 -213c-147 0 -185 75 -199 130l53 30c12 -53 40 -103 149 -103
c116 0 175 66 175 152c0 55 -41 81 -92 99l-82 29c-66 24 -118 63 -118 145c0 107 82 214 231 214c101 0 166 -47 185 -99z" />
    <glyph glyph-name="Scaron" unicode="&#x160;" horiz-adv-x="526" 
d="M376 748h-61l-70 151h55l52 -107l88 107h59zM518 587l-52 -34c-20 49 -67 76 -136 76c-106 0 -163 -71 -163 -154c0 -50 33 -76 87 -95l79 -28c67 -24 127 -60 127 -149c0 -116 -86 -213 -244 -213c-147 0 -185 75 -199 130l53 30c12 -53 40 -103 149 -103
c116 0 175 66 175 152c0 55 -41 81 -92 99l-82 29c-66 24 -118 63 -118 145c0 107 82 214 231 214c101 0 166 -47 185 -99z" />
    <glyph glyph-name="Scedilla" unicode="&#x15e;" horiz-adv-x="526" 
d="M518 587l-52 -34c-20 49 -67 76 -136 76c-106 0 -163 -71 -163 -154c0 -50 33 -76 87 -95l79 -28c67 -24 127 -60 127 -149c0 -113 -81 -207 -231 -213l-26 -50c41 0 72 -18 72 -65c0 -51 -38 -91 -106 -91c-30 0 -58 11 -77 22l9 47c18 -16 43 -25 70 -25
c32 0 49 19 49 41c0 25 -20 32 -50 32h-30l-2 5l44 86c-119 10 -152 77 -165 128l53 30c12 -53 40 -103 149 -103c116 0 175 66 175 152c0 55 -41 81 -92 99l-82 29c-66 24 -118 63 -118 145c0 107 82 214 231 214c101 0 166 -47 185 -99z" />
    <glyph glyph-name="Scommaaccent" unicode="&#x218;" horiz-adv-x="527" 
d="M241 -70l-72 -146h-48l50 146h70zM518 587l-52 -34c-20 49 -67 76 -136 76c-106 0 -163 -71 -163 -154c0 -50 33 -76 87 -95l79 -28c67 -24 127 -60 127 -149c0 -116 -86 -213 -244 -213c-147 0 -185 75 -199 130l53 30c12 -53 40 -103 149 -103c116 0 175 66 175 152
c0 55 -41 81 -92 99l-82 29c-66 24 -118 63 -118 145c0 107 82 214 231 214c101 0 166 -47 185 -99z" />
    <glyph glyph-name="Tcaron" unicode="&#x164;" horiz-adv-x="509" 
d="M102 676h443l-9 -55h-190l-110 -621h-63l110 621h-190zM373 748h-61l-70 151h55l52 -107l88 107h59z" />
    <glyph glyph-name="Tcommaaccent" unicode="&#x162;" horiz-adv-x="509" 
d="M102 676h443l-9 -55h-190l-110 -621h-7l-32 -60c41 0 72 -18 72 -65c0 -51 -38 -91 -106 -91c-30 0 -58 11 -77 22l9 47c18 -16 43 -25 70 -25c32 0 49 19 49 41c0 25 -20 32 -50 32h-30l-2 5l48 94h-7l110 621h-190z" />
    <glyph glyph-name="uni021A" unicode="&#x21a;" horiz-adv-x="509" 
d="M228 -70l-72 -146h-48l50 146h70zM102 676h443l-9 -55h-190l-110 -621h-63l110 621h-190z" />
    <glyph glyph-name="Tbar" unicode="&#x166;" horiz-adv-x="514" 
d="M150 364h89l46 257h-190l9 55h443l-9 -55h-190l-46 -257h89l-8 -47h-89l-56 -317h-63l56 317h-88z" />
    <glyph glyph-name="Thorn" unicode="&#xde;" horiz-adv-x="539" 
d="M261 141h-135l-24 -141h-63l119 677h62l-24 -135h133c122 0 180 -65 180 -159c0 -142 -69 -242 -248 -242zM188 487l-52 -290h130c140 0 177 86 177 179c0 63 -33 111 -125 111h-130z" />
    <glyph glyph-name="Ugrave" unicode="&#xd9;" horiz-adv-x="629" 
d="M273 -10c-139 0 -228 69 -195 259l76 427h63l-76 -430c-26 -145 26 -199 134 -199c105 0 178 53 204 199l75 430h63l-75 -427c-33 -190 -135 -259 -269 -259zM316 899h63l46 -151h-53z" />
    <glyph glyph-name="Uacute" unicode="&#xda;" horiz-adv-x="629" 
d="M467 899h68l-109 -151h-60zM273 -10c-139 0 -228 69 -195 259l76 427h63l-76 -430c-26 -145 26 -199 134 -199c105 0 178 53 204 199l75 430h63l-75 -427c-33 -190 -135 -259 -269 -259z" />
    <glyph glyph-name="Ucircumflex" unicode="&#xdb;" horiz-adv-x="629" 
d="M394 899h61l70 -151h-55l-51 107l-89 -107h-60zM273 -10c-139 0 -228 69 -195 259l76 427h63l-76 -430c-26 -145 26 -199 134 -199c105 0 178 53 204 199l75 430h63l-75 -427c-33 -190 -135 -259 -269 -259z" />
    <glyph glyph-name="Utilde" unicode="&#x168;" horiz-adv-x="629" 
d="M540 829l-17 -49c-13 15 -32 25 -52 25c-37 0 -83 -37 -137 -37c-26 0 -49 13 -57 26l15 48c11 -15 27 -25 51 -25c41 0 81 38 137 38c32 0 50 -16 60 -26zM273 -10c-139 0 -228 69 -195 259l76 427h63l-76 -430c-26 -145 26 -199 134 -199c105 0 178 53 204 199l75 430
h63l-75 -427c-33 -190 -135 -259 -269 -259z" />
    <glyph glyph-name="Udieresis" unicode="&#xdc;" horiz-adv-x="629" 
d="M319 772c-23 0 -41 13 -41 39c0 39 22 56 53 56c21 0 41 -14 41 -41c0 -39 -26 -54 -53 -54zM487 772c-23 0 -40 13 -40 39c0 39 22 56 53 56c20 0 41 -14 41 -41c0 -39 -26 -54 -54 -54zM273 -10c-139 0 -228 69 -195 259l76 427h63l-76 -430c-26 -145 26 -199 134 -199
c105 0 178 53 204 199l75 430h63l-75 -427c-33 -190 -135 -259 -269 -259z" />
    <glyph glyph-name="Umacron" unicode="&#x16a;" horiz-adv-x="629" 
d="M283 838h260l-10 -51h-258zM273 -10c-139 0 -228 69 -195 259l76 427h63l-76 -430c-26 -145 26 -199 134 -199c105 0 178 53 204 199l75 430h63l-75 -427c-33 -190 -135 -259 -269 -259z" />
    <glyph glyph-name="Ubreve" unicode="&#x16c;" horiz-adv-x="629" 
d="M498 884h45c-13 -76 -66 -132 -145 -132c-75 0 -116 56 -103 132h45c-7 -48 15 -84 64 -84c51 0 84 36 94 84zM273 -10c-139 0 -228 69 -195 259l76 427h63l-76 -430c-26 -145 26 -199 134 -199c105 0 178 53 204 199l75 430h63l-75 -427c-33 -190 -135 -259 -269 -259z
" />
    <glyph glyph-name="Uring" unicode="&#x16e;" horiz-adv-x="629" 
d="M313 813c0 61 45 106 112 106c53 0 85 -35 85 -78c0 -62 -46 -107 -114 -107c-51 0 -83 35 -83 79zM357 817c0 -26 16 -44 44 -44c39 0 64 27 64 64c0 26 -16 43 -45 43c-37 0 -63 -26 -63 -63zM273 -10c-139 0 -228 69 -195 259l76 427h63l-76 -430
c-26 -145 26 -199 134 -199c105 0 178 53 204 199l75 430h63l-75 -427c-33 -190 -135 -259 -269 -259z" />
    <glyph glyph-name="Uhungarumlaut" unicode="&#x170;" horiz-adv-x="629" 
d="M396 899h67l-109 -151h-58zM533 899h68l-110 -151h-57zM273 -10c-139 0 -228 69 -195 259l76 427h63l-76 -430c-26 -145 26 -199 134 -199c105 0 178 53 204 199l75 430h63l-75 -427c-33 -190 -135 -259 -269 -259z" />
    <glyph glyph-name="Uogonek" unicode="&#x172;" horiz-adv-x="629" 
d="M125 -141c0 45 27 75 65 103l40 30c-114 13 -183 86 -153 257l76 427h63l-76 -430c-26 -145 26 -199 134 -199c105 0 178 53 204 199l75 430h63l-75 -427c-31 -176 -120 -248 -239 -258l-71 -53c-30 -23 -43 -41 -43 -66c0 -18 11 -37 39 -37c20 0 42 11 63 25l-9 -56
c-18 -9 -40 -20 -72 -20c-54 0 -84 33 -84 75z" />
    <glyph glyph-name="Wacute" unicode="&#x1e82;" horiz-adv-x="924" 
d="M492 676h74l60 -600l271 600h71l-311 -676h-80l-61 589l-267 -589h-80l-73 676h66l59 -600zM614 899h68l-109 -151h-60z" />
    <glyph glyph-name="Wcircumflex" unicode="&#x174;" horiz-adv-x="924" 
d="M541 899h61l70 -151h-55l-51 107l-89 -107h-60zM492 676h74l60 -600l271 600h71l-311 -676h-80l-61 589l-267 -589h-80l-73 676h66l59 -600z" />
    <glyph glyph-name="Wdieresis" unicode="&#x1e84;" horiz-adv-x="924" 
d="M465 772c-23 0 -41 13 -41 39c0 39 22 56 53 56c21 0 41 -14 41 -41c0 -39 -26 -54 -53 -54zM633 772c-23 0 -40 13 -40 39c0 39 22 56 53 56c20 0 41 -14 41 -41c0 -39 -26 -54 -54 -54zM492 676h74l60 -600l271 600h71l-311 -676h-80l-61 589l-267 -589h-80l-73 676h66
l59 -600z" />
    <glyph glyph-name="Wgrave" unicode="&#x1e80;" horiz-adv-x="924" 
d="M461 899h63l46 -151h-53zM492 676h74l60 -600l271 600h71l-311 -676h-80l-61 589l-267 -589h-80l-73 676h66l59 -600z" />
    <glyph glyph-name="Yacute" unicode="&#xdd;" horiz-adv-x="543" 
d="M254 0h-63l48 273l-150 403h68l121 -341l241 341h76l-293 -403zM408 899h68l-109 -151h-60z" />
    <glyph glyph-name="Ycircumflex" unicode="&#x176;" horiz-adv-x="543" 
d="M339 899h61l70 -151h-55l-51 107l-89 -107h-60zM254 0h-63l48 273l-150 403h68l121 -341l241 341h76l-293 -403z" />
    <glyph glyph-name="Ydieresis" unicode="&#x178;" horiz-adv-x="543" 
d="M264 772c-23 0 -41 13 -41 39c0 39 22 56 53 56c21 0 41 -14 41 -41c0 -39 -26 -54 -53 -54zM432 772c-23 0 -40 13 -40 39c0 39 22 56 53 56c20 0 41 -14 41 -41c0 -39 -26 -54 -54 -54zM254 0h-63l48 273l-150 403h68l121 -341l241 341h76l-293 -403z" />
    <glyph glyph-name="Ygrave" unicode="&#x1ef2;" horiz-adv-x="543" 
d="M264 899h63l46 -151h-53zM254 0h-63l48 273l-150 403h68l121 -341l241 341h76l-293 -403z" />
    <glyph glyph-name="Zacute" unicode="&#x179;" horiz-adv-x="490" 
d="M513 676l-9 -50l-426 -571h330l-10 -55h-409l8 49l427 572h-307l10 55h386zM400 899h68l-109 -151h-60z" />
    <glyph glyph-name="Zcaron" unicode="&#x17d;" horiz-adv-x="490" 
d="M361 748h-61l-70 151h55l52 -107l88 107h59zM513 676l-9 -50l-426 -571h330l-10 -55h-409l8 49l427 572h-307l10 55h386z" />
    <glyph glyph-name="Zdotaccent" unicode="&#x17b;" horiz-adv-x="490" 
d="M337 772c-22 0 -41 13 -41 39c0 40 23 56 54 56c21 0 41 -15 41 -41c0 -39 -26 -54 -54 -54zM513 676l-9 -50l-426 -571h330l-10 -55h-409l8 49l427 572h-307l10 55h386z" />
    <glyph glyph-name="agrave" unicode="&#xe0;" horiz-adv-x="500" 
d="M390 408l8 48h59l-80 -456h-58l9 44c-31 -29 -73 -54 -133 -54c-107 0 -157 67 -157 179c0 185 84 297 228 297c62 0 104 -28 124 -58zM100 173c0 -76 28 -128 106 -128c61 0 106 33 132 67l41 231c-12 30 -44 67 -107 67c-116 0 -172 -95 -172 -237zM226 696h63l46 -151
h-53z" />
    <glyph glyph-name="aacute" unicode="&#xe1;" horiz-adv-x="500" 
d="M390 408l8 48h59l-80 -456h-58l9 44c-31 -29 -73 -54 -133 -54c-107 0 -157 67 -157 179c0 185 84 297 228 297c62 0 104 -28 124 -58zM100 173c0 -76 28 -128 106 -128c61 0 106 33 132 67l41 231c-12 30 -44 67 -107 67c-116 0 -172 -95 -172 -237zM372 696h68
l-109 -151h-60z" />
    <glyph glyph-name="acircumflex" unicode="&#xe2;" horiz-adv-x="500" 
d="M390 408l8 48h59l-80 -456h-58l9 44c-31 -29 -73 -54 -133 -54c-107 0 -157 67 -157 179c0 185 84 297 228 297c62 0 104 -28 124 -58zM100 173c0 -76 28 -128 106 -128c61 0 106 33 132 67l41 231c-12 30 -44 67 -107 67c-116 0 -172 -95 -172 -237zM291 696h61l70 -151
h-55l-51 107l-89 -107h-60z" />
    <glyph glyph-name="atilde" unicode="&#xe3;" horiz-adv-x="500" 
d="M390 408l8 48h59l-80 -456h-58l9 44c-31 -29 -73 -54 -133 -54c-107 0 -157 67 -157 179c0 185 84 297 228 297c62 0 104 -28 124 -58zM100 173c0 -76 28 -128 106 -128c61 0 106 33 132 67l41 231c-12 30 -44 67 -107 67c-116 0 -172 -95 -172 -237zM447 626l-17 -49
c-13 15 -32 25 -52 25c-37 0 -83 -37 -137 -37c-26 0 -49 13 -57 26l15 48c11 -15 27 -25 51 -25c41 0 81 38 137 38c32 0 50 -16 60 -26z" />
    <glyph glyph-name="adieresis" unicode="&#xe4;" horiz-adv-x="500" 
d="M390 408l8 48h59l-80 -456h-58l9 44c-31 -29 -73 -54 -133 -54c-107 0 -157 67 -157 179c0 185 84 297 228 297c62 0 104 -28 124 -58zM100 173c0 -76 28 -128 106 -128c61 0 106 33 132 67l41 231c-12 30 -44 67 -107 67c-116 0 -172 -95 -172 -237zM225 569
c-23 0 -41 13 -41 39c0 39 22 56 53 56c21 0 41 -14 41 -41c0 -39 -26 -54 -53 -54zM393 569c-23 0 -40 13 -40 39c0 39 22 56 53 56c20 0 41 -14 41 -41c0 -39 -26 -54 -54 -54z" />
    <glyph glyph-name="amacron" unicode="&#x101;" horiz-adv-x="500" 
d="M390 408l8 48h59l-80 -456h-58l9 44c-31 -29 -73 -54 -133 -54c-107 0 -157 67 -157 179c0 185 84 297 228 297c62 0 104 -28 124 -58zM100 173c0 -76 28 -128 106 -128c61 0 106 33 132 67l41 231c-12 30 -44 67 -107 67c-116 0 -172 -95 -172 -237zM191 635h260
l-10 -51h-258z" />
    <glyph glyph-name="abreve" unicode="&#x103;" horiz-adv-x="500" 
d="M390 408l8 48h59l-80 -456h-58l9 44c-31 -29 -73 -54 -133 -54c-107 0 -157 67 -157 179c0 185 84 297 228 297c62 0 104 -28 124 -58zM100 173c0 -76 28 -128 106 -128c61 0 106 33 132 67l41 231c-12 30 -44 67 -107 67c-116 0 -172 -95 -172 -237zM400 681h45
c-13 -76 -66 -132 -145 -132c-75 0 -116 56 -103 132h45c-7 -48 15 -84 64 -84c51 0 84 36 94 84z" />
    <glyph glyph-name="aring" unicode="&#xe5;" horiz-adv-x="500" 
d="M390 408l8 48h59l-80 -456h-58l9 44c-31 -29 -73 -54 -133 -54c-107 0 -157 67 -157 179c0 185 84 297 228 297c62 0 104 -28 124 -58zM100 173c0 -76 28 -128 106 -128c61 0 106 33 132 67l41 231c-12 30 -44 67 -107 67c-116 0 -172 -95 -172 -237zM216 610
c0 61 45 106 112 106c53 0 85 -35 85 -78c0 -62 -46 -107 -114 -107c-51 0 -83 35 -83 79zM260 614c0 -26 16 -44 44 -44c39 0 64 27 64 64c0 26 -16 43 -45 43c-37 0 -63 -26 -63 -63z" />
    <glyph glyph-name="aringacute" unicode="&#x1fb;" horiz-adv-x="500" 
d="M220 601c0 55 36 99 97 104l62 70h67l-77 -76c28 -11 47 -39 47 -73c0 -61 -48 -104 -112 -104c-55 0 -84 36 -84 79zM263 604c0 -26 16 -44 44 -44c39 0 64 26 64 64c0 26 -16 44 -45 44c-37 0 -63 -27 -63 -64zM390 408l8 48h59l-80 -456h-58l9 44
c-31 -29 -73 -54 -133 -54c-107 0 -157 67 -157 179c0 185 84 297 228 297c62 0 104 -28 124 -58zM100 173c0 -76 28 -128 106 -128c61 0 106 33 132 67l41 231c-12 30 -44 67 -107 67c-116 0 -172 -95 -172 -237z" />
    <glyph glyph-name="aogonek" unicode="&#x105;" horiz-adv-x="500" 
d="M390 408l8 48h59l-80 -456l-84 -62c-30 -23 -43 -41 -43 -66c0 -18 11 -37 40 -37c20 0 41 11 62 25l-9 -56c-17 -9 -40 -20 -72 -20c-53 0 -84 33 -84 75c0 45 29 76 68 103l66 49l7 33c-31 -29 -73 -54 -133 -54c-107 0 -157 67 -157 179c0 185 84 297 228 297
c62 0 104 -28 124 -58zM100 173c0 -76 28 -128 106 -128c61 0 106 33 132 67l41 231c-12 30 -44 67 -107 67c-116 0 -172 -95 -172 -237z" />
    <glyph glyph-name="ae" unicode="&#xe6;" horiz-adv-x="726" 
d="M474 43c39 0 93 18 132 54l25 -45c-31 -32 -93 -62 -159 -62c-80 0 -127 28 -146 82c-45 -48 -111 -82 -187 -82c-78 0 -126 40 -126 103c0 111 89 152 221 168l89 11l9 52c10 60 -8 90 -83 90c-67 0 -105 -24 -112 -61l-5 -30h-53c0 11 1 20 3 33c12 63 65 110 173 110
c77 0 121 -24 129 -75c34 48 83 75 152 75c99 0 147 -73 147 -151c0 -41 -12 -79 -21 -105h-290c-17 -99 8 -167 102 -167zM75 102c0 -38 23 -61 73 -61c57 0 110 30 145 64l22 121l-85 -11c-96 -13 -155 -42 -155 -113zM381 259h236c2 7 9 20 9 52c0 58 -31 103 -92 103
c-88 0 -133 -67 -153 -155z" />
    <glyph glyph-name="aeacute" unicode="&#x1fd;" horiz-adv-x="726" 
d="M492 696h68l-109 -151h-60zM474 43c39 0 93 18 132 54l25 -45c-31 -32 -93 -62 -159 -62c-80 0 -127 28 -146 82c-45 -48 -111 -82 -187 -82c-78 0 -126 40 -126 103c0 111 89 152 221 168l89 11l9 52c10 60 -8 90 -83 90c-67 0 -105 -24 -112 -61l-5 -30h-53
c0 11 1 20 3 33c12 63 65 110 173 110c77 0 121 -24 129 -75c34 48 83 75 152 75c99 0 147 -73 147 -151c0 -41 -12 -79 -21 -105h-290c-17 -99 8 -167 102 -167zM75 102c0 -38 23 -61 73 -61c57 0 110 30 145 64l22 121l-85 -11c-96 -13 -155 -42 -155 -113zM381 259h236
c2 7 9 20 9 52c0 58 -31 103 -92 103c-88 0 -133 -67 -153 -155z" />
    <glyph glyph-name="cacute" unicode="&#x107;" horiz-adv-x="439" 
d="M38 170c0 157 73 296 230 296c73 0 127 -30 149 -88l-47 -31c-16 45 -52 65 -102 65c-125 0 -169 -124 -169 -238c0 -72 34 -130 109 -130c48 0 90 20 122 64l43 -31c-40 -56 -98 -87 -170 -87c-110 0 -165 72 -165 180zM359 696h68l-109 -151h-60z" />
    <glyph glyph-name="ccircumflex" unicode="&#x109;" horiz-adv-x="439" 
d="M290 696h61l70 -151h-55l-51 107l-89 -107h-60zM38 170c0 157 73 296 230 296c73 0 127 -30 149 -88l-47 -31c-16 45 -52 65 -102 65c-125 0 -169 -124 -169 -238c0 -72 34 -130 109 -130c48 0 90 20 122 64l43 -31c-40 -56 -98 -87 -170 -87c-110 0 -165 72 -165 180z
" />
    <glyph glyph-name="ccaron" unicode="&#x10d;" horiz-adv-x="439" 
d="M323 545h-61l-70 151h55l52 -107l88 107h59zM38 170c0 157 73 296 230 296c73 0 127 -30 149 -88l-47 -31c-16 45 -52 65 -102 65c-125 0 -169 -124 -169 -238c0 -72 34 -130 109 -130c48 0 90 20 122 64l43 -31c-40 -56 -98 -87 -170 -87c-110 0 -165 72 -165 180z" />
    <glyph glyph-name="cdotaccent" unicode="&#x10b;" horiz-adv-x="439" 
d="M300 569c-22 0 -41 13 -41 39c0 40 23 56 54 56c21 0 41 -15 41 -41c0 -39 -26 -54 -54 -54zM38 170c0 157 73 296 230 296c73 0 127 -30 149 -88l-47 -31c-16 45 -52 65 -102 65c-125 0 -169 -124 -169 -238c0 -72 34 -130 109 -130c48 0 90 20 122 64l43 -31
c-40 -56 -98 -87 -170 -87c-110 0 -165 72 -165 180z" />
    <glyph glyph-name="ccedilla" unicode="&#xe7;" horiz-adv-x="439" 
d="M38 170c0 157 73 296 230 296c73 0 127 -30 149 -88l-47 -31c-16 45 -52 65 -102 65c-125 0 -169 -124 -169 -238c0 -72 34 -130 109 -130c48 0 90 20 122 64l43 -31c-36 -51 -87 -80 -149 -86l-27 -51c41 0 72 -18 72 -65c0 -51 -38 -91 -106 -91c-30 0 -58 11 -77 22
l9 47c18 -16 43 -25 70 -25c32 0 49 19 49 41c0 25 -20 32 -50 32h-30l-2 5l44 86c-92 10 -138 79 -138 178z" />
    <glyph glyph-name="dcaron" unicode="&#x10f;" horiz-adv-x="501" 
d="M390 408l50 282h59l-122 -690h-58l9 44c-31 -29 -73 -54 -133 -54c-107 0 -157 67 -157 179c0 185 84 297 228 297c62 0 104 -28 124 -58zM100 173c0 -76 28 -128 106 -128c61 0 106 33 132 67l41 231c-12 30 -44 67 -107 67c-116 0 -172 -95 -172 -237zM647 690
l-72 -146h-48l50 146h70z" />
    <glyph glyph-name="dcroat" unicode="&#x111;" horiz-adv-x="501" 
d="M390 408l23 130h-104l9 46h103l19 106h59l-19 -106h68l-9 -46h-67l-95 -538h-58l9 44c-31 -29 -73 -54 -133 -54c-107 0 -157 67 -157 179c0 185 84 297 228 297c62 0 104 -28 124 -58zM100 173c0 -76 28 -128 106 -128c61 0 106 33 132 67l41 231c-12 30 -44 67 -107 67
c-116 0 -172 -95 -172 -237z" />
    <glyph glyph-name="eth" unicode="&#xf0;" horiz-adv-x="518" 
d="M296 690h80c20 -21 39 -49 54 -83l64 30l16 -43l-64 -30c14 -45 22 -98 22 -156c0 -231 -82 -418 -264 -418c-112 0 -167 71 -167 180c0 168 90 277 225 277c89 0 124 -50 145 -97c6 68 0 132 -17 188l-84 -39l-17 43l84 39c-18 41 -44 78 -77 109zM207 44
c109 0 164 100 184 211c-10 67 -51 136 -127 136c-117 0 -166 -107 -166 -218c0 -70 29 -129 109 -129z" />
    <glyph glyph-name="egrave" unicode="&#xe8;" horiz-adv-x="454" 
d="M203 43c43 0 94 17 132 54l24 -45c-31 -32 -92 -62 -158 -62c-128 0 -165 81 -165 170c0 168 83 306 227 306c97 0 148 -63 148 -154c0 -41 -12 -76 -21 -102h-290c-14 -97 8 -167 103 -167zM108 259h237c2 7 9 20 9 52c0 58 -31 103 -92 103c-88 0 -135 -69 -154 -155z
M210 696h63l46 -151h-53z" />
    <glyph glyph-name="eacute" unicode="&#xe9;" horiz-adv-x="454" 
d="M350 696h68l-109 -151h-60zM203 43c43 0 94 17 132 54l24 -45c-31 -32 -92 -62 -158 -62c-128 0 -165 81 -165 170c0 168 83 306 227 306c97 0 148 -63 148 -154c0 -41 -12 -76 -21 -102h-290c-14 -97 8 -167 103 -167zM108 259h237c2 7 9 20 9 52c0 58 -31 103 -92 103
c-88 0 -135 -69 -154 -155z" />
    <glyph glyph-name="ecircumflex" unicode="&#xea;" horiz-adv-x="454" 
d="M281 696h61l70 -151h-55l-51 107l-89 -107h-60zM203 43c43 0 94 17 132 54l24 -45c-31 -32 -92 -62 -158 -62c-128 0 -165 81 -165 170c0 168 83 306 227 306c97 0 148 -63 148 -154c0 -41 -12 -76 -21 -102h-290c-14 -97 8 -167 103 -167zM108 259h237c2 7 9 20 9 52
c0 58 -31 103 -92 103c-88 0 -135 -69 -154 -155z" />
    <glyph glyph-name="ecaron" unicode="&#x11b;" horiz-adv-x="454" 
d="M317 545h-61l-70 151h55l52 -107l88 107h59zM203 43c43 0 94 17 132 54l24 -45c-31 -32 -92 -62 -158 -62c-128 0 -165 81 -165 170c0 168 83 306 227 306c97 0 148 -63 148 -154c0 -41 -12 -76 -21 -102h-290c-14 -97 8 -167 103 -167zM108 259h237c2 7 9 20 9 52
c0 58 -31 103 -92 103c-88 0 -135 -69 -154 -155z" />
    <glyph glyph-name="edieresis" unicode="&#xeb;" horiz-adv-x="454" 
d="M209 569c-23 0 -41 13 -41 39c0 39 22 56 53 56c21 0 41 -14 41 -41c0 -39 -26 -54 -53 -54zM377 569c-23 0 -40 13 -40 39c0 39 22 56 53 56c20 0 41 -14 41 -41c0 -39 -26 -54 -54 -54zM203 43c43 0 94 17 132 54l24 -45c-31 -32 -92 -62 -158 -62
c-128 0 -165 81 -165 170c0 168 83 306 227 306c97 0 148 -63 148 -154c0 -41 -12 -76 -21 -102h-290c-14 -97 8 -167 103 -167zM108 259h237c2 7 9 20 9 52c0 58 -31 103 -92 103c-88 0 -135 -69 -154 -155z" />
    <glyph glyph-name="emacron" unicode="&#x113;" horiz-adv-x="454" 
d="M173 635h260l-10 -51h-258zM203 43c43 0 94 17 132 54l24 -45c-31 -32 -92 -62 -158 -62c-128 0 -165 81 -165 170c0 168 83 306 227 306c97 0 148 -63 148 -154c0 -41 -12 -76 -21 -102h-290c-14 -97 8 -167 103 -167zM108 259h237c2 7 9 20 9 52c0 58 -31 103 -92 103
c-88 0 -135 -69 -154 -155z" />
    <glyph glyph-name="ebreve" unicode="&#x115;" horiz-adv-x="454" 
d="M388 681h45c-13 -76 -66 -132 -145 -132c-75 0 -116 56 -103 132h45c-7 -48 15 -84 64 -84c51 0 84 36 94 84zM203 43c43 0 94 17 132 54l24 -45c-31 -32 -92 -62 -158 -62c-128 0 -165 81 -165 170c0 168 83 306 227 306c97 0 148 -63 148 -154c0 -41 -12 -76 -21 -102
h-290c-14 -97 8 -167 103 -167zM108 259h237c2 7 9 20 9 52c0 58 -31 103 -92 103c-88 0 -135 -69 -154 -155z" />
    <glyph glyph-name="edotaccent" unicode="&#x117;" horiz-adv-x="454" 
d="M296 569c-22 0 -41 13 -41 39c0 40 23 56 54 56c21 0 41 -15 41 -41c0 -39 -26 -54 -54 -54zM203 43c43 0 94 17 132 54l24 -45c-31 -32 -92 -62 -158 -62c-128 0 -165 81 -165 170c0 168 83 306 227 306c97 0 148 -63 148 -154c0 -41 -12 -76 -21 -102h-290
c-14 -97 8 -167 103 -167zM108 259h237c2 7 9 20 9 52c0 58 -31 103 -92 103c-88 0 -135 -69 -154 -155z" />
    <glyph glyph-name="eogonek" unicode="&#x119;" horiz-adv-x="454" 
d="M203 43c43 0 94 17 132 54l23 -43h1l-1 -1l1 -1c-26 -27 -73 -52 -126 -59l71 69l54 -8v-1l-18 -17l-90 -89c-35 -33 -48 -49 -48 -75c0 -18 11 -37 39 -37c19 0 43 11 63 25l-10 -54c-17 -11 -42 -22 -74 -22c-53 0 -81 31 -81 72c0 46 26 74 70 112l24 25
c-10 -2 -21 -3 -32 -3c-128 0 -165 81 -165 170c0 168 83 306 227 306c97 0 148 -63 148 -154c0 -41 -12 -76 -21 -102h-290c-14 -97 8 -167 103 -167zM108 259h237c2 7 9 20 9 52c0 58 -31 103 -92 103c-88 0 -135 -69 -154 -155z" />
    <glyph glyph-name="gcircumflex" unicode="&#x11d;" horiz-adv-x="497" 
d="M396 456h58l-88 -494c-16 -93 -91 -164 -197 -164c-114 0 -161 65 -150 131h56c-6 -39 21 -80 96 -80c74 0 123 45 135 112l15 85c-28 -29 -70 -56 -125 -56c-111 0 -158 71 -158 179c0 167 76 297 227 297c67 0 104 -28 122 -61zM100 173c0 -69 27 -128 105 -128
c53 0 99 31 128 68l41 229c-16 35 -49 68 -104 68c-122 0 -170 -113 -170 -237zM297 696h61l70 -151h-55l-51 107l-89 -107h-60z" />
    <glyph glyph-name="gbreve" unicode="&#x11f;" horiz-adv-x="497" 
d="M399 681h45c-13 -76 -66 -132 -145 -132c-75 0 -116 56 -103 132h45c-7 -48 15 -84 64 -84c51 0 84 36 94 84zM396 456h58l-88 -494c-16 -93 -91 -164 -197 -164c-114 0 -161 65 -150 131h56c-6 -39 21 -80 96 -80c74 0 123 45 135 112l15 85c-28 -29 -70 -56 -125 -56
c-111 0 -158 71 -158 179c0 167 76 297 227 297c67 0 104 -28 122 -61zM100 173c0 -69 27 -128 105 -128c53 0 99 31 128 68l41 229c-16 35 -49 68 -104 68c-122 0 -170 -113 -170 -237z" />
    <glyph glyph-name="gdotaccent" unicode="&#x121;" horiz-adv-x="497" 
d="M304 569c-22 0 -41 13 -41 39c0 40 23 56 54 56c21 0 41 -15 41 -41c0 -39 -26 -54 -54 -54zM396 456h58l-88 -494c-16 -93 -91 -164 -197 -164c-114 0 -161 65 -150 131h56c-6 -39 21 -80 96 -80c74 0 123 45 135 112l15 85c-28 -29 -70 -56 -125 -56
c-111 0 -158 71 -158 179c0 167 76 297 227 297c67 0 104 -28 122 -61zM100 173c0 -69 27 -128 105 -128c53 0 99 31 128 68l41 229c-16 35 -49 68 -104 68c-122 0 -170 -113 -170 -237z" />
    <glyph glyph-name="gcommaaccent" unicode="&#x123;" horiz-adv-x="497" 
d="M264 554l83 170h49l-61 -170h-71zM396 456h58l-88 -494c-16 -93 -91 -164 -197 -164c-114 0 -161 65 -150 131h56c-6 -39 21 -80 96 -80c74 0 123 45 135 112l15 85c-28 -29 -70 -56 -125 -56c-111 0 -158 71 -158 179c0 167 76 297 227 297c67 0 104 -28 122 -61z
M100 173c0 -69 27 -128 105 -128c53 0 99 31 128 68l41 229c-16 35 -49 68 -104 68c-122 0 -170 -113 -170 -237z" />
    <glyph glyph-name="hcircumflex" unicode="&#x125;" horiz-adv-x="503" 
d="M25 0l122 690h59l-49 -281c33 31 92 57 147 57c112 0 151 -57 131 -172l-52 -294h-59l52 291c14 83 -6 119 -88 119c-58 0 -108 -28 -142 -62l-62 -348h-59zM337 886h61l70 -151h-55l-51 107l-89 -107h-60z" />
    <glyph glyph-name="hbar" unicode="&#x127;" horiz-adv-x="503" 
d="M25 0l95 538h-62l8 46h62l19 106h59l-19 -106h109l-8 -46h-109l-22 -129c33 31 92 57 147 57c112 0 151 -57 131 -172l-52 -294h-59l52 291c14 83 -6 119 -88 119c-58 0 -108 -28 -142 -62l-62 -348h-59z" />
    <glyph glyph-name="dotlessi" unicode="&#x131;" horiz-adv-x="207" 
d="M25 0l81 456h59l-81 -456h-59z" />
    <glyph glyph-name="igrave" unicode="&#xec;" horiz-adv-x="207" 
d="M25 0l81 456h59l-81 -456h-59zM72 696h63l46 -151h-53z" />
    <glyph glyph-name="iacute" unicode="&#xed;" horiz-adv-x="208" 
d="M217 696h68l-109 -151h-60zM25 0l81 456h59l-81 -456h-59z" />
    <glyph glyph-name="ibreve" unicode="&#x12d;" horiz-adv-x="208" 
d="M253 681h45c-13 -76 -66 -132 -145 -132c-75 0 -116 56 -103 132h45c-7 -48 15 -84 64 -84c51 0 84 36 94 84zM25 0l81 456h59l-81 -456h-59z" />
    <glyph glyph-name="icircumflex" unicode="&#xee;" horiz-adv-x="208" 
d="M148 696h61l70 -151h-55l-51 107l-89 -107h-60zM25 0l81 456h59l-81 -456h-59z" />
    <glyph glyph-name="itilde" unicode="&#x129;" horiz-adv-x="208" 
d="M294 626l-17 -49c-13 15 -32 25 -52 25c-37 0 -83 -37 -137 -37c-26 0 -49 13 -57 26l15 48c11 -15 27 -25 51 -25c41 0 81 38 137 38c32 0 50 -16 60 -26zM25 0l81 456h59l-81 -456h-59z" />
    <glyph glyph-name="idieresis" unicode="&#xef;" horiz-adv-x="208" 
d="M73 569c-23 0 -41 13 -41 39c0 39 22 56 53 56c21 0 41 -14 41 -41c0 -39 -26 -54 -53 -54zM241 569c-23 0 -40 13 -40 39c0 39 22 56 53 56c20 0 41 -14 41 -41c0 -39 -26 -54 -54 -54zM25 0l81 456h59l-81 -456h-59z" />
    <glyph glyph-name="imacron" unicode="&#x12b;" horiz-adv-x="208" 
d="M36 635h260l-10 -51h-258zM25 0l81 456h59l-81 -456h-59z" />
    <glyph glyph-name="iogonek" unicode="&#x12f;" horiz-adv-x="208" 
d="M84 0l-83 -62c-30 -23 -43 -41 -43 -66c0 -18 11 -37 39 -37c20 0 42 11 63 25l-9 -56c-18 -9 -40 -20 -72 -20c-54 0 -84 33 -84 75c0 45 27 75 65 103l67 50l79 444h59zM156 579c-22 0 -39 11 -39 37c0 39 25 58 56 58c21 0 39 -13 39 -39c0 -39 -29 -56 -56 -56z" />
    <glyph glyph-name="dotlessj" unicode="&#x237;" horiz-adv-x="207" 
d="M-67 -226l-22 46c68 24 93 61 108 147l86 489h59l-86 -487c-20 -113 -61 -167 -145 -195z" />
    <glyph glyph-name="jcircumflex" unicode="&#x135;" horiz-adv-x="208" 
d="M148 696h61l70 -151h-55l-51 107l-89 -107h-60zM-66 -226l-22 46c68 24 93 61 108 147l86 489h59l-86 -487c-20 -113 -61 -167 -145 -195z" />
    <glyph glyph-name="kcommaaccent" unicode="&#x137;" horiz-adv-x="446" 
d="M376 0h-65l-107 238l-92 -78l-28 -160h-59l122 690h59l-79 -449l250 215h83l-209 -179zM211 -70l-72 -146h-48l50 146h70z" />
    <glyph glyph-name="kgreenlandic" unicode="&#x138;" horiz-adv-x="449" 
d="M376 0h-65l-106 234l-93 -77l-28 -157h-59l81 456h59l-40 -220l256 220h82l-212 -181z" />
    <glyph glyph-name="lacute" unicode="&#x13a;" horiz-adv-x="220" 
d="M145 690h59l-100 -570c-10 -50 -3 -66 28 -66h31l-9 -55h-36c-72 0 -87 40 -73 118zM254 886h68l-109 -151h-60z" />
    <glyph glyph-name="lcaron" unicode="&#x13e;" horiz-adv-x="220" 
d="M363 690l-72 -146h-48l50 146h70zM145 690h59l-100 -570c-10 -50 -3 -66 28 -66h31l-9 -55h-36c-72 0 -87 40 -73 118z" />
    <glyph glyph-name="lcommaaccent" unicode="&#x13c;" horiz-adv-x="220" 
d="M115 -70l-72 -146h-48l50 146h70zM144 690h59l-100 -570c-10 -50 -3 -66 28 -66h31l-9 -55h-36c-72 0 -87 40 -73 118z" />
    <glyph glyph-name="lslash" unicode="&#x142;" horiz-adv-x="246" 
d="M155 690h59l-52 -294l87 35l-10 -53l-86 -36l-39 -222c-10 -50 -3 -66 28 -66h31l-9 -55h-36c-72 0 -87 40 -73 118l35 199l-60 -24l9 54l60 24z" />
    <glyph glyph-name="ldot" unicode="&#x140;" horiz-adv-x="340" 
d="M277 312c-26 0 -46 21 -46 46c0 34 27 58 60 58c27 0 46 -21 46 -46c0 -34 -26 -58 -60 -58zM145 690h59l-100 -570c-10 -50 -3 -66 28 -66h31l-9 -55h-36c-72 0 -87 40 -73 118z" />
    <glyph glyph-name="nacute" unicode="&#x144;" horiz-adv-x="503" 
d="M25 0l81 456h58l-9 -50c34 35 91 60 149 60c111 0 152 -56 131 -172l-53 -294h-58l51 291c15 83 -4 119 -87 119c-58 0 -109 -26 -143 -62l-61 -348h-59zM379 696h68l-109 -151h-60z" />
    <glyph glyph-name="ncaron" unicode="&#x148;" horiz-adv-x="503" 
d="M334 545h-61l-70 151h55l52 -107l88 107h59zM25 0l81 456h58l-9 -50c34 35 91 60 149 60c111 0 152 -56 131 -172l-53 -294h-58l51 291c15 83 -4 119 -87 119c-58 0 -109 -26 -143 -62l-61 -348h-59z" />
    <glyph glyph-name="ntilde" unicode="&#xf1;" horiz-adv-x="503" 
d="M446 626l-17 -49c-13 15 -32 25 -52 25c-37 0 -83 -37 -137 -37c-26 0 -49 13 -57 26l15 48c11 -15 27 -25 51 -25c41 0 81 38 137 38c32 0 50 -16 60 -26zM25 0l81 456h58l-9 -50c34 35 91 60 149 60c111 0 152 -56 131 -172l-53 -294h-58l51 291c15 83 -4 119 -87 119
c-58 0 -109 -26 -143 -62l-61 -348h-59z" />
    <glyph glyph-name="ncommaaccent" unicode="&#x146;" horiz-adv-x="503" 
d="M228 -70l-72 -146h-48l50 146h70zM25 0l81 456h58l-9 -50c34 35 91 60 149 60c111 0 152 -56 131 -172l-53 -294h-58l51 291c15 83 -4 119 -87 119c-58 0 -109 -26 -143 -62l-61 -348h-59z" />
    <glyph glyph-name="napostrophe" unicode="&#x149;" horiz-adv-x="503" 
d="M163 697l-72 -146h-48l50 146h70zM25 0l81 456h58l-9 -50c34 35 91 60 149 60c111 0 152 -56 131 -172l-53 -294h-58l51 291c15 83 -4 119 -87 119c-58 0 -109 -26 -143 -62l-61 -348h-59z" />
    <glyph glyph-name="ograve" unicode="&#xf2;" horiz-adv-x="488" 
d="M270 466c116 0 164 -77 164 -182c0 -139 -70 -294 -235 -294c-112 0 -162 77 -162 184c0 143 74 292 233 292zM201 45c126 0 172 133 172 239c0 76 -30 127 -105 127c-120 0 -170 -127 -170 -237c0 -77 31 -129 103 -129zM216 696h63l46 -151h-53z" />
    <glyph glyph-name="oacute" unicode="&#xf3;" horiz-adv-x="488" 
d="M357 696h68l-109 -151h-60zM270 466c116 0 164 -77 164 -182c0 -139 -70 -294 -235 -294c-112 0 -162 77 -162 184c0 143 74 292 233 292zM201 45c126 0 172 133 172 239c0 76 -30 127 -105 127c-120 0 -170 -127 -170 -237c0 -77 31 -129 103 -129z" />
    <glyph glyph-name="ocircumflex" unicode="&#xf4;" horiz-adv-x="488" 
d="M289 696h61l70 -151h-55l-51 107l-89 -107h-60zM270 466c116 0 164 -77 164 -182c0 -139 -70 -294 -235 -294c-112 0 -162 77 -162 184c0 143 74 292 233 292zM201 45c126 0 172 133 172 239c0 76 -30 127 -105 127c-120 0 -170 -127 -170 -237c0 -77 31 -129 103 -129z
" />
    <glyph glyph-name="otilde" unicode="&#xf5;" horiz-adv-x="488" 
d="M438 626l-17 -49c-13 15 -32 25 -52 25c-37 0 -83 -37 -137 -37c-26 0 -49 13 -57 26l15 48c11 -15 27 -25 51 -25c41 0 81 38 137 38c32 0 50 -16 60 -26zM270 466c116 0 164 -77 164 -182c0 -139 -70 -294 -235 -294c-112 0 -162 77 -162 184c0 143 74 292 233 292z
M201 45c126 0 172 133 172 239c0 76 -30 127 -105 127c-120 0 -170 -127 -170 -237c0 -77 31 -129 103 -129z" />
    <glyph glyph-name="odieresis" unicode="&#xf6;" horiz-adv-x="488" 
d="M215 569c-23 0 -41 13 -41 39c0 39 22 56 53 56c21 0 41 -14 41 -41c0 -39 -26 -54 -53 -54zM383 569c-23 0 -40 13 -40 39c0 39 22 56 53 56c20 0 41 -14 41 -41c0 -39 -26 -54 -54 -54zM270 466c116 0 164 -77 164 -182c0 -139 -70 -294 -235 -294
c-112 0 -162 77 -162 184c0 143 74 292 233 292zM201 45c126 0 172 133 172 239c0 76 -30 127 -105 127c-120 0 -170 -127 -170 -237c0 -77 31 -129 103 -129z" />
    <glyph glyph-name="omacron" unicode="&#x14d;" horiz-adv-x="488" 
d="M178 635h260l-10 -51h-258zM270 466c116 0 164 -77 164 -182c0 -139 -70 -294 -235 -294c-112 0 -162 77 -162 184c0 143 74 292 233 292zM201 45c126 0 172 133 172 239c0 76 -30 127 -105 127c-120 0 -170 -127 -170 -237c0 -77 31 -129 103 -129z" />
    <glyph glyph-name="obreve" unicode="&#x14f;" horiz-adv-x="488" 
d="M394 681h45c-13 -76 -66 -132 -145 -132c-75 0 -116 56 -103 132h45c-7 -48 15 -84 64 -84c51 0 84 36 94 84zM270 466c116 0 164 -77 164 -182c0 -139 -70 -294 -235 -294c-112 0 -162 77 -162 184c0 143 74 292 233 292zM201 45c126 0 172 133 172 239
c0 76 -30 127 -105 127c-120 0 -170 -127 -170 -237c0 -77 31 -129 103 -129z" />
    <glyph glyph-name="ohungarumlaut" unicode="&#x151;" horiz-adv-x="488" 
d="M290 696h67l-109 -151h-58zM427 696h68l-110 -151h-57zM270 466c116 0 164 -77 164 -182c0 -139 -70 -294 -235 -294c-112 0 -162 77 -162 184c0 143 74 292 233 292zM201 45c126 0 172 133 172 239c0 76 -30 127 -105 127c-120 0 -170 -127 -170 -237
c0 -77 31 -129 103 -129z" />
    <glyph glyph-name="oslash" unicode="&#xf8;" horiz-adv-x="488" 
d="M270 466c51 0 89 -15 115 -41l28 31h56l-59 -65c16 -29 24 -66 24 -107c0 -139 -70 -294 -235 -294c-50 0 -87 15 -113 41l-28 -31h-54l57 64c-16 30 -24 67 -24 110c0 143 74 292 233 292zM98 174c0 -23 2 -43 8 -61l239 267c-17 20 -42 31 -77 31
c-120 0 -170 -127 -170 -237zM201 45c126 0 172 133 172 239c0 21 -3 40 -8 57l-239 -265c17 -20 41 -31 75 -31z" />
    <glyph glyph-name="oslashacute" unicode="&#x1ff;" horiz-adv-x="488" 
d="M270 466c51 0 89 -15 115 -41l28 31h56l-59 -65c16 -29 24 -66 24 -107c0 -139 -70 -294 -235 -294c-50 0 -87 15 -113 41l-28 -31h-54l57 64c-16 30 -24 67 -24 110c0 143 74 292 233 292zM98 174c0 -23 2 -43 8 -61l239 267c-17 20 -42 31 -77 31
c-120 0 -170 -127 -170 -237zM201 45c126 0 172 133 172 239c0 21 -3 40 -8 57l-239 -265c17 -20 41 -31 75 -31zM330 696h68l-109 -151h-60z" />
    <glyph glyph-name="oe" unicode="&#x153;" horiz-adv-x="780" 
d="M528 43c44 0 94 19 133 57l24 -47c-32 -33 -94 -63 -160 -63c-87 0 -133 36 -149 92c-36 -55 -92 -92 -177 -92c-111 0 -161 73 -161 183c0 158 76 293 234 293c95 0 130 -45 147 -104c33 60 91 104 171 104c104 0 147 -70 147 -156c0 -41 -12 -74 -22 -100h-290
c-16 -99 9 -167 103 -167zM202 45c130 0 171 117 171 238c0 74 -29 128 -105 128c-119 0 -169 -113 -169 -236c0 -76 31 -130 103 -130zM434 259h236c2 7 9 20 9 52c0 61 -32 103 -92 103c-88 0 -132 -67 -153 -155z" />
    <glyph glyph-name="racute" unicode="&#x155;" horiz-adv-x="322" 
d="M151 386h1c28 45 70 80 129 80c24 0 44 -2 59 -6l-18 -64c-15 6 -34 9 -49 9c-60 0 -102 -44 -135 -102l-54 -303h-59l81 456h58zM284 696h68l-109 -151h-60z" />
    <glyph glyph-name="rcaron" unicode="&#x159;" horiz-adv-x="322" 
d="M151 386h1c28 45 70 80 129 80c24 0 44 -2 59 -6l-18 -64c-15 6 -34 9 -49 9c-60 0 -102 -44 -135 -102l-54 -303h-59l81 456h58zM260 545h-61l-70 151h55l52 -107l88 107h59z" />
    <glyph glyph-name="rcommaaccent" unicode="&#x157;" horiz-adv-x="322" 
d="M77 -70l-72 -146h-48l50 146h70zM151 386h1c28 45 70 80 129 80c24 0 44 -2 59 -6l-18 -64c-15 6 -34 9 -49 9c-60 0 -102 -44 -135 -102l-54 -303h-59l81 456h58z" />
    <glyph glyph-name="sacute" unicode="&#x15b;" horiz-adv-x="412" 
d="M380 403l-42 -36c-18 27 -53 49 -106 49c-79 0 -109 -46 -109 -93c0 -26 17 -50 61 -63l46 -14c76 -23 112 -55 112 -113c0 -82 -68 -143 -185 -143c-91 0 -135 42 -154 76l42 36c19 -30 43 -62 114 -62c69 0 121 31 121 89c0 34 -26 53 -75 67l-47 14
c-64 20 -96 58 -96 108c0 70 49 148 173 148c73 0 124 -33 145 -63zM331 696h68l-109 -151h-60z" />
    <glyph glyph-name="scircumflex" unicode="&#x15d;" horiz-adv-x="412" 
d="M254 696h61l70 -151h-55l-51 107l-89 -107h-60zM380 403l-42 -36c-18 27 -53 49 -106 49c-79 0 -109 -46 -109 -93c0 -26 17 -50 61 -63l46 -14c76 -23 112 -55 112 -113c0 -82 -68 -143 -185 -143c-91 0 -135 42 -154 76l42 36c19 -30 43 -62 114 -62
c69 0 121 31 121 89c0 34 -26 53 -75 67l-47 14c-64 20 -96 58 -96 108c0 70 49 148 173 148c73 0 124 -33 145 -63z" />
    <glyph glyph-name="scaron" unicode="&#x161;" horiz-adv-x="412" 
d="M290 545h-61l-70 151h55l52 -107l88 107h59zM380 403l-42 -36c-18 27 -53 49 -106 49c-79 0 -109 -46 -109 -93c0 -26 17 -50 61 -63l46 -14c76 -23 112 -55 112 -113c0 -82 -68 -143 -185 -143c-91 0 -135 42 -154 76l42 36c19 -30 43 -62 114 -62c69 0 121 31 121 89
c0 34 -26 53 -75 67l-47 14c-64 20 -96 58 -96 108c0 70 49 148 173 148c73 0 124 -33 145 -63z" />
    <glyph glyph-name="scedilla" unicode="&#x15f;" horiz-adv-x="413" 
d="M380 403l-42 -36c-18 27 -53 49 -106 49c-79 0 -109 -46 -109 -93c0 -26 17 -50 61 -63l46 -14c76 -23 112 -55 112 -113c0 -77 -60 -135 -163 -142l-27 -51c41 0 72 -18 72 -65c0 -51 -38 -91 -106 -91c-30 0 -58 11 -77 22l9 47c18 -16 43 -25 70 -25c32 0 49 19 49 41
c0 25 -20 32 -50 32h-30l-2 5l44 85c-74 7 -111 44 -128 75l42 36c19 -30 43 -62 114 -62c69 0 121 31 121 89c0 34 -26 53 -75 67l-47 14c-64 20 -96 58 -96 108c0 70 49 148 173 148c73 0 124 -33 145 -63z" />
    <glyph glyph-name="scommaaccent" unicode="&#x219;" horiz-adv-x="412" 
d="M186 -70l-72 -146h-48l50 146h70zM380 403l-42 -36c-18 27 -53 49 -106 49c-79 0 -109 -46 -109 -93c0 -26 17 -50 61 -63l46 -14c76 -23 112 -55 112 -113c0 -82 -68 -143 -185 -143c-91 0 -135 42 -154 76l42 36c19 -30 43 -62 114 -62c69 0 121 31 121 89
c0 34 -26 53 -75 67l-47 14c-64 20 -96 58 -96 108c0 70 49 148 173 148c73 0 124 -33 145 -63z" />
    <glyph glyph-name="germandbls" unicode="&#xdf;" horiz-adv-x="524" 
d="M-13 -216l127 715c22 127 77 201 189 201c96 0 148 -48 148 -133c0 -106 -125 -177 -125 -220c0 -17 13 -35 42 -54l34 -25c40 -30 64 -67 64 -119c0 -88 -74 -160 -178 -160c-43 0 -79 11 -105 28l28 53c21 -14 43 -28 76 -28c68 0 118 46 118 105c0 34 -16 57 -45 80
l-37 28c-34 27 -59 46 -59 87c0 69 125 133 125 221c0 53 -32 83 -90 83c-86 0 -114 -71 -127 -148l-126 -714h-59z" />
    <glyph glyph-name="tcaron" unicode="&#x165;" horiz-adv-x="316" 
d="M183 403l-50 -280c-9 -51 4 -78 49 -78c21 0 46 8 66 18l1 -52c-22 -11 -52 -21 -82 -21c-85 0 -108 51 -93 129l50 284h-83l7 43l85 10l20 116l62 12l-23 -128h124l-9 -53h-124zM440 690l-72 -146h-48l50 146h70z" />
    <glyph glyph-name="tcommaaccent" unicode="&#x163;" horiz-adv-x="316" 
d="M183 403l-50 -280c-9 -51 4 -78 49 -78c21 0 46 8 66 18l1 -52c-22 -11 -52 -21 -82 -21h-3l-26 -50c41 0 72 -18 72 -65c0 -51 -38 -91 -106 -91c-30 0 -58 11 -77 22l9 47c18 -16 43 -25 70 -25c32 0 49 19 49 41c0 25 -20 32 -50 32h-30l-2 5l47 91
c-47 16 -58 61 -46 122l50 284h-83l7 43l85 10l20 116l62 12l-23 -128h124l-9 -53h-124z" />
    <glyph glyph-name="uni021B" unicode="&#x21b;" horiz-adv-x="316" 
d="M160 -70l-72 -146h-48l50 146h70zM183 403l-50 -280c-9 -51 4 -78 49 -78c21 0 46 8 66 18l1 -52c-22 -11 -52 -21 -82 -21c-85 0 -108 51 -93 129l50 284h-83l7 43l85 10l20 116l62 12l-23 -128h124l-9 -53h-124z" />
    <glyph glyph-name="tbar" unicode="&#x167;" horiz-adv-x="320" 
d="M187 403l-23 -130h100l-8 -47h-101l-18 -103c-9 -51 4 -78 49 -78c21 0 46 8 66 18l1 -52c-22 -11 -52 -21 -82 -21c-85 0 -108 51 -93 129l19 107h-72l9 47h71l23 130h-83l7 43l85 10l20 116l62 12l-23 -128h124l-9 -53h-124z" />
    <glyph glyph-name="thorn" unicode="&#xfe;" horiz-adv-x="502" 
d="M92 46l-46 -262h-59l157 892h59l-45 -261c29 30 73 51 134 51c110 0 154 -77 154 -180c0 -163 -69 -296 -231 -296c-63 0 -104 25 -123 56zM384 282c0 70 -28 128 -108 128c-60 0 -106 -31 -131 -67l-41 -231c13 -30 44 -67 108 -67c129 0 172 115 172 237z" />
    <glyph glyph-name="ugrave" unicode="&#xf9;" horiz-adv-x="502" 
d="M220 696h63l46 -151h-53zM460 456l-81 -456h-58l9 50c-34 -35 -91 -60 -149 -60c-111 0 -152 56 -131 172l53 294h58l-51 -291c-15 -83 4 -119 87 -119c58 0 109 26 143 62l61 348h59z" />
    <glyph glyph-name="uacute" unicode="&#xfa;" horiz-adv-x="502" 
d="M366 696h68l-109 -151h-60zM460 456l-81 -456h-58l9 50c-34 -35 -91 -60 -149 -60c-111 0 -152 56 -131 172l53 294h58l-51 -291c-15 -83 4 -119 87 -119c58 0 109 26 143 62l61 348h59z" />
    <glyph glyph-name="ucircumflex" unicode="&#xfb;" horiz-adv-x="502" 
d="M290 696h61l70 -151h-55l-51 107l-89 -107h-60zM460 456l-81 -456h-58l9 50c-34 -35 -91 -60 -149 -60c-111 0 -152 56 -131 172l53 294h58l-51 -291c-15 -83 4 -119 87 -119c58 0 109 26 143 62l61 348h59z" />
    <glyph glyph-name="utilde" unicode="&#x169;" horiz-adv-x="502" 
d="M440 626l-17 -49c-13 15 -32 25 -52 25c-37 0 -83 -37 -137 -37c-26 0 -49 13 -57 26l15 48c11 -15 27 -25 51 -25c41 0 81 38 137 38c32 0 50 -16 60 -26zM460 456l-81 -456h-58l9 50c-34 -35 -91 -60 -149 -60c-111 0 -152 56 -131 172l53 294h58l-51 -291
c-15 -83 4 -119 87 -119c58 0 109 26 143 62l61 348h59z" />
    <glyph glyph-name="udieresis" unicode="&#xfc;" horiz-adv-x="502" 
d="M219 569c-23 0 -41 13 -41 39c0 39 22 56 53 56c21 0 41 -14 41 -41c0 -39 -26 -54 -53 -54zM387 569c-23 0 -40 13 -40 39c0 39 22 56 53 56c20 0 41 -14 41 -41c0 -39 -26 -54 -54 -54zM460 456l-81 -456h-58l9 50c-34 -35 -91 -60 -149 -60c-111 0 -152 56 -131 172
l53 294h58l-51 -291c-15 -83 4 -119 87 -119c58 0 109 26 143 62l61 348h59z" />
    <glyph glyph-name="umacron" unicode="&#x16b;" horiz-adv-x="502" 
d="M183 635h260l-10 -51h-258zM460 456l-81 -456h-58l9 50c-34 -35 -91 -60 -149 -60c-111 0 -152 56 -131 172l53 294h58l-51 -291c-15 -83 4 -119 87 -119c58 0 109 26 143 62l61 348h59z" />
    <glyph glyph-name="ubreve" unicode="&#x16d;" horiz-adv-x="502" 
d="M402 681h45c-13 -76 -66 -132 -145 -132c-75 0 -116 56 -103 132h45c-7 -48 15 -84 64 -84c51 0 84 36 94 84zM460 456l-81 -456h-58l9 50c-34 -35 -91 -60 -149 -60c-111 0 -152 56 -131 172l53 294h58l-51 -291c-15 -83 4 -119 87 -119c58 0 109 26 143 62l61 348h59z
" />
    <glyph glyph-name="uring" unicode="&#x16f;" horiz-adv-x="502" 
d="M211 610c0 61 45 106 112 106c53 0 85 -35 85 -78c0 -62 -46 -107 -114 -107c-51 0 -83 35 -83 79zM255 614c0 -26 16 -44 44 -44c39 0 64 27 64 64c0 26 -16 43 -45 43c-37 0 -63 -26 -63 -63zM460 456l-81 -456h-58l9 50c-34 -35 -91 -60 -149 -60
c-111 0 -152 56 -131 172l53 294h58l-51 -291c-15 -83 4 -119 87 -119c58 0 109 26 143 62l61 348h59z" />
    <glyph glyph-name="uhungarumlaut" unicode="&#x171;" horiz-adv-x="502" 
d="M294 696h67l-109 -151h-58zM431 696h68l-110 -151h-57zM460 456l-81 -456h-58l9 50c-34 -35 -91 -60 -149 -60c-111 0 -152 56 -131 172l53 294h58l-51 -291c-15 -83 4 -119 87 -119c58 0 109 26 143 62l61 348h59z" />
    <glyph glyph-name="uogonek" unicode="&#x173;" horiz-adv-x="502" 
d="M460 456l-81 -456h-1l-83 -62c-30 -23 -43 -41 -43 -66c0 -18 11 -37 39 -37c20 0 42 11 63 25l-9 -56c-18 -9 -40 -20 -72 -20c-54 0 -84 33 -84 75c0 45 27 75 65 103l69 52l7 36c-34 -35 -91 -60 -149 -60c-111 0 -152 56 -131 172l53 294h58l-51 -291
c-15 -83 4 -119 87 -119c58 0 109 26 143 62l61 348h59z" />
    <glyph glyph-name="wacute" unicode="&#x1e83;" horiz-adv-x="721" 
d="M357 456h65l50 -387l184 387h68l-225 -456h-67l-54 378l-187 -378h-66l-65 456h63l47 -387zM471 696h68l-109 -151h-60z" />
    <glyph glyph-name="wcircumflex" unicode="&#x175;" horiz-adv-x="721" 
d="M401 696h61l70 -151h-55l-51 107l-89 -107h-60zM357 456h65l50 -387l184 387h68l-225 -456h-67l-54 378l-187 -378h-66l-65 456h63l47 -387z" />
    <glyph glyph-name="wdieresis" unicode="&#x1e85;" horiz-adv-x="721" 
d="M326 569c-23 0 -41 13 -41 39c0 39 22 56 53 56c21 0 41 -14 41 -41c0 -39 -26 -54 -53 -54zM494 569c-23 0 -40 13 -40 39c0 39 22 56 53 56c20 0 41 -14 41 -41c0 -39 -26 -54 -54 -54zM357 456h65l50 -387l184 387h68l-225 -456h-67l-54 378l-187 -378h-66l-65 456h63
l47 -387z" />
    <glyph glyph-name="wgrave" unicode="&#x1e81;" horiz-adv-x="721" 
d="M325 696h63l46 -151h-53zM357 456h65l50 -387l184 387h68l-225 -456h-67l-54 378l-187 -378h-66l-65 456h63l47 -387z" />
    <glyph glyph-name="yacute" unicode="&#xfd;" horiz-adv-x="459" 
d="M119 456l84 -350l194 350h71l-387 -672h-67l147 253l-107 419h65zM351 696h68l-109 -151h-60z" />
    <glyph glyph-name="ycircumflex" unicode="&#x177;" horiz-adv-x="459" 
d="M275 696h61l70 -151h-55l-51 107l-89 -107h-60zM119 456l84 -350l194 350h71l-387 -672h-67l147 253l-107 419h65z" />
    <glyph glyph-name="ydieresis" unicode="&#xff;" horiz-adv-x="459" 
d="M202 569c-23 0 -41 13 -41 39c0 39 22 56 53 56c21 0 41 -14 41 -41c0 -39 -26 -54 -53 -54zM370 569c-23 0 -40 13 -40 39c0 39 22 56 53 56c20 0 41 -14 41 -41c0 -39 -26 -54 -54 -54zM119 456l84 -350l194 350h71l-387 -672h-67l147 253l-107 419h65z" />
    <glyph glyph-name="ygrave" unicode="&#x1ef3;" horiz-adv-x="459" 
d="M204 696h63l46 -151h-53zM119 456l84 -350l194 350h71l-387 -672h-67l147 253l-107 419h65z" />
    <glyph glyph-name="zacute" unicode="&#x17a;" horiz-adv-x="390" 
d="M375 456l-8 -45l-287 -358h229l-9 -53h-309l8 45l288 358h-214l9 53h293zM318 696h68l-109 -151h-60z" />
    <glyph glyph-name="zcaron" unicode="&#x17e;" horiz-adv-x="390" 
d="M279 545h-61l-70 151h55l52 -107l88 107h59zM375 456l-8 -45l-287 -358h229l-9 -53h-309l8 45l288 358h-214l9 53h293z" />
    <glyph glyph-name="zdotaccent" unicode="&#x17c;" horiz-adv-x="390" 
d="M260 569c-22 0 -41 13 -41 39c0 40 23 56 54 56c21 0 41 -15 41 -41c0 -39 -26 -54 -54 -54zM375 456l-8 -45l-287 -358h229l-9 -53h-309l8 45l288 358h-214l9 53h293z" />
    <glyph glyph-name="IJ" unicode="&#x132;" horiz-adv-x="704" 
d="M39 0l119 676h63l-119 -676h-63zM227 87l52 31c20 -53 54 -71 109 -71c98 0 142 64 165 192l77 437h61l-77 -441c-30 -166 -101 -245 -229 -245c-83 0 -139 39 -158 97z" />
    <glyph glyph-name="ij" unicode="&#x133;" horiz-adv-x="414" 
d="M25 0l81 456h59l-81 -456h-59zM156 579c-22 0 -39 11 -39 37c0 39 25 58 56 58c21 0 39 -13 39 -39c0 -39 -29 -56 -56 -56zM140 -226l-22 46c68 24 93 61 108 147l86 489h59l-86 -487c-20 -113 -61 -167 -145 -195zM362 579c-23 0 -39 11 -39 37c0 39 25 58 56 58
c20 0 39 -13 39 -39c0 -39 -28 -56 -56 -56z" />
    <glyph glyph-name="acute" unicode="&#xb4;" horiz-adv-x="570" 
d="M410 696h68l-109 -151h-60z" />
    <glyph glyph-name="circumflex" unicode="&#x2c6;" horiz-adv-x="570" 
d="M377 696h61l70 -151h-55l-51 107l-89 -107h-60z" />
    <glyph glyph-name="caron" unicode="&#x2c7;" horiz-adv-x="570" 
d="M411 545h-61l-70 151h55l52 -107l88 107h59z" />
    <glyph glyph-name="tilde" unicode="&#x2dc;" horiz-adv-x="570" 
d="M524 626l-17 -49c-13 15 -32 25 -52 25c-37 0 -83 -37 -137 -37c-26 0 -49 13 -57 26l15 48c11 -15 27 -25 51 -25c41 0 81 38 137 38c32 0 50 -16 60 -26z" />
    <glyph glyph-name="dieresis" unicode="&#xa8;" horiz-adv-x="570" 
d="M303 569c-23 0 -41 13 -41 39c0 39 22 56 53 56c21 0 41 -14 41 -41c0 -39 -26 -54 -53 -54zM471 569c-23 0 -40 13 -40 39c0 39 22 56 53 56c20 0 41 -14 41 -41c0 -39 -26 -54 -54 -54z" />
    <glyph glyph-name="macron" unicode="&#xaf;" horiz-adv-x="570" 
d="M267 635h260l-10 -51h-258z" />
    <glyph glyph-name="breve" unicode="&#x2d8;" horiz-adv-x="570" 
d="M483 681h45c-13 -76 -66 -132 -145 -132c-75 0 -116 56 -103 132h45c-7 -48 15 -84 64 -84c51 0 84 36 94 84z" />
    <glyph glyph-name="ring" unicode="&#x2da;" horiz-adv-x="570" 
d="M296 610c0 61 45 106 112 106c53 0 85 -35 85 -78c0 -62 -46 -107 -114 -107c-51 0 -83 35 -83 79zM340 614c0 -26 16 -44 44 -44c39 0 64 27 64 64c0 26 -16 43 -45 43c-37 0 -63 -26 -63 -63z" />
    <glyph glyph-name="hungarumlaut" unicode="&#x2dd;" horiz-adv-x="570" 
d="M342 696h67l-109 -151h-58zM479 696h68l-110 -151h-57z" />
    <glyph glyph-name="dotaccent" unicode="&#x2d9;" horiz-adv-x="570" 
d="M387 569c-22 0 -41 13 -41 39c0 40 23 56 54 56c21 0 41 -15 41 -41c0 -39 -26 -54 -54 -54z" />
    <glyph glyph-name="cedilla" unicode="&#xb8;" horiz-adv-x="570" 
d="M272 7l45 -7l-32 -60c41 0 72 -18 72 -65c0 -51 -38 -91 -106 -91c-30 0 -58 11 -77 22l9 47c18 -16 43 -25 70 -25c32 0 49 19 49 41c0 25 -20 32 -50 32h-30l-2 5z" />
    <glyph glyph-name="ogonek" unicode="&#x2db;" horiz-adv-x="570" 
d="M364 0l-83 -62c-30 -23 -43 -41 -43 -66c0 -18 11 -37 39 -37c20 0 42 11 63 25l-9 -56c-18 -9 -40 -20 -72 -20c-54 0 -84 33 -84 75c0 45 27 75 65 103l71 53z" />
    <glyph glyph-name="commaaccent" unicode="&#xf6c3;" horiz-adv-x="570" 
d="M320 -70l-72 -146h-48l50 146h70z" />
    <glyph glyph-name="ellipsis" unicode="&#x2026;" horiz-adv-x="563" 
d="M65 -7c-25 0 -44 21 -44 45c0 33 26 56 58 56c26 0 45 -20 45 -44c0 -34 -26 -57 -59 -57zM410 -7c-26 0 -44 21 -44 45c0 33 25 56 57 56c26 0 44 -20 44 -44c0 -34 -25 -57 -57 -57zM239 -7c-26 0 -44 21 -44 45c0 33 25 56 57 56c26 0 45 -20 45 -44
c0 -34 -25 -57 -58 -57z" />
    <glyph glyph-name="uni00AD" unicode="&#xad;" horiz-adv-x="393" 
d="M71 296h246v-53h-246v53z" />
    <glyph glyph-name="exclamdown" unicode="&#xa1;" horiz-adv-x="214" 
d="M78 254h50l-72 -471h-74zM137 466c25 0 44 -20 44 -44c0 -34 -25 -57 -58 -57c-26 0 -45 20 -45 44c0 34 26 57 59 57z" />
    <glyph glyph-name="questiondown" unicode="&#xbf;" horiz-adv-x="422" 
d="M254 467c25 0 44 -20 44 -44c0 -34 -26 -57 -58 -57c-26 0 -45 20 -45 44c0 33 26 57 59 57zM138 -226c-100 0 -160 62 -160 146c0 154 180 180 207 334h65c-31 -172 -208 -211 -208 -329c0 -47 31 -93 97 -93c63 0 115 38 126 101l60 -3c-15 -87 -76 -156 -187 -156z
" />
    <glyph glyph-name="quoteleft" unicode="&#x2018;" horiz-adv-x="205" 
d="M88 467l83 209h48l-60 -209h-71z" />
    <glyph glyph-name="quoteright" unicode="&#x2019;" horiz-adv-x="202" 
d="M224 676l-83 -209h-49l61 209h71z" />
    <glyph glyph-name="quotedblleft" unicode="&#x201c;" horiz-adv-x="323" 
d="M206 467l82 209h49l-61 -209h-70zM88 467l83 209h48l-60 -209h-71z" />
    <glyph glyph-name="quotedblright" unicode="&#x201d;" horiz-adv-x="319" 
d="M224 676l-83 -209h-49l61 209h71zM342 676l-84 -209h-47l59 209h72z" />
    <glyph glyph-name="quotesinglbase" unicode="&#x201a;" horiz-adv-x="213" 
d="M116 95l-82 -208h-49l61 208h70z" />
    <glyph glyph-name="quotedblbase" unicode="&#x201e;" horiz-adv-x="331" 
d="M116 95l-82 -209h-49l61 209h70zM234 95l-83 -209h-48l60 209h71z" />
    <glyph glyph-name="guilsinglleft" unicode="&#x2039;" horiz-adv-x="290" 
d="M35 270l199 208l35 -35l-160 -177l97 -178l-45 -26z" />
    <glyph glyph-name="guilsinglright" unicode="&#x203a;" horiz-adv-x="290" 
d="M252 270l-199 -208l-35 34l160 177l-97 179l44 26z" />
    <glyph glyph-name="guillemotleft" unicode="&#xab;" horiz-adv-x="460" 
d="M35 270l199 208l35 -35l-160 -177l97 -178l-45 -26zM205 270l199 208l35 -35l-160 -177l97 -178l-45 -26z" />
    <glyph glyph-name="guillemotright" unicode="&#xbb;" horiz-adv-x="460" 
d="M252 270l-199 -208l-35 34l160 177l-97 179l44 26zM422 270l-199 -208l-35 34l160 177l-97 179l44 26z" />
    <glyph glyph-name="endash" unicode="&#x2013;" horiz-adv-x="593" 
d="M71 296h446v-53h-446v53z" />
    <glyph glyph-name="emdash" unicode="&#x2014;" horiz-adv-x="733" 
d="M71 296h586v-53h-586v53z" />
    <glyph glyph-name="bullet" unicode="&#x2022;" horiz-adv-x="371" 
d="M183 172c-57 0 -100 41 -100 97c0 57 43 98 100 98c59 0 101 -41 101 -98c0 -56 -42 -97 -101 -97z" />
    <glyph glyph-name="periodcentered" unicode="&#xb7;" horiz-adv-x="239" 
d="M110 218c-26 0 -46 21 -46 46c0 34 27 58 60 58c27 0 46 -21 46 -46c0 -34 -26 -58 -60 -58z" />
    <glyph glyph-name="uni2219" unicode="&#x2219;" horiz-adv-x="239" 
d="M110 218c-26 0 -46 21 -46 46c0 34 27 58 60 58c27 0 46 -21 46 -46c0 -34 -26 -58 -60 -58z" />
    <glyph glyph-name="dagger" unicode="&#x2020;" horiz-adv-x="402" 
d="M34 292h146l70 398h49l-70 -398h145l-9 -46h-145l-81 -462h-49l81 462h-146z" />
    <glyph glyph-name="daggerdbl" unicode="&#x2021;" horiz-adv-x="458" 
d="M92 449h145l43 241h49l-43 -241h146l-8 -46h-145l-58 -328h145l-8 -46h-146l-43 -245h-49l43 245h-145l8 46h146l58 328h-146z" />
    <glyph glyph-name="section" unicode="&#xa7;" horiz-adv-x="538" 
d="M475 278c0 -68 -55 -118 -100 -142c31 -22 54 -48 54 -93c0 -107 -101 -158 -226 -158c-116 0 -178 45 -204 99l47 40c29 -45 70 -86 161 -86c87 0 157 30 157 96c0 34 -45 61 -90 82l-86 40c-78 34 -116 69 -116 132c0 61 50 111 97 141c-28 21 -51 50 -51 96
c0 94 101 161 218 161c101 0 155 -30 193 -96l-49 -37c-33 54 -77 79 -149 79c-67 0 -148 -37 -148 -100c0 -37 44 -65 103 -90l59 -25c76 -32 130 -62 130 -139zM221 404c-48 -26 -85 -69 -85 -109c0 -38 32 -66 83 -87l104 -46c38 22 88 58 88 110c0 43 -39 67 -93 90z
" />
    <glyph glyph-name="paragraph" unicode="&#xb6;" horiz-adv-x="469" 
d="M219 456h97l-91 -514h-56l40 226c-117 0 -171 32 -171 112c0 101 56 176 181 176zM203 -226l-20 44c64 25 90 58 105 146l86 492h57l-85 -485c-20 -106 -45 -164 -143 -197z" />
    <glyph glyph-name="brokenbar" unicode="&#xa6;" horiz-adv-x="252" 
d="M143 306h-48v384h48v-384zM95 170h48v-386h-48v386z" />
    <glyph glyph-name="copyright" unicode="&#xa9;" horiz-adv-x="816" 
d="M72 338c0 214 150 353 347 353c198 0 347 -139 347 -353s-149 -355 -347 -355c-197 0 -347 141 -347 355zM125 338c0 -187 124 -304 294 -304s293 117 293 304s-123 302 -293 302s-294 -115 -294 -302zM292 335c0 -93 35 -157 123 -157c47 0 82 19 108 56l41 -34
c-38 -49 -82 -74 -151 -74c-112 0 -178 81 -178 209s72 209 180 209c68 0 112 -31 144 -65l-39 -35c-28 29 -55 48 -103 48c-87 0 -125 -64 -125 -157z" />
    <glyph glyph-name="uni2117" unicode="&#x2117;" horiz-adv-x="816" 
d="M72 338c0 214 150 353 347 353c198 0 347 -139 347 -353s-149 -355 -347 -355c-197 0 -347 141 -347 355zM125 338c0 -187 124 -304 294 -304s293 117 293 304s-123 302 -293 302s-294 -115 -294 -302zM293 539h142c102 0 148 -52 148 -125c0 -72 -47 -124 -148 -124h-91
v-159h-51v408zM529 414c0 45 -23 81 -92 81h-93v-160h93c69 0 92 35 92 79z" />
    <glyph glyph-name="registered" unicode="&#xae;" horiz-adv-x="816" 
d="M517 424c0 37 -22 73 -94 73h-94v-148h89c74 0 99 41 99 75zM277 131v409h144c101 0 146 -41 146 -115c0 -62 -43 -105 -117 -114l130 -180h-61l-124 175h-66v-175h-52zM72 338c0 214 150 353 347 353c198 0 347 -139 347 -353s-149 -355 -347 -355
c-197 0 -347 141 -347 355zM125 338c0 -187 124 -304 294 -304s293 117 293 304s-123 302 -293 302s-294 -115 -294 -302z" />
    <glyph glyph-name="trademark" unicode="&#x2122;" horiz-adv-x="616" 
d="M110 607h186l-6 -33h-74l-36 -204h-39l37 204h-74zM434 415l88 192h53l-13 -237h-38l15 194l-91 -194h-44l-18 192l-56 -192h-37l70 237h53z" />
    <glyph glyph-name="currency" unicode="&#xa4;" horiz-adv-x="549" 
d="M397 356c11 -22 16 -49 16 -79c0 -32 -6 -61 -17 -84l80 -81l-42 -42l-79 76c-21 -16 -51 -25 -87 -25c-35 0 -65 9 -86 24l-73 -72l-41 41l75 76c-12 24 -18 54 -18 86c0 30 6 57 17 80l-77 79l42 42l73 -74c22 17 53 27 90 27c38 0 70 -10 91 -28l73 73l41 -40z
M269 176c63 0 89 40 89 100s-26 100 -89 100s-88 -40 -88 -99c0 -61 25 -101 88 -101z" />
    <glyph glyph-name="Euro" unicode="&#x20ac;" horiz-adv-x="556" 
d="M342 242h-184v-12c0 -120 40 -183 140 -183c46 0 100 16 157 51l11 -59c-56 -32 -112 -50 -172 -50c-135 0 -201 71 -201 241v12h-52l9 48h45c3 31 6 60 12 89h-42l8 48h46c46 154 146 259 283 259c66 0 123 -19 164 -44l-32 -53c-36 23 -77 39 -136 39
c-99 0 -173 -84 -211 -201h258l-29 -48h-242c-6 -29 -11 -59 -14 -89h210z" />
    <glyph glyph-name="cent" unicode="&#xa2;" horiz-adv-x="467" 
d="M46 171c0 154 70 295 231 295c11 0 23 -1 33 -3l32 78l43 -12l-32 -78c33 -14 58 -39 71 -73l-46 -31c-10 25 -25 43 -46 53l-144 -354c8 -2 17 -2 27 -2c49 0 91 20 122 64l44 -31c-40 -57 -99 -87 -171 -87c-16 0 -30 2 -43 5l-25 -64l-42 12l26 65
c-54 28 -80 87 -80 163zM107 174c0 -46 13 -86 42 -109l140 346c-4 1 -9 1 -13 1c-125 0 -169 -124 -169 -238z" />
    <glyph glyph-name="sterling" unicode="&#xa3;" horiz-adv-x="537" 
d="M52 323h65l22 124c23 135 94 239 230 239c96 0 149 -33 184 -90l-48 -39c-33 57 -76 71 -138 71c-94 0 -148 -74 -167 -185l-21 -120h191l-9 -48h-191l-39 -221h291l-9 -54h-352l47 275h-65z" />
    <glyph glyph-name="florin" unicode="&#x192;" horiz-adv-x="326" 
d="M209 401l-84 -472c-15 -87 -54 -155 -146 -155c-22 0 -49 4 -59 7l9 57c15 -5 30 -8 46 -8c58 0 80 41 91 106l83 465h-96l9 54h96l16 90c15 86 52 155 146 155c21 0 47 -4 58 -7l-10 -57c-15 5 -29 8 -46 8c-56 0 -79 -40 -90 -106l-14 -83h103l-10 -54h-102z" />
    <glyph glyph-name="yen" unicode="&#xa5;" horiz-adv-x="557" 
d="M82 291h154l-31 89h-107l8 48h81l-90 248h67l117 -341l237 341h75l-178 -248h82l-8 -48h-109l-63 -89h156l-8 -48h-166l-43 -243h-62l42 243h-162z" />
    <glyph glyph-name="rupee" unicode="&#x20a8;" horiz-adv-x="503" 
d="M129 676h393l-8 -48h-128c31 -24 43 -68 40 -119h67l-9 -48h-66c-22 -92 -94 -155 -195 -165l129 -296h-72l-124 291h-94l8 54h102c104 0 157 44 179 116h-260l9 48h260c3 69 -27 113 -125 113h-116z" />
    <glyph glyph-name="ordfeminine" unicode="&#xaa;" horiz-adv-x="348" 
d="M291 350h-46l5 32c-22 -19 -58 -39 -93 -39c-36 0 -80 11 -80 69c0 65 67 95 146 104l50 6l4 28c6 32 -7 48 -47 48c-43 0 -59 -12 -62 -30l-3 -19h-47c0 9 1 13 2 21c8 39 46 69 113 69c66 0 104 -27 93 -89zM128 415c0 -20 15 -31 39 -31c37 0 65 22 88 41l11 60
l-44 -6c-59 -8 -94 -25 -94 -64z" />
    <glyph glyph-name="ordmasculine" unicode="&#xba;" horiz-adv-x="364" 
d="M239 639c72 0 111 -44 111 -116c0 -101 -49 -180 -153 -180c-71 0 -110 42 -110 118c0 96 50 178 152 178zM200 386c68 0 99 65 99 135c0 42 -18 75 -62 75c-69 0 -100 -63 -100 -134c0 -43 18 -76 63 -76z" />
    <glyph glyph-name="onesuperior" unicode="&#xb9;" horiz-adv-x="217" 
d="M195 443h-50l52 289l-102 -36l-7 45l124 45h43z" />
    <glyph glyph-name="twosuperior" unicode="&#xb2;" horiz-adv-x="291" 
d="M228 792c58 0 97 -30 97 -90c0 -52 -38 -92 -90 -136l-96 -81h156l-7 -41h-225l7 35l135 118c44 38 71 67 71 105c0 27 -19 50 -50 50c-39 0 -65 -25 -73 -65h-49c10 64 58 105 124 105z" />
    <glyph glyph-name="threesuperior" unicode="&#xb3;" horiz-adv-x="306" 
d="M261 617c30 -5 54 -31 54 -72c0 -62 -62 -108 -134 -108c-85 0 -115 39 -106 92h47c-5 -29 15 -50 61 -50c48 0 82 29 82 67c0 32 -25 52 -69 52h-35l7 41h33c50 0 86 24 86 66c0 27 -21 46 -57 46c-41 0 -68 -24 -71 -51h-49c8 55 59 91 122 91c56 0 105 -23 105 -85
c0 -51 -37 -81 -76 -89z" />
    <glyph glyph-name="fraction" unicode="&#x2044;" horiz-adv-x="168" 
d="M379 676l-508 -676h-61l506 676h63z" />
    <glyph glyph-name="uni2215" unicode="&#x2215;" horiz-adv-x="457" 
d="M524 676l-508 -676h-61l506 676h63z" />
    <glyph glyph-name="onehalf" unicode="&#xbd;" horiz-adv-x="675" 
d="M606 676l-508 -676h-61l506 676h63zM519 348c58 0 97 -30 97 -90c0 -52 -38 -92 -90 -136l-96 -81h156l-7 -41h-225l7 35l135 118c44 38 71 67 71 105c0 27 -19 50 -50 50c-39 0 -65 -25 -73 -65h-49c10 64 58 105 124 105zM203 331h-50l52 289l-102 -36l-7 45l124 45h43
z" />
    <glyph glyph-name="onethird" unicode="&#x2153;" horiz-adv-x="687" 
d="M553 174c30 -5 54 -31 54 -72c0 -62 -62 -108 -134 -108c-85 0 -115 39 -106 92h47c-5 -29 15 -50 61 -50c48 0 82 29 82 67c0 32 -25 52 -69 52h-35l7 41h33c50 0 86 24 86 66c0 27 -21 46 -57 46c-41 0 -68 -24 -71 -51h-49c8 55 59 91 122 91c56 0 105 -23 105 -85
c0 -51 -37 -81 -76 -89zM203 331h-50l52 289l-102 -36l-7 45l124 45h43zM606 676l-508 -676h-61l506 676h63z" />
    <glyph glyph-name="onequarter" unicode="&#xbc;" horiz-adv-x="642" 
d="M570 113l-7 -41h-50l-13 -72h-48l13 72h-172l7 38l210 233h51l-41 -230h50zM359 113h113l28 157zM203 331h-50l52 289l-102 -36l-7 45l124 45h43zM606 676l-508 -676h-61l506 676h63z" />
    <glyph glyph-name="oneeighth" unicode="&#x215b;" horiz-adv-x="691" 
d="M473 -6c-73 0 -115 29 -115 89c0 50 38 86 80 96c-27 10 -46 27 -46 63c0 67 60 106 131 106c69 0 109 -28 109 -83c0 -46 -31 -78 -73 -90c29 -9 51 -28 51 -70c0 -69 -61 -111 -137 -111zM495 157c-57 0 -87 -33 -87 -72c0 -33 28 -49 67 -49c47 0 85 24 85 69
c0 31 -25 52 -65 52zM522 308c-48 0 -79 -25 -79 -67c0 -27 24 -44 59 -44c42 0 79 22 79 66c0 27 -23 45 -59 45zM203 331h-50l52 289l-102 -36l-7 45l124 45h43zM606 676l-508 -676h-61l506 676h63z" />
    <glyph glyph-name="twothirds" unicode="&#x2154;" horiz-adv-x="746" 
d="M228 679c58 0 97 -30 97 -90c0 -52 -38 -92 -90 -136l-96 -81h156l-7 -41h-225l7 35l135 118c44 38 71 67 71 105c0 27 -19 50 -50 50c-39 0 -65 -25 -73 -65h-49c10 64 58 105 124 105zM612 174c30 -5 54 -31 54 -72c0 -62 -62 -108 -134 -108c-85 0 -115 39 -106 92h47
c-5 -29 15 -50 61 -50c48 0 82 29 82 67c0 32 -25 52 -69 52h-35l7 41h33c50 0 86 24 86 66c0 27 -21 46 -57 46c-41 0 -68 -24 -71 -51h-49c8 55 59 91 122 91c56 0 105 -23 105 -85c0 -51 -37 -81 -76 -89zM674 676l-508 -676h-61l506 676h63z" />
    <glyph glyph-name="threequarters" unicode="&#xbe;" horiz-adv-x="692" 
d="M258 505c30 -5 54 -31 54 -72c0 -62 -62 -108 -134 -108c-85 0 -115 39 -106 92h47c-5 -29 15 -50 61 -50c48 0 82 29 82 67c0 32 -25 52 -69 52h-35l7 41h33c50 0 86 24 86 66c0 27 -21 46 -57 46c-41 0 -68 -24 -71 -51h-49c8 55 59 91 122 91c56 0 105 -23 105 -85
c0 -51 -37 -81 -76 -89zM620 113l-7 -41h-50l-13 -72h-48l13 72h-172l7 38l210 233h51l-41 -230h50zM409 113h113l28 157zM666 676l-508 -676h-61l506 676h63z" />
    <glyph glyph-name="threeeighths" unicode="&#x215c;" horiz-adv-x="741" 
d="M259 505c30 -5 54 -31 54 -72c0 -62 -62 -108 -134 -108c-85 0 -115 39 -106 92h47c-5 -29 15 -50 61 -50c48 0 82 29 82 67c0 32 -25 52 -69 52h-35l7 41h33c50 0 86 24 86 66c0 27 -21 46 -57 46c-41 0 -68 -24 -71 -51h-49c8 55 59 91 122 91c56 0 105 -23 105 -85
c0 -51 -37 -81 -76 -89zM524 -6c-73 0 -115 29 -115 89c0 50 38 86 80 96c-27 10 -46 27 -46 63c0 67 60 106 131 106c69 0 109 -28 109 -83c0 -46 -31 -78 -73 -90c29 -9 51 -28 51 -70c0 -69 -61 -111 -137 -111zM546 157c-57 0 -87 -33 -87 -72c0 -33 28 -49 67 -49
c47 0 85 24 85 69c0 31 -25 52 -65 52zM573 308c-48 0 -79 -25 -79 -67c0 -27 24 -44 59 -44c42 0 79 22 79 66c0 27 -23 45 -59 45zM666 676l-508 -676h-61l506 676h63z" />
    <glyph glyph-name="fiveeighths" unicode="&#x215d;" horiz-adv-x="732" 
d="M309 457c0 -73 -55 -132 -137 -132c-89 0 -114 45 -104 98h48c-6 -32 10 -56 58 -56c50 0 85 32 85 89c0 32 -22 53 -59 53c-24 0 -46 -9 -65 -20l-39 4l55 181h185l-7 -41h-145l-29 -94c11 5 35 12 62 12c48 0 92 -23 92 -94zM515 -6c-73 0 -115 29 -115 89
c0 50 38 86 80 96c-27 10 -46 27 -46 63c0 67 60 106 131 106c69 0 109 -28 109 -83c0 -46 -31 -78 -73 -90c29 -9 51 -28 51 -70c0 -69 -61 -111 -137 -111zM537 157c-57 0 -87 -33 -87 -72c0 -33 28 -49 67 -49c47 0 85 24 85 69c0 31 -25 52 -65 52zM564 308
c-48 0 -79 -25 -79 -67c0 -27 24 -44 59 -44c42 0 79 22 79 66c0 27 -23 45 -59 45zM660 676l-508 -676h-61l506 676h63z" />
    <glyph glyph-name="seveneighths" unicode="&#x215e;" horiz-adv-x="654" 
d="M93 331l185 302h-166l7 41h222l-7 -35l-186 -308h-55zM437 -6c-73 0 -115 29 -115 89c0 50 38 86 80 96c-27 10 -46 27 -46 63c0 67 60 106 131 106c69 0 109 -28 109 -83c0 -46 -31 -78 -73 -90c29 -9 51 -28 51 -70c0 -69 -61 -111 -137 -111zM459 157
c-57 0 -87 -33 -87 -72c0 -33 28 -49 67 -49c47 0 85 24 85 69c0 31 -25 52 -65 52zM486 308c-48 0 -79 -25 -79 -67c0 -27 24 -44 59 -44c42 0 79 22 79 66c0 27 -23 45 -59 45zM578 676l-508 -676h-61l506 676h63z" />
    <glyph glyph-name="perthousand" unicode="&#x2030;" horiz-adv-x="1052" 
d="M684 676l-508 -676h-61l506 676h63zM534 36c82 0 111 85 111 185c0 53 -19 87 -62 87c-74 0 -111 -79 -111 -185c0 -53 19 -87 62 -87zM584 348c73 0 112 -43 112 -127c0 -118 -48 -226 -163 -226c-83 0 -111 54 -111 128c0 124 53 225 162 225zM192 367
c82 0 111 85 111 185c0 53 -19 87 -62 87c-74 0 -111 -79 -111 -185c0 -53 19 -87 62 -87zM242 679c73 0 112 -43 112 -127c0 -118 -48 -226 -163 -226c-83 0 -111 54 -111 128c0 124 53 225 162 225zM831 36c82 0 111 85 111 185c0 53 -19 87 -62 87
c-74 0 -111 -79 -111 -185c0 -53 19 -87 62 -87zM881 348c73 0 112 -43 112 -127c0 -118 -48 -226 -163 -226c-83 0 -111 54 -111 128c0 124 53 225 162 225z" />
    <glyph glyph-name="minus" unicode="&#x2212;" 
d="M53 244v53h450v-53h-450z" />
    <glyph glyph-name="plusminus" unicode="&#xb1;" 
d="M51 376v52h195v201h58v-201h198v-52h-198v-188h-58v188h-195zM51 36v53h451v-53h-451z" />
    <glyph glyph-name="multiply" unicode="&#xd7;" 
d="M116 69l-40 41l159 158l-162 162l41 42l162 -163l161 161l40 -39l-161 -161l162 -162l-42 -41l-161 162z" />
    <glyph glyph-name="divide" unicode="&#xf7;" 
d="M53 244v52h451v-52h-451zM281 40c-30 0 -51 21 -51 50s21 51 51 51s52 -22 52 -51s-22 -50 -52 -50zM281 396c-30 0 -51 22 -51 51c0 30 21 51 51 51s52 -21 52 -51c0 -29 -22 -51 -52 -51z" />
    <glyph glyph-name="notequal" unicode="&#x2260;" 
d="M92 412h203l32 127l41 -9l-30 -118h132v-53h-146l-44 -178h190v-52h-203l-34 -134l-40 10l31 124h-132v52h145l44 178h-189v53z" />
    <glyph glyph-name="approxequal" unicode="&#x2248;" 
d="M454 412l22 -44c-24 -34 -56 -56 -100 -56c-70 0 -148 68 -198 68c-44 0 -70 -41 -76 -45l-22 45c24 33 58 55 102 55c60 0 142 -70 196 -70c41 0 70 43 76 47zM452 207l22 -44c-24 -34 -55 -56 -99 -56c-69 0 -147 71 -197 71c-44 0 -71 -43 -78 -47l-21 45
c23 33 58 54 101 54c62 0 144 -70 196 -70c41 0 70 43 76 47z" />
    <glyph glyph-name="lessequal" unicode="&#x2264;" 
d="M84 353v58l378 169v-59l-322 -139l322 -138v-60zM83 36v53h378v-53h-378z" />
    <glyph glyph-name="greaterequal" unicode="&#x2265;" 
d="M90 36v53h378v-53h-378zM483 411v-58l-378 -169v60l322 138l-322 139v59z" />
    <glyph glyph-name="logicalnot" unicode="&#xac;" 
d="M48 314v53h450v-245h-58v192h-392z" />
    <glyph glyph-name="Delta" unicode="&#x2206;" horiz-adv-x="669" 
d="M-19 0l388 676h79l149 -676h-616zM516 54l-116 561l-315 -561h431z" />
    <glyph glyph-name="uni0394" unicode="&#x394;" horiz-adv-x="646" 
d="M-34 0l388 676h79l149 -676h-616zM501 54l-116 561l-315 -561h431z" />
    <glyph glyph-name="Omega" unicode="&#x2126;" horiz-adv-x="670" 
d="M22 54h156c-53 47 -100 147 -100 254c0 189 99 378 328 378c155 0 220 -114 220 -250c0 -196 -114 -321 -207 -382h151l-9 -54h-230l10 54c110 71 220 195 220 379c0 110 -49 196 -164 196c-176 0 -255 -161 -255 -323c0 -107 49 -201 109 -252l-9 -54h-230z" />
    <glyph glyph-name="uni03A9" unicode="&#x3a9;" horiz-adv-x="666" 
d="M20 54h156c-53 47 -100 147 -100 254c0 189 99 378 328 378c155 0 220 -114 220 -250c0 -196 -114 -321 -207 -382h151l-9 -54h-230l10 54c110 71 220 195 220 379c0 110 -49 196 -164 196c-176 0 -255 -161 -255 -323c0 -107 49 -201 109 -252l-9 -54h-230z" />
    <glyph glyph-name="mu" unicode="&#xb5;" horiz-adv-x="500" 
d="M43 -216h-59l70 398l49 274h59l-52 -291c-15 -85 11 -119 89 -119c56 0 107 26 141 62l62 348h59l-81 -456h-57l9 51c-35 -30 -84 -61 -150 -61c-45 0 -77 9 -99 25z" />
    <glyph glyph-name="uni03BC" unicode="&#x3bc;" horiz-adv-x="506" 
d="M46 -216h-59l70 398l49 274h59l-52 -291c-15 -85 11 -119 89 -119c56 0 107 26 141 62l62 348h59l-81 -456h-57l9 51c-35 -30 -84 -61 -150 -61c-45 0 -77 9 -99 25z" />
    <glyph glyph-name="pi" unicode="&#x3c0;" horiz-adv-x="542" 
d="M60 0l71 403h-87l9 53h480l-10 -53h-95l-50 -283c-8 -46 -1 -76 39 -76c10 0 26 2 36 5l-9 -54c-12 -4 -25 -6 -40 -6c-78 0 -99 54 -86 130l50 284h-178l-71 -403h-59z" />
    <glyph glyph-name="degree" unicode="&#xb0;" horiz-adv-x="359" 
d="M93 526c0 86 62 160 151 160c68 0 113 -44 113 -119c0 -85 -60 -159 -151 -159c-68 0 -113 45 -113 118zM138 527c0 -43 26 -76 70 -76c61 0 105 50 105 115c0 43 -26 77 -71 77c-60 0 -104 -51 -104 -116z" />
    <glyph glyph-name="afii61289" unicode="&#x2113;" horiz-adv-x="415" 
d="M354 37c-35 -29 -76 -48 -126 -48c-68 0 -102 41 -102 128v131c-13 -12 -54 -43 -82 -63l-24 39c25 18 73 53 106 83v228c0 119 48 171 112 171c68 0 99 -52 99 -131c0 -103 -60 -194 -162 -291v-161c0 -59 22 -86 56 -86s71 17 99 41zM288 572c0 55 -22 85 -52 85
c-39 0 -61 -45 -61 -112v-199c62 66 113 142 113 226z" />
    <glyph glyph-name="estimated" unicode="&#x212e;" horiz-adv-x="763" 
d="M728 338h-511v-230c49 -49 109 -74 183 -74c105 0 182 45 245 152l45 -27c-78 -121 -157 -171 -290 -171c-199 0 -327 154 -327 350c0 197 128 350 327 350c195 0 327 -145 328 -350zM217 384h369v184c-54 50 -116 75 -187 75c-73 0 -133 -26 -182 -75v-184z" />
    <glyph glyph-name="eng" unicode="&#x14b;" horiz-adv-x="502" 
d="M24 0l81 456h58l-9 -51c34 36 92 61 152 61c113 0 148 -55 128 -171l-56 -321c-22 -121 -64 -173 -146 -201l-22 46c69 27 93 63 108 148l57 324c14 80 -5 119 -87 119c-59 0 -110 -26 -143 -62l-62 -348h-59z" />
    <glyph glyph-name="Eng" unicode="&#x14a;" horiz-adv-x="658" 
d="M367 -227l-24 50c67 25 90 63 105 144l4 24l-249 585l-101 -576h-64l120 676h70l245 -577l101 577h66l-124 -702c-22 -124 -67 -173 -149 -201z" />
    <glyph glyph-name="infinity" unicode="&#x221e;" horiz-adv-x="722" 
d="M663 287c0 -99 -72 -178 -169 -178c-74 0 -112 48 -141 111c-47 -57 -103 -110 -171 -110c-73 0 -129 46 -129 131c0 97 74 177 169 177c77 0 113 -53 144 -115c45 57 101 117 169 117c74 0 128 -48 128 -133zM610 284c0 50 -30 84 -81 84c-50 0 -98 -61 -137 -107
c23 -51 49 -102 101 -102c66 0 117 53 117 125zM327 263c-23 47 -58 105 -105 105c-62 0 -116 -54 -116 -125c0 -51 33 -84 81 -84c51 0 103 59 140 104z" />
    <glyph glyph-name="partialdiff" unicode="&#x2202;" horiz-adv-x="518" 
d="M299 690h77c55 -53 93 -163 93 -282c0 -208 -73 -418 -265 -418c-118 0 -166 80 -166 179c0 167 83 278 224 278c79 0 128 -47 145 -98c12 143 -22 253 -108 341zM207 44c110 0 170 112 186 217c-12 63 -55 130 -128 130c-115 0 -167 -101 -167 -218
c0 -67 29 -129 109 -129z" />
    <glyph glyph-name="integral" unicode="&#x222b;" horiz-adv-x="353" 
d="M253 547l-109 -618c-18 -98 -58 -155 -149 -155c-18 0 -44 4 -55 7l10 55c15 -3 30 -6 48 -6c55 0 78 33 89 103l109 618c17 96 58 155 149 155c18 0 44 -4 55 -7l-10 -55c-14 4 -29 6 -48 6c-54 0 -77 -35 -89 -103z" />
    <glyph glyph-name="radical" unicode="&#x221a;" horiz-adv-x="586" 
d="M637 696l-392 -912h-70l-88 359l-77 -37l-13 51l134 63l83 -368l358 844h65z" />
    <glyph glyph-name="summation" unicode="&#x2211;" horiz-adv-x="559" 
d="M438 -162l-9 -54h-471l13 73l322 387l-190 368l13 64h467l-9 -54h-410l198 -383l-332 -401h408z" />
    <glyph glyph-name="product" unicode="&#x220f;" horiz-adv-x="714" 
d="M116 676h621l-9 -54h-65l-148 -838h-62l148 838h-368l-147 -838h-62l147 838h-64z" />
    <glyph glyph-name="lozenge" unicode="&#x25ca;" horiz-adv-x="569" 
d="M484 357l-130 278l-243 -292l131 -281zM553 350l-290 -350h-55l-167 350l290 346h55z" />
    <glyph glyph-name="uniF8FF" unicode="&#xf8ff;" horiz-adv-x="610" 
d="M98 0v656h413v-656h-413zM136 40h337v576h-337v-576z" />
    <glyph glyph-name="exclam.sc" horiz-adv-x="216" 
d="M111 158h-48l52 349h69zM60 -5c-24 0 -38 16 -38 36c0 28 22 49 51 49c23 0 39 -17 39 -37c0 -27 -24 -48 -52 -48z" />
    <glyph glyph-name="numbersign.sc" horiz-adv-x="502" 
d="M101 152h-77l14 51h80l38 117h-76l14 51h80l46 136h55l-46 -136h106l45 136h57l-46 -136h82l-14 -51h-84l-41 -117h82l-14 -51h-85l-50 -152h-57l50 152h-103l-51 -152h-57zM213 320l-38 -117h103l40 117h-105z" />
    <glyph glyph-name="dollar.sc" horiz-adv-x="450" 
d="M185 -77h-39l12 70c-104 5 -135 56 -146 96l52 30c9 -36 30 -71 103 -75l33 187l-15 6c-68 23 -107 56 -107 120c0 81 61 152 172 157l10 55h39l-10 -55c75 -6 113 -37 130 -73l-50 -33c-15 30 -43 49 -89 53l-33 -184l16 -5c68 -21 113 -58 113 -125
c0 -87 -65 -148 -179 -154zM315 143c0 36 -22 57 -78 76l-31 -174c74 6 109 44 109 98zM139 361c0 -33 17 -55 71 -73l31 173c-67 -7 -102 -48 -102 -100z" />
    <glyph glyph-name="percent.sc" horiz-adv-x="640" 
d="M543 507l-402 -507h-54l401 507h55zM154 278c56 0 84 55 84 133c0 41 -16 62 -49 62c-54 0 -83 -49 -83 -132c0 -40 15 -63 48 -63zM191 511c64 0 94 -34 94 -101c0 -93 -43 -169 -132 -169c-66 0 -94 38 -94 101c0 102 48 169 132 169zM442 33c56 0 83 55 83 133
c0 41 -15 62 -49 62c-53 0 -82 -49 -82 -132c0 -40 14 -63 48 -63zM479 266c63 0 94 -34 94 -101c0 -93 -43 -169 -132 -169c-67 0 -95 38 -95 101c0 102 48 169 133 169z" />
    <glyph glyph-name="ampersand.sc" horiz-adv-x="526" 
d="M431 270l39 -35l-94 -104l-18 -20l87 -106l-1 -5h-65l-59 72c-47 -45 -102 -80 -175 -80c-83 0 -125 39 -125 104c0 70 73 115 134 154l15 9l-16 20c-19 24 -50 62 -50 105c0 72 61 131 162 131c77 0 128 -43 128 -106c0 -56 -47 -93 -115 -138l-34 -22l81 -98l14 16z
M150 41c53 0 96 30 138 71l-88 109l-20 -12c-58 -37 -103 -67 -103 -109c0 -35 31 -59 73 -59zM159 385c0 -29 17 -53 37 -76l17 -22l37 23c51 33 86 54 86 96c0 34 -23 60 -74 60c-66 0 -103 -38 -103 -81z" />
    <glyph glyph-name="section.sc" horiz-adv-x="459" 
d="M387 208c0 -45 -38 -83 -77 -103c26 -17 43 -37 43 -73c0 -71 -85 -118 -183 -118c-86 0 -145 31 -169 73l38 35c22 -35 66 -61 133 -61c69 0 118 25 118 65c0 27 -33 42 -71 58l-78 33c-51 22 -86 45 -86 99c0 41 31 80 74 103c-20 16 -41 34 -41 74
c0 70 88 122 176 122c65 0 130 -16 160 -71l-41 -32c-30 45 -78 54 -122 54c-57 0 -110 -27 -110 -67c0 -30 37 -46 80 -63l57 -23c58 -24 99 -47 99 -105zM177 297c-34 -15 -62 -42 -62 -73c0 -30 27 -48 65 -63l82 -33c27 13 65 38 65 72c0 36 -35 52 -75 67z" />
    <glyph glyph-name="paragraph.sc" horiz-adv-x="422" 
d="M184 342h81l-66 -376h-52l27 156c-95 0 -137 27 -137 87c0 77 45 133 147 133zM186 -171l-21 40c50 21 71 45 82 106l65 367h52l-64 -360c-13 -78 -39 -128 -114 -153z" />
    <glyph glyph-name="parenleft.sc" horiz-adv-x="250" 
d="M135 -151l-48 -16c-34 72 -55 160 -55 248c0 210 71 322 173 446l47 -15c-90 -127 -161 -240 -161 -430c0 -73 17 -159 44 -233z" />
    <glyph glyph-name="slash.sc" horiz-adv-x="290" 
d="M294 507l-2 -8l-246 -499h-58l1 9l244 498h61z" />
    <glyph glyph-name="parenright.sc" horiz-adv-x="250" 
d="M-36 -151c115 161 159 264 159 426c0 83 -18 169 -43 237l48 15c31 -68 55 -153 55 -250c0 -189 -56 -303 -172 -444z" />
    <glyph glyph-name="bracketleft.sc" horiz-adv-x="267" 
d="M114 522h151l-8 -50h-91l-104 -584h92l-9 -50h-151z" />
    <glyph glyph-name="backslash.sc" horiz-adv-x="285" 
d="M73 499l1 8h58l71 -498l-2 -9h-55z" />
    <glyph glyph-name="bracketright.sc" horiz-adv-x="268" 
d="M88 522h151l-120 -684h-152l9 50h92l103 584h-92z" />
    <glyph glyph-name="braceleft.sc" horiz-adv-x="268" 
d="M186 412l-26 -155c-11 -57 -29 -73 -53 -79c21 -9 35 -24 24 -80l-26 -154c-9 -47 3 -61 44 -61l-8 -45c-77 0 -109 24 -94 105l26 151c8 46 -9 61 -58 61l8 45c50 0 72 15 80 61l27 156c14 78 52 101 131 101l-9 -48c-39 0 -58 -11 -66 -58z" />
    <glyph glyph-name="bar.sc" horiz-adv-x="245" 
d="M127 -162h-43v684h43v-684z" />
    <glyph glyph-name="braceright.sc" horiz-adv-x="267" 
d="M46 -56l27 157c10 58 29 74 53 80c-21 9 -36 24 -25 79l27 152c8 47 -4 61 -45 61l8 45c77 0 109 -24 94 -105l-26 -151c-8 -46 10 -61 58 -61l-8 -45c-49 0 -71 -15 -79 -61l-28 -156c-13 -78 -52 -101 -131 -101l10 48c39 0 57 11 65 58z" />
    <glyph glyph-name="zero.sc" horiz-adv-x="496" 
d="M207 44c118 0 171 122 171 283c0 84 -29 136 -97 136c-116 0 -171 -120 -171 -282c0 -85 30 -137 97 -137zM283 515c104 0 155 -66 155 -188c0 -185 -74 -335 -233 -335c-104 0 -156 67 -156 189c0 187 74 334 234 334z" />
    <glyph glyph-name="one.sc" horiz-adv-x="319" 
d="M191 0h-59l79 444l-152 -56l-10 51l178 68h53z" />
    <glyph glyph-name="two.sc" horiz-adv-x="430" 
d="M247 515c84 0 139 -43 139 -127c0 -83 -55 -136 -133 -204l-152 -134h237l-8 -50h-321l8 44l197 176c71 60 109 104 109 167c0 46 -27 76 -80 76c-60 0 -99 -41 -110 -99h-60c15 85 75 151 174 151z" />
    <glyph glyph-name="three.sc" horiz-adv-x="452" 
d="M294 259c39 -10 76 -47 76 -108c0 -86 -76 -159 -192 -159c-124 0 -163 60 -150 131h59c-9 -46 19 -79 93 -79c78 0 129 47 129 108c0 50 -42 84 -109 84h-47l10 50h46c76 0 133 38 133 104c0 42 -31 73 -88 73c-65 0 -105 -37 -113 -80h-61c12 69 74 132 177 132
c88 0 147 -42 147 -122c0 -76 -54 -118 -110 -134z" />
    <glyph glyph-name="four.sc" horiz-adv-x="470" 
d="M407 162l-9 -50h-76l-20 -112h-60l20 112h-252l9 45l311 350h62l-61 -345h76zM91 162h181l44 253z" />
    <glyph glyph-name="five.sc" horiz-adv-x="440" 
d="M368 189c0 -102 -75 -197 -199 -197c-125 0 -159 65 -146 142h60c-9 -51 13 -90 89 -90c89 0 133 67 133 141c0 53 -31 85 -90 85c-40 0 -74 -15 -102 -32l-48 6l78 263h265l-9 -50h-213l-49 -157c18 8 56 22 88 22c87 0 143 -42 143 -133z" />
    <glyph glyph-name="six.sc" horiz-adv-x="470" 
d="M108 203c-8 -99 19 -159 92 -159c83 0 136 58 136 140c0 52 -32 87 -95 87c-54 0 -107 -36 -133 -68zM362 383c8 49 -23 80 -84 80c-94 0 -150 -101 -164 -198c23 20 70 56 136 56c94 0 148 -47 148 -135c0 -109 -81 -194 -200 -194c-106 0 -151 71 -151 184
c0 184 86 339 234 339c106 0 153 -60 140 -132h-59z" />
    <glyph glyph-name="seven.sc" horiz-adv-x="387" 
d="M41 0l272 457h-246l8 50h317l-8 -45l-273 -462h-70z" />
    <glyph glyph-name="eight.sc" horiz-adv-x="473" 
d="M192 -8c-106 0 -161 47 -161 127c0 85 71 133 125 145c-41 12 -73 40 -73 98c0 86 78 153 188 153c92 0 152 -42 152 -119c0 -79 -55 -120 -112 -135c42 -12 81 -42 81 -106c0 -101 -86 -163 -200 -163zM269 463c-73 0 -124 -40 -124 -103c0 -46 38 -73 93 -73
c68 0 124 35 124 106c0 42 -36 70 -93 70zM194 44c81 0 137 40 137 112c0 50 -43 80 -103 80c-73 0 -134 -39 -134 -113c0 -50 38 -79 100 -79z" />
    <glyph glyph-name="nine.sc" horiz-adv-x="470" 
d="M352 304c8 99 -18 159 -92 159c-82 0 -135 -58 -135 -140c0 -52 32 -87 95 -87c53 0 106 36 132 68zM40 124h59c-8 -49 22 -80 83 -80c95 0 150 101 164 198c-22 -20 -70 -56 -135 -56c-95 0 -148 47 -148 135c0 109 80 194 200 194c105 0 151 -71 151 -184
c0 -184 -86 -339 -234 -339c-107 0 -153 60 -140 132z" />
    <glyph glyph-name="question.sc" horiz-adv-x="371" 
d="M126 -5c-23 0 -38 16 -38 37c0 27 23 48 51 48c23 0 40 -16 40 -37c0 -27 -24 -48 -53 -48zM214 515c83 0 133 -43 133 -115c0 -114 -146 -143 -164 -242h-62c23 123 166 156 166 239c0 37 -26 65 -74 65c-54 0 -86 -27 -93 -70l-58 5c11 64 60 118 152 118z" />
    <glyph glyph-name="a.sc" horiz-adv-x="492" 
d="M357 0l-24 136h-220l-72 -136h-68l277 507h73l99 -507h-65zM277 444l-138 -258h186z" />
    <glyph glyph-name="b.sc" horiz-adv-x="480" 
d="M33 0l90 507h151c95 0 148 -33 148 -110s-45 -121 -97 -134c47 -10 80 -45 80 -104c0 -106 -68 -159 -209 -159h-163zM103 51h101c101 0 139 40 139 109c0 47 -32 76 -109 76h-98zM144 287h90c96 0 122 47 122 105c0 41 -26 64 -92 64h-90z" />
    <glyph glyph-name="c.sc" horiz-adv-x="482" 
d="M111 193c0 -94 41 -148 121 -148c54 0 98 27 129 66l44 -35c-38 -50 -94 -84 -176 -84c-119 0 -182 66 -182 199c0 178 80 324 260 324c85 0 137 -36 157 -87l-51 -30c-16 40 -55 64 -108 64c-146 0 -194 -140 -194 -269z" />
    <glyph glyph-name="d.sc" horiz-adv-x="534" 
d="M33 0l90 507h140c139 0 215 -56 215 -189c0 -212 -89 -318 -297 -318h-148zM103 51h81c158 0 231 79 231 266c0 95 -49 139 -159 139h-82z" />
    <glyph glyph-name="e.sc" horiz-adv-x="447" 
d="M103 51h251l-9 -51h-312l90 507h308l-8 -51h-248l-31 -171h221l-9 -51h-221z" />
    <glyph glyph-name="f.sc" horiz-adv-x="436" 
d="M33 0l90 507h304l-9 -51h-243l-33 -185h208l-8 -51h-209l-39 -220h-61z" />
    <glyph glyph-name="g.sc" horiz-adv-x="522" 
d="M269 218l10 52h190c0 -10 -3 -30 -4 -37c-21 -137 -88 -241 -233 -241c-129 0 -186 71 -186 197c0 193 99 326 263 326c88 0 140 -33 165 -85l-51 -31c-22 42 -53 63 -117 63c-116 0 -197 -106 -197 -273c0 -92 35 -145 125 -145c104 0 153 81 167 174h-132z" />
    <glyph glyph-name="h.sc" horiz-adv-x="553" 
d="M413 292l38 215h60l-89 -507h-61l42 241h-267l-43 -241h-60l90 507h59l-38 -215h269z" />
    <glyph glyph-name="i.sc" horiz-adv-x="224" 
d="M33 0l90 507h59l-89 -507h-60z" />
    <glyph glyph-name="j.sc" horiz-adv-x="403" 
d="M-8 67l50 30c15 -35 40 -52 81 -52c64 0 110 36 127 133l57 329h59l-59 -333c-23 -132 -88 -182 -186 -182c-69 0 -113 30 -129 75z" />
    <glyph glyph-name="k.sc" horiz-adv-x="493" 
d="M223 257l-98 -85l-31 -172h-61l90 507h60l-44 -252l288 252h82l-238 -211l146 -296h-68z" />
    <glyph glyph-name="l.sc" horiz-adv-x="390" 
d="M103 51h224l-8 -51h-286l90 507h60z" />
    <glyph glyph-name="m.sc" horiz-adv-x="690" 
d="M309 79l217 428h84l-21 -507h-59l20 434l-219 -434h-66l-66 434l-136 -434h-62l161 507h83z" />
    <glyph glyph-name="n.sc" horiz-adv-x="557" 
d="M384 95l72 412h60l-90 -507h-62l-198 414l-72 -414h-61l90 507h63z" />
    <glyph glyph-name="o.sc" horiz-adv-x="538" 
d="M108 186c0 -83 32 -141 118 -141c118 0 195 93 195 273c0 82 -32 144 -120 144c-139 0 -193 -129 -193 -276zM482 319c0 -206 -96 -327 -259 -327c-124 0 -177 78 -177 195c0 171 73 328 258 328c123 0 178 -75 178 -196z" />
    <glyph glyph-name="p.sc" horiz-adv-x="462" 
d="M233 202h-104l-36 -202h-60l90 507h159c103 0 153 -46 153 -128c0 -106 -66 -177 -202 -177zM174 456l-36 -203h99c98 0 135 52 135 123c0 49 -28 80 -98 80h-100z" />
    <glyph glyph-name="q.sc" horiz-adv-x="538" 
d="M482 319c0 -99 -22 -178 -63 -234l49 -55l-40 -38l-47 53c-41 -35 -95 -53 -158 -53c-124 0 -177 78 -177 195c0 171 73 328 258 328c123 0 178 -75 178 -196zM108 186c0 -83 32 -141 118 -141c46 0 87 15 118 43l-107 124l39 36l103 -117c27 45 42 107 42 187
c0 82 -32 144 -120 144c-139 0 -193 -129 -193 -276z" />
    <glyph glyph-name="r.sc" horiz-adv-x="491" 
d="M33 0l90 507h173c106 0 160 -41 160 -120c0 -94 -61 -150 -164 -158l110 -229h-66l-104 225h-99l-40 -225h-60zM392 385c0 45 -31 71 -105 71h-113l-32 -180h113c98 0 137 39 137 109z" />
    <glyph glyph-name="s.sc" horiz-adv-x="448" 
d="M417 441l-50 -33c-17 34 -51 54 -105 54c-81 0 -122 -46 -122 -102c0 -33 17 -56 73 -73l49 -16c67 -20 112 -57 112 -124c0 -92 -73 -155 -199 -155c-119 0 -152 55 -165 97l52 30c11 -38 30 -74 115 -74c90 0 133 39 133 100c0 36 -23 58 -81 77l-47 16
c-68 23 -106 55 -106 119c0 85 67 158 188 158c90 0 135 -34 153 -74z" />
    <glyph glyph-name="t.sc" horiz-adv-x="430" 
d="M72 507h364l-9 -51h-151l-80 -456h-61l81 456h-152z" />
    <glyph glyph-name="u.sc" horiz-adv-x="534" 
d="M221 -8c-115 0 -184 54 -160 196l57 319h60l-57 -321c-18 -102 21 -141 105 -141c83 0 137 41 155 141l56 321h61l-56 -319c-25 -142 -104 -196 -221 -196z" />
    <glyph glyph-name="v.sc" horiz-adv-x="482" 
d="M429 507h67l-266 -507h-77l-87 507h61l73 -445z" />
    <glyph glyph-name="w.sc" horiz-adv-x="772" 
d="M389 507h69l53 -438l203 438h66l-240 -507h-75l-54 425l-203 -425h-74l-63 507h62l49 -438z" />
    <glyph glyph-name="x.sc" horiz-adv-x="466" 
d="M77 507h68l89 -204l163 204h74l-199 -245l118 -262h-68l-95 218l-174 -218h-74l211 262z" />
    <glyph glyph-name="y.sc" horiz-adv-x="464" 
d="M213 0h-61l36 203l-125 304h65l98 -248l182 248h73l-232 -304z" />
    <glyph glyph-name="z.sc" horiz-adv-x="422" 
d="M413 507l-8 -46l-330 -410h262l-9 -51h-336l7 45l330 411h-242l9 51h317z" />
    <glyph glyph-name="agrave.sc" horiz-adv-x="492" 
d="M357 0l-24 136h-220l-72 -136h-68l277 507h73l99 -507h-65zM277 444l-138 -258h186zM217 726h61l47 -151h-52z" />
    <glyph glyph-name="aacute.sc" horiz-adv-x="492" 
d="M370 726h67l-109 -151h-57zM357 0l-24 136h-220l-72 -136h-68l277 507h73l99 -507h-65zM277 444l-138 -258h186z" />
    <glyph glyph-name="acircumflex.sc" horiz-adv-x="492" 
d="M295 726h61l71 -151h-56l-51 107l-89 -107h-60zM357 0l-24 136h-220l-72 -136h-68l277 507h73l99 -507h-65zM277 444l-138 -258h186z" />
    <glyph glyph-name="atilde.sc" horiz-adv-x="492" 
d="M443 656l-16 -49c-14 15 -33 25 -53 25c-41 0 -81 -37 -136 -37c-27 0 -50 13 -58 26l15 48c11 -15 27 -25 52 -25c44 0 78 38 136 38c32 0 50 -16 60 -26zM357 0l-24 136h-220l-72 -136h-68l277 507h73l99 -507h-65zM277 444l-138 -258h186z" />
    <glyph glyph-name="adieresis.sc" horiz-adv-x="492" 
d="M220 600c-23 0 -40 13 -40 38c0 39 24 55 54 55c20 0 39 -13 39 -39c0 -39 -26 -54 -53 -54zM388 600c-23 0 -40 13 -40 38c0 39 24 55 54 55c20 0 39 -13 39 -39c0 -39 -26 -54 -53 -54zM357 0l-24 136h-220l-72 -136h-68l277 507h73l99 -507h-65zM277 444l-138 -258
h186z" />
    <glyph glyph-name="amacron.sc" horiz-adv-x="492" 
d="M185 663h258l-10 -53h-258zM357 0l-24 136h-220l-72 -136h-68l277 507h73l99 -507h-65zM277 444l-138 -258h186z" />
    <glyph glyph-name="abreve.sc" horiz-adv-x="492" 
d="M400 701h45c-13 -76 -67 -132 -146 -132c-75 0 -115 56 -102 132h45c-7 -48 15 -84 63 -84c51 0 84 36 95 84zM357 0l-24 136h-220l-72 -136h-68l277 507h73l99 -507h-65zM277 444l-138 -258h186z" />
    <glyph glyph-name="aring.sc" horiz-adv-x="492" 
d="M214 637c0 62 45 106 112 106c52 0 85 -35 85 -78c0 -61 -46 -106 -114 -106c-52 0 -83 35 -83 78zM258 641c0 -26 16 -43 44 -43c39 0 64 26 64 63c0 26 -16 43 -45 43c-37 0 -63 -26 -63 -63zM357 0l-24 136h-220l-72 -136h-68l277 507h73l99 -507h-65zM277 444
l-138 -258h186z" />
    <glyph glyph-name="aringacute.sc" horiz-adv-x="492" 
d="M215 638c0 55 37 98 95 103l69 76h65l-80 -81c28 -10 47 -38 47 -73c0 -61 -48 -104 -112 -104c-55 0 -84 36 -84 79zM258 641c0 -26 16 -43 44 -43c39 0 64 26 64 63c0 26 -16 44 -45 44c-37 0 -63 -26 -63 -64zM357 0l-24 136h-220l-72 -136h-68l277 507h73l99 -507
h-65zM277 444l-138 -258h186z" />
    <glyph glyph-name="aogonek.sc" horiz-adv-x="491" 
d="M420 0l-83 -62c-30 -23 -43 -41 -43 -66c0 -18 11 -37 39 -37c20 0 42 11 63 25l-9 -56c-18 -9 -40 -20 -72 -20c-54 0 -84 33 -84 75c0 45 27 75 65 103l59 44l-23 130h-220l-72 -136h-68l277 507h73l99 -507h-1zM276 444l-138 -258h186z" />
    <glyph glyph-name="ae.sc" horiz-adv-x="763" 
d="M419 51h251l-8 -51h-313l24 136h-208l-122 -136h-82l463 507h324l-9 -51h-248l-30 -171h220l-9 -51h-220zM209 186h173l42 240z" />
    <glyph glyph-name="aeacute.sc" horiz-adv-x="763" 
d="M630 726h67l-109 -151h-57zM419 51h251l-8 -51h-313l24 136h-208l-122 -136h-82l463 507h324l-9 -51h-248l-30 -171h220l-9 -51h-220zM209 186h173l42 240z" />
    <glyph glyph-name="cacute.sc" horiz-adv-x="483" 
d="M111 193c0 -94 41 -148 121 -148c54 0 98 27 129 66l44 -35c-38 -50 -94 -84 -176 -84c-119 0 -182 66 -182 199c0 178 80 324 260 324c85 0 137 -36 157 -87l-51 -30c-16 40 -55 64 -108 64c-146 0 -194 -140 -194 -269zM386 726h67l-109 -151h-57z" />
    <glyph glyph-name="ccircumflex.sc" horiz-adv-x="483" 
d="M315 726h61l71 -151h-56l-51 107l-89 -107h-60zM111 193c0 -94 41 -148 121 -148c54 0 98 27 129 66l44 -35c-38 -50 -94 -84 -176 -84c-119 0 -182 66 -182 199c0 178 80 324 260 324c85 0 137 -36 157 -87l-51 -30c-16 40 -55 64 -108 64c-146 0 -194 -140 -194 -269z
" />
    <glyph glyph-name="ccaron.sc" horiz-adv-x="483" 
d="M350 575h-61l-70 151h55l52 -107l89 107h59zM111 193c0 -94 41 -148 121 -148c54 0 98 27 129 66l44 -35c-38 -50 -94 -84 -176 -84c-119 0 -182 66 -182 199c0 178 80 324 260 324c85 0 137 -36 157 -87l-51 -30c-16 40 -55 64 -108 64c-146 0 -194 -140 -194 -269z" />
    <glyph glyph-name="cdotaccent.sc" horiz-adv-x="483" 
d="M325 600c-23 0 -40 13 -40 38c0 39 24 55 54 55c20 0 39 -13 39 -39c0 -39 -26 -54 -53 -54zM111 193c0 -94 41 -148 121 -148c54 0 98 27 129 66l44 -35c-38 -50 -94 -84 -176 -84c-119 0 -182 66 -182 199c0 178 80 324 260 324c85 0 137 -36 157 -87l-51 -30
c-16 40 -55 64 -108 64c-146 0 -194 -140 -194 -269z" />
    <glyph glyph-name="ccedilla.sc" horiz-adv-x="481" 
d="M111 193c0 -94 41 -148 121 -148c54 0 98 27 129 66l44 -35c-35 -46 -85 -78 -156 -83l-28 -53c41 0 72 -18 72 -65c0 -51 -38 -91 -106 -91c-30 0 -58 11 -77 22l9 47c18 -16 43 -25 70 -25c32 0 49 19 49 41c0 25 -20 32 -50 32h-30l-2 5l45 88
c-101 9 -154 75 -154 197c0 178 80 324 260 324c85 0 137 -36 157 -87l-51 -30c-16 40 -55 64 -108 64c-146 0 -194 -140 -194 -269z" />
    <glyph glyph-name="dcaron.sc" horiz-adv-x="534" 
d="M33 0l90 507h140c139 0 215 -56 215 -189c0 -212 -89 -318 -297 -318h-148zM103 51h81c158 0 231 79 231 266c0 95 -49 139 -159 139h-82zM330 575h-61l-70 151h55l52 -107l89 107h59z" />
    <glyph glyph-name="dcroat.sc" horiz-adv-x="540" 
d="M39 0l41 235h-60l9 47h60l40 225h140c139 0 215 -56 215 -189c0 -212 -89 -318 -297 -318h-148zM109 51h81c158 0 231 79 231 266c0 95 -49 139 -159 139h-82l-31 -174h109l-8 -47h-109z" />
    <glyph glyph-name="eth.sc" horiz-adv-x="540" 
d="M39 0l41 235h-60l9 47h60l40 225h140c139 0 215 -56 215 -189c0 -212 -89 -318 -297 -318h-148zM109 51h81c158 0 231 79 231 266c0 95 -49 139 -159 139h-82l-31 -174h109l-8 -47h-109z" />
    <glyph glyph-name="egrave.sc" horiz-adv-x="447" 
d="M103 51h251l-9 -51h-312l90 507h308l-8 -51h-248l-31 -171h221l-9 -51h-221zM208 726h61l47 -151h-52z" />
    <glyph glyph-name="eacute.sc" horiz-adv-x="447" 
d="M355 726h67l-109 -151h-57zM103 51h251l-9 -51h-312l90 507h308l-8 -51h-248l-31 -171h221l-9 -51h-221z" />
    <glyph glyph-name="ecircumflex.sc" horiz-adv-x="447" 
d="M282 726h61l71 -151h-56l-51 107l-89 -107h-60zM103 51h251l-9 -51h-312l90 507h308l-8 -51h-248l-31 -171h221l-9 -51h-221z" />
    <glyph glyph-name="ecaron.sc" horiz-adv-x="447" 
d="M316 575h-61l-70 151h55l52 -107l89 107h59zM103 51h251l-9 -51h-312l90 507h308l-8 -51h-248l-31 -171h221l-9 -51h-221z" />
    <glyph glyph-name="edieresis.sc" horiz-adv-x="447" 
d="M208 600c-23 0 -40 13 -40 38c0 39 24 55 54 55c20 0 39 -13 39 -39c0 -39 -26 -54 -53 -54zM376 600c-23 0 -40 13 -40 38c0 39 24 55 54 55c20 0 39 -13 39 -39c0 -39 -26 -54 -53 -54zM103 51h251l-9 -51h-312l90 507h308l-8 -51h-248l-31 -171h221l-9 -51h-221z" />
    <glyph glyph-name="emacron.sc" horiz-adv-x="447" 
d="M173 663h258l-10 -53h-258zM103 51h251l-9 -51h-312l90 507h308l-8 -51h-248l-31 -171h221l-9 -51h-221z" />
    <glyph glyph-name="ebreve.sc" horiz-adv-x="447" 
d="M387 701h45c-13 -76 -67 -132 -146 -132c-75 0 -115 56 -102 132h45c-7 -48 15 -84 63 -84c51 0 84 36 95 84zM103 51h251l-9 -51h-312l90 507h308l-8 -51h-248l-31 -171h221l-9 -51h-221z" />
    <glyph glyph-name="edotaccent.sc" horiz-adv-x="447" 
d="M292 600c-23 0 -40 13 -40 38c0 39 24 55 54 55c20 0 39 -13 39 -39c0 -39 -26 -54 -53 -54zM103 51h251l-9 -51h-312l90 507h308l-8 -51h-248l-31 -171h221l-9 -51h-221z" />
    <glyph glyph-name="eogonek.sc" horiz-adv-x="446" 
d="M102 51h251l-9 -51l-83 -62c-30 -23 -43 -41 -43 -66c0 -18 11 -37 39 -37c20 0 42 11 63 25l-9 -56c-18 -9 -40 -20 -72 -20c-54 0 -84 33 -84 75c0 45 27 75 65 103l51 38h-239l90 507h308l-8 -51h-248l-31 -171h221l-9 -51h-221z" />
    <glyph glyph-name="gcircumflex.sc" horiz-adv-x="522" 
d="M269 218l10 52h190c0 -10 -3 -30 -4 -37c-21 -137 -88 -241 -233 -241c-129 0 -186 71 -186 197c0 193 99 326 263 326c88 0 140 -33 165 -85l-51 -31c-22 42 -53 63 -117 63c-116 0 -197 -106 -197 -273c0 -92 35 -145 125 -145c104 0 153 81 167 174h-132zM319 726h61
l71 -151h-56l-51 107l-89 -107h-60z" />
    <glyph glyph-name="gbreve.sc" horiz-adv-x="522" 
d="M424 701h45c-13 -76 -67 -132 -146 -132c-75 0 -115 56 -102 132h45c-7 -48 15 -84 63 -84c51 0 84 36 95 84zM269 218l10 52h190c0 -10 -3 -30 -4 -37c-21 -137 -88 -241 -233 -241c-129 0 -186 71 -186 197c0 193 99 326 263 326c88 0 140 -33 165 -85l-51 -31
c-22 42 -53 63 -117 63c-116 0 -197 -106 -197 -273c0 -92 35 -145 125 -145c104 0 153 81 167 174h-132z" />
    <glyph glyph-name="gdotaccent.sc" horiz-adv-x="522" 
d="M329 600c-23 0 -40 13 -40 38c0 39 24 55 54 55c20 0 39 -13 39 -39c0 -39 -26 -54 -53 -54zM269 218l10 52h190c0 -10 -3 -30 -4 -37c-21 -137 -88 -241 -233 -241c-129 0 -186 71 -186 197c0 193 99 326 263 326c88 0 140 -33 165 -85l-51 -31c-22 42 -53 63 -117 63
c-116 0 -197 -106 -197 -273c0 -92 35 -145 125 -145c104 0 153 81 167 174h-132z" />
    <glyph glyph-name="gcommaaccent.sc" horiz-adv-x="522" 
d="M249 -70l-72 -146h-48l50 146h70zM269 218l10 52h190c0 -10 -3 -30 -4 -37c-21 -137 -88 -241 -233 -241c-129 0 -186 71 -186 197c0 193 99 326 263 326c88 0 140 -33 165 -85l-51 -31c-22 42 -53 63 -117 63c-116 0 -197 -106 -197 -273c0 -92 35 -145 125 -145
c104 0 153 81 167 174h-132z" />
    <glyph glyph-name="hcircumflex.sc" horiz-adv-x="553" 
d="M413 292l38 215h60l-89 -507h-61l42 241h-267l-43 -241h-60l90 507h59l-38 -215h269zM325 726h61l71 -151h-56l-51 107l-89 -107h-60z" />
    <glyph glyph-name="hbar.sc" horiz-adv-x="554" 
d="M65 420h43l16 87h59l-16 -87h270l16 87h59l-15 -87h39l-8 -47h-39l-66 -373h-60l42 241h-269l-42 -241h-60l65 373h-42zM415 292l13 81h-269l-14 -81h270z" />
    <glyph glyph-name="igrave.sc" horiz-adv-x="224" 
d="M33 0l90 507h59l-89 -507h-60zM81 726h61l47 -151h-52z" />
    <glyph glyph-name="iacute.sc" horiz-adv-x="224" 
d="M235 726h67l-109 -151h-57zM33 0l90 507h59l-89 -507h-60z" />
    <glyph glyph-name="ibreve.sc" horiz-adv-x="224" 
d="M266 701h45c-13 -76 -67 -132 -146 -132c-75 0 -115 56 -102 132h45c-7 -48 15 -84 63 -84c51 0 84 36 95 84zM33 0l90 507h59l-89 -507h-60z" />
    <glyph glyph-name="icircumflex.sc" horiz-adv-x="224" 
d="M161 726h61l71 -151h-56l-51 107l-89 -107h-60zM33 0l90 507h59l-89 -507h-60z" />
    <glyph glyph-name="itilde.sc" horiz-adv-x="224" 
d="M308 656l-16 -49c-14 15 -33 25 -53 25c-41 0 -81 -37 -136 -37c-27 0 -50 13 -58 26l15 48c11 -15 27 -25 52 -25c44 0 78 38 136 38c32 0 50 -16 60 -26zM33 0l90 507h59l-89 -507h-60z" />
    <glyph glyph-name="idieresis.sc" horiz-adv-x="224" 
d="M86 600c-23 0 -40 13 -40 38c0 39 24 55 54 55c20 0 39 -13 39 -39c0 -39 -26 -54 -53 -54zM254 600c-23 0 -40 13 -40 38c0 39 24 55 54 55c20 0 39 -13 39 -39c0 -39 -26 -54 -53 -54zM33 0l90 507h59l-89 -507h-60z" />
    <glyph glyph-name="imacron.sc" horiz-adv-x="224" 
d="M51 663h258l-10 -53h-258zM33 0l90 507h59l-89 -507h-60z" />
    <glyph glyph-name="idotaccent.sc" horiz-adv-x="224" 
d="M170 600c-23 0 -40 13 -40 38c0 39 24 55 54 55c20 0 39 -13 39 -39c0 -39 -26 -54 -53 -54zM33 0l90 507h59l-89 -507h-60z" />
    <glyph glyph-name="iogonek.sc" horiz-adv-x="224" 
d="M93 0l-83 -62c-30 -23 -43 -41 -43 -66c0 -18 11 -37 39 -37c20 0 42 11 63 25l-9 -56c-18 -9 -40 -20 -72 -20c-54 0 -84 33 -84 75c0 45 27 75 65 103l66 49l88 496h59z" />
    <glyph glyph-name="jcircumflex.sc" horiz-adv-x="402" 
d="M-8 67l50 30c15 -35 40 -52 81 -52c64 0 110 36 127 133l57 329h59l-59 -333c-23 -132 -88 -182 -186 -182c-69 0 -113 30 -129 75zM343 726h61l71 -151h-56l-51 107l-89 -107h-60z" />
    <glyph glyph-name="kcommaaccent.sc" horiz-adv-x="493" 
d="M223 257l-98 -85l-31 -172h-61l90 507h60l-44 -252l288 252h82l-238 -211l146 -296h-68zM216 -70l-72 -146h-48l50 146h70z" />
    <glyph glyph-name="lacute.sc" horiz-adv-x="390" 
d="M103 51h224l-8 -51h-286l90 507h60zM236 726h67l-109 -151h-57z" />
    <glyph glyph-name="lcaron.sc" horiz-adv-x="416" 
d="M424 507l-72 -149h-47l50 149h69zM103 51h224l-8 -51h-286l90 507h60z" />
    <glyph glyph-name="lcommaaccent.sc" horiz-adv-x="390" 
d="M190 -70l-72 -146h-48l50 146h70zM103 51h224l-8 -51h-286l90 507h60z" />
    <glyph glyph-name="lslash.sc" horiz-adv-x="398" 
d="M111 51h225l-8 -51h-286l36 204l-65 -26l9 53l65 27l45 249h59l-38 -223l78 32l-10 -53l-79 -33z" />
    <glyph glyph-name="ldot.sc" horiz-adv-x="419" 
d="M103 51h224l-8 -51h-286l90 507h60zM307 231c-23 0 -40 13 -40 38c0 39 24 55 54 55c20 0 39 -13 39 -39c0 -39 -26 -54 -53 -54z" />
    <glyph glyph-name="nacute.sc" horiz-adv-x="557" 
d="M384 95l72 412h60l-90 -507h-62l-198 414l-72 -414h-61l90 507h63zM402 726h67l-109 -151h-57z" />
    <glyph glyph-name="ncaron.sc" horiz-adv-x="557" 
d="M362 575h-61l-70 151h55l52 -107l89 107h59zM384 95l72 412h60l-90 -507h-62l-198 414l-72 -414h-61l90 507h63z" />
    <glyph glyph-name="ntilde.sc" horiz-adv-x="557" 
d="M475 656l-16 -49c-14 15 -33 25 -53 25c-41 0 -81 -37 -136 -37c-27 0 -50 13 -58 26l15 48c11 -15 27 -25 52 -25c44 0 78 38 136 38c32 0 50 -16 60 -26zM384 95l72 412h60l-90 -507h-62l-198 414l-72 -414h-61l90 507h63z" />
    <glyph glyph-name="ncommaaccent.sc" horiz-adv-x="557" 
d="M256 -70l-72 -146h-48l50 146h70zM384 95l72 412h60l-90 -507h-62l-198 414l-72 -414h-61l90 507h63z" />
    <glyph glyph-name="ograve.sc" horiz-adv-x="538" 
d="M108 186c0 -83 32 -141 118 -141c118 0 195 93 195 273c0 82 -32 144 -120 144c-139 0 -193 -129 -193 -276zM482 319c0 -206 -96 -327 -259 -327c-124 0 -177 78 -177 195c0 171 73 328 258 328c123 0 178 -75 178 -196zM244 726h61l47 -151h-52z" />
    <glyph glyph-name="oacute.sc" horiz-adv-x="538" 
d="M391 726h67l-109 -151h-57zM108 186c0 -83 32 -141 118 -141c118 0 195 93 195 273c0 82 -32 144 -120 144c-139 0 -193 -129 -193 -276zM482 319c0 -206 -96 -327 -259 -327c-124 0 -177 78 -177 195c0 171 73 328 258 328c123 0 178 -75 178 -196z" />
    <glyph glyph-name="ocircumflex.sc" horiz-adv-x="538" 
d="M318 726h61l71 -151h-56l-51 107l-89 -107h-60zM108 186c0 -83 32 -141 118 -141c118 0 195 93 195 273c0 82 -32 144 -120 144c-139 0 -193 -129 -193 -276zM482 319c0 -206 -96 -327 -259 -327c-124 0 -177 78 -177 195c0 171 73 328 258 328c123 0 178 -75 178 -196z
" />
    <glyph glyph-name="otilde.sc" horiz-adv-x="538" 
d="M465 656l-16 -49c-14 15 -33 25 -53 25c-41 0 -81 -37 -136 -37c-27 0 -50 13 -58 26l15 48c11 -15 27 -25 52 -25c44 0 78 38 136 38c32 0 50 -16 60 -26zM108 186c0 -83 32 -141 118 -141c118 0 195 93 195 273c0 82 -32 144 -120 144c-139 0 -193 -129 -193 -276z
M482 319c0 -206 -96 -327 -259 -327c-124 0 -177 78 -177 195c0 171 73 328 258 328c123 0 178 -75 178 -196z" />
    <glyph glyph-name="odieresis.sc" horiz-adv-x="538" 
d="M243 600c-23 0 -40 13 -40 38c0 39 24 55 54 55c20 0 39 -13 39 -39c0 -39 -26 -54 -53 -54zM411 600c-23 0 -40 13 -40 38c0 39 24 55 54 55c20 0 39 -13 39 -39c0 -39 -26 -54 -53 -54zM108 186c0 -83 32 -141 118 -141c118 0 195 93 195 273c0 82 -32 144 -120 144
c-139 0 -193 -129 -193 -276zM482 319c0 -206 -96 -327 -259 -327c-124 0 -177 78 -177 195c0 171 73 328 258 328c123 0 178 -75 178 -196z" />
    <glyph glyph-name="omacron.sc" horiz-adv-x="538" 
d="M208 663h258l-10 -53h-258zM108 186c0 -83 32 -141 118 -141c118 0 195 93 195 273c0 82 -32 144 -120 144c-139 0 -193 -129 -193 -276zM482 319c0 -206 -96 -327 -259 -327c-124 0 -177 78 -177 195c0 171 73 328 258 328c123 0 178 -75 178 -196z" />
    <glyph glyph-name="obreve.sc" horiz-adv-x="538" 
d="M422 701h45c-13 -76 -67 -132 -146 -132c-75 0 -115 56 -102 132h45c-7 -48 15 -84 63 -84c51 0 84 36 95 84zM108 186c0 -83 32 -141 118 -141c118 0 195 93 195 273c0 82 -32 144 -120 144c-139 0 -193 -129 -193 -276zM482 319c0 -206 -96 -327 -259 -327
c-124 0 -177 78 -177 195c0 171 73 328 258 328c123 0 178 -75 178 -196z" />
    <glyph glyph-name="ohungarumlaut.sc" horiz-adv-x="538" 
d="M323 726h65l-108 -151h-57zM459 726h66l-110 -151h-56zM108 186c0 -83 32 -141 118 -141c118 0 195 93 195 273c0 82 -32 144 -120 144c-139 0 -193 -129 -193 -276zM482 319c0 -206 -96 -327 -259 -327c-124 0 -177 78 -177 195c0 171 73 328 258 328
c123 0 178 -75 178 -196z" />
    <glyph glyph-name="oslash.sc" horiz-adv-x="538" 
d="M482 319c0 -206 -96 -327 -259 -327c-57 0 -99 16 -127 45l-33 -37h-60l66 74c-16 31 -23 69 -23 113c0 171 73 328 258 328c54 0 95 -15 124 -42l30 34h63l-64 -71c17 -31 25 -71 25 -117zM421 318c0 25 -3 48 -10 68l-275 -304c19 -24 48 -37 90 -37
c118 0 195 93 195 273zM108 186c0 -23 2 -43 7 -61l272 303c-19 21 -47 34 -86 34c-139 0 -193 -129 -193 -276z" />
    <glyph glyph-name="oslashacute.sc" horiz-adv-x="538" 
d="M390 726h67l-109 -151h-57zM483 319c0 -206 -96 -327 -259 -327c-57 0 -99 16 -127 45l-33 -37h-60l66 74c-16 31 -23 69 -23 113c0 171 73 328 258 328c54 0 95 -15 124 -42l30 34h63l-64 -71c17 -31 25 -71 25 -117zM422 318c0 25 -3 48 -10 68l-275 -304
c19 -24 48 -37 90 -37c118 0 195 93 195 273zM109 186c0 -23 2 -43 7 -61l272 303c-19 21 -47 34 -86 34c-139 0 -193 -129 -193 -276z" />
    <glyph glyph-name="oe.sc" horiz-adv-x="701" 
d="M357 51h251l-9 -51h-304c-21 -6 -43 -8 -71 -8c-134 0 -178 86 -178 194c0 179 77 329 257 329c28 0 55 -2 78 -8h305l-9 -51h-249l-29 -171h220l-9 -51h-220zM227 45c27 0 50 4 70 12l69 393c-18 8 -39 12 -65 12c-137 0 -193 -123 -193 -277c0 -79 32 -140 119 -140z
" />
    <glyph glyph-name="racute.sc" horiz-adv-x="491" 
d="M33 0l90 507h173c106 0 160 -41 160 -120c0 -94 -61 -150 -164 -158l110 -229h-66l-104 225h-99l-40 -225h-60zM392 385c0 45 -31 71 -105 71h-113l-32 -180h113c98 0 137 39 137 109zM348 726h67l-109 -151h-57z" />
    <glyph glyph-name="rcaron.sc" horiz-adv-x="491" 
d="M310 575h-61l-70 151h55l52 -107l89 107h59zM33 0l90 507h173c106 0 160 -41 160 -120c0 -94 -61 -150 -164 -158l110 -229h-66l-104 225h-99l-40 -225h-60zM392 385c0 45 -31 71 -105 71h-113l-32 -180h113c98 0 137 39 137 109z" />
    <glyph glyph-name="rcommaaccent.sc" horiz-adv-x="491" 
d="M209 -70l-72 -146h-48l50 146h70zM33 0l90 507h173c106 0 160 -41 160 -120c0 -94 -61 -150 -164 -158l110 -229h-66l-104 225h-99l-40 -225h-60zM392 385c0 45 -31 71 -105 71h-113l-32 -180h113c98 0 137 39 137 109z" />
    <glyph glyph-name="sacute.sc" horiz-adv-x="448" 
d="M417 441l-50 -33c-17 34 -51 54 -105 54c-81 0 -122 -46 -122 -102c0 -33 17 -56 73 -73l49 -16c67 -20 112 -57 112 -124c0 -92 -73 -155 -199 -155c-119 0 -152 55 -165 97l52 30c11 -38 30 -74 115 -74c90 0 133 39 133 100c0 36 -23 58 -81 77l-47 16
c-68 23 -106 55 -106 119c0 85 67 158 188 158c90 0 135 -34 153 -74zM347 726h67l-109 -151h-57z" />
    <glyph glyph-name="scircumflex.sc" horiz-adv-x="448" 
d="M273 726h61l71 -151h-56l-51 107l-89 -107h-60zM417 441l-50 -33c-17 34 -51 54 -105 54c-81 0 -122 -46 -122 -102c0 -33 17 -56 73 -73l49 -16c67 -20 112 -57 112 -124c0 -92 -73 -155 -199 -155c-119 0 -152 55 -165 97l52 30c11 -38 30 -74 115 -74
c90 0 133 39 133 100c0 36 -23 58 -81 77l-47 16c-68 23 -106 55 -106 119c0 85 67 158 188 158c90 0 135 -34 153 -74z" />
    <glyph glyph-name="scaron.sc" horiz-adv-x="448" 
d="M307 575h-61l-70 151h55l52 -107l89 107h59zM417 441l-50 -33c-17 34 -51 54 -105 54c-81 0 -122 -46 -122 -102c0 -33 17 -56 73 -73l49 -16c67 -20 112 -57 112 -124c0 -92 -73 -155 -199 -155c-119 0 -152 55 -165 97l52 30c11 -38 30 -74 115 -74
c90 0 133 39 133 100c0 36 -23 58 -81 77l-47 16c-68 23 -106 55 -106 119c0 85 67 158 188 158c90 0 135 -34 153 -74z" />
    <glyph glyph-name="scedilla.sc" horiz-adv-x="447" 
d="M417 441l-50 -33c-17 34 -51 54 -105 54c-81 0 -122 -46 -122 -102c0 -33 17 -56 73 -73l49 -16c67 -20 112 -57 112 -124c0 -85 -63 -146 -172 -154l-28 -53c41 0 72 -18 72 -65c0 -51 -38 -91 -106 -91c-30 0 -58 11 -77 22l9 47c18 -16 43 -25 70 -25
c32 0 49 19 49 41c0 25 -20 32 -50 32h-30l-2 5l44 87c-101 6 -131 56 -143 96l52 30c11 -38 30 -74 115 -74c90 0 133 39 133 100c0 36 -23 58 -81 77l-47 16c-68 23 -106 55 -106 119c0 85 67 158 188 158c90 0 135 -34 153 -74z" />
    <glyph glyph-name="scommaaccent.sc" horiz-adv-x="448" 
d="M202 -70l-72 -146h-48l50 146h70zM417 441l-50 -33c-17 34 -51 54 -105 54c-81 0 -122 -46 -122 -102c0 -33 17 -56 73 -73l49 -16c67 -20 112 -57 112 -124c0 -92 -73 -155 -199 -155c-119 0 -152 55 -165 97l52 30c11 -38 30 -74 115 -74c90 0 133 39 133 100
c0 36 -23 58 -81 77l-47 16c-68 23 -106 55 -106 119c0 85 67 158 188 158c90 0 135 -34 153 -74z" />
    <glyph glyph-name="tcaron.sc" horiz-adv-x="430" 
d="M72 507h364l-9 -51h-151l-80 -456h-61l81 456h-152zM297 575h-61l-70 151h55l52 -107l89 107h59z" />
    <glyph glyph-name="tcommaaccent.sc" horiz-adv-x="430" 
d="M72 507h364l-9 -51h-151l-80 -456h-6l-32 -60c41 0 72 -18 72 -65c0 -51 -38 -91 -106 -91c-30 0 -58 11 -77 22l9 47c18 -16 43 -25 70 -25c32 0 49 19 49 41c0 25 -20 32 -50 32h-30l-2 5l48 94h-6l81 456h-152z" />
    <glyph glyph-name="uni021A.sc" horiz-adv-x="436" 
d="M190 -70l-72 -146h-48l50 146h70zM75 507h364l-9 -51h-151l-80 -456h-61l81 456h-152z" />
    <glyph glyph-name="tbar.sc" horiz-adv-x="437" 
d="M101 272h86l32 184h-152l9 51h363l-8 -51h-151l-33 -184h84l-8 -47h-84l-40 -225h-60l39 225h-85z" />
    <glyph glyph-name="thorn.sc" horiz-adv-x="463" 
d="M216 101h-105l-18 -101h-60l90 507h59l-17 -101h99c98 0 153 -41 153 -128c0 -103 -64 -177 -201 -177zM156 355l-36 -203h100c98 0 135 54 135 123c0 49 -29 80 -100 80h-99z" />
    <glyph glyph-name="ugrave.sc" horiz-adv-x="534" 
d="M221 -8c-115 0 -184 54 -160 196l57 319h60l-57 -321c-18 -102 21 -141 105 -141c83 0 137 41 155 141l56 321h61l-56 -319c-25 -142 -104 -196 -221 -196zM240 726h61l47 -151h-52z" />
    <glyph glyph-name="uacute.sc" horiz-adv-x="534" 
d="M468 726h67l-109 -151h-57zM221 -8c-115 0 -184 54 -160 196l57 319h60l-57 -321c-18 -102 21 -141 105 -141c83 0 137 41 155 141l56 321h61l-56 -319c-25 -142 -104 -196 -221 -196z" />
    <glyph glyph-name="ucircumflex.sc" horiz-adv-x="534" 
d="M315 726h61l71 -151h-56l-51 107l-89 -107h-60zM221 -8c-115 0 -184 54 -160 196l57 319h60l-57 -321c-18 -102 21 -141 105 -141c83 0 137 41 155 141l56 321h61l-56 -319c-25 -142 -104 -196 -221 -196z" />
    <glyph glyph-name="utilde.sc" horiz-adv-x="534" 
d="M463 656l-16 -49c-14 15 -33 25 -53 25c-41 0 -81 -37 -136 -37c-27 0 -50 13 -58 26l15 48c11 -15 27 -25 52 -25c44 0 78 38 136 38c32 0 50 -16 60 -26zM221 -8c-115 0 -184 54 -160 196l57 319h60l-57 -321c-18 -102 21 -141 105 -141c83 0 137 41 155 141l56 321h61
l-56 -319c-25 -142 -104 -196 -221 -196z" />
    <glyph glyph-name="udieresis.sc" horiz-adv-x="534" 
d="M241 600c-23 0 -40 13 -40 38c0 39 24 55 54 55c20 0 39 -13 39 -39c0 -39 -26 -54 -53 -54zM409 600c-23 0 -40 13 -40 38c0 39 24 55 54 55c20 0 39 -13 39 -39c0 -39 -26 -54 -53 -54zM221 -8c-115 0 -184 54 -160 196l57 319h60l-57 -321c-18 -102 21 -141 105 -141
c83 0 137 41 155 141l56 321h61l-56 -319c-25 -142 -104 -196 -221 -196z" />
    <glyph glyph-name="umacron.sc" horiz-adv-x="534" 
d="M206 663h258l-10 -53h-258zM221 -8c-115 0 -184 54 -160 196l57 319h60l-57 -321c-18 -102 21 -141 105 -141c83 0 137 41 155 141l56 321h61l-56 -319c-25 -142 -104 -196 -221 -196z" />
    <glyph glyph-name="ubreve.sc" horiz-adv-x="534" 
d="M421 701h45c-13 -76 -67 -132 -146 -132c-75 0 -115 56 -102 132h45c-7 -48 15 -84 63 -84c51 0 84 36 95 84zM221 -8c-115 0 -184 54 -160 196l57 319h60l-57 -321c-18 -102 21 -141 105 -141c83 0 137 41 155 141l56 321h61l-56 -319c-25 -142 -104 -196 -221 -196z
" />
    <glyph glyph-name="uring.sc" horiz-adv-x="534" 
d="M235 637c0 62 45 106 112 106c52 0 85 -35 85 -78c0 -61 -46 -106 -114 -106c-52 0 -83 35 -83 78zM279 641c0 -26 16 -43 44 -43c39 0 64 26 64 63c0 26 -16 43 -45 43c-37 0 -63 -26 -63 -63zM221 -8c-115 0 -184 54 -160 196l57 319h60l-57 -321
c-18 -102 21 -141 105 -141c83 0 137 41 155 141l56 321h61l-56 -319c-25 -142 -104 -196 -221 -196z" />
    <glyph glyph-name="uhungarumlaut.sc" horiz-adv-x="534" 
d="M321 726h65l-108 -151h-57zM457 726h66l-110 -151h-56zM221 -8c-115 0 -184 54 -160 196l57 319h60l-57 -321c-18 -102 21 -141 105 -141c83 0 137 41 155 141l56 321h61l-56 -319c-25 -142 -104 -196 -221 -196z" />
    <glyph glyph-name="uogonek.sc" horiz-adv-x="534" 
d="M104 -135c0 45 27 75 65 103l33 25c-104 6 -164 61 -141 195l57 319h60l-57 -321c-18 -102 21 -141 105 -141c83 0 137 41 155 141l56 321h61l-56 -319c-21 -116 -77 -174 -160 -190l-72 -54c-30 -23 -43 -41 -43 -66c0 -18 11 -37 39 -37c20 0 42 11 63 25l-9 -56
c-18 -9 -40 -20 -72 -20c-54 0 -84 33 -84 75z" />
    <glyph glyph-name="wacute.sc" horiz-adv-x="772" 
d="M389 507h69l53 -438l203 438h66l-240 -507h-75l-54 425l-203 -425h-74l-63 507h62l49 -438zM505 726h67l-109 -151h-57z" />
    <glyph glyph-name="wcircumflex.sc" horiz-adv-x="772" 
d="M431 726h61l71 -151h-56l-51 107l-89 -107h-60zM389 507h69l53 -438l203 438h66l-240 -507h-75l-54 425l-203 -425h-74l-63 507h62l49 -438z" />
    <glyph glyph-name="wdieresis.sc" horiz-adv-x="772" 
d="M356 600c-23 0 -40 13 -40 38c0 39 24 55 54 55c20 0 39 -13 39 -39c0 -39 -26 -54 -53 -54zM524 600c-23 0 -40 13 -40 38c0 39 24 55 54 55c20 0 39 -13 39 -39c0 -39 -26 -54 -53 -54zM389 507h69l53 -438l203 438h66l-240 -507h-75l-54 425l-203 -425h-74l-63 507h62
l49 -438z" />
    <glyph glyph-name="wgrave.sc" horiz-adv-x="772" 
d="M352 726h61l47 -151h-52zM389 507h69l53 -438l203 438h66l-240 -507h-75l-54 425l-203 -425h-74l-63 507h62l49 -438z" />
    <glyph glyph-name="yacute.sc" horiz-adv-x="463" 
d="M213 0h-61l36 203l-125 304h65l98 -248l182 248h73l-232 -304zM351 726h67l-109 -151h-57z" />
    <glyph glyph-name="ycircumflex.sc" horiz-adv-x="463" 
d="M277 726h61l71 -151h-56l-51 107l-89 -107h-60zM213 0h-61l36 203l-125 304h65l98 -248l182 248h73l-232 -304z" />
    <glyph glyph-name="ydieresis.sc" horiz-adv-x="463" 
d="M202 600c-23 0 -40 13 -40 38c0 39 24 55 54 55c20 0 39 -13 39 -39c0 -39 -26 -54 -53 -54zM370 600c-23 0 -40 13 -40 38c0 39 24 55 54 55c20 0 39 -13 39 -39c0 -39 -26 -54 -53 -54zM213 0h-61l36 203l-125 304h65l98 -248l182 248h73l-232 -304z" />
    <glyph glyph-name="ygrave.sc" horiz-adv-x="463" 
d="M204 726h61l47 -151h-52zM213 0h-61l36 203l-125 304h65l98 -248l182 248h73l-232 -304z" />
    <glyph glyph-name="zacute.sc" horiz-adv-x="422" 
d="M413 507l-8 -46l-330 -410h262l-9 -51h-336l7 45l330 411h-242l9 51h317zM332 726h67l-109 -151h-57z" />
    <glyph glyph-name="zcaron.sc" horiz-adv-x="422" 
d="M293 575h-61l-70 151h55l52 -107l89 107h59zM413 507l-8 -46l-330 -410h262l-9 -51h-336l7 45l330 411h-242l9 51h317z" />
    <glyph glyph-name="zdotaccent.sc" horiz-adv-x="422" 
d="M268 600c-23 0 -40 13 -40 38c0 39 24 55 54 55c20 0 39 -13 39 -39c0 -39 -26 -54 -53 -54zM413 507l-8 -46l-330 -410h262l-9 -51h-336l7 45l330 411h-242l9 51h317z" />
    <glyph glyph-name="ij.sc" horiz-adv-x="610" 
d="M32 0l90 507h59l-89 -507h-60zM200 67l50 30c15 -35 40 -52 81 -52c64 0 110 36 127 133l57 329h59l-59 -333c-23 -132 -88 -182 -186 -182c-69 0 -113 30 -129 75z" />
    <glyph glyph-name="germandbls.sc" horiz-adv-x="871" 
d="M841 441l-50 -33c-17 34 -51 54 -105 54c-81 0 -122 -46 -122 -102c0 -33 17 -56 73 -73l49 -16c67 -20 112 -57 112 -124c0 -92 -73 -155 -199 -155c-119 0 -152 55 -165 97l52 30c11 -38 30 -74 115 -74c90 0 133 39 133 100c0 36 -23 58 -81 77l-47 16
c-68 23 -106 55 -106 119c0 85 67 158 188 158c90 0 135 -34 153 -74zM417 441l-50 -33c-17 34 -51 54 -105 54c-81 0 -122 -46 -122 -102c0 -33 17 -56 73 -73l49 -16c67 -20 112 -57 112 -124c0 -92 -73 -155 -199 -155c-119 0 -152 55 -165 97l52 30
c11 -38 30 -74 115 -74c90 0 133 39 133 100c0 36 -23 58 -81 77l-47 16c-68 23 -106 55 -106 119c0 85 67 158 188 158c90 0 135 -34 153 -74z" />
    <glyph glyph-name="fi.sc" horiz-adv-x="662" 
d="M33 0l90 507h304l-9 -51h-243l-33 -185h208l-8 -51h-209l-39 -220h-61zM470 0l90 507h59l-89 -507h-60z" />
    <glyph glyph-name="fl.sc" horiz-adv-x="826" 
d="M33 0l90 507h304l-9 -51h-243l-33 -185h208l-8 -51h-209l-39 -220h-61zM539 51h224l-8 -51h-286l90 507h60z" />
    <glyph glyph-name="eng.sc" horiz-adv-x="557" 
d="M382 93l73 414h60l-92 -525c-14 -72 -40 -127 -117 -156l-27 47c53 20 71 49 85 123l-199 418c-24 -138 -47 -276 -72 -414h-61l90 507h64z" />
    <glyph glyph-name="grave.sc" horiz-adv-x="570" 
d="M345 726h61l47 -151h-52z" />
    <glyph glyph-name="acute.sc" horiz-adv-x="570" 
d="M416 726h67l-109 -151h-57z" />
    <glyph glyph-name="circumflex.sc" horiz-adv-x="570" 
d="M382 726h61l71 -151h-56l-51 107l-89 -107h-60z" />
    <glyph glyph-name="caron.sc" horiz-adv-x="570" 
d="M416 575h-61l-70 151h55l52 -107l89 107h59z" />
    <glyph glyph-name="caronalt.sc" horiz-adv-x="570" 
d="M421 507l-72 -149h-47l50 149h69z" />
    <glyph glyph-name="tilde.sc" horiz-adv-x="570" 
d="M529 656l-16 -49c-14 15 -33 25 -53 25c-41 0 -81 -37 -136 -37c-27 0 -50 13 -58 26l15 48c11 -15 27 -25 52 -25c44 0 78 38 136 38c32 0 50 -16 60 -26z" />
    <glyph glyph-name="dieresis.sc" horiz-adv-x="570" 
d="M308 600c-23 0 -40 13 -40 38c0 39 24 55 54 55c20 0 39 -13 39 -39c0 -39 -26 -54 -53 -54zM476 600c-23 0 -40 13 -40 38c0 39 24 55 54 55c20 0 39 -13 39 -39c0 -39 -26 -54 -53 -54z" />
    <glyph glyph-name="macron.sc" horiz-adv-x="570" 
d="M273 663h258l-10 -53h-258z" />
    <glyph glyph-name="breve.sc" horiz-adv-x="570" 
d="M487 701h45c-13 -76 -67 -132 -146 -132c-75 0 -115 56 -102 132h45c-7 -48 15 -84 63 -84c51 0 84 36 95 84z" />
    <glyph glyph-name="ring.sc" horiz-adv-x="570" 
d="M301 637c0 62 45 106 112 106c52 0 85 -35 85 -78c0 -61 -46 -106 -114 -106c-52 0 -83 35 -83 78zM345 641c0 -26 16 -43 44 -43c39 0 64 26 64 63c0 26 -16 43 -45 43c-37 0 -63 -26 -63 -63z" />
    <glyph glyph-name="hungarumlaut.sc" horiz-adv-x="570" 
d="M349 726h65l-108 -151h-57zM485 726h66l-110 -151h-56z" />
    <glyph glyph-name="dotaccent.sc" horiz-adv-x="570" 
d="M392 600c-23 0 -40 13 -40 38c0 39 24 55 54 55c20 0 39 -13 39 -39c0 -39 -26 -54 -53 -54z" />
    <glyph glyph-name="exclamdown.sc" horiz-adv-x="215" 
d="M96 349h47l-51 -349h-68zM146 512c23 0 39 -17 39 -37c0 -28 -21 -48 -51 -48c-23 0 -39 17 -39 38c0 27 22 47 51 47z" />
    <glyph glyph-name="questiondown.sc" horiz-adv-x="369" 
d="M235 512c23 0 38 -17 38 -37c0 -27 -23 -48 -52 -48c-23 0 -38 17 -38 37c0 27 23 48 52 48zM142 -8c-84 0 -128 49 -128 108c0 122 143 139 163 249h58c-21 -124 -161 -150 -161 -238c0 -34 23 -66 74 -66c49 0 88 27 96 70l55 -5c-12 -65 -64 -118 -157 -118z" />
    <glyph glyph-name="Euro.sc" horiz-adv-x="474" 
d="M286 179h-150v-8c0 -81 35 -126 111 -126c37 0 81 12 125 38l7 -56c-44 -21 -88 -35 -136 -35c-117 0 -169 60 -169 181v6h-43l7 42h38c2 21 4 41 8 61h-35l7 41h39c35 112 112 192 226 192c54 0 98 -13 134 -33l-29 -48c-28 16 -63 27 -109 27c-81 0 -131 -60 -158 -138
h203l-23 -41h-191c-5 -20 -8 -41 -10 -61h171z" />
    <glyph glyph-name="cent.sc" horiz-adv-x="395" 
d="M32 132c0 108 58 218 185 218c10 0 20 -1 29 -2l24 58l34 -10l-24 -57c29 -11 50 -31 60 -58l-44 -27c-8 17 -20 29 -36 37l-104 -248c5 -1 10 -1 16 -1c36 0 70 17 94 50l36 -31c-32 -43 -79 -69 -136 -69c-11 0 -21 1 -31 2l-19 -47l-33 10l19 45
c-52 20 -70 68 -70 130zM89 136c0 -40 9 -69 34 -83l103 247h-9c-86 0 -128 -77 -128 -164z" />
    <glyph glyph-name="sterling.sc" horiz-adv-x="460" 
d="M40 245h52l16 90c19 102 74 180 187 180c73 0 121 -25 150 -71l-43 -36c-27 41 -62 53 -109 53c-76 0 -115 -56 -126 -129l-16 -87h150l-7 -42h-150l-28 -154h231l-9 -49h-289l36 203h-52z" />
    <glyph glyph-name="florin.sc" horiz-adv-x="306" 
d="M169 292l-61 -346c-12 -67 -49 -116 -119 -116c-21 0 -42 4 -51 7l9 51c12 -4 25 -6 38 -6c44 0 62 32 69 73l59 337h-76l9 49h75l13 68c13 72 52 115 119 116c19 0 41 -4 50 -6l-9 -51c-12 3 -25 5 -39 5c-40 0 -59 -24 -67 -71l-10 -61h81l-8 -49h-82z" />
    <glyph glyph-name="yen.sc" horiz-adv-x="475" 
d="M59 221h126l-24 60h-91l7 42h68l-72 184h63l89 -243l179 243h72l-140 -184h69l-8 -42h-92l-46 -60h128l-8 -41h-136l-32 -180h-57l31 180h-133z" />
    <glyph glyph-name="rupee.sc" horiz-adv-x="436" 
d="M99 507h327l-9 -45h-96c19 -18 28 -41 26 -80h57l-8 -41h-56c-16 -67 -70 -111 -142 -122l102 -219h-70l-98 213h-85l9 51h80c83 0 124 26 140 77h-207l8 41h206c2 47 -19 75 -93 75h-100z" />
    <glyph glyph-name="perthousand.sc" horiz-adv-x="883" 
d="M543 507l-402 -507h-54l401 507h55zM154 278c56 0 84 55 84 133c0 41 -16 62 -49 62c-54 0 -83 -49 -83 -132c0 -40 15 -63 48 -63zM191 511c64 0 94 -34 94 -101c0 -93 -43 -169 -132 -169c-66 0 -94 38 -94 101c0 102 48 169 132 169zM442 33c56 0 83 55 83 133
c0 41 -15 62 -49 62c-53 0 -82 -49 -82 -132c0 -40 14 -63 48 -63zM479 266c63 0 94 -34 94 -101c0 -93 -43 -169 -132 -169c-67 0 -95 38 -95 101c0 102 48 169 133 169zM687 33c56 0 83 55 83 133c0 41 -15 62 -48 62c-54 0 -83 -49 -83 -132c0 -40 15 -63 48 -63z
M724 266c63 0 94 -34 94 -101c0 -93 -43 -169 -132 -169c-66 0 -94 38 -94 101c0 102 48 169 132 169z" />
    <glyph glyph-name="zero.tf" 
d="M234 46c155 0 224 177 224 399c0 110 -37 185 -121 185c-155 0 -224 -176 -224 -399c0 -110 37 -185 121 -185zM342 686c119 0 181 -98 181 -241c0 -250 -87 -455 -294 -455c-119 0 -180 97 -180 241c0 251 87 455 293 455z" />
    <glyph glyph-name="one.tf" 
d="M61 0l10 55h167l97 549l-178 -73l-11 61l207 84h58l-110 -621h150l-10 -55h-380z" />
    <glyph glyph-name="two.tf" 
d="M339 686c104 0 167 -68 167 -162c0 -111 -70 -181 -168 -275l-203 -194h306l-10 -55h-393l8 49l251 238c92 88 144 149 144 235c0 62 -36 108 -105 108c-82 0 -133 -58 -147 -140h-62c18 115 92 196 212 196z" />
    <glyph glyph-name="three.tf" 
d="M364 346c51 -13 105 -57 105 -143c0 -123 -94 -213 -239 -213c-141 0 -196 79 -180 170h60c-12 -65 33 -114 123 -114c106 0 172 67 172 158c0 71 -55 117 -138 117h-58l10 55h57c97 0 175 53 175 149c0 60 -40 105 -115 105c-88 0 -141 -54 -152 -117h-63
c14 89 84 173 218 173c109 0 176 -66 176 -158c0 -107 -79 -166 -151 -182z" />
    <glyph glyph-name="four.tf" 
d="M504 209l-10 -55h-99l-27 -154h-62l27 154h-314l9 50l396 472h63l-82 -467h99zM103 209h240l65 367z" />
    <glyph glyph-name="five.tf" 
d="M473 254c0 -140 -88 -264 -245 -264c-145 0 -193 89 -175 188h59c-12 -72 21 -133 118 -133c117 0 178 99 178 206c0 72 -40 120 -116 120c-49 0 -91 -20 -129 -46l-56 5l100 346h323l-10 -55h-271l-67 -232c22 15 70 38 119 38c102 0 172 -62 172 -173z" />
    <glyph glyph-name="six.tf" 
d="M134 268c-3 -16 -5 -38 -5 -52c-1 -99 33 -171 118 -171c116 0 181 92 181 203c0 75 -41 123 -123 123c-69 0 -137 -50 -171 -103zM465 513c11 73 -30 117 -110 117c-109 0 -190 -116 -215 -289c27 35 97 85 174 85c112 0 179 -65 179 -175c0 -147 -90 -261 -248 -261
c-125 0 -179 95 -179 229c0 245 101 467 292 467c128 0 184 -76 167 -173h-60z" />
    <glyph glyph-name="seven.tf" 
d="M114 0l347 621h-312l9 55h385l-8 -50l-348 -626h-73z" />
    <glyph glyph-name="eight.tf" 
d="M235 -10c-115 0 -192 57 -192 166c0 120 87 182 163 197c-51 15 -93 55 -93 129c0 121 94 204 233 204c108 0 181 -56 181 -157c0 -106 -71 -166 -146 -183c49 -13 102 -52 102 -139c0 -137 -104 -217 -248 -217zM343 630c-97 0 -166 -55 -166 -150
c0 -64 50 -103 121 -103c88 0 164 53 164 149c0 67 -45 104 -119 104zM239 46c106 0 180 60 180 163c0 71 -54 113 -132 113c-96 0 -179 -60 -179 -162c0 -74 50 -114 131 -114z" />
    <glyph glyph-name="nine.tf" 
d="M447 408c3 16 5 38 5 52c1 99 -33 171 -118 171c-116 0 -181 -92 -181 -203c0 -75 41 -123 123 -123c69 0 137 50 171 103zM56 163h60c-11 -73 30 -117 110 -117c109 0 190 116 215 289c-27 -35 -97 -85 -174 -85c-112 0 -179 65 -179 175c0 147 90 261 248 261
c125 0 179 -95 179 -229c0 -245 -101 -467 -292 -467c-128 0 -184 76 -167 173z" />
    <glyph glyph-name="zero.tosf" 
d="M241 47c146 0 211 134 211 317c0 99 -38 165 -127 165c-146 0 -212 -135 -212 -317c0 -99 39 -165 128 -165zM334 586c124 0 182 -89 182 -217c0 -214 -89 -379 -284 -379c-125 0 -183 89 -183 217c0 214 89 379 285 379z" />
    <glyph glyph-name="one.tosf" 
d="M71 0l10 56h161l79 447l-170 -61l-10 57l198 76h56l-91 -519h140l-10 -56h-363z" />
    <glyph glyph-name="two.tosf" 
d="M419 0h-369l8 46l256 205c89 72 113 109 113 174c0 63 -39 105 -106 105c-77 0 -133 -62 -146 -142h-63c18 114 99 198 217 198c103 0 162 -66 162 -157c0 -104 -63 -159 -140 -219l-194 -157h271z" />
    <glyph glyph-name="three.tosf" 
d="M346 246c51 -13 105 -57 105 -143c0 -123 -94 -213 -239 -213c-141 0 -196 79 -180 170h60c-12 -65 33 -114 123 -114c106 0 172 67 172 158c0 71 -55 117 -138 117h-58l10 55h57c97 0 175 53 175 149c0 60 -40 105 -115 105c-88 0 -141 -54 -152 -117h-63
c14 89 84 173 218 173c109 0 176 -66 176 -158c0 -107 -79 -166 -151 -182z" />
    <glyph glyph-name="four.tosf" 
d="M487 109l-10 -55h-99l-27 -154h-62l27 154h-314l9 50l396 472h63l-82 -467h99zM86 109h240l65 367z" />
    <glyph glyph-name="five.tosf" 
d="M455 152c0 -140 -88 -264 -245 -264c-145 0 -193 89 -175 188h59c-12 -72 21 -133 118 -133c117 0 178 99 178 206c0 72 -40 120 -116 120c-49 0 -91 -20 -129 -46l-56 5l100 346h323l-10 -55h-271l-67 -232c22 15 70 38 119 38c102 0 172 -62 172 -173z" />
    <glyph glyph-name="six.tosf" 
d="M134 268c-3 -16 -5 -38 -5 -52c-1 -99 33 -171 118 -171c116 0 181 92 181 203c0 75 -41 123 -123 123c-69 0 -137 -50 -171 -103zM465 513c11 73 -30 117 -110 117c-109 0 -190 -116 -215 -289c27 35 97 85 174 85c112 0 179 -65 179 -175c0 -147 -90 -261 -248 -261
c-125 0 -179 95 -179 229c0 245 101 467 292 467c128 0 184 -76 167 -173h-60z" />
    <glyph glyph-name="seven.tosf" 
d="M98 -100l347 621h-312l9 55h385l-8 -50l-348 -626h-73z" />
    <glyph glyph-name="eight.tosf" 
d="M235 -10c-115 0 -192 57 -192 166c0 120 87 182 163 197c-51 15 -93 55 -93 129c0 121 94 204 233 204c108 0 181 -56 181 -157c0 -106 -71 -166 -146 -183c49 -13 102 -52 102 -139c0 -137 -104 -217 -248 -217zM343 630c-97 0 -166 -55 -166 -150
c0 -64 50 -103 121 -103c88 0 164 53 164 149c0 67 -45 104 -119 104zM239 46c106 0 180 60 180 163c0 71 -54 113 -132 113c-96 0 -179 -60 -179 -162c0 -74 50 -114 131 -114z" />
    <glyph glyph-name="nine.tosf" 
d="M430 308c3 16 5 38 5 52c1 99 -33 171 -118 171c-116 0 -181 -92 -181 -203c0 -75 41 -123 123 -123c69 0 137 50 171 103zM39 63h60c-11 -73 30 -117 110 -117c109 0 190 116 215 289c-27 -35 -97 -85 -174 -85c-112 0 -179 65 -179 175c0 147 90 261 248 261
c125 0 179 -95 179 -229c0 -245 -101 -467 -292 -467c-128 0 -184 76 -167 173z" />
    <glyph glyph-name="Euro.tf" 
d="M345 242h-184v-12c0 -120 40 -183 140 -183c46 0 100 16 157 51l11 -59c-56 -32 -112 -50 -172 -50c-135 0 -201 71 -201 241v12h-52l9 48h45c3 31 6 60 12 89h-42l8 48h46c46 154 146 259 283 259c66 0 123 -19 164 -44l-32 -53c-36 23 -77 39 -136 39
c-99 0 -173 -84 -211 -201h258l-29 -48h-242c-6 -29 -11 -59 -14 -89h210z" />
    <glyph glyph-name="cent.tf" 
d="M93 171c0 154 70 295 231 295c11 0 23 -1 33 -3l32 78l43 -12l-32 -78c33 -14 58 -39 71 -73l-46 -31c-10 25 -25 43 -46 53l-144 -354c8 -2 17 -2 27 -2c49 0 91 20 122 64l44 -31c-40 -57 -99 -87 -171 -87c-16 0 -30 2 -43 5l-25 -64l-42 12l26 65
c-54 28 -80 87 -80 163zM154 174c0 -46 13 -86 42 -109l140 346c-4 1 -9 1 -13 1c-125 0 -169 -124 -169 -238z" />
    <glyph glyph-name="sterling.tf" 
d="M63 323h65l22 124c23 135 94 239 230 239c96 0 149 -33 184 -90l-48 -39c-33 57 -76 71 -138 71c-94 0 -148 -74 -167 -185l-21 -120h191l-9 -48h-191l-39 -221h291l-9 -54h-352l47 275h-65z" />
    <glyph glyph-name="florin.tf" 
d="M332 401l-84 -472c-15 -87 -54 -155 -146 -155c-22 0 -49 4 -59 7l9 57c15 -5 30 -8 46 -8c58 0 80 41 91 106l83 465h-96l9 54h96l16 90c15 86 52 155 146 155c21 0 47 -4 58 -7l-10 -57c-15 5 -29 8 -46 8c-56 0 -79 -40 -90 -106l-14 -83h103l-10 -54h-102z" />
    <glyph glyph-name="yen.tf" 
d="M83 291h154l-31 89h-107l8 48h81l-90 248h67l117 -341l237 341h75l-178 -248h82l-8 -48h-109l-63 -89h156l-8 -48h-166l-43 -243h-62l42 243h-162z" />
    <glyph glyph-name="rupee.tf" 
d="M158 676h393l-8 -48h-128c31 -24 43 -68 40 -119h67l-9 -48h-66c-22 -92 -94 -155 -195 -165l129 -296h-72l-124 291h-94l8 54h102c104 0 157 44 179 116h-260l9 48h260c3 69 -27 113 -125 113h-116z" />
    <glyph glyph-name="dollar.tf" 
d="M233 -103h-47l16 94c-123 9 -157 78 -170 129l53 30c11 -50 36 -96 127 -102l48 270l-24 9c-67 24 -119 63 -119 145c0 101 73 202 208 213l13 74h47l-13 -74c88 -7 143 -50 162 -98l-53 -34c-18 45 -59 71 -119 75l-47 -264l34 -12c66 -24 126 -60 126 -149
c0 -112 -80 -205 -226 -212zM318 298l-14 5l-45 -255c101 9 152 71 152 151c0 55 -41 81 -93 99zM182 475c0 -50 33 -76 87 -95l2 -1l43 248c-88 -12 -132 -77 -132 -152z" />
    <glyph glyph-name="zero.osf" horiz-adv-x="581" 
d="M250 47c147 0 213 134 213 317c0 99 -39 165 -128 165c-147 0 -214 -134 -214 -317c0 -99 40 -165 129 -165zM344 586c125 0 184 -90 184 -218c0 -213 -90 -378 -286 -378c-126 0 -184 89 -184 217c0 214 89 379 286 379z" />
    <glyph glyph-name="one.osf" horiz-adv-x="353" 
d="M216 0h-61l89 506l-172 -69l-9 57l198 81h56z" />
    <glyph glyph-name="two.osf" horiz-adv-x="493" 
d="M385 0h-369l8 46l256 205c89 72 113 109 113 174c0 63 -39 105 -106 105c-77 0 -133 -62 -146 -142h-63c18 114 99 198 217 198c103 0 162 -66 162 -157c0 -104 -63 -159 -140 -219l-194 -157h271z" />
    <glyph glyph-name="three.osf" horiz-adv-x="528" 
d="M330 246c51 -13 105 -57 105 -143c0 -123 -94 -213 -239 -213c-141 0 -196 79 -180 170h60c-12 -65 33 -114 123 -114c106 0 172 67 172 158c0 71 -55 117 -138 117h-58l10 55h57c97 0 175 53 175 149c0 60 -40 105 -115 105c-88 0 -141 -54 -152 -117h-63
c14 89 84 173 218 173c109 0 176 -66 176 -158c0 -107 -79 -166 -151 -182z" />
    <glyph glyph-name="four.osf" horiz-adv-x="558" 
d="M485 109l-10 -55h-99l-27 -154h-62l27 154h-314l9 50l396 472h63l-82 -467h99zM84 109h240l65 367z" />
    <glyph glyph-name="five.osf" horiz-adv-x="515" 
d="M432 154c0 -140 -88 -264 -245 -264c-145 0 -193 89 -175 188h59c-12 -72 21 -133 118 -133c117 0 178 99 178 206c0 72 -40 120 -116 120c-49 0 -91 -20 -129 -46l-56 5l100 346h323l-10 -55h-271l-67 -232c22 15 70 38 119 38c102 0 172 -62 172 -173z" />
    <glyph glyph-name="six.osf" horiz-adv-x="550" 
d="M129 268c-3 -16 -5 -38 -5 -52c-1 -99 33 -171 118 -171c116 0 181 92 181 203c0 75 -41 123 -123 123c-69 0 -137 -50 -171 -103zM460 513c11 73 -30 117 -110 117c-109 0 -190 -116 -215 -289c27 35 97 85 174 85c112 0 179 -65 179 -175c0 -147 -90 -261 -248 -261
c-125 0 -179 95 -179 229c0 245 101 467 292 467c128 0 184 -76 167 -173h-60z" />
    <glyph glyph-name="seven.osf" horiz-adv-x="466" 
d="M51 -100l347 621h-312l9 55h385l-8 -50l-348 -626h-73z" />
    <glyph glyph-name="eight.osf" horiz-adv-x="555" 
d="M233 -10c-115 0 -192 57 -192 166c0 120 87 182 163 197c-51 15 -93 55 -93 129c0 121 94 204 233 204c108 0 181 -56 181 -157c0 -106 -71 -166 -146 -183c49 -13 102 -52 102 -139c0 -137 -104 -217 -248 -217zM341 630c-97 0 -166 -55 -166 -150
c0 -64 50 -103 121 -103c88 0 164 53 164 149c0 67 -45 104 -119 104zM237 46c106 0 180 60 180 163c0 71 -54 113 -132 113c-96 0 -179 -60 -179 -162c0 -74 50 -114 131 -114z" />
    <glyph glyph-name="nine.osf" horiz-adv-x="551" 
d="M425 308c3 16 5 38 5 52c1 99 -33 171 -118 171c-116 0 -181 -92 -181 -203c0 -75 41 -123 123 -123c69 0 137 50 171 103zM34 63h60c-11 -73 30 -117 110 -117c109 0 190 116 215 289c-27 -35 -97 -85 -174 -85c-112 0 -179 65 -179 175c0 147 90 261 248 261
c125 0 179 -95 179 -229c0 -245 -101 -467 -292 -467c-128 0 -184 76 -167 173z" />
    <glyph glyph-name="zerosuperior" unicode="&#x2070;" horiz-adv-x="339" 
d="M203 479c82 0 111 85 111 185c0 53 -19 87 -62 87c-74 0 -111 -79 -111 -185c0 -53 19 -87 62 -87zM253 791c73 0 112 -43 112 -127c0 -118 -48 -226 -163 -226c-83 0 -111 54 -111 128c0 124 53 225 162 225z" />
    <glyph glyph-name="foursuperior" unicode="&#x2074;" horiz-adv-x="315" 
d="M339 556l-7 -41h-50l-13 -72h-48l13 72h-172l7 38l210 233h51l-41 -230h50zM128 556h113l28 157z" />
    <glyph glyph-name="fivesuperior" unicode="&#x2075;" horiz-adv-x="297" 
d="M313 569c0 -73 -55 -132 -137 -132c-89 0 -114 45 -104 98h48c-6 -32 10 -56 58 -56c50 0 85 32 85 89c0 32 -22 53 -59 53c-24 0 -46 -9 -65 -20l-39 4l55 181h185l-7 -41h-145l-29 -94c11 5 35 12 62 12c48 0 92 -23 92 -94z" />
    <glyph glyph-name="sixsuperior" unicode="&#x2076;" horiz-adv-x="320" 
d="M139 576c-5 -50 7 -98 59 -98c57 0 88 40 88 87c0 32 -21 56 -59 56c-37 0 -73 -25 -88 -45zM253 750c-59 0 -96 -55 -108 -123c15 13 46 34 88 34c52 0 103 -21 103 -95c0 -71 -58 -130 -139 -130c-79 0 -107 55 -107 125c0 129 61 229 164 229c77 0 106 -40 97 -91h-47
c5 31 -13 51 -51 51z" />
    <glyph glyph-name="sevensuperior" unicode="&#x2077;" horiz-adv-x="260" 
d="M81 443l185 302h-166l7 41h222l-7 -35l-186 -308h-55z" />
    <glyph glyph-name="eightsuperior" unicode="&#x2078;" horiz-adv-x="323" 
d="M195 437c-73 0 -115 29 -115 89c0 50 38 86 80 96c-27 10 -46 27 -46 63c0 67 60 106 131 106c69 0 109 -28 109 -83c0 -46 -31 -78 -73 -90c29 -9 51 -28 51 -70c0 -69 -61 -111 -137 -111zM217 600c-57 0 -87 -33 -87 -72c0 -33 28 -49 67 -49c47 0 85 24 85 69
c0 31 -25 52 -65 52zM244 751c-48 0 -79 -25 -79 -67c0 -27 24 -44 59 -44c42 0 79 22 79 66c0 27 -23 45 -59 45z" />
    <glyph glyph-name="ninesuperior" unicode="&#x2079;" horiz-adv-x="320" 
d="M297 651c5 49 -6 98 -59 98c-56 0 -87 -40 -87 -87c0 -33 20 -56 58 -56c37 0 73 25 88 45zM183 478c59 0 97 54 109 122c-15 -13 -47 -33 -89 -33c-52 0 -103 21 -103 93s58 130 139 130c79 0 107 -54 107 -124c0 -129 -61 -230 -164 -230c-77 0 -105 41 -97 91h47
c-5 -31 14 -49 51 -49z" />
    <glyph glyph-name="zeroinferior" unicode="&#x2080;" horiz-adv-x="339" 
d="M107 -64c82 0 111 85 111 185c0 53 -19 87 -62 87c-74 0 -111 -79 -111 -185c0 -53 19 -87 62 -87zM157 248c73 0 112 -43 112 -127c0 -118 -48 -226 -163 -226c-83 0 -111 54 -111 128c0 124 53 225 162 225z" />
    <glyph glyph-name="oneinferior" unicode="&#x2081;" horiz-adv-x="217" 
d="M99 -100h-50l52 289l-102 -36l-7 45l124 45h43z" />
    <glyph glyph-name="twoinferior" unicode="&#x2082;" horiz-adv-x="291" 
d="M132 248c58 0 97 -30 97 -90c0 -52 -38 -92 -90 -136l-96 -81h156l-7 -41h-225l7 35l135 118c44 38 71 67 71 105c0 27 -19 50 -50 50c-39 0 -65 -25 -73 -65h-49c10 64 58 105 124 105z" />
    <glyph glyph-name="threeinferior" unicode="&#x2083;" horiz-adv-x="306" 
d="M165 74c30 -5 54 -31 54 -72c0 -62 -62 -108 -134 -108c-85 0 -115 39 -106 92h47c-5 -29 15 -50 61 -50c48 0 82 29 82 67c0 32 -25 52 -69 52h-35l7 41h33c50 0 86 24 86 66c0 27 -21 46 -57 46c-41 0 -68 -24 -71 -51h-49c8 55 59 91 122 91c56 0 105 -23 105 -85
c0 -51 -37 -81 -76 -89z" />
    <glyph glyph-name="fourinferior" unicode="&#x2084;" horiz-adv-x="316" 
d="M243 13l-7 -41h-50l-13 -72h-48l13 72h-172l7 38l210 233h51l-41 -230h50zM32 13h113l28 157z" />
    <glyph glyph-name="fiveinferior" unicode="&#x2085;" horiz-adv-x="297" 
d="M218 26c0 -73 -55 -132 -137 -132c-89 0 -114 45 -104 98h48c-6 -32 10 -56 58 -56c50 0 85 32 85 89c0 32 -22 53 -59 53c-24 0 -46 -9 -65 -20l-39 4l55 181h185l-7 -41h-145l-29 -94c11 5 35 12 62 12c48 0 92 -23 92 -94z" />
    <glyph glyph-name="sixinferior" unicode="&#x2086;" horiz-adv-x="320" 
d="M43 34c-5 -50 7 -98 59 -98c57 0 88 40 88 87c0 32 -21 56 -59 56c-37 0 -73 -25 -88 -45zM157 208c-59 0 -96 -55 -108 -123c15 13 46 34 88 34c52 0 103 -21 103 -95c0 -71 -58 -130 -139 -130c-79 0 -107 55 -107 125c0 129 61 229 164 229c77 0 106 -40 97 -91h-47
c5 31 -13 51 -51 51z" />
    <glyph glyph-name="seveninferior" unicode="&#x2087;" horiz-adv-x="260" 
d="M-15 -100l185 302h-166l7 41h222l-7 -35l-186 -308h-55z" />
    <glyph glyph-name="eightinferior" unicode="&#x2088;" horiz-adv-x="323" 
d="M99 -106c-73 0 -115 29 -115 89c0 50 38 86 80 96c-27 10 -46 27 -46 63c0 67 60 106 131 106c69 0 109 -28 109 -83c0 -46 -31 -78 -73 -90c29 -9 51 -28 51 -70c0 -69 -61 -111 -137 -111zM121 57c-57 0 -87 -33 -87 -72c0 -33 28 -49 67 -49c47 0 85 24 85 69
c0 31 -25 52 -65 52zM148 208c-48 0 -79 -25 -79 -67c0 -27 24 -44 59 -44c42 0 79 22 79 66c0 27 -23 45 -59 45z" />
    <glyph glyph-name="nineinferior" unicode="&#x2089;" horiz-adv-x="320" 
d="M201 109c5 49 -6 98 -59 98c-56 0 -87 -40 -87 -87c0 -33 20 -56 58 -56c37 0 73 25 88 45zM87 -64c59 0 97 54 109 122c-15 -13 -47 -33 -89 -33c-52 0 -103 21 -103 93s58 130 139 130c79 0 107 -54 107 -124c0 -129 -61 -230 -164 -230c-77 0 -105 41 -97 91h47
c-5 -31 14 -49 51 -49z" />
    <glyph glyph-name="zero.denom" horiz-adv-x="337" 
d="M125 36c82 0 111 85 111 185c0 53 -19 87 -62 87c-74 0 -111 -79 -111 -185c0 -53 19 -87 62 -87zM175 348c73 0 112 -43 112 -127c0 -118 -48 -226 -163 -226c-83 0 -111 54 -111 128c0 124 53 225 162 225z" />
    <glyph glyph-name="one.denom" horiz-adv-x="215" 
d="M117 0h-50l52 289l-102 -36l-7 45l124 45h43z" />
    <glyph glyph-name="two.denom" horiz-adv-x="289" 
d="M150 348c58 0 97 -30 97 -90c0 -52 -38 -92 -90 -136l-96 -81h156l-7 -41h-225l7 35l135 118c44 38 71 67 71 105c0 27 -19 50 -50 50c-39 0 -65 -25 -73 -65h-49c10 64 58 105 124 105z" />
    <glyph glyph-name="three.denom" horiz-adv-x="303" 
d="M183 174c30 -5 54 -31 54 -72c0 -62 -62 -108 -134 -108c-85 0 -115 39 -106 92h47c-5 -29 15 -50 61 -50c48 0 82 29 82 67c0 32 -25 52 -69 52h-35l7 41h33c50 0 86 24 86 66c0 27 -21 46 -57 46c-41 0 -68 -24 -71 -51h-49c8 55 59 91 122 91c56 0 105 -23 105 -85
c0 -51 -37 -81 -76 -89z" />
    <glyph glyph-name="four.denom" horiz-adv-x="313" 
d="M260 113l-7 -41h-50l-13 -72h-48l13 72h-172l7 38l210 233h51l-41 -230h50zM49 113h113l28 157z" />
    <glyph glyph-name="five.denom" horiz-adv-x="297" 
d="M236 126c0 -73 -55 -132 -137 -132c-89 0 -114 45 -104 98h48c-6 -32 10 -56 58 -56c50 0 85 32 85 89c0 32 -22 53 -59 53c-24 0 -46 -9 -65 -20l-39 4l55 181h185l-7 -41h-145l-29 -94c11 5 35 12 62 12c48 0 92 -23 92 -94z" />
    <glyph glyph-name="six.denom" horiz-adv-x="317" 
d="M61 134c-5 -50 7 -98 59 -98c57 0 88 40 88 87c0 32 -21 56 -59 56c-37 0 -73 -25 -88 -45zM175 308c-59 0 -96 -55 -108 -123c15 13 46 34 88 34c52 0 103 -21 103 -95c0 -71 -58 -130 -139 -130c-79 0 -107 55 -107 125c0 129 61 229 164 229c77 0 106 -40 97 -91h-47
c5 31 -13 51 -51 51z" />
    <glyph glyph-name="seven.denom" horiz-adv-x="257" 
d="M3 0l185 302h-166l7 41h222l-7 -35l-186 -308h-55z" />
    <glyph glyph-name="eight.denom" horiz-adv-x="320" 
d="M117 -6c-73 0 -115 29 -115 89c0 50 38 86 80 96c-27 10 -46 27 -46 63c0 67 60 106 131 106c69 0 109 -28 109 -83c0 -46 -31 -78 -73 -90c29 -9 51 -28 51 -70c0 -69 -61 -111 -137 -111zM139 157c-57 0 -87 -33 -87 -72c0 -33 28 -49 67 -49c47 0 85 24 85 69
c0 31 -25 52 -65 52zM166 308c-48 0 -79 -25 -79 -67c0 -27 24 -44 59 -44c42 0 79 22 79 66c0 27 -23 45 -59 45z" />
    <glyph glyph-name="nine.denom" horiz-adv-x="318" 
d="M219 209c5 49 -6 98 -59 98c-56 0 -87 -40 -87 -87c0 -33 20 -56 58 -56c37 0 73 25 88 45zM105 36c59 0 97 54 109 122c-15 -13 -47 -33 -89 -33c-52 0 -103 21 -103 93s58 130 139 130c79 0 107 -54 107 -124c0 -129 -61 -230 -164 -230c-77 0 -105 41 -97 91h47
c-5 -31 14 -49 51 -49z" />
    <glyph glyph-name="zero.num" horiz-adv-x="340" 
d="M184 367c82 0 111 85 111 185c0 53 -19 87 -62 87c-74 0 -111 -79 -111 -185c0 -53 19 -87 62 -87zM234 679c73 0 112 -43 112 -127c0 -118 -48 -226 -163 -226c-83 0 -111 54 -111 128c0 124 53 225 162 225z" />
    <glyph glyph-name="one.num" horiz-adv-x="218" 
d="M176 331h-50l52 289l-102 -36l-7 45l124 45h43z" />
    <glyph glyph-name="two.num" horiz-adv-x="291" 
d="M208 679c58 0 97 -30 97 -90c0 -52 -38 -92 -90 -136l-96 -81h156l-7 -41h-225l7 35l135 118c44 38 71 67 71 105c0 27 -19 50 -50 50c-39 0 -65 -25 -73 -65h-49c10 64 58 105 124 105z" />
    <glyph glyph-name="three.num" horiz-adv-x="305" 
d="M241 505c30 -5 54 -31 54 -72c0 -62 -62 -108 -134 -108c-85 0 -115 39 -106 92h47c-5 -29 15 -50 61 -50c48 0 82 29 82 67c0 32 -25 52 -69 52h-35l7 41h33c50 0 86 24 86 66c0 27 -21 46 -57 46c-41 0 -68 -24 -71 -51h-49c8 55 59 91 122 91c56 0 105 -23 105 -85
c0 -51 -37 -81 -76 -89z" />
    <glyph glyph-name="four.num" horiz-adv-x="315" 
d="M319 444l-7 -41h-50l-13 -72h-48l13 72h-172l7 38l210 233h51l-41 -230h50zM108 444h113l28 157z" />
    <glyph glyph-name="five.num" horiz-adv-x="297" 
d="M294 457c0 -73 -55 -132 -137 -132c-89 0 -114 45 -104 98h48c-6 -32 10 -56 58 -56c50 0 85 32 85 89c0 32 -22 53 -59 53c-24 0 -46 -9 -65 -20l-39 4l55 181h185l-7 -41h-145l-29 -94c11 5 35 12 62 12c48 0 92 -23 92 -94z" />
    <glyph glyph-name="six.num" horiz-adv-x="319" 
d="M119 465c-5 -50 7 -98 59 -98c57 0 88 40 88 87c0 32 -21 56 -59 56c-37 0 -73 -25 -88 -45zM233 639c-59 0 -96 -55 -108 -123c15 13 46 34 88 34c52 0 103 -21 103 -95c0 -71 -58 -130 -139 -130c-79 0 -107 55 -107 125c0 129 61 229 164 229c77 0 106 -40 97 -91h-47
c5 31 -13 51 -51 51z" />
    <glyph glyph-name="seven.num" horiz-adv-x="261" 
d="M62 331l185 302h-166l7 41h222l-7 -35l-186 -308h-55z" />
    <glyph glyph-name="eight.num" horiz-adv-x="323" 
d="M175 325c-73 0 -115 29 -115 89c0 50 38 86 80 96c-27 10 -46 27 -46 63c0 67 60 106 131 106c69 0 109 -28 109 -83c0 -46 -31 -78 -73 -90c29 -9 51 -28 51 -70c0 -69 -61 -111 -137 -111zM197 488c-57 0 -87 -33 -87 -72c0 -33 28 -49 67 -49c47 0 85 24 85 69
c0 31 -25 52 -65 52zM224 639c-48 0 -79 -25 -79 -67c0 -27 24 -44 59 -44c42 0 79 22 79 66c0 27 -23 45 -59 45z" />
    <glyph glyph-name="nine.num" horiz-adv-x="320" 
d="M278 540c5 49 -6 98 -59 98c-56 0 -87 -40 -87 -87c0 -33 20 -56 58 -56c37 0 73 25 88 45zM164 367c59 0 97 54 109 122c-15 -13 -47 -33 -89 -33c-52 0 -103 21 -103 93s58 130 139 130c79 0 107 -54 107 -124c0 -129 -61 -230 -164 -230c-77 0 -105 41 -97 91h47
c-5 -31 14 -49 51 -49z" />
    <glyph glyph-name="arrowleft" unicode="&#x2190;" horiz-adv-x="750" 
d="M59 275l259 261l37 -38l-194 -196h513v-53h-513l194 -195l-37 -38z" />
    <glyph glyph-name="arrowup" unicode="&#x2191;" horiz-adv-x="750" 
d="M384 596l261 -258l-38 -38l-196 195v-514h-53v514l-195 -194l-38 37z" />
    <glyph glyph-name="arrowright" unicode="&#x2192;" horiz-adv-x="750" 
d="M692 279l-259 -261l-37 38l194 196h-513v53h513l-194 195l37 38z" />
    <glyph glyph-name="arrowdown" unicode="&#x2193;" horiz-adv-x="750" 
d="M365 -44l-261 259l38 38l196 -195v513h53v-513l195 194l38 -37z" />
    <glyph glyph-name="uni2196" unicode="&#x2196;" horiz-adv-x="750" 
d="M155 503h368v-53h-276l363 -364l-38 -38l-363 363v-275h-54v367z" />
    <glyph glyph-name="uni2197" unicode="&#x2197;" horiz-adv-x="750" 
d="M574 503v-368h-53v276l-364 -363l-38 38l363 364h-275v53h367z" />
    <glyph glyph-name="uni2198" unicode="&#x2198;" horiz-adv-x="750" 
d="M585 51h-367v53h276l-364 364l39 38l363 -363v275h53v-367z" />
    <glyph glyph-name="uni2199" unicode="&#x2199;" horiz-adv-x="750" 
d="M178 51v368h53v-276l364 363l38 -38l-363 -364h275v-53h-367z" />
    <glyph glyph-name="parenleft.case" horiz-adv-x="277" 
d="M172 -106l-49 -16c-38 93 -63 208 -63 320c0 288 92 444 221 605l50 -16c-120 -176 -207 -323 -207 -588c0 -97 18 -210 48 -305z" />
    <glyph glyph-name="parenright.case" horiz-adv-x="276" 
d="M-31 -106c150 223 205 362 205 587c0 109 -21 220 -49 306l49 16c35 -86 64 -196 64 -320c0 -255 -66 -408 -223 -605z" />
    <glyph glyph-name="hyphen.case" horiz-adv-x="402" 
d="M86 356h246v-53h-246v53z" />
    <glyph glyph-name="bracketleft.case" horiz-adv-x="296" 
d="M167 790h176l-9 -52h-116l-141 -802h116l-9 -52h-176z" />
    <glyph glyph-name="bracketright.case" horiz-adv-x="295" 
d="M133 790h176l-160 -906h-176l9 52h116l141 802h-115z" />
    <glyph glyph-name="braceleft.case" horiz-adv-x="294" 
d="M242 654l-37 -215c-12 -69 -34 -94 -64 -104c24 -16 38 -47 27 -103l-38 -213c-12 -67 6 -86 56 -86l-8 -49c-90 0 -125 39 -107 136l37 210c10 62 -7 82 -70 82l10 50c61 0 87 22 98 83l37 212c19 107 58 133 155 133l-10 -51c-52 0 -74 -19 -86 -85z" />
    <glyph glyph-name="bar.case" horiz-adv-x="262" 
d="M165 -116h-47v906h47v-906z" />
    <glyph glyph-name="braceright.case" horiz-adv-x="295" 
d="M73 20l38 216c12 69 33 96 63 105c-23 16 -38 46 -27 102l38 212c12 67 -6 86 -56 86l8 49c90 0 125 -40 108 -138l-37 -208c-11 -62 6 -82 69 -82l-9 -50c-62 0 -87 -19 -98 -81l-38 -215c-19 -106 -58 -132 -155 -132l10 51c52 0 75 19 86 85z" />
    <glyph glyph-name="guilsinglleft.case" horiz-adv-x="320" 
d="M59 330l199 208l35 -35l-160 -177l97 -178l-45 -26z" />
    <glyph glyph-name="guilsinglright.case" horiz-adv-x="320" 
d="M279 330l-199 -208l-35 34l160 177l-97 179l44 26z" />
    <glyph glyph-name="guillemotleft.case" horiz-adv-x="490" 
d="M59 330l199 208l35 -35l-160 -177l97 -178l-45 -26zM229 330l199 208l35 -35l-160 -177l97 -178l-45 -26z" />
    <glyph glyph-name="guillemotright.case" horiz-adv-x="490" 
d="M279 330l-199 -208l-35 34l160 177l-97 179l44 26zM449 330l-199 -208l-35 34l160 177l-97 179l44 26z" />
    <glyph glyph-name="endash.case" horiz-adv-x="602" 
d="M85 356h446v-53h-446v53z" />
    <glyph glyph-name="emdash.case" horiz-adv-x="742" 
d="M85 356h586v-53h-586v53z" />
    <glyph glyph-name="bullet.case" horiz-adv-x="369" 
d="M191 232c-57 0 -100 41 -100 97c0 57 43 98 100 98c59 0 101 -41 101 -98c0 -56 -42 -97 -101 -97z" />
    <glyph glyph-name="periodcentered.case" horiz-adv-x="247" 
d="M131 318c-26 0 -46 21 -46 46c0 34 27 58 60 58c27 0 46 -21 46 -46c0 -34 -26 -58 -60 -58z" />
    <glyph glyph-name="circle" unicode="&#x25cb;" horiz-adv-x="800" 
d="M72 339c0 211 145 347 339 347c195 0 338 -136 338 -347s-143 -350 -338 -350c-194 0 -339 139 -339 350zM123 339c0 -190 118 -300 288 -300s287 110 287 300c0 189 -117 297 -287 297s-288 -108 -288 -297z" />
    <glyph glyph-name="brokenbar.sc" horiz-adv-x="254" 
d="M141 290h-42v292h42v-292zM99 188h42v-290h-42v290z" />
    </font>
</defs>
</svg>
