<?xml version="1.0" standalone="no"?>
<!DOCTYPE svg PUBLIC "-//W3C//DTD SVG 1.1//EN" "http://www.w3.org/Graphics/SVG/1.1/DTD/svg11.dtd" >
<svg xmlns="http://www.w3.org/2000/svg" xmlns:xlink="http://www.w3.org/1999/xlink" version="1.1">
<metadata>
Created by FontForge 20161116 at Sat Aug 16 11:41:10 2014
 By Jimmy Warting
Copyright (c) 2014 by Hannes von Doehren, Livius Dietzel. All rights reserved.
</metadata>
<defs>
<font id="BrixSansLight" horiz-adv-x="560" >
  <font-face 
    font-family="Brix Sans Light"
    font-weight="300"
    font-stretch="normal"
    units-per-em="1000"
    panose-1="2 0 0 0 0 0 0 0 0 0"
    ascent="720"
    descent="-280"
    x-height="456"
    cap-height="676"
    bbox="-148 -226 1047 975"
    underline-thickness="50"
    underline-position="-100"
    stemh="57"
    stemv="63"
    unicode-range="U+0020-FB02"
  />
<missing-glyph horiz-adv-x="513" 
d="M50 0v656h413v-656h-413zM88 40h337v576h-337v-576z" />
    <glyph glyph-name="fi" unicode="fi" horiz-adv-x="556" 
d="M424 0v403h-260v-403h-59v403h-81v43l81 10v76c0 92 36 158 135 158h47v-53h-45c-61 0 -78 -41 -78 -105v-76h319v-456h-59zM453 579c-27 0 -47 14 -47 47s20 48 47 48c24 0 48 -15 48 -48s-24 -47 -48 -47z" />
    <glyph glyph-name="fl" unicode="fl" horiz-adv-x="547" 
d="M287 690v-53h-45c-61 0 -78 -41 -78 -105v-76h141v-53h-141v-403h-59v403h-81v43l81 10v76c0 92 36 158 135 158h47zM394 690h59v-570c0 -45 11 -66 49 -66h27v-55h-39c-72 0 -96 41 -96 116v575z" />
    <glyph glyph-name="f_f" unicode="ff" horiz-adv-x="620" 
d="M585 690v-53h-45c-61 0 -78 -41 -78 -105v-76h141v-53h-141v-403h-59v403h-239v-403h-59v403h-81v43l81 10v76c0 92 36 158 135 158h47v-53h-45c-61 0 -78 -41 -78 -105v-76h239v76c0 92 36 158 135 158h47z" />
    <glyph glyph-name=".notdef" horiz-adv-x="513" 
d="M50 0v656h413v-656h-413zM88 40h337v576h-337v-576z" />
    <glyph glyph-name=".null" horiz-adv-x="0" 
 />
    <glyph glyph-name=".null" horiz-adv-x="0" 
 />
    <glyph glyph-name="space" unicode=" " horiz-adv-x="225" 
 />
    <glyph glyph-name="exclam" unicode="!" horiz-adv-x="223" 
d="M135 206h-48l-12 470h73zM112 -7c-29 0 -51 22 -51 51s22 50 51 50c30 0 52 -21 52 -50s-22 -51 -52 -51z" />
    <glyph glyph-name="quotedbl" unicode="&#x22;" horiz-adv-x="344" 
d="M223 432l-9 244h66l-10 -244h-47zM74 432l-10 244h68l-11 -244h-47z" />
    <glyph glyph-name="numbersign" unicode="#" horiz-adv-x="610" 
d="M147 213h-101l4 54h106l25 167h-100l3 54h105l30 188h57l-29 -188h151l29 188h58l-29 -188h108l-4 -54h-113l-25 -167h107l-4 -54h-112l-32 -213h-59l33 213h-151l-32 -213h-58zM239 434l-26 -167h151l25 167h-150z" />
    <glyph glyph-name="dollar" unicode="$" horiz-adv-x="548" 
d="M297 -103h-47v93c-137 6 -181 76 -205 129l52 30c20 -50 53 -97 153 -103v270l-28 8c-93 28 -154 79 -154 170c0 93 61 178 182 190v75h47v-74c95 -5 160 -49 188 -97l-50 -35c-28 45 -74 71 -138 75v-262l38 -11c91 -27 160 -72 160 -173c0 -104 -69 -182 -198 -192v-93
zM315 297l-18 5v-255c90 8 134 59 134 132c0 68 -50 99 -116 118zM133 496c0 -65 38 -93 109 -114l8 -3v248c-79 -11 -117 -65 -117 -131z" />
    <glyph glyph-name="percent" unicode="%" horiz-adv-x="784" 
d="M624 676l-409 -676h-56l407 676h58zM599 36c62 0 86 49 86 136s-24 136 -86 136s-86 -49 -86 -136s24 -136 86 -136zM599 348c96 0 137 -69 137 -176s-41 -177 -137 -177s-137 70 -137 177s42 176 137 176zM181 367c62 0 86 49 86 136s-24 136 -86 136s-86 -49 -86 -136
s24 -136 86 -136zM181 679c96 0 137 -69 137 -176s-41 -177 -137 -177s-137 70 -137 177s42 176 137 176z" />
    <glyph glyph-name="ampersand" unicode="&#x26;" horiz-adv-x="650" 
d="M549 355l47 -37l-102 -145c-7 -9 -13 -18 -19 -27l138 -140v-6h-75l-99 100c-52 -62 -116 -111 -214 -111c-115 0 -176 70 -176 147c0 90 73 145 137 192l18 13l-32 33c-35 36 -86 86 -86 158c0 85 71 154 188 154c110 0 181 -69 181 -154c0 -72 -51 -113 -119 -164
l-46 -34l143 -145l16 22zM225 44c75 0 126 42 173 99l-154 157l-21 -16c-58 -42 -114 -83 -114 -147c0 -51 51 -93 116 -93zM146 532c0 -52 33 -86 70 -122l34 -35l49 36c56 41 97 70 97 121c0 50 -41 100 -122 100c-82 0 -128 -50 -128 -100z" />
    <glyph glyph-name="quotesingle" unicode="'" horiz-adv-x="195" 
d="M73 432l-8 244h66l-11 -244h-47z" />
    <glyph glyph-name="parenleft" unicode="(" horiz-adv-x="262" 
d="M234 -206l-46 -16c-84 135 -135 264 -135 462c0 215 61 341 135 463l48 -16c-67 -126 -119 -253 -119 -447c0 -175 41 -301 117 -446z" />
    <glyph glyph-name="parenright" unicode=")" horiz-adv-x="261" 
d="M27 -206c76 145 118 271 118 446c0 194 -53 321 -120 447l49 16c73 -122 134 -248 134 -463c0 -198 -51 -327 -134 -462z" />
    <glyph glyph-name="asterisk" unicode="*" horiz-adv-x="471" 
d="M137 337l-41 38l101 120l-146 39l20 55l144 -51l-4 158h59l-7 -157l143 46l15 -57l-142 -35l94 -123l-49 -33l-88 130z" />
    <glyph glyph-name="plus" unicode="+" 
d="M55 243v53h195v201h57v-201h198v-53h-198v-200h-57v200h-195z" />
    <glyph glyph-name="comma" unicode="," horiz-adv-x="213" 
d="M146 95l-48 -208h-48l25 208h71z" />
    <glyph glyph-name="hyphen" unicode="-" horiz-adv-x="383" 
d="M69 296h245v-53h-245v53z" />
    <glyph glyph-name="period" unicode="." horiz-adv-x="226" 
d="M113 -7c-31 0 -53 22 -53 52s22 52 53 52s53 -22 53 -52s-22 -52 -53 -52z" />
    <glyph glyph-name="slash" unicode="/" horiz-adv-x="336" 
d="M303 676l-210 -676h-59l206 676h63z" />
    <glyph glyph-name="zero" unicode="0" horiz-adv-x="594" 
d="M297 46c122 0 173 108 173 292s-51 292 -173 292c-121 0 -173 -108 -173 -292s52 -292 173 -292zM297 686c165 0 237 -135 237 -348s-73 -348 -237 -348s-237 135 -237 348s73 348 237 348z" />
    <glyph glyph-name="one" unicode="1" horiz-adv-x="380" 
d="M291 0h-62v615l-193 -80l-17 51l215 90h57v-676z" />
    <glyph glyph-name="two" unicode="2" horiz-adv-x="519" 
d="M251 686c125 0 199 -81 199 -192c0 -97 -57 -166 -131 -245l-181 -194h330v-55h-413v49l220 238c69 75 111 135 111 207c0 79 -48 136 -135 136c-86 0 -132 -58 -132 -140h-62c0 115 68 196 194 196z" />
    <glyph glyph-name="three" unicode="3" horiz-adv-x="549" 
d="M350 349c66 -12 139 -69 139 -170c0 -111 -85 -190 -219 -190c-148 0 -215 80 -215 171h62c0 -65 56 -115 153 -115c99 0 155 56 155 136c0 86 -71 140 -171 140h-60v55h60c91 0 160 45 160 127c0 74 -53 127 -144 127c-95 0 -143 -54 -143 -117h-63c0 88 64 173 206 173
c129 0 208 -79 208 -181c0 -91 -62 -140 -128 -156z" />
    <glyph glyph-name="four" unicode="4" horiz-adv-x="578" 
d="M536 209v-55h-105v-154h-62v154h-332v50l330 472h64v-467h105zM106 209h263v375z" />
    <glyph glyph-name="five" unicode="5" horiz-adv-x="530" 
d="M477 217c0 -123 -72 -228 -218 -228c-151 0 -212 90 -212 189h63c0 -72 44 -133 149 -133s154 76 154 172c0 94 -53 154 -148 154c-53 0 -98 -20 -134 -46l-53 5l41 346h338v-55h-286l-29 -235c23 14 74 41 132 41c120 0 203 -73 203 -210z" />
    <glyph glyph-name="six" unicode="6" horiz-adv-x="565" 
d="M128 268c0 -114 47 -223 161 -223c104 0 158 68 158 168c0 98 -55 158 -158 158c-72 0 -134 -50 -161 -103zM431 513c0 71 -52 117 -137 117c-112 0 -170 -117 -170 -294c24 37 90 90 174 90c136 0 212 -87 212 -213c0 -120 -72 -224 -221 -224c-159 0 -229 133 -229 329
c0 226 79 368 234 368c133 0 200 -78 200 -173h-63z" />
    <glyph glyph-name="seven" unicode="7" horiz-adv-x="468" 
d="M120 0l250 621h-335v55h404v-50l-250 -626h-69z" />
    <glyph glyph-name="eight" unicode="8" horiz-adv-x="573" 
d="M287 -11c-135 0 -228 68 -228 191c0 102 71 155 137 170c-65 17 -123 64 -123 153c0 111 84 183 214 183c129 0 213 -72 213 -183c0 -89 -57 -136 -123 -153c66 -15 137 -68 137 -170c0 -123 -94 -191 -227 -191zM287 630c-91 0 -150 -45 -150 -129
c0 -78 64 -124 150 -124c84 0 149 45 149 124c0 84 -59 129 -149 129zM286 45c99 0 164 50 164 141c0 86 -72 136 -164 136c-93 0 -163 -50 -163 -136c0 -91 65 -141 163 -141z" />
    <glyph glyph-name="nine" unicode="9" horiz-adv-x="565" 
d="M437 408c0 114 -47 223 -161 223c-104 0 -158 -68 -158 -168c0 -98 55 -158 158 -158c72 0 134 50 161 103zM71 163h63c0 -71 52 -117 136 -117c114 0 171 118 171 294c-23 -34 -90 -91 -174 -91c-136 0 -212 88 -212 214c0 120 72 224 221 224c159 0 229 -134 229 -329
c0 -226 -79 -368 -235 -368c-132 0 -199 78 -199 173z" />
    <glyph glyph-name="colon" unicode=":" horiz-adv-x="239" 
d="M119 -7c-29 0 -51 22 -51 51s22 50 51 50c30 0 52 -21 52 -50s-22 -51 -52 -51zM119 364c-29 0 -51 22 -51 51c0 30 22 51 51 51c30 0 52 -21 52 -51c0 -29 -22 -51 -52 -51z" />
    <glyph glyph-name="semicolon" unicode=";" horiz-adv-x="234" 
d="M118 364c-30 0 -52 22 -52 51c0 30 22 51 52 51s52 -21 52 -51c0 -29 -22 -51 -52 -51zM158 95l-48 -208h-48l25 208h71z" />
    <glyph glyph-name="less" unicode="&#x3c;" 
d="M82 241v58l378 169v-59l-322 -139l322 -138v-60z" />
    <glyph glyph-name="equal" unicode="=" 
d="M91 412h378v-53h-378v53zM91 181h378v-52h-378v52z" />
    <glyph glyph-name="greater" unicode="&#x3e;" 
d="M478 299v-58l-379 -169v60l322 138l-322 139v59z" />
    <glyph glyph-name="question" unicode="?" horiz-adv-x="447" 
d="M213 -7c-30 0 -52 22 -52 51s22 50 52 50s52 -21 52 -50s-22 -51 -52 -51zM214 686c120 0 189 -74 189 -166c0 -140 -158 -172 -158 -314h-61c0 157 157 200 157 311c0 56 -42 111 -123 111c-67 0 -116 -38 -116 -101l-61 3c0 87 56 156 173 156z" />
    <glyph glyph-name="at" unicode="@" horiz-adv-x="895" 
d="M565 343c-17 24 -45 55 -104 55c-96 0 -161 -98 -161 -210c0 -81 40 -117 95 -117c60 0 105 32 131 62zM532 80c-29 -32 -83 -61 -145 -61c-92 0 -143 56 -143 166c0 137 79 264 212 264c62 0 95 -24 118 -54l8 45h53l-53 -296c-9 -53 -2 -78 34 -78c77 0 166 89 166 290
c0 128 -75 246 -284 246c-252 0 -388 -192 -388 -423c0 -182 79 -304 283 -304c77 0 143 17 200 45l13 -49c-53 -25 -127 -47 -212 -47c-237 0 -338 143 -338 356c0 261 163 473 442 473c243 0 338 -144 338 -297c0 -225 -114 -339 -225 -339c-56 0 -75 24 -79 63z" />
    <glyph glyph-name="A" unicode="A" horiz-adv-x="605" 
d="M518 0l-67 190h-298l-67 -190h-68l245 676h78l247 -676h-70zM303 611l-131 -366h260z" />
    <glyph glyph-name="B" unicode="B" horiz-adv-x="577" 
d="M89 0v676h201c135 0 201 -65 201 -168c0 -86 -44 -141 -109 -154c73 -11 142 -62 142 -170c0 -131 -84 -184 -225 -184h-210zM152 55h136c118 0 172 38 172 132c0 82 -51 135 -171 135h-137v-267zM152 377h127c109 0 146 53 146 128c0 72 -40 116 -146 116h-127v-244z
" />
    <glyph glyph-name="C" unicode="C" horiz-adv-x="583" 
d="M124 337c0 -163 54 -290 206 -290c68 0 133 31 161 89l51 -34c-35 -65 -114 -112 -213 -112c-186 0 -270 134 -270 347c0 214 84 349 270 349c99 0 178 -47 213 -112l-51 -34c-28 58 -93 89 -161 89c-152 0 -206 -127 -206 -292z" />
    <glyph glyph-name="D" unicode="D" horiz-adv-x="647" 
d="M89 0v676h180c234 0 318 -98 318 -338c0 -238 -83 -338 -318 -338h-180zM152 55h115c200 0 255 79 255 283c0 201 -55 283 -255 283h-115v-566z" />
    <glyph glyph-name="E" unicode="E" horiz-adv-x="535" 
d="M152 55h332v-55h-395v676h391v-55h-328v-245h295v-55h-295v-266z" />
    <glyph glyph-name="F" unicode="F" horiz-adv-x="518" 
d="M89 0v676h388v-55h-325v-265h280v-56h-280v-300h-63z" />
    <glyph glyph-name="G" unicode="G" horiz-adv-x="636" 
d="M343 301v57h240c2 -11 4 -33 4 -42c0 -181 -63 -326 -254 -326c-188 0 -274 125 -274 347c0 212 77 349 285 349c106 0 171 -44 209 -110l-49 -34c-36 59 -81 87 -161 87c-172 0 -219 -124 -219 -292c0 -179 55 -291 208 -291c146 0 190 113 190 255h-179z" />
    <glyph glyph-name="H" unicode="H" horiz-adv-x="671" 
d="M519 384v292h63v-676h-63v329h-367v-329h-63v676h63v-292h367z" />
    <glyph glyph-name="I" unicode="I" horiz-adv-x="241" 
d="M89 0v676h63v-676h-63z" />
    <glyph glyph-name="J" unicode="J" horiz-adv-x="488" 
d="M27 88l48 32c30 -53 66 -73 124 -73c89 0 144 48 144 192v437h61v-436c0 -180 -83 -250 -205 -250c-84 0 -140 40 -172 98z" />
    <glyph glyph-name="K" unicode="K" horiz-adv-x="599" 
d="M264 351l-112 -114v-237h-63v676h63v-356l341 356h82l-265 -280l265 -396h-79z" />
    <glyph glyph-name="L" unicode="L" horiz-adv-x="474" 
d="M152 55h299v-55h-362v676h63v-621z" />
    <glyph glyph-name="M" unicode="M" horiz-adv-x="860" 
d="M431 83l199 593h84l96 -676h-64l-81 600l-201 -600h-69l-200 602l-82 -602h-63l96 676h88z" />
    <glyph glyph-name="N" unicode="N" horiz-adv-x="680" 
d="M528 101l1 575h62v-676h-68l-371 576v-576h-63v676h68z" />
    <glyph glyph-name="O" unicode="O" horiz-adv-x="656" 
d="M124 337c0 -173 48 -290 202 -290c160 0 207 117 207 290c0 172 -48 292 -205 292c-154 0 -204 -120 -204 -292zM597 337c0 -203 -76 -347 -271 -347c-193 0 -267 144 -267 347s74 349 269 349c194 0 269 -146 269 -349z" />
    <glyph glyph-name="P" unicode="P" horiz-adv-x="556" 
d="M293 275h-141v-275h-63v676h204c154 0 220 -79 220 -200c0 -120 -66 -201 -220 -201zM152 621v-290h139c118 0 157 61 157 145s-39 145 -157 145h-139z" />
    <glyph glyph-name="Q" unicode="Q" horiz-adv-x="656" 
d="M597 337c0 -87 -14 -162 -45 -221l88 -85l-37 -42l-82 81c-43 -51 -107 -80 -195 -80c-193 0 -267 144 -267 347s74 349 269 349c194 0 269 -146 269 -349zM124 337c0 -173 48 -290 202 -290c71 0 120 23 153 65l-173 172l36 39l164 -162c19 47 27 107 27 176
c0 172 -48 292 -205 292c-154 0 -204 -120 -204 -292z" />
    <glyph glyph-name="R" unicode="R" horiz-adv-x="591" 
d="M89 0v676h223c154 0 227 -69 227 -183c0 -105 -68 -169 -183 -180l203 -313h-74l-197 308h-136l-1 -308h-62zM474 493c0 80 -44 128 -165 128h-157v-258h157c121 0 165 49 165 130z" />
    <glyph glyph-name="S" unicode="S" horiz-adv-x="545" 
d="M483 587l-50 -34c-30 49 -81 76 -154 76c-99 0 -147 -59 -147 -133c0 -65 38 -93 109 -114l92 -27c91 -27 161 -72 161 -172c0 -111 -79 -193 -224 -193c-154 0 -202 74 -227 130l52 30c22 -53 59 -103 175 -103c107 0 159 54 159 133c0 68 -50 98 -116 117l-93 27
c-93 28 -153 79 -153 170c0 101 70 192 212 192c105 0 175 -47 204 -99z" />
    <glyph glyph-name="T" unicode="T" horiz-adv-x="534" 
d="M34 676h466v-55h-201v-621h-63v621h-202v55z" />
    <glyph glyph-name="U" unicode="U" horiz-adv-x="654" 
d="M327 -10c-143 0 -243 69 -243 259v427h63v-430c0 -145 66 -199 180 -199c112 0 180 53 180 199v430h63v-427c0 -190 -102 -259 -243 -259z" />
    <glyph glyph-name="V" unicode="V" horiz-adv-x="592" 
d="M502 676h69l-235 -676h-80l-234 676h68l206 -609z" />
    <glyph glyph-name="W" unicode="W" horiz-adv-x="967" 
d="M447 676h74l176 -600l176 600h68l-203 -676h-79l-176 589l-175 -589h-79l-203 676h68l176 -600z" />
    <glyph glyph-name="X" unicode="X" horiz-adv-x="565" 
d="M34 676h74l174 -281l174 281h75l-206 -326l218 -350h-74l-187 301l-186 -301h-75l219 350z" />
    <glyph glyph-name="Y" unicode="Y" horiz-adv-x="566" 
d="M315 0h-63v273l-233 403h71l193 -342l193 342h72l-233 -403v-273z" />
    <glyph glyph-name="Z" unicode="Z" horiz-adv-x="512" 
d="M463 676v-50l-349 -571h354v-55h-430v49l349 572h-329v55h405z" />
    <glyph glyph-name="bracketleft" unicode="[" horiz-adv-x="286" 
d="M74 690h182v-52h-122v-802h122v-52h-182v906z" />
    <glyph glyph-name="backslash" unicode="\" horiz-adv-x="336" 
d="M242 0l-209 676h63l206 -676h-60z" />
    <glyph glyph-name="bracketright" unicode="]" horiz-adv-x="286" 
d="M30 690h182v-906h-182v52h122v802h-122v52z" />
    <glyph glyph-name="asciicircum" unicode="^" 
d="M50 469l230 229l230 -229l-41 -42l-189 189l-188 -189z" />
    <glyph glyph-name="underscore" unicode="_" horiz-adv-x="509" 
d="M54 -31h400v-47h-400v47z" />
    <glyph glyph-name="grave" unicode="`" horiz-adv-x="600" 
d="M228 696h67l77 -151h-57z" />
    <glyph glyph-name="a" unicode="a" horiz-adv-x="468" 
d="M397 0h-56v58c-27 -31 -79 -68 -157 -68c-89 0 -141 47 -141 127c0 90 82 130 204 144l92 11v52c0 60 -26 90 -106 90c-72 0 -107 -24 -107 -61v-30h-54c-1 11 -2 20 -2 33c0 63 52 110 165 110c110 0 162 -49 162 -141v-325zM104 119c0 -50 29 -78 91 -78s113 30 144 64
v121l-89 -11c-90 -12 -146 -38 -146 -96z" />
    <glyph glyph-name="b" unicode="b" horiz-adv-x="514" 
d="M134 690v-281c26 31 67 57 133 57c139 0 197 -95 197 -237c0 -144 -60 -239 -197 -239c-67 0 -112 26 -139 57l-15 -47h-38v690h59zM403 229c0 106 -33 181 -143 181c-69 0 -109 -38 -126 -67v-228c18 -32 59 -70 126 -70c111 0 143 79 143 184z" />
    <glyph glyph-name="c" unicode="c" horiz-adv-x="447" 
d="M50 227c0 136 61 239 198 239c75 0 131 -30 164 -88l-46 -31c-25 45 -63 65 -116 65c-101 0 -139 -79 -139 -185s38 -183 139 -183c53 0 92 20 117 64l45 -31c-32 -56 -89 -87 -164 -87c-137 0 -198 100 -198 237z" />
    <glyph glyph-name="d" unicode="d" horiz-adv-x="514" 
d="M381 409v281h59v-690h-58v46c-25 -31 -74 -56 -138 -56c-134 0 -194 94 -194 239c0 143 60 237 195 237c66 0 110 -26 136 -57zM111 229c0 -104 34 -184 142 -184c65 0 108 31 128 67v231c-19 30 -59 67 -127 67c-110 0 -143 -74 -143 -181z" />
    <glyph glyph-name="e" unicode="e" horiz-adv-x="470" 
d="M251 43c41 0 96 16 131 52l31 -41c-27 -33 -93 -64 -162 -64c-145 0 -201 99 -201 239c0 133 60 237 195 237c122 0 177 -92 177 -189c0 -20 -2 -48 -5 -67h-307c1 -99 40 -167 141 -167zM110 259h253c1 6 1 16 1 22c0 76 -40 133 -119 133c-94 0 -129 -67 -135 -155z
" />
    <glyph glyph-name="f" unicode="f" horiz-adv-x="322" 
d="M287 690v-53h-45c-61 0 -78 -41 -78 -105v-76h141v-53h-141v-403h-59v403h-81v43l81 10v76c0 92 36 158 135 158h47z" />
    <glyph glyph-name="g" unicode="g" horiz-adv-x="510" 
d="M378 456h57v-494c0 -90 -69 -164 -183 -164c-115 0 -174 65 -174 131h57c0 -38 43 -80 117 -80c80 0 124 49 124 112v90c-26 -34 -72 -61 -131 -61c-138 0 -195 98 -195 238c0 143 60 238 195 238c65 0 106 -25 133 -58v48zM111 228c0 -101 31 -183 141 -183
c57 0 100 30 124 68v229c-18 30 -56 68 -124 68c-109 0 -141 -75 -141 -182z" />
    <glyph glyph-name="h" unicode="h" horiz-adv-x="519" 
d="M75 0v690h59v-288c29 37 89 64 153 64c118 0 162 -60 162 -172v-294h-59v291c0 79 -27 119 -115 119c-63 0 -113 -26 -141 -62v-348h-59z" />
    <glyph glyph-name="i" unicode="i" horiz-adv-x="209" 
d="M75 0v456h59v-456h-59zM104 579c-27 0 -47 14 -47 47s20 48 47 48c24 0 48 -15 48 -48s-24 -47 -48 -47z" />
    <glyph glyph-name="j" unicode="j" horiz-adv-x="209" 
d="M18 -226l-28 45c69 26 85 63 85 148v489h59v-482c0 -118 -36 -172 -116 -200zM104 579c-27 0 -48 14 -48 47s21 48 48 48c24 0 47 -15 47 -48s-23 -47 -47 -47z" />
    <glyph glyph-name="k" unicode="k" horiz-adv-x="463" 
d="M441 0h-70l-157 236l-80 -76v-160h-59v690h59v-457l233 223h78l-188 -179z" />
    <glyph glyph-name="l" unicode="l" horiz-adv-x="224" 
d="M71 690h59v-570c0 -45 11 -66 49 -66h27v-55h-39c-72 0 -96 41 -96 116v575z" />
    <glyph glyph-name="m" unicode="m" horiz-adv-x="808" 
d="M74 0v456h58v-54c32 35 80 64 138 64c76 0 117 -26 148 -72c38 43 93 72 159 72c114 0 161 -60 161 -169v-297h-59v294c0 79 -30 116 -111 116c-58 0 -101 -26 -130 -62v-348h-59v346c-21 43 -59 64 -116 64c-58 0 -100 -29 -130 -61v-349h-59z" />
    <glyph glyph-name="n" unicode="n" horiz-adv-x="519" 
d="M74 0v456h58v-56c29 40 91 66 154 66c118 0 162 -60 162 -172v-294h-58v291c0 79 -28 119 -116 119c-63 0 -113 -26 -141 -62v-348h-59z" />
    <glyph glyph-name="o" unicode="o" horiz-adv-x="501" 
d="M251 466c143 0 200 -102 200 -237c0 -138 -57 -239 -203 -239c-137 0 -198 101 -198 238c0 136 60 238 201 238zM249 45c103 0 142 74 142 183c0 110 -39 183 -141 183c-99 0 -139 -73 -139 -182c0 -110 40 -184 138 -184z" />
    <glyph glyph-name="p" unicode="p" horiz-adv-x="515" 
d="M133 46v-262h-59v672h58v-47c25 31 74 57 138 57c135 0 194 -95 194 -240c0 -143 -60 -236 -195 -236c-66 0 -111 25 -136 56zM404 226c0 104 -34 184 -143 184c-65 0 -108 -31 -128 -67v-231c18 -30 59 -67 128 -67c110 0 143 74 143 181z" />
    <glyph glyph-name="q" unicode="q" horiz-adv-x="512" 
d="M379 -216v262c-26 -31 -66 -56 -133 -56c-138 0 -196 94 -196 236c0 144 60 240 196 240c67 0 112 -27 139 -58l15 48h38v-672h-59zM111 226c0 -106 33 -181 143 -181c68 0 108 38 125 67v228c-18 32 -59 70 -125 70c-111 0 -143 -79 -143 -184z" />
    <glyph glyph-name="r" unicode="r" horiz-adv-x="335" 
d="M132 379h1c24 48 61 87 130 87c20 0 41 -2 57 -7l-9 -63c-17 6 -39 9 -56 9c-63 0 -98 -44 -122 -102v-303h-59v456h58v-77z" />
    <glyph glyph-name="s" unicode="s" horiz-adv-x="427" 
d="M373 403l-38 -38c-23 28 -61 51 -118 51c-73 0 -101 -38 -101 -82c0 -32 15 -57 63 -69l79 -18c81 -20 125 -58 125 -124c0 -77 -62 -133 -175 -133c-95 0 -142 42 -168 76l39 38c24 -31 51 -64 130 -64c66 0 113 26 113 80c0 41 -31 59 -80 72l-80 20
c-72 17 -107 61 -107 119c0 65 46 135 163 135c79 0 130 -33 155 -63z" />
    <glyph glyph-name="t" unicode="t" horiz-adv-x="332" 
d="M168 403v-280c0 -46 18 -78 67 -78c22 0 47 8 67 18l11 -52c-23 -11 -55 -21 -91 -21c-78 0 -113 49 -113 128v285h-88v43l88 10v116l59 12v-128h132v-53h-132z" />
    <glyph glyph-name="u" unicode="u" horiz-adv-x="519" 
d="M445 456v-456h-58v56c-29 -40 -91 -66 -154 -66c-118 0 -162 60 -162 172v294h58v-291c0 -79 28 -119 116 -119c63 0 113 26 141 62v348h59z" />
    <glyph glyph-name="v" unicode="v" horiz-adv-x="468" 
d="M378 456h64l-172 -456h-72l-173 456h64l145 -399z" />
    <glyph glyph-name="w" unicode="w" horiz-adv-x="752" 
d="M345 456h62l127 -389l125 389h65l-153 -456h-68l-127 380l-128 -380h-67l-153 456h65l124 -389z" />
    <glyph glyph-name="x" unicode="x" horiz-adv-x="438" 
d="M256 228l155 -228h-70l-122 185l-122 -185h-69l153 229l-153 227h70l121 -184l122 184h70z" />
    <glyph glyph-name="y" unicode="y" horiz-adv-x="476" 
d="M88 456l158 -351l142 351h67l-283 -672h-64l107 249l-195 423h68z" />
    <glyph glyph-name="z" unicode="z" horiz-adv-x="407" 
d="M359 456v-45l-244 -358h249v-53h-324v45l245 358h-233v53h307z" />
    <glyph glyph-name="braceleft" unicode="{" horiz-adv-x="282" 
d="M170 555v-216c0 -81 -38 -98 -65 -102c27 -4 65 -22 65 -104v-213c0 -67 21 -86 76 -86v-50c-93 0 -136 28 -136 135v211c0 62 -23 82 -88 82v50c65 0 88 19 88 81v212c0 102 42 135 136 135v-50c-54 0 -76 -19 -76 -85z" />
    <glyph glyph-name="bar" unicode="|" horiz-adv-x="195" 
d="M121 -216h-47v906h47v-906z" />
    <glyph glyph-name="braceright" unicode="}" horiz-adv-x="282" 
d="M112 339v216c0 66 -22 85 -76 85v50c94 0 136 -33 136 -135v-212c0 -62 23 -81 88 -81v-50c-65 0 -88 -20 -88 -82v-211c0 -107 -43 -135 -136 -135v50c55 0 76 19 76 86v213c0 82 38 100 65 104c-27 4 -65 21 -65 102z" />
    <glyph glyph-name="asciitilde" unicode="~" 
d="M453 297l-12 -55c-21 19 -48 38 -78 38c-54 0 -103 -78 -172 -78c-34 0 -71 22 -85 37l9 57c18 -17 41 -38 74 -38c63 0 101 78 174 78c40 0 75 -26 90 -39z" />
    <glyph glyph-name="uni00A0" unicode="&#xa0;" horiz-adv-x="225" 
 />
    <glyph glyph-name="Agrave" unicode="&#xc0;" horiz-adv-x="605" 
d="M518 0l-67 190h-298l-67 -190h-68l245 676h78l247 -676h-70zM303 611l-131 -366h260zM190 899h67l77 -151h-57z" />
    <glyph glyph-name="Aacute" unicode="&#xc1;" horiz-adv-x="605" 
d="M518 0l-67 190h-298l-67 -190h-68l245 676h78l247 -676h-70zM303 611l-131 -366h260zM349 899h67l-87 -151h-57z" />
    <glyph glyph-name="Acircumflex" unicode="&#xc2;" horiz-adv-x="605" 
d="M518 0l-67 190h-298l-67 -190h-68l245 676h78l247 -676h-70zM303 611l-131 -366h260zM273 899h61l102 -151h-57l-76 107l-75 -107h-57z" />
    <glyph glyph-name="Atilde" unicode="&#xc3;" horiz-adv-x="605" 
d="M518 0l-67 190h-298l-67 -190h-68l245 676h78l247 -676h-70zM303 611l-131 -366h260zM438 829l-8 -49c-17 15 -38 25 -59 25c-45 0 -80 -37 -136 -37c-28 0 -55 13 -66 26l8 48c14 -15 33 -25 58 -25c49 0 77 38 136 38c33 0 55 -16 67 -26z" />
    <glyph glyph-name="Adieresis" unicode="&#xc4;" horiz-adv-x="605" 
d="M518 0l-67 190h-298l-67 -190h-68l245 676h78l247 -676h-70zM303 611l-131 -366h260zM215 772c-27 0 -48 14 -48 47s21 48 48 48c24 0 47 -15 47 -48s-23 -47 -47 -47zM391 772c-27 0 -47 14 -47 47s20 48 47 48c24 0 48 -15 48 -48s-24 -47 -48 -47z" />
    <glyph glyph-name="Amacron" unicode="&#x100;" horiz-adv-x="605" 
d="M518 0l-67 190h-298l-67 -190h-68l245 676h78l247 -676h-70zM303 611l-131 -366h260zM167 838h272v-51h-272v51z" />
    <glyph glyph-name="Abreve" unicode="&#x102;" horiz-adv-x="605" 
d="M518 0l-67 190h-298l-67 -190h-68l245 676h78l247 -676h-70zM303 611l-131 -366h260zM386 884h47c0 -76 -51 -132 -130 -132c-78 0 -129 56 -129 132h45c2 -48 31 -84 84 -84s82 36 83 84z" />
    <glyph glyph-name="Aring" unicode="&#xc5;" horiz-adv-x="605" 
d="M518 0l-67 190h-298l-67 -190h-68l245 676h78l247 -676h-70zM303 611l-131 -366h260zM202 809c0 53 39 92 101 92c63 0 102 -39 102 -92s-39 -93 -102 -93c-62 0 -101 40 -101 93zM247 809c0 -32 21 -54 56 -54s57 22 57 54s-22 53 -57 53s-56 -21 -56 -53z" />
    <glyph glyph-name="Aringacute" unicode="&#x1fa;" horiz-adv-x="605" 
d="M202 809c0 49 34 85 86 90l57 76h66l-68 -81c38 -13 62 -44 62 -85c0 -53 -40 -92 -102 -92c-61 0 -101 39 -101 92zM246 809c0 -32 22 -53 57 -53c36 0 57 21 57 53s-21 54 -57 54c-35 0 -57 -22 -57 -54zM518 0l-67 190h-298l-67 -190h-68l245 676h78l247 -676h-70z
M303 611l-131 -366h260z" />
    <glyph glyph-name="Aogonek" unicode="&#x104;" horiz-adv-x="605" 
d="M588 0l-77 -62c-22 -19 -34 -36 -34 -59c0 -21 16 -44 50 -44c21 0 42 11 61 25v-54c-16 -11 -38 -22 -73 -22c-62 0 -99 37 -99 87c0 39 21 67 50 90l51 41l-66 188h-298l-67 -190h-68l245 676h78zM303 611l-131 -366h260z" />
    <glyph glyph-name="AE" unicode="&#xc6;" horiz-adv-x="938" 
d="M239 244h253v372zM74 0h-71l463 676h417v-55h-328v-245h296v-55h-296v-267h332v-54h-395v189h-287z" />
    <glyph glyph-name="AEacute" unicode="&#x1fc;" horiz-adv-x="938" 
d="M689 899h67l-87 -151h-57zM239 244h253v372zM74 0h-71l463 676h417v-55h-328v-245h296v-55h-296v-267h332v-54h-395v189h-287z" />
    <glyph glyph-name="Cacute" unicode="&#x106;" horiz-adv-x="583" 
d="M124 337c0 -163 54 -290 206 -290c68 0 133 31 161 89l51 -34c-35 -65 -114 -112 -213 -112c-186 0 -270 134 -270 347c0 214 84 349 270 349c99 0 178 -47 213 -112l-51 -34c-28 58 -93 89 -161 89c-152 0 -206 -127 -206 -292zM373 899h67l-87 -151h-57z" />
    <glyph glyph-name="Ccircumflex" unicode="&#x108;" horiz-adv-x="583" 
d="M124 337c0 -163 54 -290 206 -290c68 0 133 31 161 89l51 -34c-35 -65 -114 -112 -213 -112c-186 0 -270 134 -270 347c0 214 84 349 270 349c99 0 178 -47 213 -112l-51 -34c-28 58 -93 89 -161 89c-152 0 -206 -127 -206 -292zM297 899h61l102 -151h-57l-76 107
l-75 -107h-57z" />
    <glyph glyph-name="Ccaron" unicode="&#x10c;" horiz-adv-x="583" 
d="M124 337c0 -163 54 -290 206 -290c68 0 133 31 161 89l51 -34c-35 -65 -114 -112 -213 -112c-186 0 -270 134 -270 347c0 214 84 349 270 349c99 0 178 -47 213 -112l-51 -34c-28 58 -93 89 -161 89c-152 0 -206 -127 -206 -292zM357 748h-61l-102 151h57l76 -107l75 107
h57z" />
    <glyph glyph-name="Cdotaccent" unicode="&#x10a;" horiz-adv-x="583" 
d="M124 337c0 -163 54 -290 206 -290c68 0 133 31 161 89l51 -34c-35 -65 -114 -112 -213 -112c-186 0 -270 134 -270 347c0 214 84 349 270 349c99 0 178 -47 213 -112l-51 -34c-28 58 -93 89 -161 89c-152 0 -206 -127 -206 -292zM327 772c-27 0 -48 14 -48 47
s21 48 48 48c24 0 47 -15 47 -48s-23 -47 -47 -47z" />
    <glyph glyph-name="Ccedilla" unicode="&#xc7;" horiz-adv-x="583" 
d="M124 337c0 -163 54 -290 206 -290c68 0 133 31 161 89l51 -34c-33 -61 -104 -105 -195 -111l-18 -48c48 0 90 -21 90 -81c0 -38 -32 -78 -97 -78c-31 0 -59 11 -81 22v49c22 -16 50 -27 78 -27c31 0 46 16 46 34c0 31 -25 39 -60 39h-31l-3 5l28 85
c-165 14 -240 145 -240 346c0 214 84 349 270 349c99 0 178 -47 213 -112l-51 -34c-28 58 -93 89 -161 89c-152 0 -206 -127 -206 -292z" />
    <glyph glyph-name="Dcaron" unicode="&#x10e;" horiz-adv-x="647" 
d="M89 0v676h180c234 0 318 -98 318 -338c0 -238 -83 -338 -318 -338h-180zM152 55h115c200 0 255 79 255 283c0 201 -55 283 -255 283h-115v-566zM329 748h-61l-102 151h57l76 -107l75 107h57z" />
    <glyph glyph-name="Dcroat" unicode="&#x110;" horiz-adv-x="653" 
d="M26 371h70v305h180c234 0 318 -98 318 -338c0 -238 -83 -338 -318 -338h-180v321h-70v50zM159 55h115c200 0 255 79 255 283c0 201 -55 283 -255 283h-115v-250h116v-50h-116v-266z" />
    <glyph glyph-name="Eth" unicode="&#xd0;" horiz-adv-x="653" 
d="M26 371h70v305h180c234 0 318 -98 318 -338c0 -238 -83 -338 -318 -338h-180v321h-70v50zM159 55h115c200 0 255 79 255 283c0 201 -55 283 -255 283h-115v-250h116v-50h-116v-266z" />
    <glyph glyph-name="Egrave" unicode="&#xc8;" horiz-adv-x="535" 
d="M152 55h332v-55h-395v676h391v-55h-328v-245h295v-55h-295v-266zM176 899h67l77 -151h-57z" />
    <glyph glyph-name="Eacute" unicode="&#xc9;" horiz-adv-x="535" 
d="M152 55h332v-55h-395v676h391v-55h-328v-245h295v-55h-295v-266zM331 899h67l-87 -151h-57z" />
    <glyph glyph-name="Ecircumflex" unicode="&#xca;" horiz-adv-x="535" 
d="M152 55h332v-55h-395v676h391v-55h-328v-245h295v-55h-295v-266zM255 899h61l102 -151h-57l-76 107l-75 -107h-57z" />
    <glyph glyph-name="Ecaron" unicode="&#x11a;" horiz-adv-x="535" 
d="M152 55h332v-55h-395v676h391v-55h-328v-245h295v-55h-295v-266zM316 748h-61l-102 151h57l76 -107l75 107h57z" />
    <glyph glyph-name="Edieresis" unicode="&#xcb;" horiz-adv-x="535" 
d="M152 55h332v-55h-395v676h391v-55h-328v-245h295v-55h-295v-266zM198 772c-27 0 -48 14 -48 47s21 48 48 48c24 0 47 -15 47 -48s-23 -47 -47 -47zM374 772c-27 0 -47 14 -47 47s20 48 47 48c24 0 48 -15 48 -48s-24 -47 -48 -47z" />
    <glyph glyph-name="Emacron" unicode="&#x112;" horiz-adv-x="535" 
d="M152 55h332v-55h-395v676h391v-55h-328v-245h295v-55h-295v-266zM150 838h272v-51h-272v51z" />
    <glyph glyph-name="Ebreve" unicode="&#x114;" horiz-adv-x="535" 
d="M152 55h332v-55h-395v676h391v-55h-328v-245h295v-55h-295v-266zM368 884h47c0 -76 -51 -132 -130 -132c-78 0 -129 56 -129 132h45c2 -48 31 -84 84 -84s82 36 83 84z" />
    <glyph glyph-name="Edotaccent" unicode="&#x116;" horiz-adv-x="535" 
d="M152 55h332v-55h-395v676h391v-55h-328v-245h295v-55h-295v-266zM286 772c-27 0 -48 14 -48 47s21 48 48 48c24 0 47 -15 47 -48s-23 -47 -47 -47z" />
    <glyph glyph-name="Eogonek" unicode="&#x118;" horiz-adv-x="535" 
d="M152 55h332v-55h-1l-77 -62c-22 -19 -34 -36 -34 -59c0 -21 16 -44 50 -44c21 0 42 11 61 25v-54c-16 -11 -38 -22 -73 -22c-62 0 -99 37 -99 87c0 39 21 67 50 90l48 39h-320v676h391v-55h-328v-245h295v-55h-295v-266z" />
    <glyph glyph-name="Gcircumflex" unicode="&#x11c;" horiz-adv-x="636" 
d="M343 301v57h240c2 -11 4 -33 4 -42c0 -181 -63 -326 -254 -326c-188 0 -274 125 -274 347c0 212 77 349 285 349c106 0 171 -44 209 -110l-49 -34c-36 59 -81 87 -161 87c-172 0 -219 -124 -219 -292c0 -179 55 -291 208 -291c146 0 190 113 190 255h-179zM312 899h61
l102 -151h-57l-76 107l-75 -107h-57z" />
    <glyph glyph-name="Gbreve" unicode="&#x11e;" horiz-adv-x="636" 
d="M343 301v57h240c2 -11 4 -33 4 -42c0 -181 -63 -326 -254 -326c-188 0 -274 125 -274 347c0 212 77 349 285 349c106 0 171 -44 209 -110l-49 -34c-36 59 -81 87 -161 87c-172 0 -219 -124 -219 -292c0 -179 55 -291 208 -291c146 0 190 113 190 255h-179zM425 884h47
c0 -76 -51 -132 -130 -132c-78 0 -129 56 -129 132h45c2 -48 31 -84 84 -84s82 36 83 84z" />
    <glyph glyph-name="Gdotaccent" unicode="&#x120;" horiz-adv-x="636" 
d="M343 301v57h240c2 -11 4 -33 4 -42c0 -181 -63 -326 -254 -326c-188 0 -274 125 -274 347c0 212 77 349 285 349c106 0 171 -44 209 -110l-49 -34c-36 59 -81 87 -161 87c-172 0 -219 -124 -219 -292c0 -179 55 -291 208 -291c146 0 190 113 190 255h-179zM342 772
c-27 0 -48 14 -48 47s21 48 48 48c24 0 47 -15 47 -48s-23 -47 -47 -47z" />
    <glyph glyph-name="Gcommaaccent" unicode="&#x122;" horiz-adv-x="636" 
d="M343 301v57h240c2 -11 4 -33 4 -42c0 -181 -63 -326 -254 -326c-188 0 -274 125 -274 347c0 212 77 349 285 349c106 0 171 -44 209 -110l-49 -34c-36 59 -81 87 -161 87c-172 0 -219 -124 -219 -292c0 -179 55 -291 208 -291c146 0 190 113 190 255h-179zM381 -70
l-48 -146h-48l25 146h71z" />
    <glyph glyph-name="Hcircumflex" unicode="&#x124;" horiz-adv-x="671" 
d="M519 384v292h63v-676h-63v329h-367v-329h-63v676h63v-292h367zM305 899h61l102 -151h-57l-76 107l-75 -107h-57z" />
    <glyph glyph-name="Hbar" unicode="&#x126;" horiz-adv-x="672" 
d="M43 559h46v117h63v-117h367v117h63v-117h53v-49h-53v-510h-63v329h-367v-329h-63v510h-46v49zM519 384v126h-367v-126h367z" />
    <glyph glyph-name="Igrave" unicode="&#xcc;" horiz-adv-x="241" 
d="M89 0v676h63v-676h-63zM5 899h67l77 -151h-57z" />
    <glyph glyph-name="Iacute" unicode="&#xcd;" horiz-adv-x="241" 
d="M89 0v676h63v-676h-63zM169 899h67l-87 -151h-57z" />
    <glyph glyph-name="Ibreve" unicode="&#x12c;" horiz-adv-x="241" 
d="M89 0v676h63v-676h-63zM202 884h47c0 -76 -51 -132 -130 -132c-78 0 -129 56 -129 132h45c2 -48 31 -84 84 -84s82 36 83 84z" />
    <glyph glyph-name="Icircumflex" unicode="&#xce;" horiz-adv-x="241" 
d="M89 0v676h63v-676h-63zM90 899h61l102 -151h-57l-76 107l-75 -107h-57z" />
    <glyph glyph-name="Itilde" unicode="&#x128;" horiz-adv-x="241" 
d="M89 0v676h63v-676h-63zM255 829l-8 -49c-17 15 -38 25 -59 25c-45 0 -80 -37 -136 -37c-28 0 -55 13 -66 26l8 48c14 -15 33 -25 58 -25c49 0 77 38 136 38c33 0 55 -16 67 -26z" />
    <glyph glyph-name="Idieresis" unicode="&#xcf;" horiz-adv-x="241" 
d="M89 0v676h63v-676h-63zM32 772c-27 0 -48 14 -48 47s21 48 48 48c24 0 47 -15 47 -48s-23 -47 -47 -47zM208 772c-27 0 -47 14 -47 47s20 48 47 48c24 0 48 -15 48 -48s-24 -47 -48 -47z" />
    <glyph glyph-name="Imacron" unicode="&#x12a;" horiz-adv-x="241" 
d="M89 0v676h63v-676h-63zM-16 838h272v-51h-272v51z" />
    <glyph glyph-name="Idotaccent" unicode="&#x130;" horiz-adv-x="241" 
d="M89 0v676h63v-676h-63zM120 772c-27 0 -48 14 -48 47s21 48 48 48c24 0 47 -15 47 -48s-23 -47 -47 -47z" />
    <glyph glyph-name="Iogonek" unicode="&#x12e;" horiz-adv-x="241" 
d="M151 0l-77 -62c-22 -19 -34 -36 -34 -59c0 -21 16 -44 50 -44c21 0 42 11 61 25v-54c-16 -11 -38 -22 -73 -22c-62 0 -99 37 -99 87c0 39 21 67 50 90l60 48v667h63v-676h-1z" />
    <glyph glyph-name="Jcircumflex" unicode="&#x134;" horiz-adv-x="488" 
d="M27 88l48 32c30 -53 66 -73 124 -73c89 0 144 48 144 192v437h61v-436c0 -180 -83 -250 -205 -250c-84 0 -140 40 -172 98zM345 899h61l102 -151h-57l-76 107l-75 -107h-57z" />
    <glyph glyph-name="Kcommaaccent" unicode="&#x136;" horiz-adv-x="599" 
d="M264 351l-112 -114v-237h-63v676h63v-356l341 356h82l-265 -280l265 -396h-79zM322 -70l-48 -146h-48l25 146h71z" />
    <glyph glyph-name="Lacute" unicode="&#x139;" horiz-adv-x="474" 
d="M152 55h299v-55h-362v676h63v-621zM169 899h67l-87 -151h-57z" />
    <glyph glyph-name="Lcaron" unicode="&#x13d;" horiz-adv-x="519" 
d="M152 55h299v-55h-362v676h63v-621zM494 677l-48 -146h-48l25 146h71z" />
    <glyph glyph-name="Lcommaaccent" unicode="&#x13b;" horiz-adv-x="474" 
d="M152 55h299v-55h-362v676h63v-621zM307 -70l-48 -146h-48l25 146h71z" />
    <glyph glyph-name="Lslash" unicode="&#x141;" horiz-adv-x="492" 
d="M170 55h299v-55h-362v265l-83 -35v53l83 34v359h63v-332l93 39v-52l-93 -40v-236z" />
    <glyph glyph-name="Ldot" unicode="&#x13f;" horiz-adv-x="503" 
d="M152 55h299v-55h-362v676h63v-621zM381 313c-31 0 -53 22 -53 52s22 52 53 52s53 -22 53 -52s-22 -52 -53 -52z" />
    <glyph glyph-name="Nacute" unicode="&#x143;" horiz-adv-x="680" 
d="M528 101l1 575h62v-676h-68l-371 576v-576h-63v676h68zM386 899h67l-87 -151h-57z" />
    <glyph glyph-name="Ncaron" unicode="&#x147;" horiz-adv-x="680" 
d="M528 101l1 575h62v-676h-68l-371 576v-576h-63v676h68zM370 748h-61l-102 151h57l76 -107l75 107h57z" />
    <glyph glyph-name="Ntilde" unicode="&#xd1;" horiz-adv-x="680" 
d="M528 101l1 575h62v-676h-68l-371 576v-576h-63v676h68zM474 829l-8 -49c-17 15 -38 25 -59 25c-45 0 -80 -37 -136 -37c-28 0 -55 13 -66 26l8 48c14 -15 33 -25 58 -25c49 0 77 38 136 38c33 0 55 -16 67 -26z" />
    <glyph glyph-name="Ncommaaccent" unicode="&#x145;" horiz-adv-x="680" 
d="M528 101l1 575h62v-676h-68l-371 576v-576h-63v676h68zM381 -70l-48 -146h-48l25 146h71z" />
    <glyph glyph-name="Ograve" unicode="&#xd2;" horiz-adv-x="656" 
d="M124 337c0 -173 48 -290 202 -290c160 0 207 117 207 290c0 172 -48 292 -205 292c-154 0 -204 -120 -204 -292zM597 337c0 -203 -76 -347 -271 -347c-193 0 -267 144 -267 347s74 349 269 349c194 0 269 -146 269 -349zM218 899h67l77 -151h-57z" />
    <glyph glyph-name="Oacute" unicode="&#xd3;" horiz-adv-x="656" 
d="M124 337c0 -173 48 -290 202 -290c160 0 207 117 207 290c0 172 -48 292 -205 292c-154 0 -204 -120 -204 -292zM597 337c0 -203 -76 -347 -271 -347c-193 0 -267 144 -267 347s74 349 269 349c194 0 269 -146 269 -349zM375 899h67l-87 -151h-57z" />
    <glyph glyph-name="Ocircumflex" unicode="&#xd4;" horiz-adv-x="656" 
d="M124 337c0 -173 48 -290 202 -290c160 0 207 117 207 290c0 172 -48 292 -205 292c-154 0 -204 -120 -204 -292zM597 337c0 -203 -76 -347 -271 -347c-193 0 -267 144 -267 347s74 349 269 349c194 0 269 -146 269 -349zM297 899h61l102 -151h-57l-76 107l-75 -107h-57z
" />
    <glyph glyph-name="Otilde" unicode="&#xd5;" horiz-adv-x="656" 
d="M124 337c0 -173 48 -290 202 -290c160 0 207 117 207 290c0 172 -48 292 -205 292c-154 0 -204 -120 -204 -292zM597 337c0 -203 -76 -347 -271 -347c-193 0 -267 144 -267 347s74 349 269 349c194 0 269 -146 269 -349zM462 829l-8 -49c-17 15 -38 25 -59 25
c-45 0 -80 -37 -136 -37c-28 0 -55 13 -66 26l8 48c14 -15 33 -25 58 -25c49 0 77 38 136 38c33 0 55 -16 67 -26z" />
    <glyph glyph-name="Odieresis" unicode="&#xd6;" horiz-adv-x="656" 
d="M124 337c0 -173 48 -290 202 -290c160 0 207 117 207 290c0 172 -48 292 -205 292c-154 0 -204 -120 -204 -292zM597 337c0 -203 -76 -347 -271 -347c-193 0 -267 144 -267 347s74 349 269 349c194 0 269 -146 269 -349zM240 772c-27 0 -48 14 -48 47s21 48 48 48
c24 0 47 -15 47 -48s-23 -47 -47 -47zM416 772c-27 0 -47 14 -47 47s20 48 47 48c24 0 48 -15 48 -48s-24 -47 -48 -47z" />
    <glyph glyph-name="Omacron" unicode="&#x14c;" horiz-adv-x="656" 
d="M124 337c0 -173 48 -290 202 -290c160 0 207 117 207 290c0 172 -48 292 -205 292c-154 0 -204 -120 -204 -292zM597 337c0 -203 -76 -347 -271 -347c-193 0 -267 144 -267 347s74 349 269 349c194 0 269 -146 269 -349zM192 838h272v-51h-272v51z" />
    <glyph glyph-name="Obreve" unicode="&#x14e;" horiz-adv-x="656" 
d="M124 337c0 -173 48 -290 202 -290c160 0 207 117 207 290c0 172 -48 292 -205 292c-154 0 -204 -120 -204 -292zM597 337c0 -203 -76 -347 -271 -347c-193 0 -267 144 -267 347s74 349 269 349c194 0 269 -146 269 -349zM411 884h47c0 -76 -51 -132 -130 -132
c-78 0 -129 56 -129 132h45c2 -48 31 -84 84 -84s82 36 83 84z" />
    <glyph glyph-name="Ohungarumlaut" unicode="&#x150;" horiz-adv-x="656" 
d="M124 337c0 -173 48 -290 202 -290c160 0 207 117 207 290c0 172 -48 292 -205 292c-154 0 -204 -120 -204 -292zM597 337c0 -203 -76 -347 -271 -347c-193 0 -267 144 -267 347s74 349 269 349c194 0 269 -146 269 -349zM299 899h68l-87 -151h-58zM443 899h67l-87 -151
h-58z" />
    <glyph glyph-name="Oslash" unicode="&#xd8;" horiz-adv-x="658" 
d="M598 337c0 -203 -76 -347 -271 -347c-79 0 -138 24 -180 66l-42 -56h-60l71 94c-39 61 -56 145 -56 243c0 203 74 349 269 349c80 0 140 -26 182 -69l45 59h63l-76 -100c38 -61 55 -144 55 -239zM125 337c0 -76 9 -140 32 -189l318 421c-32 38 -80 60 -146 60
c-154 0 -204 -120 -204 -292zM534 337c0 73 -9 137 -31 186l-319 -419c32 -37 78 -57 143 -57c160 0 207 117 207 290z" />
    <glyph glyph-name="Oslashacute" unicode="&#x1fe;" horiz-adv-x="658" 
d="M372 899h66l-86 -151h-56zM598 337c0 -203 -76 -347 -271 -347c-79 0 -138 24 -180 66l-42 -56h-60l71 94c-39 61 -56 145 -56 243c0 203 74 349 269 349c80 0 140 -26 182 -69l45 59h63l-76 -100c38 -61 55 -144 55 -239zM125 337c0 -76 9 -140 32 -189l318 421
c-32 38 -80 60 -146 60c-154 0 -204 -120 -204 -292zM534 337c0 73 -9 137 -31 186l-319 -419c32 -37 78 -57 143 -57c160 0 207 117 207 290z" />
    <glyph glyph-name="OE" unicode="&#x152;" horiz-adv-x="871" 
d="M488 55h332v-55h-394c-27 -6 -64 -10 -100 -10c-193 0 -267 144 -267 347s74 349 269 349c33 0 69 -4 99 -10h389v-55h-328v-245h295v-55h-295v-266zM326 47c35 0 70 4 99 12v555c-30 10 -63 15 -97 15c-154 0 -204 -120 -204 -292c0 -173 48 -290 202 -290z" />
    <glyph glyph-name="Racute" unicode="&#x154;" horiz-adv-x="591" 
d="M89 0v676h223c154 0 227 -69 227 -183c0 -105 -68 -169 -183 -180l203 -313h-74l-197 308h-136l-1 -308h-62zM474 493c0 80 -44 128 -165 128h-157v-258h157c121 0 165 49 165 130zM321 899h67l-87 -151h-57z" />
    <glyph glyph-name="Rcaron" unicode="&#x158;" horiz-adv-x="591" 
d="M89 0v676h223c154 0 227 -69 227 -183c0 -105 -68 -169 -183 -180l203 -313h-74l-197 308h-136l-1 -308h-62zM474 493c0 80 -44 128 -165 128h-157v-258h157c121 0 165 49 165 130zM305 748h-61l-102 151h57l76 -107l75 107h57z" />
    <glyph glyph-name="Rcommaaccent" unicode="&#x156;" horiz-adv-x="591" 
d="M89 0v676h223c154 0 227 -69 227 -183c0 -105 -68 -169 -183 -180l203 -313h-74l-197 308h-136l-1 -308h-62zM474 493c0 80 -44 128 -165 128h-157v-258h157c121 0 165 49 165 130zM319 -70l-48 -146h-48l25 146h71z" />
    <glyph glyph-name="Sacute" unicode="&#x15a;" horiz-adv-x="545" 
d="M483 587l-50 -34c-30 49 -81 76 -154 76c-99 0 -147 -59 -147 -133c0 -65 38 -93 109 -114l92 -27c91 -27 161 -72 161 -172c0 -111 -79 -193 -224 -193c-154 0 -202 74 -227 130l52 30c22 -53 59 -103 175 -103c107 0 159 54 159 133c0 68 -50 98 -116 117l-93 27
c-93 28 -153 79 -153 170c0 101 70 192 212 192c105 0 175 -47 204 -99zM319 899h67l-87 -151h-57z" />
    <glyph glyph-name="Scircumflex" unicode="&#x15c;" horiz-adv-x="545" 
d="M483 587l-50 -34c-30 49 -81 76 -154 76c-99 0 -147 -59 -147 -133c0 -65 38 -93 109 -114l92 -27c91 -27 161 -72 161 -172c0 -111 -79 -193 -224 -193c-154 0 -202 74 -227 130l52 30c22 -53 59 -103 175 -103c107 0 159 54 159 133c0 68 -50 98 -116 117l-93 27
c-93 28 -153 79 -153 170c0 101 70 192 212 192c105 0 175 -47 204 -99zM243 899h61l102 -151h-57l-76 107l-75 -107h-57z" />
    <glyph glyph-name="Scaron" unicode="&#x160;" horiz-adv-x="545" 
d="M483 587l-50 -34c-30 49 -81 76 -154 76c-99 0 -147 -59 -147 -133c0 -65 38 -93 109 -114l92 -27c91 -27 161 -72 161 -172c0 -111 -79 -193 -224 -193c-154 0 -202 74 -227 130l52 30c22 -53 59 -103 175 -103c107 0 159 54 159 133c0 68 -50 98 -116 117l-93 27
c-93 28 -153 79 -153 170c0 101 70 192 212 192c105 0 175 -47 204 -99zM303 748h-61l-102 151h57l76 -107l75 107h57z" />
    <glyph glyph-name="Scedilla" unicode="&#x15e;" horiz-adv-x="545" 
d="M483 587l-50 -34c-30 49 -81 76 -154 76c-99 0 -147 -59 -147 -133c0 -65 38 -93 109 -114l92 -27c91 -27 161 -72 161 -172c0 -107 -73 -186 -207 -192l-18 -48c48 0 90 -21 90 -81c0 -38 -32 -78 -97 -78c-31 0 -59 11 -81 22v49c22 -16 50 -27 78 -27
c31 0 46 16 46 34c0 31 -25 39 -60 39h-31l-3 5l27 85c-129 9 -172 77 -195 129l52 30c22 -53 59 -103 175 -103c107 0 159 54 159 133c0 68 -50 98 -116 117l-93 27c-93 28 -153 79 -153 170c0 101 70 192 212 192c105 0 175 -47 204 -99z" />
    <glyph glyph-name="Scommaaccent" unicode="&#x218;" horiz-adv-x="545" 
d="M483 587l-50 -34c-30 49 -81 76 -154 76c-99 0 -147 -59 -147 -133c0 -65 38 -93 109 -114l92 -27c91 -27 161 -72 161 -172c0 -111 -79 -193 -224 -193c-154 0 -202 74 -227 130l52 30c22 -53 59 -103 175 -103c107 0 159 54 159 133c0 68 -50 98 -116 117l-93 27
c-93 28 -153 79 -153 170c0 101 70 192 212 192c105 0 175 -47 204 -99zM314 -70l-48 -146h-48l25 146h71z" />
    <glyph glyph-name="Tcaron" unicode="&#x164;" horiz-adv-x="534" 
d="M34 676h466v-55h-201v-621h-63v621h-202v55zM304 748h-61l-102 151h57l76 -107l75 107h57z" />
    <glyph glyph-name="Tcommaaccent" unicode="&#x162;" horiz-adv-x="534" 
d="M34 676h466v-55h-201v-621h-7l-22 -57c48 0 90 -21 90 -81c0 -38 -32 -78 -97 -78c-31 0 -59 11 -81 22v49c22 -16 50 -27 78 -27c31 0 46 16 46 34c0 31 -25 39 -60 39h-31l-3 5l30 94h-6v621h-202v55z" />
    <glyph glyph-name="uni021A" unicode="&#x21a;" horiz-adv-x="533" 
d="M33 676h466v-55h-201v-621h-63v621h-202v55zM302 -70l-48 -146h-48l25 146h71z" />
    <glyph glyph-name="Tbar" unicode="&#x166;" horiz-adv-x="539" 
d="M144 366h94v255h-202v55h466v-55h-201v-255h92v-50h-92v-316h-63v316h-94v50z" />
    <glyph glyph-name="Thorn" unicode="&#xde;" horiz-adv-x="557" 
d="M293 141h-141v-141h-63v677h62v-135h142c154 0 220 -79 220 -200c0 -120 -66 -201 -220 -201zM152 487v-290h139c118 0 157 61 157 145s-39 145 -157 145h-139z" />
    <glyph glyph-name="Ugrave" unicode="&#xd9;" horiz-adv-x="654" 
d="M327 -10c-143 0 -243 69 -243 259v427h63v-430c0 -145 66 -199 180 -199c112 0 180 53 180 199v430h63v-427c0 -190 -102 -259 -243 -259zM213 899h67l77 -151h-57z" />
    <glyph glyph-name="Uacute" unicode="&#xda;" horiz-adv-x="654" 
d="M327 -10c-143 0 -243 69 -243 259v427h63v-430c0 -145 66 -199 180 -199c112 0 180 53 180 199v430h63v-427c0 -190 -102 -259 -243 -259zM374 899h67l-87 -151h-57z" />
    <glyph glyph-name="Ucircumflex" unicode="&#xdb;" horiz-adv-x="654" 
d="M327 -10c-143 0 -243 69 -243 259v427h63v-430c0 -145 66 -199 180 -199c112 0 180 53 180 199v430h63v-427c0 -190 -102 -259 -243 -259zM295 899h61l102 -151h-57l-76 107l-75 -107h-57z" />
    <glyph glyph-name="Utilde" unicode="&#x168;" horiz-adv-x="654" 
d="M327 -10c-143 0 -243 69 -243 259v427h63v-430c0 -145 66 -199 180 -199c112 0 180 53 180 199v430h63v-427c0 -190 -102 -259 -243 -259zM460 829l-8 -49c-17 15 -38 25 -59 25c-45 0 -80 -37 -136 -37c-28 0 -55 13 -66 26l8 48c14 -15 33 -25 58 -25
c49 0 77 38 136 38c33 0 55 -16 67 -26z" />
    <glyph glyph-name="Udieresis" unicode="&#xdc;" horiz-adv-x="654" 
d="M327 -10c-143 0 -243 69 -243 259v427h63v-430c0 -145 66 -199 180 -199c112 0 180 53 180 199v430h63v-427c0 -190 -102 -259 -243 -259zM238 772c-27 0 -48 14 -48 47s21 48 48 48c24 0 47 -15 47 -48s-23 -47 -47 -47zM414 772c-27 0 -47 14 -47 47s20 48 47 48
c24 0 48 -15 48 -48s-24 -47 -48 -47z" />
    <glyph glyph-name="Umacron" unicode="&#x16a;" horiz-adv-x="654" 
d="M327 -10c-143 0 -243 69 -243 259v427h63v-430c0 -145 66 -199 180 -199c112 0 180 53 180 199v430h63v-427c0 -190 -102 -259 -243 -259zM190 838h272v-51h-272v51z" />
    <glyph glyph-name="Ubreve" unicode="&#x16c;" horiz-adv-x="654" 
d="M327 -10c-143 0 -243 69 -243 259v427h63v-430c0 -145 66 -199 180 -199c112 0 180 53 180 199v430h63v-427c0 -190 -102 -259 -243 -259zM408 884h47c0 -76 -51 -132 -130 -132c-78 0 -129 56 -129 132h45c2 -48 31 -84 84 -84s82 36 83 84z" />
    <glyph glyph-name="Uring" unicode="&#x16e;" horiz-adv-x="654" 
d="M327 -10c-143 0 -243 69 -243 259v427h63v-430c0 -145 66 -199 180 -199c112 0 180 53 180 199v430h63v-427c0 -190 -102 -259 -243 -259zM224 827c0 53 39 92 101 92c63 0 102 -39 102 -92s-39 -93 -102 -93c-62 0 -101 40 -101 93zM269 827c0 -32 21 -54 56 -54
s57 22 57 54s-22 53 -57 53s-56 -21 -56 -53z" />
    <glyph glyph-name="Uhungarumlaut" unicode="&#x170;" horiz-adv-x="654" 
d="M327 -10c-143 0 -243 69 -243 259v427h63v-430c0 -145 66 -199 180 -199c112 0 180 53 180 199v430h63v-427c0 -190 -102 -259 -243 -259zM299 899h68l-87 -151h-58zM443 899h67l-87 -151h-58z" />
    <glyph glyph-name="Uogonek" unicode="&#x172;" horiz-adv-x="654" 
d="M570 249c0 -172 -83 -245 -203 -257l-67 -54c-22 -19 -34 -36 -34 -59c0 -21 16 -44 50 -44c21 0 42 11 61 25v-54c-16 -11 -38 -22 -73 -22c-62 0 -99 37 -99 87c0 39 21 67 50 90l37 31c-124 10 -208 82 -208 257v427h63v-430c0 -145 66 -199 180 -199
c112 0 180 53 180 199v430h63v-427z" />
    <glyph glyph-name="Wacute" unicode="&#x1e82;" horiz-adv-x="967" 
d="M447 676h74l176 -600l176 600h68l-203 -676h-79l-176 589l-175 -589h-79l-203 676h68l176 -600zM531 899h67l-87 -151h-57z" />
    <glyph glyph-name="Wcircumflex" unicode="&#x174;" horiz-adv-x="967" 
d="M447 676h74l176 -600l176 600h68l-203 -676h-79l-176 589l-175 -589h-79l-203 676h68l176 -600zM454 899h61l102 -151h-57l-76 107l-75 -107h-57z" />
    <glyph glyph-name="Wdieresis" unicode="&#x1e84;" horiz-adv-x="967" 
d="M447 676h74l176 -600l176 600h68l-203 -676h-79l-176 589l-175 -589h-79l-203 676h68l176 -600zM396 772c-27 0 -48 14 -48 47s21 48 48 48c24 0 47 -15 47 -48s-23 -47 -47 -47zM572 772c-27 0 -47 14 -47 47s20 48 47 48c24 0 48 -15 48 -48s-24 -47 -48 -47z" />
    <glyph glyph-name="Wgrave" unicode="&#x1e80;" horiz-adv-x="967" 
d="M447 676h74l176 -600l176 600h68l-203 -676h-79l-176 589l-175 -589h-79l-203 676h68l176 -600zM371 899h67l77 -151h-57z" />
    <glyph glyph-name="Yacute" unicode="&#xdd;" horiz-adv-x="568" 
d="M315 0h-63v273l-233 403h71l193 -342l193 342h72l-233 -403v-273zM331 899h67l-87 -151h-57z" />
    <glyph glyph-name="Ycircumflex" unicode="&#x176;" horiz-adv-x="568" 
d="M315 0h-63v273l-233 403h71l193 -342l193 342h72l-233 -403v-273zM253 899h61l102 -151h-57l-76 107l-75 -107h-57z" />
    <glyph glyph-name="Ydieresis" unicode="&#x178;" horiz-adv-x="568" 
d="M315 0h-63v273l-233 403h71l193 -342l193 342h72l-233 -403v-273zM195 772c-27 0 -48 14 -48 47s21 48 48 48c24 0 47 -15 47 -48s-23 -47 -47 -47zM371 772c-27 0 -47 14 -47 47s20 48 47 48c24 0 48 -15 48 -48s-24 -47 -48 -47z" />
    <glyph glyph-name="Ygrave" unicode="&#x1ef2;" horiz-adv-x="568" 
d="M315 0h-63v273l-233 403h71l193 -342l193 342h72l-233 -403v-273zM173 899h67l77 -151h-57z" />
    <glyph glyph-name="Zacute" unicode="&#x179;" horiz-adv-x="512" 
d="M463 676v-50l-349 -571h354v-55h-430v49l349 572h-329v55h405zM307 899h67l-87 -151h-57z" />
    <glyph glyph-name="Zcaron" unicode="&#x17d;" horiz-adv-x="512" 
d="M463 676v-50l-349 -571h354v-55h-430v49l349 572h-329v55h405zM290 748h-61l-102 151h57l76 -107l75 107h57z" />
    <glyph glyph-name="Zdotaccent" unicode="&#x17b;" horiz-adv-x="512" 
d="M463 676v-50l-349 -571h354v-55h-430v49l349 572h-329v55h405zM258 772c-27 0 -48 14 -48 47s21 48 48 48c24 0 47 -15 47 -48s-23 -47 -47 -47z" />
    <glyph glyph-name="agrave" unicode="&#xe0;" horiz-adv-x="468" 
d="M397 0h-56v58c-27 -31 -79 -68 -157 -68c-89 0 -141 47 -141 127c0 90 82 130 204 144l92 11v52c0 60 -26 90 -106 90c-72 0 -107 -24 -107 -61v-30h-54c-1 11 -2 20 -2 33c0 63 52 110 165 110c110 0 162 -49 162 -141v-325zM104 119c0 -50 29 -78 91 -78s113 30 144 64
v121l-89 -11c-90 -12 -146 -38 -146 -96zM134 696h67l77 -151h-57z" />
    <glyph glyph-name="aacute" unicode="&#xe1;" horiz-adv-x="468" 
d="M397 0h-56v58c-27 -31 -79 -68 -157 -68c-89 0 -141 47 -141 127c0 90 82 130 204 144l92 11v52c0 60 -26 90 -106 90c-72 0 -107 -24 -107 -61v-30h-54c-1 11 -2 20 -2 33c0 63 52 110 165 110c110 0 162 -49 162 -141v-325zM104 119c0 -50 29 -78 91 -78s113 30 144 64
v121l-89 -11c-90 -12 -146 -38 -146 -96zM286 696h67l-87 -151h-57z" />
    <glyph glyph-name="acircumflex" unicode="&#xe2;" horiz-adv-x="468" 
d="M397 0h-56v58c-27 -31 -79 -68 -157 -68c-89 0 -141 47 -141 127c0 90 82 130 204 144l92 11v52c0 60 -26 90 -106 90c-72 0 -107 -24 -107 -61v-30h-54c-1 11 -2 20 -2 33c0 63 52 110 165 110c110 0 162 -49 162 -141v-325zM104 119c0 -50 29 -78 91 -78s113 30 144 64
v121l-89 -11c-90 -12 -146 -38 -146 -96zM210 696h61l102 -151h-57l-76 107l-75 -107h-57z" />
    <glyph glyph-name="atilde" unicode="&#xe3;" horiz-adv-x="468" 
d="M397 0h-56v58c-27 -31 -79 -68 -157 -68c-89 0 -141 47 -141 127c0 90 82 130 204 144l92 11v52c0 60 -26 90 -106 90c-72 0 -107 -24 -107 -61v-30h-54c-1 11 -2 20 -2 33c0 63 52 110 165 110c110 0 162 -49 162 -141v-325zM104 119c0 -50 29 -78 91 -78s113 30 144 64
v121l-89 -11c-90 -12 -146 -38 -146 -96zM376 626l-8 -49c-17 15 -38 25 -59 25c-45 0 -80 -37 -136 -37c-28 0 -55 13 -66 26l8 48c14 -15 33 -25 58 -25c49 0 77 38 136 38c33 0 55 -16 67 -26z" />
    <glyph glyph-name="adieresis" unicode="&#xe4;" horiz-adv-x="468" 
d="M397 0h-56v58c-27 -31 -79 -68 -157 -68c-89 0 -141 47 -141 127c0 90 82 130 204 144l92 11v52c0 60 -26 90 -106 90c-72 0 -107 -24 -107 -61v-30h-54c-1 11 -2 20 -2 33c0 63 52 110 165 110c110 0 162 -49 162 -141v-325zM104 119c0 -50 29 -78 91 -78s113 30 144 64
v121l-89 -11c-90 -12 -146 -38 -146 -96zM154 569c-27 0 -48 14 -48 47s21 48 48 48c24 0 47 -15 47 -48s-23 -47 -47 -47zM330 569c-27 0 -47 14 -47 47s20 48 47 48c24 0 48 -15 48 -48s-24 -47 -48 -47z" />
    <glyph glyph-name="amacron" unicode="&#x101;" horiz-adv-x="468" 
d="M397 0h-56v58c-27 -31 -79 -68 -157 -68c-89 0 -141 47 -141 127c0 90 82 130 204 144l92 11v52c0 60 -26 90 -106 90c-72 0 -107 -24 -107 -61v-30h-54c-1 11 -2 20 -2 33c0 63 52 110 165 110c110 0 162 -49 162 -141v-325zM104 119c0 -50 29 -78 91 -78s113 30 144 64
v121l-89 -11c-90 -12 -146 -38 -146 -96zM104 635h272v-51h-272v51z" />
    <glyph glyph-name="abreve" unicode="&#x103;" horiz-adv-x="468" 
d="M397 0h-56v58c-27 -31 -79 -68 -157 -68c-89 0 -141 47 -141 127c0 90 82 130 204 144l92 11v52c0 60 -26 90 -106 90c-72 0 -107 -24 -107 -61v-30h-54c-1 11 -2 20 -2 33c0 63 52 110 165 110c110 0 162 -49 162 -141v-325zM104 119c0 -50 29 -78 91 -78s113 30 144 64
v121l-89 -11c-90 -12 -146 -38 -146 -96zM323 681h47c0 -76 -51 -132 -130 -132c-78 0 -129 56 -129 132h45c2 -48 31 -84 84 -84s82 36 83 84z" />
    <glyph glyph-name="aring" unicode="&#xe5;" horiz-adv-x="468" 
d="M397 0h-56v58c-27 -31 -79 -68 -157 -68c-89 0 -141 47 -141 127c0 90 82 130 204 144l92 11v52c0 60 -26 90 -106 90c-72 0 -107 -24 -107 -61v-30h-54c-1 11 -2 20 -2 33c0 63 52 110 165 110c110 0 162 -49 162 -141v-325zM104 119c0 -50 29 -78 91 -78s113 30 144 64
v121l-89 -11c-90 -12 -146 -38 -146 -96zM140 624c0 53 39 92 101 92c63 0 102 -39 102 -92s-39 -93 -102 -93c-62 0 -101 40 -101 93zM185 624c0 -32 21 -54 56 -54s57 22 57 54s-22 53 -57 53s-56 -21 -56 -53z" />
    <glyph glyph-name="aringacute" unicode="&#x1fb;" horiz-adv-x="468" 
d="M140 614c0 49 34 85 87 91l53 70h65l-65 -76c39 -12 63 -44 63 -85c0 -53 -40 -92 -102 -92c-61 0 -101 39 -101 92zM184 614c0 -33 22 -54 57 -54c36 0 57 21 57 54c0 32 -21 54 -57 54c-35 0 -57 -22 -57 -54zM397 0h-56v58c-27 -31 -79 -68 -157 -68
c-89 0 -141 47 -141 127c0 90 82 130 204 144l92 11v52c0 60 -26 90 -106 90c-72 0 -107 -24 -107 -61v-30h-54c-1 11 -2 20 -2 33c0 63 52 110 165 110c110 0 162 -49 162 -141v-325zM104 119c0 -50 29 -78 91 -78s113 30 144 64v121l-89 -11c-90 -12 -146 -38 -146 -96z
" />
    <glyph glyph-name="aogonek" unicode="&#x105;" horiz-adv-x="468" 
d="M397 0l-64 -54c-21 -18 -29 -36 -29 -58c0 -21 14 -36 41 -36c25 0 44 10 55 17l9 -45c-11 -6 -34 -17 -65 -18c-12 -1 -23 1 -34 3c-40 8 -65 33 -65 72c0 37 22 68 49 89l47 38v50c-27 -31 -79 -68 -157 -68c-89 0 -141 47 -141 127c0 90 82 130 204 144l92 11v52
c0 60 -26 90 -106 90c-72 0 -107 -24 -107 -61v-30h-54c-1 11 -2 20 -2 33c0 63 52 110 165 110c110 0 162 -49 162 -141v-325zM104 119c0 -50 29 -78 91 -78s113 30 144 64v121l-89 -11c-90 -12 -146 -38 -146 -96z" />
    <glyph glyph-name="ae" unicode="&#xe6;" horiz-adv-x="759" 
d="M539 43c41 0 96 16 131 52l31 -41c-26 -33 -93 -64 -162 -64c-84 0 -136 32 -165 88c-38 -49 -106 -88 -186 -88c-93 0 -145 47 -145 127c0 90 82 130 204 144l91 11v52c0 60 -25 90 -105 90c-72 0 -107 -24 -107 -61v-30h-54c-2 11 -3 20 -3 33c0 63 53 110 166 110
c82 0 129 -29 148 -80c29 49 78 80 151 80c122 0 177 -92 177 -189c0 -20 -2 -48 -6 -67h-307c1 -99 41 -167 141 -167zM104 119c0 -50 29 -78 91 -78s113 30 143 64v121l-88 -11c-90 -12 -146 -38 -146 -96zM399 259h252c1 6 2 16 2 22c0 76 -41 133 -119 133
c-95 0 -130 -67 -135 -155z" />
    <glyph glyph-name="aeacute" unicode="&#x1fd;" horiz-adv-x="759" 
d="M439 696h67l-87 -151h-57zM539 43c41 0 96 16 131 52l31 -41c-26 -33 -93 -64 -162 -64c-84 0 -136 32 -165 88c-38 -49 -106 -88 -186 -88c-93 0 -145 47 -145 127c0 90 82 130 204 144l91 11v52c0 60 -25 90 -105 90c-72 0 -107 -24 -107 -61v-30h-54
c-2 11 -3 20 -3 33c0 63 53 110 166 110c82 0 129 -29 148 -80c29 49 78 80 151 80c122 0 177 -92 177 -189c0 -20 -2 -48 -6 -67h-307c1 -99 41 -167 141 -167zM104 119c0 -50 29 -78 91 -78s113 30 143 64v121l-88 -11c-90 -12 -146 -38 -146 -96zM399 259h252
c1 6 2 16 2 22c0 76 -41 133 -119 133c-95 0 -130 -67 -135 -155z" />
    <glyph glyph-name="cacute" unicode="&#x107;" horiz-adv-x="447" 
d="M50 227c0 136 61 239 198 239c75 0 131 -30 164 -88l-46 -31c-25 45 -63 65 -116 65c-101 0 -139 -79 -139 -185s38 -183 139 -183c53 0 92 20 117 64l45 -31c-32 -56 -89 -87 -164 -87c-137 0 -198 100 -198 237zM295 696h67l-87 -151h-57z" />
    <glyph glyph-name="ccircumflex" unicode="&#x109;" horiz-adv-x="447" 
d="M50 227c0 136 61 239 198 239c75 0 131 -30 164 -88l-46 -31c-25 45 -63 65 -116 65c-101 0 -139 -79 -139 -185s38 -183 139 -183c53 0 92 20 117 64l45 -31c-32 -56 -89 -87 -164 -87c-137 0 -198 100 -198 237zM221 696h61l102 -151h-57l-76 107l-75 -107h-57z" />
    <glyph glyph-name="ccaron" unicode="&#x10d;" horiz-adv-x="447" 
d="M50 227c0 136 61 239 198 239c75 0 131 -30 164 -88l-46 -31c-25 45 -63 65 -116 65c-101 0 -139 -79 -139 -185s38 -183 139 -183c53 0 92 20 117 64l45 -31c-32 -56 -89 -87 -164 -87c-137 0 -198 100 -198 237zM282 545h-61l-102 151h57l76 -107l75 107h57z" />
    <glyph glyph-name="cdotaccent" unicode="&#x10b;" horiz-adv-x="447" 
d="M50 227c0 136 61 239 198 239c75 0 131 -30 164 -88l-46 -31c-25 45 -63 65 -116 65c-101 0 -139 -79 -139 -185s38 -183 139 -183c53 0 92 20 117 64l45 -31c-32 -56 -89 -87 -164 -87c-137 0 -198 100 -198 237zM252 569c-27 0 -48 14 -48 47s21 48 48 48
c24 0 47 -15 47 -48s-23 -47 -47 -47z" />
    <glyph glyph-name="ccedilla" unicode="&#xe7;" horiz-adv-x="447" 
d="M50 227c0 136 61 239 198 239c75 0 131 -30 164 -88l-46 -31c-25 45 -63 65 -116 65c-101 0 -139 -79 -139 -185s38 -183 139 -183c53 0 92 20 117 64l45 -31c-30 -52 -81 -82 -148 -86l-18 -48c48 0 90 -21 90 -81c0 -38 -32 -78 -97 -78c-31 0 -59 11 -81 22v49
c22 -16 50 -27 78 -27c31 0 46 16 46 34c0 31 -25 39 -60 39h-31l-3 5l28 86c-115 14 -166 109 -166 235z" />
    <glyph glyph-name="dcaron" unicode="&#x10f;" horiz-adv-x="515" 
d="M381 409v281h59v-690h-58v46c-25 -31 -74 -56 -138 -56c-134 0 -194 94 -194 239c0 143 60 237 195 237c66 0 110 -26 136 -57zM111 229c0 -104 34 -184 142 -184c65 0 108 31 128 67v231c-19 30 -59 67 -127 67c-110 0 -143 -74 -143 -181zM590 690l-48 -146h-48l25 146
h71z" />
    <glyph glyph-name="dcroat" unicode="&#x111;" horiz-adv-x="515" 
d="M271 586h110v104h59v-104h72v-50h-72v-536h-58v46c-25 -31 -74 -56 -138 -56c-134 0 -194 94 -194 239c0 143 60 237 195 237c66 0 110 -26 136 -57v127h-110v50zM111 229c0 -104 34 -184 142 -184c65 0 108 31 128 67v231c-19 30 -59 67 -127 67
c-110 0 -143 -74 -143 -181z" />
    <glyph glyph-name="eth" unicode="&#xf0;" horiz-adv-x="524" 
d="M229 690h81c27 -22 53 -49 75 -82l61 29l19 -42l-57 -27c36 -68 59 -154 59 -254c0 -178 -51 -324 -213 -324c-138 0 -204 97 -204 229c0 133 67 228 194 228c87 0 139 -53 164 -109c0 75 -18 144 -52 205l-87 -42l-19 42l82 39c-28 40 -63 76 -103 108zM254 44
c117 0 143 113 149 217c-24 63 -71 130 -153 130c-98 0 -140 -72 -140 -173c0 -92 38 -174 144 -174z" />
    <glyph glyph-name="egrave" unicode="&#xe8;" horiz-adv-x="470" 
d="M251 43c41 0 96 16 131 52l31 -41c-27 -33 -93 -64 -162 -64c-145 0 -201 99 -201 239c0 133 60 237 195 237c122 0 177 -92 177 -189c0 -20 -2 -48 -5 -67h-307c1 -99 40 -167 141 -167zM110 259h253c1 6 1 16 1 22c0 76 -40 133 -119 133c-94 0 -129 -67 -135 -155z
M140 696h67l77 -151h-57z" />
    <glyph glyph-name="eacute" unicode="&#xe9;" horiz-adv-x="470" 
d="M251 43c41 0 96 16 131 52l31 -41c-27 -33 -93 -64 -162 -64c-145 0 -201 99 -201 239c0 133 60 237 195 237c122 0 177 -92 177 -189c0 -20 -2 -48 -5 -67h-307c1 -99 40 -167 141 -167zM110 259h253c1 6 1 16 1 22c0 76 -40 133 -119 133c-94 0 -129 -67 -135 -155z
M288 696h67l-87 -151h-57z" />
    <glyph glyph-name="ecircumflex" unicode="&#xea;" horiz-adv-x="470" 
d="M251 43c41 0 96 16 131 52l31 -41c-27 -33 -93 -64 -162 -64c-145 0 -201 99 -201 239c0 133 60 237 195 237c122 0 177 -92 177 -189c0 -20 -2 -48 -5 -67h-307c1 -99 40 -167 141 -167zM110 259h253c1 6 1 16 1 22c0 76 -40 133 -119 133c-94 0 -129 -67 -135 -155z
M214 696h61l102 -151h-57l-76 107l-75 -107h-57z" />
    <glyph glyph-name="ecaron" unicode="&#x11b;" horiz-adv-x="470" 
d="M251 43c41 0 96 16 131 52l31 -41c-27 -33 -93 -64 -162 -64c-145 0 -201 99 -201 239c0 133 60 237 195 237c122 0 177 -92 177 -189c0 -20 -2 -48 -5 -67h-307c1 -99 40 -167 141 -167zM110 259h253c1 6 1 16 1 22c0 76 -40 133 -119 133c-94 0 -129 -67 -135 -155z
M276 545h-61l-102 151h57l76 -107l75 107h57z" />
    <glyph glyph-name="edieresis" unicode="&#xeb;" horiz-adv-x="470" 
d="M251 43c41 0 96 16 131 52l31 -41c-27 -33 -93 -64 -162 -64c-145 0 -201 99 -201 239c0 133 60 237 195 237c122 0 177 -92 177 -189c0 -20 -2 -48 -5 -67h-307c1 -99 40 -167 141 -167zM110 259h253c1 6 1 16 1 22c0 76 -40 133 -119 133c-94 0 -129 -67 -135 -155z
M159 569c-27 0 -48 14 -48 47s21 48 48 48c24 0 47 -15 47 -48s-23 -47 -47 -47zM335 569c-27 0 -47 14 -47 47s20 48 47 48c24 0 48 -15 48 -48s-24 -47 -48 -47z" />
    <glyph glyph-name="emacron" unicode="&#x113;" horiz-adv-x="470" 
d="M251 43c41 0 96 16 131 52l31 -41c-27 -33 -93 -64 -162 -64c-145 0 -201 99 -201 239c0 133 60 237 195 237c122 0 177 -92 177 -189c0 -20 -2 -48 -5 -67h-307c1 -99 40 -167 141 -167zM110 259h253c1 6 1 16 1 22c0 76 -40 133 -119 133c-94 0 -129 -67 -135 -155z
M112 635h272v-51h-272v51z" />
    <glyph glyph-name="ebreve" unicode="&#x115;" horiz-adv-x="470" 
d="M251 43c41 0 96 16 131 52l31 -41c-27 -33 -93 -64 -162 -64c-145 0 -201 99 -201 239c0 133 60 237 195 237c122 0 177 -92 177 -189c0 -20 -2 -48 -5 -67h-307c1 -99 40 -167 141 -167zM110 259h253c1 6 1 16 1 22c0 76 -40 133 -119 133c-94 0 -129 -67 -135 -155z
M328 681h47c0 -76 -51 -132 -130 -132c-78 0 -129 56 -129 132h45c2 -48 31 -84 84 -84s82 36 83 84z" />
    <glyph glyph-name="edotaccent" unicode="&#x117;" horiz-adv-x="470" 
d="M251 43c41 0 96 16 131 52l31 -41c-27 -33 -93 -64 -162 -64c-145 0 -201 99 -201 239c0 133 60 237 195 237c122 0 177 -92 177 -189c0 -20 -2 -48 -5 -67h-307c1 -99 40 -167 141 -167zM110 259h253c1 6 1 16 1 22c0 76 -40 133 -119 133c-94 0 -129 -67 -135 -155z
M250 569c-27 0 -48 14 -48 47s21 48 48 48c24 0 47 -15 47 -48s-23 -47 -47 -47z" />
    <glyph glyph-name="eogonek" unicode="&#x119;" horiz-adv-x="471" 
d="M251 43c41 0 96 16 131 52l31 -41l-9 -10l-87 -97c-26 -28 -37 -45 -37 -68c0 -21 15 -44 50 -44c20 0 42 11 61 25v-54c-16 -11 -39 -22 -73 -22c-62 0 -99 37 -99 87c0 38 21 65 53 97l23 26c-14 -2 -29 -4 -44 -4c-145 0 -201 99 -201 239c0 133 60 237 195 237
c122 0 177 -92 177 -189c0 -20 -2 -48 -5 -67h-307c1 -99 40 -167 141 -167zM110 259h253c1 6 1 16 1 22c0 76 -40 133 -119 133c-94 0 -129 -67 -135 -155z" />
    <glyph glyph-name="gcircumflex" unicode="&#x11d;" horiz-adv-x="510" 
d="M378 456h57v-494c0 -90 -69 -164 -183 -164c-115 0 -174 65 -174 131h57c0 -38 43 -80 117 -80c80 0 124 49 124 112v90c-26 -34 -72 -61 -131 -61c-138 0 -195 98 -195 238c0 143 60 238 195 238c65 0 106 -25 133 -58v48zM111 228c0 -101 31 -183 141 -183
c57 0 100 30 124 68v229c-18 30 -56 68 -124 68c-109 0 -141 -75 -141 -182zM228 696h61l102 -151h-57l-76 107l-75 -107h-57z" />
    <glyph glyph-name="gbreve" unicode="&#x11f;" horiz-adv-x="510" 
d="M378 456h57v-494c0 -90 -69 -164 -183 -164c-115 0 -174 65 -174 131h57c0 -38 43 -80 117 -80c80 0 124 49 124 112v90c-26 -34 -72 -61 -131 -61c-138 0 -195 98 -195 238c0 143 60 238 195 238c65 0 106 -25 133 -58v48zM111 228c0 -101 31 -183 141 -183
c57 0 100 30 124 68v229c-18 30 -56 68 -124 68c-109 0 -141 -75 -141 -182zM337 681h47c0 -76 -51 -132 -130 -132c-78 0 -129 56 -129 132h45c2 -48 31 -84 84 -84s82 36 83 84z" />
    <glyph glyph-name="gdotaccent" unicode="&#x121;" horiz-adv-x="510" 
d="M378 456h57v-494c0 -90 -69 -164 -183 -164c-115 0 -174 65 -174 131h57c0 -38 43 -80 117 -80c80 0 124 49 124 112v90c-26 -34 -72 -61 -131 -61c-138 0 -195 98 -195 238c0 143 60 238 195 238c65 0 106 -25 133 -58v48zM111 228c0 -101 31 -183 141 -183
c57 0 100 30 124 68v229c-18 30 -56 68 -124 68c-109 0 -141 -75 -141 -182zM257 569c-27 0 -48 14 -48 47s21 48 48 48c24 0 47 -15 47 -48s-23 -47 -47 -47z" />
    <glyph glyph-name="gcommaaccent" unicode="&#x123;" horiz-adv-x="510" 
d="M378 456h57v-494c0 -90 -69 -164 -183 -164c-115 0 -174 65 -174 131h57c0 -38 43 -80 117 -80c80 0 124 49 124 112v90c-26 -34 -72 -61 -131 -61c-138 0 -195 98 -195 238c0 143 60 238 195 238c65 0 106 -25 133 -58v48zM111 228c0 -101 31 -183 141 -183
c57 0 100 30 124 68v229c-18 30 -56 68 -124 68c-109 0 -141 -75 -141 -182zM223 554l49 170h48l-25 -170h-72z" />
    <glyph glyph-name="hcircumflex" unicode="&#x125;" horiz-adv-x="519" 
d="M75 0v690h59v-288c29 37 89 64 153 64c118 0 162 -60 162 -172v-294h-59v291c0 79 -27 119 -115 119c-63 0 -113 -26 -141 -62v-348h-59zM238 886h61l102 -151h-57l-76 107l-75 -107h-57z" />
    <glyph glyph-name="hbar" unicode="&#x127;" horiz-adv-x="520" 
d="M9 586h66v104h59v-104h116v-50h-116v-134c29 37 89 64 153 64c118 0 162 -60 162 -172v-294h-59v291c0 79 -27 119 -115 119c-63 0 -113 -26 -141 -62v-348h-59v536h-66v50z" />
    <glyph glyph-name="dotlessi" unicode="&#x131;" horiz-adv-x="209" 
d="M75 0v456h59v-456h-59z" />
    <glyph glyph-name="igrave" unicode="&#xec;" horiz-adv-x="209" 
d="M75 0v456h59v-456h-59zM-6 696h67l77 -151h-57z" />
    <glyph glyph-name="iacute" unicode="&#xed;" horiz-adv-x="209" 
d="M75 0v456h59v-456h-59zM148 696h67l-87 -151h-57z" />
    <glyph glyph-name="ibreve" unicode="&#x12d;" horiz-adv-x="209" 
d="M75 0v456h59v-456h-59zM187 681h47c0 -76 -51 -132 -130 -132c-78 0 -129 56 -129 132h45c2 -48 31 -84 84 -84s82 36 83 84z" />
    <glyph glyph-name="icircumflex" unicode="&#xee;" horiz-adv-x="209" 
d="M75 0v456h59v-456h-59zM75 696h61l102 -151h-57l-76 107l-75 -107h-57z" />
    <glyph glyph-name="itilde" unicode="&#x129;" horiz-adv-x="209" 
d="M75 0v456h59v-456h-59zM239 626l-8 -49c-17 15 -38 25 -59 25c-45 0 -80 -37 -136 -37c-28 0 -55 13 -66 26l8 48c14 -15 33 -25 58 -25c49 0 77 38 136 38c33 0 55 -16 67 -26z" />
    <glyph glyph-name="idieresis" unicode="&#xef;" horiz-adv-x="209" 
d="M75 0v456h59v-456h-59zM17 569c-27 0 -48 14 -48 47s21 48 48 48c24 0 47 -15 47 -48s-23 -47 -47 -47zM193 569c-27 0 -47 14 -47 47s20 48 47 48c24 0 48 -15 48 -48s-24 -47 -48 -47z" />
    <glyph glyph-name="imacron" unicode="&#x12b;" horiz-adv-x="209" 
d="M75 0v456h59v-456h-59zM-32 635h272v-51h-272v51z" />
    <glyph glyph-name="iogonek" unicode="&#x12f;" horiz-adv-x="209" 
d="M134 0l-77 -62c-22 -19 -34 -36 -34 -59c0 -21 16 -44 50 -44c21 0 42 11 61 25v-54c-16 -11 -38 -22 -73 -22c-62 0 -99 37 -99 87c0 39 21 67 50 90l63 51v444h59v-456zM104 579c-27 0 -47 14 -47 47s20 48 47 48c24 0 48 -15 48 -48s-24 -47 -48 -47z" />
    <glyph glyph-name="dotlessj" unicode="&#x237;" horiz-adv-x="209" 
d="M17 -226l-27 45c68 26 85 63 85 148v489h59v-482c0 -118 -36 -172 -117 -200z" />
    <glyph glyph-name="jcircumflex" unicode="&#x135;" horiz-adv-x="209" 
d="M75 696h61l102 -151h-57l-76 107l-75 -107h-57zM17 -226l-27 45c68 26 85 63 85 148v489h59v-482c0 -118 -36 -172 -117 -200z" />
    <glyph glyph-name="kcommaaccent" unicode="&#x137;" horiz-adv-x="461" 
d="M441 0h-70l-157 236l-80 -76v-160h-59v690h59v-457l233 223h78l-188 -179zM280 -70l-48 -146h-48l25 146h71z" />
    <glyph glyph-name="kgreenlandic" unicode="&#x138;" horiz-adv-x="462" 
d="M440 0h-70l-157 236l-80 -76v-160h-59v456h59v-223l233 223h78l-188 -179z" />
    <glyph glyph-name="lacute" unicode="&#x13a;" horiz-adv-x="223" 
d="M71 690h59v-570c0 -45 11 -66 49 -66h27v-55h-39c-72 0 -96 41 -96 116v575zM151 886h67l-87 -151h-57z" />
    <glyph glyph-name="lcaron" unicode="&#x13e;" horiz-adv-x="224" 
d="M71 690h59v-570c0 -45 11 -66 49 -66h27v-55h-39c-72 0 -96 41 -96 116v575zM290 690l-48 -146h-48l25 146h71z" />
    <glyph glyph-name="lcommaaccent" unicode="&#x13c;" horiz-adv-x="223" 
d="M71 690h59v-570c0 -45 11 -66 49 -66h27v-55h-39c-72 0 -96 41 -96 116v575zM177 -70l-48 -146h-48l25 146h71z" />
    <glyph glyph-name="lslash" unicode="&#x142;" horiz-adv-x="253" 
d="M228 378l-75 -32v-226c0 -45 11 -66 49 -66h27v-55h-39c-72 0 -96 41 -96 116v206l-68 -29v54l68 28v316h59v-291l75 32v-53z" />
    <glyph glyph-name="ldot" unicode="&#x140;" horiz-adv-x="346" 
d="M71 690h59v-570c0 -45 11 -66 49 -66h27v-55h-39c-72 0 -96 41 -96 116v575zM275 312c-31 0 -53 22 -53 52s22 52 53 52s53 -22 53 -52s-22 -52 -53 -52z" />
    <glyph glyph-name="nacute" unicode="&#x144;" horiz-adv-x="519" 
d="M74 0v456h58v-56c29 40 91 66 154 66c118 0 162 -60 162 -172v-294h-58v291c0 79 -28 119 -116 119c-63 0 -113 -26 -141 -62v-348h-59zM318 696h67l-87 -151h-57z" />
    <glyph glyph-name="ncaron" unicode="&#x148;" horiz-adv-x="519" 
d="M74 0v456h58v-56c29 40 91 66 154 66c118 0 162 -60 162 -172v-294h-58v291c0 79 -28 119 -116 119c-63 0 -113 -26 -141 -62v-348h-59zM295 545h-61l-102 151h57l76 -107l75 107h57z" />
    <glyph glyph-name="ntilde" unicode="&#xf1;" horiz-adv-x="519" 
d="M74 0v456h58v-56c29 40 91 66 154 66c118 0 162 -60 162 -172v-294h-58v291c0 79 -28 119 -116 119c-63 0 -113 -26 -141 -62v-348h-59zM399 626l-8 -49c-17 15 -38 25 -59 25c-45 0 -80 -37 -136 -37c-28 0 -55 13 -66 26l8 48c14 -15 33 -25 58 -25c49 0 77 38 136 38
c33 0 55 -16 67 -26z" />
    <glyph glyph-name="ncommaaccent" unicode="&#x146;" horiz-adv-x="519" 
d="M74 0v456h58v-56c29 40 91 66 154 66c118 0 162 -60 162 -172v-294h-58v291c0 79 -28 119 -116 119c-63 0 -113 -26 -141 -62v-348h-59zM297 -70l-48 -146h-48l25 146h71z" />
    <glyph glyph-name="napostrophe" unicode="&#x149;" horiz-adv-x="520" 
d="M75 0v456h58v-56c29 40 91 66 154 66c118 0 162 -60 162 -172v-294h-58v291c0 79 -28 119 -116 119c-63 0 -113 -26 -141 -62v-348h-59zM88 697l-48 -146h-48l25 146h71z" />
    <glyph glyph-name="ograve" unicode="&#xf2;" horiz-adv-x="501" 
d="M251 466c143 0 200 -102 200 -237c0 -138 -57 -239 -203 -239c-137 0 -198 101 -198 238c0 136 60 238 201 238zM249 45c103 0 142 74 142 183c0 110 -39 183 -141 183c-99 0 -139 -73 -139 -182c0 -110 40 -184 138 -184zM144 696h67l77 -151h-57z" />
    <glyph glyph-name="oacute" unicode="&#xf3;" horiz-adv-x="501" 
d="M251 466c143 0 200 -102 200 -237c0 -138 -57 -239 -203 -239c-137 0 -198 101 -198 238c0 136 60 238 201 238zM249 45c103 0 142 74 142 183c0 110 -39 183 -141 183c-99 0 -139 -73 -139 -182c0 -110 40 -184 138 -184zM293 696h67l-87 -151h-57z" />
    <glyph glyph-name="ocircumflex" unicode="&#xf4;" horiz-adv-x="501" 
d="M251 466c143 0 200 -102 200 -237c0 -138 -57 -239 -203 -239c-137 0 -198 101 -198 238c0 136 60 238 201 238zM249 45c103 0 142 74 142 183c0 110 -39 183 -141 183c-99 0 -139 -73 -139 -182c0 -110 40 -184 138 -184zM221 696h61l102 -151h-57l-76 107l-75 -107h-57
z" />
    <glyph glyph-name="otilde" unicode="&#xf5;" horiz-adv-x="501" 
d="M251 466c143 0 200 -102 200 -237c0 -138 -57 -239 -203 -239c-137 0 -198 101 -198 238c0 136 60 238 201 238zM249 45c103 0 142 74 142 183c0 110 -39 183 -141 183c-99 0 -139 -73 -139 -182c0 -110 40 -184 138 -184zM388 626l-8 -49c-17 15 -38 25 -59 25
c-45 0 -80 -37 -136 -37c-28 0 -55 13 -66 26l8 48c14 -15 33 -25 58 -25c49 0 77 38 136 38c33 0 55 -16 67 -26z" />
    <glyph glyph-name="odieresis" unicode="&#xf6;" horiz-adv-x="501" 
d="M251 466c143 0 200 -102 200 -237c0 -138 -57 -239 -203 -239c-137 0 -198 101 -198 238c0 136 60 238 201 238zM249 45c103 0 142 74 142 183c0 110 -39 183 -141 183c-99 0 -139 -73 -139 -182c0 -110 40 -184 138 -184zM164 569c-27 0 -48 14 -48 47s21 48 48 48
c24 0 47 -15 47 -48s-23 -47 -47 -47zM340 569c-27 0 -47 14 -47 47s20 48 47 48c24 0 48 -15 48 -48s-24 -47 -48 -47z" />
    <glyph glyph-name="omacron" unicode="&#x14d;" horiz-adv-x="501" 
d="M251 466c143 0 200 -102 200 -237c0 -138 -57 -239 -203 -239c-137 0 -198 101 -198 238c0 136 60 238 201 238zM249 45c103 0 142 74 142 183c0 110 -39 183 -141 183c-99 0 -139 -73 -139 -182c0 -110 40 -184 138 -184zM116 635h272v-51h-272v51z" />
    <glyph glyph-name="obreve" unicode="&#x14f;" horiz-adv-x="501" 
d="M251 466c143 0 200 -102 200 -237c0 -138 -57 -239 -203 -239c-137 0 -198 101 -198 238c0 136 60 238 201 238zM249 45c103 0 142 74 142 183c0 110 -39 183 -141 183c-99 0 -139 -73 -139 -182c0 -110 40 -184 138 -184zM334 681h47c0 -76 -51 -132 -130 -132
c-78 0 -129 56 -129 132h45c2 -48 31 -84 84 -84s82 36 83 84z" />
    <glyph glyph-name="ohungarumlaut" unicode="&#x151;" horiz-adv-x="501" 
d="M251 466c143 0 200 -102 200 -237c0 -138 -57 -239 -203 -239c-137 0 -198 101 -198 238c0 136 60 238 201 238zM249 45c103 0 142 74 142 183c0 110 -39 183 -141 183c-99 0 -139 -73 -139 -182c0 -110 40 -184 138 -184zM224 696h68l-87 -151h-58zM368 696h67l-87 -151
h-58z" />
    <glyph glyph-name="oslash" unicode="&#xf8;" horiz-adv-x="501" 
d="M251 466c52 0 93 -14 124 -38l21 28h57l-47 -61c31 -42 45 -100 45 -166c0 -138 -57 -239 -203 -239c-51 0 -92 14 -122 38l-22 -28h-54l45 60c-31 42 -45 101 -45 168c0 136 60 238 201 238zM249 45c103 0 142 74 142 183c0 46 -7 86 -23 117l-207 -270
c22 -20 50 -30 88 -30zM111 229c0 -47 7 -87 23 -118l205 271c-22 18 -51 29 -89 29c-99 0 -139 -73 -139 -182z" />
    <glyph glyph-name="oslashacute" unicode="&#x1ff;" horiz-adv-x="501" 
d="M251 466c52 0 93 -14 124 -38l21 28h57l-47 -61c31 -42 45 -100 45 -166c0 -138 -57 -239 -203 -239c-51 0 -92 14 -122 38l-22 -28h-54l45 60c-31 42 -45 101 -45 168c0 136 60 238 201 238zM249 45c103 0 142 74 142 183c0 46 -7 86 -23 117l-207 -270
c22 -20 50 -30 88 -30zM111 229c0 -47 7 -87 23 -118l205 271c-22 18 -51 29 -89 29c-99 0 -139 -73 -139 -182zM293 696h67l-87 -151h-57z" />
    <glyph glyph-name="oe" unicode="&#x153;" horiz-adv-x="812" 
d="M592 43c41 0 96 16 131 52l32 -41c-27 -33 -93 -64 -163 -64c-91 0 -145 40 -171 105c-28 -64 -81 -105 -173 -105c-137 0 -198 101 -198 238c0 136 60 238 201 238c90 0 144 -43 171 -107c26 65 79 107 165 107c122 0 177 -92 177 -189c0 -20 -2 -48 -6 -67h-307
c2 -99 41 -167 141 -167zM249 45c103 0 142 74 142 183c0 110 -39 183 -141 183c-99 0 -139 -73 -139 -182c0 -110 40 -184 138 -184zM452 259h252c1 6 2 16 2 22c0 76 -41 133 -119 133c-95 0 -130 -67 -135 -155z" />
    <glyph glyph-name="racute" unicode="&#x155;" horiz-adv-x="335" 
d="M132 379h1c24 48 61 87 130 87c20 0 41 -2 57 -7l-9 -63c-17 6 -39 9 -56 9c-63 0 -98 -44 -122 -102v-303h-59v456h58v-77zM217 696h67l-87 -151h-57z" />
    <glyph glyph-name="rcaron" unicode="&#x159;" horiz-adv-x="335" 
d="M132 379h1c24 48 61 87 130 87c20 0 41 -2 57 -7l-9 -63c-17 6 -39 9 -56 9c-63 0 -98 -44 -122 -102v-303h-59v456h58v-77zM218 545h-61l-102 151h57l76 -107l75 107h57z" />
    <glyph glyph-name="rcommaaccent" unicode="&#x157;" horiz-adv-x="335" 
d="M132 379h1c24 48 61 87 130 87c20 0 41 -2 57 -7l-9 -63c-17 6 -39 9 -56 9c-63 0 -98 -44 -122 -102v-303h-59v456h58v-77zM138 -70l-48 -146h-48l25 146h71z" />
    <glyph glyph-name="sacute" unicode="&#x15b;" horiz-adv-x="427" 
d="M373 403l-38 -38c-23 28 -61 51 -118 51c-73 0 -101 -38 -101 -82c0 -32 15 -57 63 -69l79 -18c81 -20 125 -58 125 -124c0 -77 -62 -133 -175 -133c-95 0 -142 42 -168 76l39 38c24 -31 51 -64 130 -64c66 0 113 26 113 80c0 41 -31 59 -80 72l-80 20
c-72 17 -107 61 -107 119c0 65 46 135 163 135c79 0 130 -33 155 -63zM271 696h67l-87 -151h-57z" />
    <glyph glyph-name="scircumflex" unicode="&#x15d;" horiz-adv-x="427" 
d="M373 403l-38 -38c-23 28 -61 51 -118 51c-73 0 -101 -38 -101 -82c0 -32 15 -57 63 -69l79 -18c81 -20 125 -58 125 -124c0 -77 -62 -133 -175 -133c-95 0 -142 42 -168 76l39 38c24 -31 51 -64 130 -64c66 0 113 26 113 80c0 41 -31 59 -80 72l-80 20
c-72 17 -107 61 -107 119c0 65 46 135 163 135c79 0 130 -33 155 -63zM189 696h61l102 -151h-57l-76 107l-75 -107h-57z" />
    <glyph glyph-name="scaron" unicode="&#x161;" horiz-adv-x="427" 
d="M373 403l-38 -38c-23 28 -61 51 -118 51c-73 0 -101 -38 -101 -82c0 -32 15 -57 63 -69l79 -18c81 -20 125 -58 125 -124c0 -77 -62 -133 -175 -133c-95 0 -142 42 -168 76l39 38c24 -31 51 -64 130 -64c66 0 113 26 113 80c0 41 -31 59 -80 72l-80 20
c-72 17 -107 61 -107 119c0 65 46 135 163 135c79 0 130 -33 155 -63zM252 545h-61l-102 151h57l76 -107l75 107h57z" />
    <glyph glyph-name="scedilla" unicode="&#x15f;" horiz-adv-x="427" 
d="M373 403l-38 -38c-23 28 -61 51 -118 51c-73 0 -101 -38 -101 -82c0 -32 15 -57 63 -69l79 -18c81 -20 125 -58 125 -124c0 -71 -53 -124 -149 -132l-18 -48c48 0 90 -21 90 -81c0 -38 -32 -78 -97 -78c-31 0 -59 11 -81 22v49c22 -16 50 -27 78 -27c31 0 46 16 46 34
c0 31 -25 39 -60 39h-31l-3 5l27 85c-80 6 -121 44 -145 75l39 38c24 -31 51 -64 130 -64c66 0 113 26 113 80c0 41 -31 59 -80 72l-80 20c-72 17 -107 61 -107 119c0 65 46 135 163 135c79 0 130 -33 155 -63z" />
    <glyph glyph-name="scommaaccent" unicode="&#x219;" horiz-adv-x="427" 
d="M373 403l-38 -38c-23 28 -61 51 -118 51c-73 0 -101 -38 -101 -82c0 -32 15 -57 63 -69l79 -18c81 -20 125 -58 125 -124c0 -77 -62 -133 -175 -133c-95 0 -142 42 -168 76l39 38c24 -31 51 -64 130 -64c66 0 113 26 113 80c0 41 -31 59 -80 72l-80 20
c-72 17 -107 61 -107 119c0 65 46 135 163 135c79 0 130 -33 155 -63zM256 -70l-48 -146h-48l25 146h71z" />
    <glyph glyph-name="germandbls" unicode="&#xdf;" horiz-adv-x="543" 
d="M74 0v497c0 110 40 203 168 203s173 -79 173 -158c0 -87 -94 -140 -94 -183c0 -27 28 -47 57 -64l40 -25c68 -41 90 -85 90 -140c0 -78 -60 -141 -165 -141c-36 0 -76 11 -108 28l20 50c23 -12 51 -25 85 -25c69 0 107 39 107 88c0 37 -14 66 -63 96l-45 28
c-46 31 -79 53 -79 102c0 59 94 108 94 183c0 71 -41 107 -113 107c-92 0 -108 -65 -108 -148v-498h-59z" />
    <glyph glyph-name="tcaron" unicode="&#x165;" horiz-adv-x="332" 
d="M168 403v-280c0 -46 18 -78 67 -78c22 0 47 8 67 18l11 -52c-23 -11 -55 -21 -91 -21c-78 0 -113 49 -113 128v285h-88v43l88 10v116l59 12v-128h132v-53h-132zM386 690l-48 -146h-48l25 146h71z" />
    <glyph glyph-name="tcommaaccent" unicode="&#x163;" horiz-adv-x="332" 
d="M168 403v-280c0 -46 18 -78 67 -78c22 0 47 8 67 18l11 -52c-23 -11 -53 -20 -88 -21l-18 -47c48 0 90 -21 90 -81c0 -38 -32 -78 -97 -78c-31 0 -59 11 -81 22v49c22 -16 50 -27 78 -27c31 0 46 16 46 34c0 31 -25 39 -60 39h-31l-3 5l29 90c-47 15 -69 59 -69 122v285
h-88v43l88 10v116l59 12v-128h132v-53h-132z" />
    <glyph glyph-name="uni021B" unicode="&#x21b;" horiz-adv-x="332" 
d="M168 403v-280c0 -46 18 -78 67 -78c22 0 47 8 67 18l11 -52c-23 -11 -55 -21 -91 -21c-78 0 -113 49 -113 128v285h-88v43l88 10v116l59 12v-128h132v-53h-132zM233 -70l-48 -146h-48l25 146h71z" />
    <glyph glyph-name="tbar" unicode="&#x167;" horiz-adv-x="338" 
d="M39 275h75v128h-88v43l88 10v116l59 12v-128h132v-53h-132v-128h107v-50h-107v-102c0 -46 18 -78 67 -78c22 0 47 8 67 18l11 -52c-23 -11 -55 -21 -91 -21c-78 0 -113 49 -113 128v107h-75v50z" />
    <glyph glyph-name="thorn" unicode="&#xfe;" horiz-adv-x="515" 
d="M134 46v-262h-59v892h59v-266c25 31 73 56 137 56c134 0 194 -95 194 -240c0 -143 -60 -236 -195 -236c-66 0 -111 25 -136 56zM404 226c0 104 -33 184 -142 184c-65 0 -108 -31 -128 -67v-231c18 -30 59 -67 127 -67c110 0 143 74 143 181z" />
    <glyph glyph-name="ugrave" unicode="&#xf9;" horiz-adv-x="519" 
d="M150 696h67l77 -151h-57zM445 456v-456h-58v56c-29 -40 -91 -66 -154 -66c-118 0 -162 60 -162 172v294h58v-291c0 -79 28 -119 116 -119c63 0 113 26 141 62v348h59z" />
    <glyph glyph-name="uacute" unicode="&#xfa;" horiz-adv-x="519" 
d="M305 696h67l-87 -151h-57zM445 456v-456h-58v56c-29 -40 -91 -66 -154 -66c-118 0 -162 60 -162 172v294h58v-291c0 -79 28 -119 116 -119c63 0 113 26 141 62v348h59z" />
    <glyph glyph-name="ucircumflex" unicode="&#xfb;" horiz-adv-x="519" 
d="M225 696h61l102 -151h-57l-76 107l-75 -107h-57zM445 456v-456h-58v56c-29 -40 -91 -66 -154 -66c-118 0 -162 60 -162 172v294h58v-291c0 -79 28 -119 116 -119c63 0 113 26 141 62v348h59z" />
    <glyph glyph-name="utilde" unicode="&#x169;" horiz-adv-x="519" 
d="M393 626l-8 -49c-17 15 -38 25 -59 25c-45 0 -80 -37 -136 -37c-28 0 -55 13 -66 26l8 48c14 -15 33 -25 58 -25c49 0 77 38 136 38c33 0 55 -16 67 -26zM445 456v-456h-58v56c-29 -40 -91 -66 -154 -66c-118 0 -162 60 -162 172v294h58v-291c0 -79 28 -119 116 -119
c63 0 113 26 141 62v348h59z" />
    <glyph glyph-name="udieresis" unicode="&#xfc;" horiz-adv-x="519" 
d="M171 569c-27 0 -48 14 -48 47s21 48 48 48c24 0 47 -15 47 -48s-23 -47 -47 -47zM347 569c-27 0 -47 14 -47 47s20 48 47 48c24 0 48 -15 48 -48s-24 -47 -48 -47zM445 456v-456h-58v56c-29 -40 -91 -66 -154 -66c-118 0 -162 60 -162 172v294h58v-291
c0 -79 28 -119 116 -119c63 0 113 26 141 62v348h59z" />
    <glyph glyph-name="umacron" unicode="&#x16b;" horiz-adv-x="519" 
d="M123 635h272v-51h-272v51zM445 456v-456h-58v56c-29 -40 -91 -66 -154 -66c-118 0 -162 60 -162 172v294h58v-291c0 -79 28 -119 116 -119c63 0 113 26 141 62v348h59z" />
    <glyph glyph-name="ubreve" unicode="&#x16d;" horiz-adv-x="519" 
d="M344 681h47c0 -76 -51 -132 -130 -132c-78 0 -129 56 -129 132h45c2 -48 31 -84 84 -84s82 36 83 84zM445 456v-456h-58v56c-29 -40 -91 -66 -154 -66c-118 0 -162 60 -162 172v294h58v-291c0 -79 28 -119 116 -119c63 0 113 26 141 62v348h59z" />
    <glyph glyph-name="uring" unicode="&#x16f;" horiz-adv-x="519" 
d="M156 624c0 53 39 92 101 92c63 0 102 -39 102 -92s-39 -93 -102 -93c-62 0 -101 40 -101 93zM201 624c0 -32 21 -54 56 -54s57 22 57 54s-22 53 -57 53s-56 -21 -56 -53zM445 456v-456h-58v56c-29 -40 -91 -66 -154 -66c-118 0 -162 60 -162 172v294h58v-291
c0 -79 28 -119 116 -119c63 0 113 26 141 62v348h59z" />
    <glyph glyph-name="uhungarumlaut" unicode="&#x171;" horiz-adv-x="519" 
d="M445 456v-456h-58v56c-29 -40 -91 -66 -154 -66c-118 0 -162 60 -162 172v294h58v-291c0 -79 28 -119 116 -119c63 0 113 26 141 62v348h59zM230 696h68l-87 -151h-58zM374 696h67l-87 -151h-58z" />
    <glyph glyph-name="uogonek" unicode="&#x173;" horiz-adv-x="519" 
d="M445 456v-456h-1l-77 -62c-22 -19 -34 -36 -34 -59c0 -21 16 -44 50 -44c21 0 42 11 61 25v-54c-16 -11 -38 -22 -73 -22c-62 0 -99 37 -99 87c0 39 21 67 50 90l65 52v43c-29 -40 -91 -66 -154 -66c-118 0 -162 60 -162 172v294h58v-291c0 -79 28 -119 116 -119
c63 0 113 26 141 62v348h59z" />
    <glyph glyph-name="wacute" unicode="&#x1e83;" horiz-adv-x="751" 
d="M345 456h62l127 -389l125 389h65l-153 -456h-68l-127 380l-128 -380h-67l-153 456h65l124 -389zM420 696h67l-87 -151h-57z" />
    <glyph glyph-name="wcircumflex" unicode="&#x175;" horiz-adv-x="751" 
d="M345 456h62l127 -389l125 389h65l-153 -456h-68l-127 380l-128 -380h-67l-153 456h65l124 -389zM346 696h61l102 -151h-57l-76 107l-75 -107h-57z" />
    <glyph glyph-name="wdieresis" unicode="&#x1e85;" horiz-adv-x="751" 
d="M345 456h62l127 -389l125 389h65l-153 -456h-68l-127 380l-128 -380h-67l-153 456h65l124 -389zM288 569c-27 0 -48 14 -48 47s21 48 48 48c24 0 47 -15 47 -48s-23 -47 -47 -47zM464 569c-27 0 -47 14 -47 47s20 48 47 48c24 0 48 -15 48 -48s-24 -47 -48 -47z" />
    <glyph glyph-name="wgrave" unicode="&#x1e81;" horiz-adv-x="751" 
d="M345 456h62l127 -389l125 389h65l-153 -456h-68l-127 380l-128 -380h-67l-153 456h65l124 -389zM264 696h67l77 -151h-57z" />
    <glyph glyph-name="yacute" unicode="&#xfd;" horiz-adv-x="476" 
d="M88 456l158 -351l142 351h67l-283 -672h-64l107 249l-195 423h68zM293 696h67l-87 -151h-57z" />
    <glyph glyph-name="ycircumflex" unicode="&#x177;" horiz-adv-x="476" 
d="M88 456l158 -351l142 351h67l-283 -672h-64l107 249l-195 423h68zM214 696h61l102 -151h-57l-76 107l-75 -107h-57z" />
    <glyph glyph-name="ydieresis" unicode="&#xff;" horiz-adv-x="476" 
d="M88 456l158 -351l142 351h67l-283 -672h-64l107 249l-195 423h68zM156 569c-27 0 -48 14 -48 47s21 48 48 48c24 0 47 -15 47 -48s-23 -47 -47 -47zM332 569c-27 0 -47 14 -47 47s20 48 47 48c24 0 48 -15 48 -48s-24 -47 -48 -47z" />
    <glyph glyph-name="ygrave" unicode="&#x1ef3;" horiz-adv-x="476" 
d="M88 456l158 -351l142 351h67l-283 -672h-64l107 249l-195 423h68zM138 696h67l77 -151h-57z" />
    <glyph glyph-name="zacute" unicode="&#x17a;" horiz-adv-x="407" 
d="M359 456v-45l-244 -358h249v-53h-324v45l245 358h-233v53h307zM256 696h67l-87 -151h-57z" />
    <glyph glyph-name="zcaron" unicode="&#x17e;" horiz-adv-x="407" 
d="M359 456v-45l-244 -358h249v-53h-324v45l245 358h-233v53h307zM239 545h-61l-102 151h57l76 -107l75 107h57z" />
    <glyph glyph-name="zdotaccent" unicode="&#x17c;" horiz-adv-x="407" 
d="M359 456v-45l-244 -358h249v-53h-324v45l245 358h-233v53h307zM215 569c-27 0 -48 14 -48 47s21 48 48 48c24 0 47 -15 47 -48s-23 -47 -47 -47z" />
    <glyph glyph-name="IJ" unicode="&#x132;" horiz-adv-x="731" 
d="M89 0v676h63v-676h-63zM270 88l48 32c30 -53 66 -73 124 -73c89 0 144 48 144 192v437h61v-436c0 -180 -83 -250 -205 -250c-84 0 -140 40 -172 98z" />
    <glyph glyph-name="ij" unicode="&#x133;" horiz-adv-x="417" 
d="M74 0v456h59v-456h-59zM103 579c-27 0 -47 14 -47 47s20 48 47 48c24 0 48 -15 48 -48s-24 -47 -48 -47zM226 -226l-28 45c69 26 85 63 85 148v489h59v-482c0 -118 -36 -172 -116 -200zM312 579c-27 0 -48 14 -48 47s21 48 48 48c24 0 47 -15 47 -48s-23 -47 -47 -47z
" />
    <glyph glyph-name="acute" unicode="&#xb4;" horiz-adv-x="600" 
d="M305 696h67l-87 -151h-57z" />
    <glyph glyph-name="circumflex" unicode="&#x2c6;" horiz-adv-x="600" 
d="M269 696h61l102 -151h-57l-76 107l-75 -107h-57z" />
    <glyph glyph-name="caron" unicode="&#x2c7;" horiz-adv-x="600" 
d="M330 545h-61l-102 151h57l76 -107l75 107h57z" />
    <glyph glyph-name="tilde" unicode="&#x2dc;" horiz-adv-x="600" 
d="M434 626l-8 -49c-17 15 -38 25 -59 25c-45 0 -80 -37 -136 -37c-28 0 -55 13 -66 26l8 48c14 -15 33 -25 58 -25c49 0 77 38 136 38c33 0 55 -16 67 -26z" />
    <glyph glyph-name="dieresis" unicode="&#xa8;" horiz-adv-x="600" 
d="M212 569c-27 0 -48 14 -48 47s21 48 48 48c24 0 47 -15 47 -48s-23 -47 -47 -47zM388 569c-27 0 -47 14 -47 47s20 48 47 48c24 0 48 -15 48 -48s-24 -47 -48 -47z" />
    <glyph glyph-name="macron" unicode="&#xaf;" horiz-adv-x="600" 
d="M164 635h272v-51h-272v51z" />
    <glyph glyph-name="breve" unicode="&#x2d8;" horiz-adv-x="600" 
d="M382 681h47c0 -76 -51 -132 -130 -132c-78 0 -129 56 -129 132h45c2 -48 31 -84 84 -84s82 36 83 84z" />
    <glyph glyph-name="ring" unicode="&#x2da;" horiz-adv-x="600" 
d="M198 624c0 53 39 92 101 92c63 0 102 -39 102 -92s-39 -93 -102 -93c-62 0 -101 40 -101 93zM243 624c0 -32 21 -54 56 -54s57 22 57 54s-22 53 -57 53s-56 -21 -56 -53z" />
    <glyph glyph-name="hungarumlaut" unicode="&#x2dd;" horiz-adv-x="600" 
d="M233 696h68l-87 -151h-58zM377 696h67l-87 -151h-58z" />
    <glyph glyph-name="dotaccent" unicode="&#x2d9;" horiz-adv-x="600" 
d="M300 569c-27 0 -48 14 -48 47s21 48 48 48c24 0 47 -15 47 -48s-23 -47 -47 -47z" />
    <glyph glyph-name="cedilla" unicode="&#xb8;" horiz-adv-x="600" 
d="M282 4l48 -4l-22 -57c48 0 90 -21 90 -81c0 -38 -32 -78 -97 -78c-31 0 -59 11 -81 22v49c22 -16 50 -27 78 -27c31 0 46 16 46 34c0 31 -25 39 -60 39h-31l-3 5z" />
    <glyph glyph-name="ogonek" unicode="&#x2db;" horiz-adv-x="600" 
d="M382 0l-77 -62c-22 -19 -34 -36 -34 -59c0 -21 16 -44 50 -44c21 0 42 11 61 25v-54c-16 -11 -38 -22 -73 -22c-62 0 -99 37 -99 87c0 39 21 67 50 90l68 55z" />
    <glyph glyph-name="commaaccent" unicode="&#xf6c3;" horiz-adv-x="600" 
d="M348 -70l-48 -146h-48l25 146h71z" />
    <glyph glyph-name="ellipsis" unicode="&#x2026;" horiz-adv-x="581" 
d="M111 -7c-29 0 -51 22 -51 51s22 50 51 50c30 0 52 -21 52 -50s-22 -51 -52 -51zM469 -7c-30 0 -52 22 -52 51s22 50 52 50s52 -21 52 -50s-22 -51 -52 -51zM291 -7c-29 0 -51 22 -51 51s22 50 51 50c30 0 52 -21 52 -50s-22 -51 -52 -51z" />
    <glyph glyph-name="uni00AD" unicode="&#xad;" horiz-adv-x="383" 
d="M69 296h245v-53h-245v53z" />
    <glyph glyph-name="exclamdown" unicode="&#xa1;" horiz-adv-x="214" 
d="M83 254h49l11 -471h-73zM106 466c30 0 52 -22 52 -50c0 -29 -22 -51 -52 -51s-52 22 -52 51c0 28 22 50 52 50z" />
    <glyph glyph-name="questiondown" unicode="&#xbf;" horiz-adv-x="438" 
d="M230 467c30 0 52 -22 52 -51s-22 -50 -52 -50s-52 21 -52 50s22 51 52 51zM229 -226c-120 0 -189 74 -189 166c0 140 158 172 158 314h61c0 -157 -157 -200 -157 -311c0 -56 42 -111 123 -111c67 0 116 38 116 101l61 -3c0 -87 -56 -156 -173 -156z" />
    <glyph glyph-name="quoteleft" unicode="&#x2018;" horiz-adv-x="205" 
d="M55 467l48 209h48l-25 -209h-71z" />
    <glyph glyph-name="quoteright" unicode="&#x2019;" horiz-adv-x="201" 
d="M157 676l-48 -209h-48l25 209h71z" />
    <glyph glyph-name="quotedblleft" unicode="&#x201c;" horiz-adv-x="326" 
d="M176 467l48 209h48l-25 -209h-71zM55 467l48 209h48l-25 -209h-71z" />
    <glyph glyph-name="quotedblright" unicode="&#x201d;" horiz-adv-x="322" 
d="M157 676l-48 -209h-48l25 209h71zM278 676l-48 -209h-48l25 209h71z" />
    <glyph glyph-name="quotesinglbase" unicode="&#x201a;" horiz-adv-x="213" 
d="M146 95l-48 -208h-48l25 208h71z" />
    <glyph glyph-name="quotedblbase" unicode="&#x201e;" horiz-adv-x="334" 
d="M146 95l-48 -209h-48l25 209h71zM267 95l-48 -209h-48l25 209h71z" />
    <glyph glyph-name="guilsinglleft" unicode="&#x2039;" horiz-adv-x="295" 
d="M33 270l170 208l40 -30l-135 -178l136 -178l-41 -30z" />
    <glyph glyph-name="guilsinglright" unicode="&#x203a;" horiz-adv-x="295" 
d="M91 478l170 -208l-170 -208l-40 30l136 178l-136 178z" />
    <glyph glyph-name="guillemotleft" unicode="&#xab;" horiz-adv-x="472" 
d="M33 270l170 208l40 -30l-135 -178l136 -178l-41 -30zM210 270l170 208l40 -30l-135 -178l136 -178l-41 -30z" />
    <glyph glyph-name="guillemotright" unicode="&#xbb;" horiz-adv-x="472" 
d="M268 478l170 -208l-170 -208l-40 30l136 178l-136 178zM91 478l170 -208l-170 -208l-40 30l136 178l-136 178z" />
    <glyph glyph-name="endash" unicode="&#x2013;" horiz-adv-x="583" 
d="M69 296h446v-53h-446v53z" />
    <glyph glyph-name="emdash" unicode="&#x2014;" horiz-adv-x="723" 
d="M69 296h586v-53h-586v53z" />
    <glyph glyph-name="bullet" unicode="&#x2022;" horiz-adv-x="373" 
d="M187 172c-58 0 -101 41 -101 97c0 57 43 98 101 98c59 0 100 -41 100 -98c0 -56 -41 -97 -100 -97z" />
    <glyph glyph-name="periodcentered" unicode="&#xb7;" horiz-adv-x="239" 
d="M119 218c-31 0 -53 22 -53 52s22 52 53 52s53 -22 53 -52s-22 -52 -53 -52z" />
    <glyph glyph-name="uni2219" unicode="&#x2219;" horiz-adv-x="239" 
d="M119 218c-31 0 -53 22 -53 52s22 52 53 52s53 -22 53 -52s-22 -52 -53 -52z" />
    <glyph glyph-name="dagger" unicode="&#x2020;" horiz-adv-x="421" 
d="M33 292h155v398h48v-398h154v-46h-154v-462h-48v462h-155v46z" />
    <glyph glyph-name="daggerdbl" unicode="&#x2021;" horiz-adv-x="480" 
d="M62 449h154v241h48v-241h155v-46h-155v-328h155v-46h-155v-245h-48v245h-154v46h154v328h-154v46z" />
    <glyph glyph-name="section" unicode="&#xa7;" horiz-adv-x="556" 
d="M495 262c0 -51 -34 -96 -81 -126c48 -26 77 -58 77 -109c0 -83 -81 -142 -216 -142c-113 0 -185 43 -226 99l41 40c36 -48 96 -86 186 -86c82 0 151 25 151 85c0 45 -55 68 -112 91l-113 45c-75 29 -132 70 -132 143c0 49 31 97 77 126c-44 26 -73 63 -73 113
c0 70 70 145 207 145c74 0 159 -18 213 -97l-43 -38c-53 67 -118 81 -173 81c-79 0 -141 -35 -141 -86s59 -76 128 -102l79 -29c91 -34 151 -72 151 -153zM199 404c-41 -20 -67 -60 -67 -96c0 -47 40 -75 105 -100l124 -48c34 19 71 53 71 97c0 56 -52 81 -117 104z" />
    <glyph glyph-name="paragraph" unicode="&#xb6;" horiz-adv-x="485" 
d="M195 456h101v-514h-56v226c-143 0 -204 38 -204 145c0 84 48 143 159 143zM302 -226l-26 44c63 25 83 58 83 146v492h57v-485c0 -94 -18 -165 -114 -197z" />
    <glyph glyph-name="brokenbar" unicode="&#xa6;" horiz-adv-x="202" 
d="M125 306h-48v384h48v-384zM77 170h48v-386h-48v386z" />
    <glyph glyph-name="copyright" unicode="&#xa9;" horiz-adv-x="808" 
d="M57 338c0 214 150 353 348 353c197 0 346 -139 346 -353s-149 -355 -346 -355c-198 0 -348 141 -348 355zM110 338c0 -187 124 -304 295 -304c170 0 293 117 293 304s-123 302 -293 302c-171 0 -295 -115 -295 -302zM277 335c0 -93 36 -157 123 -157c48 0 82 19 109 56
l40 -34c-38 -49 -81 -74 -150 -74c-112 0 -179 81 -179 209s72 209 181 209c67 0 111 -31 143 -65l-38 -35c-28 29 -56 48 -104 48c-86 0 -125 -64 -125 -157z" />
    <glyph glyph-name="uni2117" unicode="&#x2117;" horiz-adv-x="808" 
d="M57 338c0 214 150 353 348 353c197 0 346 -139 346 -353s-149 -355 -346 -355c-198 0 -348 141 -348 355zM110 338c0 -187 124 -304 295 -304c170 0 293 117 293 304s-123 302 -293 302c-171 0 -295 -115 -295 -302zM278 539h143c101 0 147 -52 147 -125
c0 -72 -46 -124 -147 -124h-92v-159h-51v408zM515 414c0 45 -24 81 -93 81h-93v-160h93c69 0 93 35 93 79z" />
    <glyph glyph-name="registered" unicode="&#xae;" horiz-adv-x="808" 
d="M502 424c0 37 -22 73 -93 73h-95v-148h90c73 0 98 41 98 75zM262 131v409h144c101 0 147 -41 147 -115c0 -62 -43 -105 -118 -114l131 -180h-62l-124 175h-66v-175h-52zM57 338c0 214 150 353 348 353c197 0 346 -139 346 -353s-149 -355 -346 -355
c-198 0 -348 141 -348 355zM110 338c0 -187 124 -304 295 -304c170 0 293 117 293 304s-123 302 -293 302c-171 0 -295 -115 -295 -302z" />
    <glyph glyph-name="trademark" unicode="&#x2122;" horiz-adv-x="647" 
d="M58 607h194v-33h-78v-204h-40v204h-76v33zM435 415l58 192h54l30 -237h-39l-21 194l-61 -194h-43l-58 192l-24 -192h-38l31 237h56z" />
    <glyph glyph-name="currency" unicode="&#xa4;" horiz-adv-x="529" 
d="M391 356c10 -22 15 -49 15 -79c0 -32 -5 -61 -16 -84l79 -81l-42 -42l-79 76c-21 -16 -50 -25 -86 -25c-35 0 -66 9 -87 24l-72 -72l-42 41l76 76c-13 24 -18 54 -18 86c0 30 5 57 17 80l-77 79l42 42l73 -74c22 17 53 27 89 27c38 0 70 -10 91 -28l74 73l40 -40z
M262 176c63 0 89 40 89 100s-25 100 -88 100s-89 -40 -89 -99c0 -61 25 -101 88 -101z" />
    <glyph glyph-name="Euro" unicode="&#x20ac;" horiz-adv-x="581" 
d="M48 427h55c20 157 99 259 250 259c67 0 123 -18 172 -44l-23 -56c-42 25 -88 42 -150 42c-113 0 -169 -83 -184 -201h269l-21 -48h-253c-1 -13 -1 -27 -1 -39c0 -17 1 -34 2 -50h219l-20 -48h-194c18 -112 71 -195 186 -195c48 0 107 15 160 51l17 -58
c-53 -31 -111 -51 -179 -51c-153 0 -229 96 -249 253h-56v48h51c-1 16 -1 33 -1 50c0 12 0 26 1 39h-51v48z" />
    <glyph glyph-name="cent" unicode="&#xa2;" horiz-adv-x="478" 
d="M58 227c0 136 61 239 198 239c10 0 20 -1 30 -2l19 76l44 -10l-19 -76c39 -14 69 -39 90 -76l-45 -31c-15 26 -34 43 -58 54l-86 -355c9 -1 18 -2 28 -2c52 0 91 20 116 64l45 -31c-32 -56 -89 -87 -164 -87c-13 0 -26 1 -38 3l-14 -61l-43 10l15 62
c-81 32 -118 116 -118 223zM119 227c0 -77 20 -139 70 -167l85 351c-5 1 -10 1 -15 1c-102 0 -140 -79 -140 -185z" />
    <glyph glyph-name="sterling" unicode="&#xa3;" horiz-adv-x="558" 
d="M41 323h68v123c0 132 57 240 205 240c91 0 158 -35 202 -90l-43 -41c-44 55 -94 73 -157 73c-109 0 -145 -82 -145 -185v-120h204v-48h-204v-221h309v-54h-370l-1 275h-68v48z" />
    <glyph glyph-name="florin" unicode="&#x192;" horiz-adv-x="341" 
d="M194 401v-471c0 -84 -34 -156 -131 -156c-23 0 -44 4 -56 7v57c17 -5 33 -8 50 -8c61 0 77 41 77 106v465h-101v54h101v89c0 84 33 156 132 156c22 0 42 -4 54 -7v-57c-17 5 -32 8 -50 8c-60 0 -76 -40 -76 -106v-83h110v-54h-110z" />
    <glyph glyph-name="yen" unicode="&#xa5;" horiz-adv-x="578" 
d="M84 291h165l-49 89h-116v48h89l-141 248h70l186 -340l189 340h71l-145 -248h88v-48h-116l-51 -89h167v-48h-174v-243h-62v243h-171v48z" />
    <glyph glyph-name="rupee" unicode="&#x20a8;" horiz-adv-x="524" 
d="M63 676h411v-48h-128c35 -27 54 -71 58 -119h70v-48h-70c-8 -89 -72 -154 -175 -165l192 -296h-74l-187 291h-97v54h107c110 0 158 44 168 116h-275v48h276c-11 69 -50 113 -154 113h-122v54z" />
    <glyph glyph-name="ordfeminine" unicode="&#xaa;" horiz-adv-x="361" 
d="M291 350h-49v33c-21 -21 -52 -40 -95 -40c-62 0 -92 30 -92 79c0 57 53 85 136 94l50 6v28c0 32 -16 48 -59 48c-46 0 -61 -12 -61 -30v-19h-48c-1 9 -1 13 -1 21c0 39 37 69 111 69c72 0 108 -33 108 -88v-201zM106 424c0 -27 19 -40 48 -40c37 0 66 17 87 43v58l-46 -6
c-56 -7 -89 -23 -89 -55z" />
    <glyph glyph-name="ordmasculine" unicode="&#xba;" horiz-adv-x="373" 
d="M187 639c93 0 134 -65 134 -147c0 -85 -41 -149 -135 -149c-91 0 -134 65 -134 149c0 82 43 147 135 147zM186 386c59 0 84 44 84 106c0 61 -24 104 -83 104s-83 -43 -83 -104c0 -62 23 -106 82 -106z" />
    <glyph glyph-name="onesuperior" unicode="&#xb9;" horiz-adv-x="226" 
d="M172 443h-49v297l-103 -38l-13 39l121 45h44v-343z" />
    <glyph glyph-name="twosuperior" unicode="&#xb2;" horiz-adv-x="303" 
d="M147 792c71 0 115 -42 115 -100c0 -49 -33 -86 -75 -126l-86 -81h168v-41h-235v35l120 116c36 34 57 63 57 97s-23 60 -64 60c-44 0 -65 -26 -65 -65h-49c0 62 38 105 114 105z" />
    <glyph glyph-name="threesuperior" unicode="&#xb3;" horiz-adv-x="317" 
d="M205 619c38 -6 74 -36 74 -85c0 -56 -48 -97 -125 -97c-85 0 -123 42 -123 92h49c0 -29 26 -50 74 -50c46 0 75 23 75 57c0 39 -33 62 -86 62h-33v41h33c47 0 80 20 80 56c0 33 -26 56 -69 56c-46 0 -68 -23 -68 -51h-51c0 49 37 91 119 91c74 0 120 -39 120 -94
c0 -42 -32 -70 -69 -78z" />
    <glyph glyph-name="fraction" unicode="&#x2044;" horiz-adv-x="168" 
d="M317 676l-409 -676h-56l407 676h58z" />
    <glyph glyph-name="uni2215" unicode="&#x2215;" horiz-adv-x="464" 
d="M465 676l-409 -676h-56l407 676h58z" />
    <glyph glyph-name="onehalf" unicode="&#xbd;" horiz-adv-x="715" 
d="M574 676l-409 -676h-56l407 676h58zM543 348c71 0 115 -42 115 -100c0 -49 -33 -86 -75 -126l-86 -81h168v-41h-235v35l120 116c36 34 57 63 57 97s-23 60 -64 60c-44 0 -65 -26 -65 -65h-49c0 62 38 105 114 105zM199 331h-49v297l-103 -38l-13 39l121 45h44v-343z" />
    <glyph glyph-name="onethird" unicode="&#x2153;" horiz-adv-x="726" 
d="M601 176c38 -6 74 -36 74 -85c0 -56 -48 -97 -125 -97c-85 0 -123 42 -123 92h49c0 -29 26 -50 74 -50c46 0 75 23 75 57c0 39 -33 62 -86 62h-33v41h33c47 0 80 20 80 56c0 33 -26 56 -69 56c-46 0 -68 -23 -68 -51h-51c0 49 37 91 119 91c74 0 120 -39 120 -94
c0 -42 -32 -70 -69 -78zM575 676l-409 -676h-56l407 676h58zM200 331h-49v297l-103 -38l-13 39l121 45h44v-343z" />
    <glyph glyph-name="onequarter" unicode="&#xbc;" horiz-adv-x="691" 
d="M647 113v-41h-53v-72h-50v72h-180v38l179 233h51v-230h53zM417 113h127v164zM574 676l-409 -676h-56l407 676h58zM199 331h-49v297l-103 -38l-13 39l121 45h44v-343z" />
    <glyph glyph-name="oneeighth" unicode="&#x215b;" horiz-adv-x="732" 
d="M552 -6c-78 0 -131 36 -131 99c0 48 30 74 68 84c-37 12 -61 34 -61 76c0 59 48 95 124 95s122 -36 122 -95c0 -42 -24 -64 -61 -76c38 -10 69 -35 69 -84c0 -63 -52 -99 -130 -99zM551 157c-46 0 -80 -24 -80 -61c0 -39 34 -60 81 -60c46 0 79 21 79 60
c0 37 -33 61 -80 61zM551 308c-43 0 -72 -20 -72 -57c0 -35 31 -54 72 -54s73 19 73 54c0 37 -28 57 -73 57zM575 676l-409 -676h-56l407 676h58zM200 331h-49v297l-103 -38l-13 39l121 45h44v-343z" />
    <glyph glyph-name="twothirds" unicode="&#x2154;" horiz-adv-x="778" 
d="M169 679c71 0 115 -42 115 -100c0 -49 -33 -86 -75 -126l-86 -81h168v-41h-235v35l120 116c36 34 57 63 57 97s-23 60 -64 60c-44 0 -65 -26 -65 -65h-49c0 62 38 105 114 105zM654 176c38 -6 74 -36 74 -85c0 -56 -48 -97 -125 -97c-85 0 -123 42 -123 92h49
c0 -29 26 -50 74 -50c46 0 75 23 75 57c0 39 -33 62 -86 62h-33v41h33c47 0 80 20 80 56c0 33 -26 56 -69 56c-46 0 -68 -23 -68 -51h-51c0 49 37 91 119 91c74 0 120 -39 120 -94c0 -42 -32 -70 -69 -78zM628 676l-409 -676h-56l407 676h58z" />
    <glyph glyph-name="threequarters" unicode="&#xbe;" horiz-adv-x="735" 
d="M224 507c38 -6 74 -36 74 -85c0 -56 -48 -97 -125 -97c-85 0 -123 42 -123 92h49c0 -29 26 -50 74 -50c46 0 75 23 75 57c0 39 -33 62 -86 62h-33v41h33c47 0 80 20 80 56c0 33 -26 56 -69 56c-46 0 -68 -23 -68 -51h-51c0 49 37 91 119 91c74 0 120 -39 120 -94
c0 -42 -32 -70 -69 -78zM620 676l-409 -676h-56l407 676h58zM693 113v-41h-53v-72h-50v72h-180v38l179 233h51v-230h53zM463 113h127v164z" />
    <glyph glyph-name="threeeighths" unicode="&#x215c;" horiz-adv-x="776" 
d="M224 507c38 -6 74 -36 74 -85c0 -56 -48 -97 -125 -97c-85 0 -123 42 -123 92h49c0 -29 26 -50 74 -50c46 0 75 23 75 57c0 39 -33 62 -86 62h-33v41h33c47 0 80 20 80 56c0 33 -26 56 -69 56c-46 0 -68 -23 -68 -51h-51c0 49 37 91 119 91c74 0 120 -39 120 -94
c0 -42 -32 -70 -69 -78zM620 676l-409 -676h-56l407 676h58zM598 -6c-78 0 -131 36 -131 99c0 48 30 74 68 84c-37 12 -61 34 -61 76c0 59 48 95 124 95s122 -36 122 -95c0 -42 -24 -64 -61 -76c38 -10 69 -35 69 -84c0 -63 -52 -99 -130 -99zM597 157
c-46 0 -80 -24 -80 -61c0 -39 34 -60 81 -60c46 0 79 21 79 60c0 37 -33 61 -80 61zM597 308c-43 0 -72 -20 -72 -57c0 -35 31 -54 72 -54s73 19 73 54c0 37 -28 57 -73 57z" />
    <glyph glyph-name="fiveeighths" unicode="&#x215d;" horiz-adv-x="764" 
d="M290 442c0 -65 -42 -117 -125 -117c-87 0 -122 45 -122 98h50c0 -32 22 -56 72 -56s75 33 75 75c0 39 -27 67 -73 67c-26 0 -49 -9 -66 -20l-41 4l24 181h194v-41h-154l-14 -99c13 6 38 17 65 17c65 0 115 -36 115 -109zM608 676l-409 -676h-56l407 676h58zM585 -6
c-78 0 -131 36 -131 99c0 48 30 74 68 84c-37 12 -61 34 -61 76c0 59 48 95 124 95s122 -36 122 -95c0 -42 -24 -64 -61 -76c38 -10 69 -35 69 -84c0 -63 -52 -99 -130 -99zM584 157c-46 0 -80 -24 -80 -61c0 -39 34 -60 81 -60c46 0 79 21 79 60c0 37 -33 61 -80 61z
M584 308c-43 0 -72 -20 -72 -57c0 -35 31 -54 72 -54s73 19 73 54c0 37 -28 57 -73 57z" />
    <glyph glyph-name="seveneighths" unicode="&#x215e;" horiz-adv-x="690" 
d="M88 331l138 302h-178v41h232v-35l-138 -308h-54zM511 -6c-78 0 -131 36 -131 99c0 48 30 74 68 84c-37 12 -61 34 -61 76c0 59 48 95 124 95s122 -36 122 -95c0 -42 -24 -64 -61 -76c38 -10 69 -35 69 -84c0 -63 -52 -99 -130 -99zM510 157c-46 0 -80 -24 -80 -61
c0 -39 34 -60 81 -60c46 0 79 21 79 60c0 37 -33 61 -80 61zM510 308c-43 0 -72 -20 -72 -57c0 -35 31 -54 72 -54s73 19 73 54c0 37 -28 57 -73 57zM534 676l-409 -676h-56l407 676h58z" />
    <glyph glyph-name="perthousand" unicode="&#x2030;" horiz-adv-x="1093" 
d="M624 676l-409 -676h-56l407 676h58zM599 36c62 0 86 49 86 136s-24 136 -86 136s-86 -49 -86 -136s24 -136 86 -136zM599 348c96 0 137 -69 137 -176s-41 -177 -137 -177s-137 70 -137 177s42 176 137 176zM181 367c62 0 86 49 86 136s-24 136 -86 136s-86 -49 -86 -136
s24 -136 86 -136zM181 679c96 0 137 -69 137 -176s-41 -177 -137 -177s-137 70 -137 177s42 176 137 176zM910 36c62 0 86 49 86 136s-24 136 -86 136s-86 -49 -86 -136s24 -136 86 -136zM910 348c96 0 137 -69 137 -176s-41 -177 -137 -177s-137 70 -137 177
s42 176 137 176z" />
    <glyph glyph-name="minus" unicode="&#x2212;" 
d="M54 244v53h451v-53h-451z" />
    <glyph glyph-name="plusminus" unicode="&#xb1;" 
d="M54 376v52h195v201h58v-201h198v-52h-198v-188h-58v188h-195zM54 36v53h451v-53h-451z" />
    <glyph glyph-name="multiply" unicode="&#xd7;" 
d="M120 69l-40 41l159 158l-162 162l41 42l162 -163l161 161l40 -39l-161 -161l162 -162l-42 -41l-161 162z" />
    <glyph glyph-name="divide" unicode="&#xf7;" 
d="M54 244v52h451v-52h-451zM282 40c-30 0 -51 21 -51 50s21 51 51 51s52 -22 52 -51s-22 -50 -52 -50zM282 396c-30 0 -51 22 -51 51c0 30 21 51 51 51s52 -21 52 -51c0 -29 -22 -51 -52 -51z" />
    <glyph glyph-name="notequal" unicode="&#x2260;" 
d="M91 412h204l32 127l41 -9l-30 -118h131v-53h-145l-44 -178h189v-52h-202l-34 -134l-40 10l31 124h-133v52h146l44 178h-190v53z" />
    <glyph glyph-name="approxequal" unicode="&#x2248;" 
d="M457 412l22 -44c-24 -34 -56 -56 -100 -56c-70 0 -148 68 -198 68c-44 0 -70 -41 -76 -45l-22 45c24 33 58 55 102 55c60 0 142 -70 196 -70c41 0 70 43 76 47zM455 207l22 -44c-24 -34 -55 -56 -99 -56c-69 0 -147 71 -197 71c-44 0 -71 -43 -78 -47l-21 45
c23 33 58 54 101 54c62 0 144 -70 196 -70c41 0 70 43 76 47z" />
    <glyph glyph-name="lessequal" unicode="&#x2264;" 
d="M85 353v58l378 169v-59l-322 -139l322 -138v-60zM85 36v53h378v-53h-378z" />
    <glyph glyph-name="greaterequal" unicode="&#x2265;" 
d="M86 36v53h378v-53h-378zM480 411v-58l-379 -169v60l322 138l-322 139v59z" />
    <glyph glyph-name="logicalnot" unicode="&#xac;" 
d="M50 314v53h451v-245h-58v192h-393z" />
    <glyph glyph-name="Delta" unicode="&#x2206;" horiz-adv-x="696" 
d="M25 0l284 676h80l283 -676h-647zM577 54l-227 562l-233 -562h460z" />
    <glyph glyph-name="uni0394" unicode="&#x394;" horiz-adv-x="673" 
d="M13 0l284 676h80l283 -676h-647zM565 54l-227 562l-233 -562h460z" />
    <glyph glyph-name="Omega" unicode="&#x2126;" horiz-adv-x="692" 
d="M59 54h166c-78 56 -159 172 -159 309c0 175 84 323 280 323s280 -148 280 -323c0 -137 -82 -253 -159 -309h166v-54h-240v54c89 60 168 169 168 308c0 154 -65 267 -215 267s-215 -113 -215 -267c0 -139 79 -248 168 -308v-54h-240v54z" />
    <glyph glyph-name="uni03A9" unicode="&#x3a9;" horiz-adv-x="686" 
d="M56 54h166c-78 56 -159 172 -159 309c0 175 84 323 280 323s280 -148 280 -323c0 -137 -82 -253 -159 -309h166v-54h-240v54c89 60 168 169 168 308c0 154 -65 267 -215 267s-215 -113 -215 -267c0 -139 79 -248 168 -308v-54h-240v54z" />
    <glyph glyph-name="mu" unicode="&#xb5;" horiz-adv-x="517" 
d="M130 -216h-59v672h59v-291c0 -79 27 -119 115 -119c64 0 113 26 142 62v348h59v-456h-58v56c-29 -40 -91 -66 -155 -66c-45 0 -78 9 -103 25v-231z" />
    <glyph glyph-name="uni03BC" unicode="&#x3bc;" horiz-adv-x="523" 
d="M134 -216h-59v672h59v-291c0 -79 27 -119 115 -119c64 0 113 26 142 62v348h59v-456h-58v56c-29 -40 -91 -66 -155 -66c-45 0 -78 9 -103 25v-231z" />
    <glyph glyph-name="pi" unicode="&#x3c0;" horiz-adv-x="569" 
d="M117 0v403h-92v53h503v-53h-102v-280c0 -43 18 -79 66 -79c10 0 17 1 28 3v-52c-12 -4 -25 -6 -40 -6c-79 0 -112 52 -112 129v285h-194v-403h-57z" />
    <glyph glyph-name="degree" unicode="&#xb0;" horiz-adv-x="370" 
d="M49 547c0 80 54 139 135 139c83 0 137 -59 137 -139c0 -79 -54 -139 -137 -139c-81 0 -135 60 -135 139zM94 547c0 -56 36 -96 90 -96c56 0 92 40 92 96c0 55 -36 96 -92 96c-54 0 -90 -41 -90 -96z" />
    <glyph glyph-name="afii61289" unicode="&#x2113;" horiz-adv-x="385" 
d="M358 37c-34 -29 -76 -48 -125 -48c-68 0 -102 41 -102 128v131c-14 -12 -54 -43 -82 -63l-24 39c25 18 72 53 106 83v228c0 119 47 171 112 171c67 0 98 -52 98 -131c0 -103 -60 -194 -162 -291v-161c0 -59 22 -86 57 -86c34 0 71 17 99 41zM292 572c0 55 -21 85 -52 85
c-39 0 -61 -45 -61 -112v-199c62 66 113 142 113 226z" />
    <glyph glyph-name="estimated" unicode="&#x212e;" horiz-adv-x="758" 
d="M713 338h-511v-230c49 -49 109 -74 183 -74c105 0 182 45 245 152l45 -27c-78 -121 -157 -171 -290 -171c-199 0 -327 154 -327 350c0 197 128 350 327 350c195 0 327 -145 328 -350zM202 384h369v184c-54 50 -116 75 -187 75c-73 0 -133 -26 -182 -75v-184z" />
    <glyph glyph-name="eng" unicode="&#x14b;" horiz-adv-x="518" 
d="M74 0v456h58v-56c29 40 90 66 154 66c118 0 162 -60 162 -172v-320c0 -118 -36 -172 -116 -200l-28 45c69 26 85 63 85 148v324c0 79 -27 119 -115 119c-63 0 -113 -26 -141 -62v-348h-59z" />
    <glyph glyph-name="Eng" unicode="&#x14a;" horiz-adv-x="679" 
d="M473 -226l-30 48c68 26 84 64 84 145v24l-376 585v-576h-63v676h68l371 -575v575h63v-702c0 -118 -36 -172 -117 -200z" />
    <glyph glyph-name="infinity" unicode="&#x221e;" horiz-adv-x="752" 
d="M694 264c0 -91 -63 -155 -153 -155c-69 0 -121 49 -164 112c-38 -57 -93 -111 -165 -111c-88 0 -154 60 -154 153c0 89 63 155 152 155c73 0 124 -55 167 -117c37 58 91 119 163 119c88 0 154 -63 154 -156zM641 264c0 63 -42 104 -104 104c-57 0 -95 -60 -128 -106
c35 -51 73 -103 129 -103c62 0 103 44 103 105zM346 262c-33 47 -83 106 -133 106c-58 0 -102 -45 -102 -105c0 -64 45 -104 103 -104s101 58 132 103z" />
    <glyph glyph-name="partialdiff" unicode="&#x2202;" horiz-adv-x="524" 
d="M229 690h81c88 -69 157 -201 157 -376c0 -178 -51 -324 -213 -324c-138 0 -204 97 -204 229c0 133 67 228 194 228c87 0 139 -53 164 -109c0 145 -67 264 -179 352zM254 44c117 0 143 113 149 217c-24 63 -71 130 -153 130c-98 0 -141 -72 -141 -173
c0 -92 39 -174 145 -174z" />
    <glyph glyph-name="integral" unicode="&#x222b;" horiz-adv-x="362" 
d="M210 547v-617c0 -84 -33 -156 -134 -156c-19 0 -39 4 -51 7v55c17 -3 32 -6 51 -6c59 0 76 40 76 103v617c0 84 33 156 135 156c18 0 39 -4 50 -7v-55c-16 3 -31 6 -51 6c-59 0 -76 -40 -76 -103z" />
    <glyph glyph-name="radical" unicode="&#x221a;" horiz-adv-x="612" 
d="M593 696l-243 -912h-71l-160 359l-74 -37l-24 51l132 63l156 -368l222 844h62z" />
    <glyph glyph-name="summation" unicode="&#x2211;" horiz-adv-x="585" 
d="M540 -162v-54h-495v71l268 384l-267 365v72h491v-54h-433l280 -383l-280 -401h436z" />
    <glyph glyph-name="product" unicode="&#x220f;" horiz-adv-x="741" 
d="M45 676h651v-54h-67v-838h-60v838h-396v-838h-60v838h-68v54z" />
    <glyph glyph-name="lozenge" unicode="&#x25ca;" horiz-adv-x="597" 
d="M498 350l-199 287l-200 -287l200 -292zM567 350l-241 -350h-55l-241 350l241 346h55z" />
    <glyph glyph-name="uniF8FF" unicode="&#xf8ff;" horiz-adv-x="610" 
d="M98 0v656h413v-656h-413zM136 40h337v576h-337v-576z" />
    <glyph glyph-name="exclam.sc" horiz-adv-x="217" 
d="M131 158h-47l-10 349h69zM109 -5c-27 0 -46 18 -46 42c0 25 19 43 46 43c26 0 46 -18 46 -43c0 -24 -20 -42 -46 -42z" />
    <glyph glyph-name="numbersign.sc" horiz-adv-x="522" 
d="M128 152h-82l5 51h85l19 117h-81l6 51h84l22 136h56l-24 -136h116l23 136h56l-23 -136h86l-5 -51h-90l-19 -117h86l-5 -51h-90l-25 -152h-56l26 152h-115l-25 -152h-57zM210 320l-19 -117h115l20 117h-116z" />
    <glyph glyph-name="dollar.sc" horiz-adv-x="468" 
d="M252 -77h-40v70c-110 5 -147 56 -167 95l48 31c16 -36 43 -69 119 -74v186l-22 6c-78 23 -125 64 -125 131c0 69 47 135 147 145v56h40v-54c79 -3 132 -38 155 -74l-46 -33c-22 31 -59 50 -109 53v-182l32 -8c78 -22 131 -59 131 -132c0 -82 -59 -139 -163 -146v-70z
M265 218l-13 3v-176c68 6 102 40 102 91c0 46 -37 68 -89 82zM127 371c0 -45 27 -65 82 -80l3 -1v170c-58 -8 -85 -45 -85 -89z" />
    <glyph glyph-name="percent.sc" horiz-adv-x="663" 
d="M522 507l-330 -507h-51l329 507h52zM505 34c47 0 65 34 65 97c0 64 -18 98 -65 98c-48 0 -66 -34 -66 -98c0 -63 18 -97 66 -97zM505 266c80 0 114 -53 114 -135s-34 -135 -114 -135c-81 0 -115 53 -115 135s34 135 115 135zM158 278c49 0 66 34 66 98
c0 63 -17 97 -66 97c-47 0 -66 -34 -66 -97c0 -64 19 -98 66 -98zM158 511c82 0 115 -53 115 -135s-34 -135 -115 -135c-80 0 -113 53 -113 135s33 135 113 135z" />
    <glyph glyph-name="ampersand.sc" horiz-adv-x="551" 
d="M454 268l43 -33l-80 -103l-16 -20l113 -107v-5h-69l-77 73c-42 -45 -93 -81 -172 -81c-94 0 -145 52 -145 113c0 68 60 110 112 145l12 8l-22 21c-28 27 -70 64 -70 117c0 65 58 119 154 119c89 0 147 -54 147 -119c0 -53 -40 -85 -96 -125l-32 -21l107 -101l13 17z
M197 41c56 0 96 29 133 69l-116 111l-18 -12c-44 -29 -88 -57 -88 -102c0 -35 39 -66 89 -66zM140 396c0 -35 25 -60 54 -87l24 -23l36 24c43 30 74 51 74 86c0 36 -30 70 -92 70c-61 0 -96 -34 -96 -70z" />
    <glyph glyph-name="section.sc" horiz-adv-x="474" 
d="M414 200c0 -36 -25 -70 -62 -93c37 -21 59 -44 59 -82c0 -62 -63 -111 -178 -111c-90 0 -149 31 -182 73l35 37c30 -35 79 -63 150 -63c63 0 114 18 114 58c0 31 -39 47 -87 63l-89 31c-63 23 -108 55 -108 111c0 35 22 71 60 93c-36 20 -58 47 -58 84
c0 54 57 114 171 114c65 0 129 -16 172 -71l-38 -35c-40 44 -92 57 -138 57c-60 0 -106 -23 -106 -59c0 -34 44 -51 98 -69l64 -22c76 -26 123 -56 123 -116zM173 296c-30 -13 -48 -40 -48 -64c0 -35 32 -54 84 -72l94 -32c24 12 53 36 53 65c0 41 -43 58 -92 74z" />
    <glyph glyph-name="paragraph.sc" horiz-adv-x="437" 
d="M180 342h84v-376h-53v156c-114 0 -163 32 -163 110c0 65 40 110 132 110zM274 -170l-28 39c50 21 67 45 67 106v367h53v-360c0 -68 -14 -124 -92 -152z" />
    <glyph glyph-name="parenleft.sc" horiz-adv-x="249" 
d="M210 -151l-44 -16c-69 102 -111 200 -111 347c0 158 49 254 111 347l45 -15c-54 -96 -96 -194 -96 -332c0 -128 33 -222 95 -331z" />
    <glyph glyph-name="slash.sc" horiz-adv-x="293" 
d="M258 507v-8l-167 -499h-55v9l164 498h58z" />
    <glyph glyph-name="parenright.sc" horiz-adv-x="249" 
d="M39 -151c62 109 95 203 95 331c0 138 -42 236 -96 332l45 15c61 -93 111 -189 111 -347c0 -147 -43 -245 -111 -347z" />
    <glyph glyph-name="bracketleft.sc" horiz-adv-x="273" 
d="M72 522h156v-50h-98v-584h98v-50h-156v684z" />
    <glyph glyph-name="backslash.sc" horiz-adv-x="295" 
d="M35 499v8h57l167 -498v-9h-55z" />
    <glyph glyph-name="bracketright.sc" horiz-adv-x="273" 
d="M45 522h157v-684h-157v50h98v584h-98v50z" />
    <glyph glyph-name="braceleft.sc" horiz-adv-x="272" 
d="M165 413v-156c0 -60 -30 -76 -54 -79c24 -4 54 -21 54 -80v-155c0 -47 17 -60 59 -60v-45c-80 0 -116 22 -116 103v153c0 46 -21 61 -72 61v45c52 0 72 15 72 61v154c0 77 36 103 116 103v-46c-41 0 -59 -12 -59 -59z" />
    <glyph glyph-name="bar.sc" horiz-adv-x="186" 
d="M114 -162h-42v684h42v-684z" />
    <glyph glyph-name="braceright.sc" horiz-adv-x="272" 
d="M107 257v156c0 47 -18 59 -59 59v46c80 0 116 -26 116 -103v-154c0 -46 20 -61 72 -61v-45c-52 0 -72 -15 -72 -61v-153c0 -81 -36 -103 -116 -103v45c42 0 59 13 59 60v155c0 59 29 76 54 80c-25 3 -54 19 -54 79z" />
    <glyph glyph-name="zero.sc" horiz-adv-x="506" 
d="M253 44c95 0 134 76 134 210c0 133 -39 209 -134 209c-94 0 -133 -76 -133 -209c0 -134 39 -210 133 -210zM253 515c136 0 195 -102 195 -261c0 -160 -59 -262 -195 -262c-135 0 -195 102 -195 262c0 159 60 261 195 261z" />
    <glyph glyph-name="one.sc" horiz-adv-x="334" 
d="M252 0h-59v450l-153 -57l-16 46l175 68h53v-507z" />
    <glyph glyph-name="two.sc" horiz-adv-x="446" 
d="M217 515c102 0 164 -61 164 -147c0 -72 -46 -125 -107 -184l-138 -134h258v-50h-337v44l176 176c55 52 87 96 87 148c0 56 -36 95 -103 95c-66 0 -100 -41 -100 -99h-61c0 88 56 151 161 151z" />
    <glyph glyph-name="three.sc" horiz-adv-x="470" 
d="M301 262c54 -10 111 -54 111 -127c0 -84 -70 -143 -180 -143c-121 0 -176 60 -176 131h60c0 -46 42 -79 116 -79c75 0 119 38 119 93c0 61 -54 99 -133 99h-49v50h49c72 0 124 31 124 89c0 52 -40 88 -110 88c-71 0 -109 -37 -109 -80h-59c0 68 52 132 168 132
c106 0 171 -60 171 -138c0 -65 -49 -104 -102 -115z" />
    <glyph glyph-name="four.sc" horiz-adv-x="490" 
d="M446 162v-50h-81v-112h-60v112h-266v45l264 350h62v-345h81zM104 162h201v262z" />
    <glyph glyph-name="five.sc" horiz-adv-x="453" 
d="M401 163c0 -93 -60 -171 -180 -171c-123 0 -174 66 -174 142h60c0 -50 35 -90 114 -90c80 0 118 51 118 119c0 66 -40 107 -114 107c-41 0 -76 -14 -103 -32l-50 6l34 263h277v-50h-228l-23 -163c19 10 59 28 103 28c96 0 166 -53 166 -159z" />
    <glyph glyph-name="six.sc" horiz-adv-x="480" 
d="M122 199c0 -80 36 -155 124 -155c79 0 120 47 120 116s-42 111 -120 111c-57 0 -104 -35 -124 -72zM355 383c0 49 -41 80 -105 80c-88 0 -131 -81 -131 -204c19 26 71 62 137 62c109 0 171 -65 171 -160c0 -91 -59 -169 -181 -169c-132 0 -189 101 -189 246
c0 167 64 277 193 277c110 0 164 -60 164 -132h-59z" />
    <glyph glyph-name="seven.sc" horiz-adv-x="402" 
d="M102 0l202 457h-266v50h332v-45l-202 -462h-66z" />
    <glyph glyph-name="eight.sc" horiz-adv-x="488" 
d="M245 -8c-112 0 -188 51 -188 144c0 75 55 114 110 126c-54 13 -99 49 -99 114c0 84 69 139 176 139s176 -55 176 -139c0 -65 -45 -101 -98 -114c54 -12 109 -51 109 -126c0 -93 -77 -144 -186 -144zM244 463c-69 0 -114 -31 -114 -89c0 -56 49 -87 114 -87
c64 0 114 31 114 87c0 58 -45 89 -114 89zM243 44c77 0 126 34 126 97c0 61 -54 95 -126 95c-70 0 -124 -34 -124 -95c0 -63 50 -97 124 -97z" />
    <glyph glyph-name="nine.sc" horiz-adv-x="481" 
d="M359 307c0 81 -37 156 -124 156c-80 0 -120 -47 -120 -116s41 -111 120 -111c57 0 104 35 124 71zM67 125h59c0 -50 40 -81 104 -81c89 0 132 82 132 204c-19 -24 -72 -62 -138 -62c-108 0 -171 65 -171 160c0 91 60 169 182 169c131 0 188 -101 188 -246
c0 -167 -63 -277 -193 -277c-110 0 -163 60 -163 133z" />
    <glyph glyph-name="question.sc" horiz-adv-x="384" 
d="M183 -5c-27 0 -46 18 -46 42c0 25 19 43 46 43c26 0 46 -18 46 -43c0 -24 -20 -42 -46 -42zM184 515c99 0 156 -57 156 -128c0 -104 -127 -128 -127 -229h-58c0 117 126 147 126 227c0 39 -32 77 -92 77c-53 0 -90 -27 -90 -70l-57 5c0 65 46 118 142 118z" />
    <glyph glyph-name="a.sc" horiz-adv-x="512" 
d="M425 0l-52 136h-234l-52 -136h-65l198 507h73l198 -507h-66zM257 445l-100 -259h199z" />
    <glyph glyph-name="b.sc" horiz-adv-x="493" 
d="M82 0v507h167c113 0 166 -50 166 -128c0 -62 -35 -102 -86 -113c58 -9 113 -47 113 -126c0 -101 -70 -140 -186 -140h-174zM142 51h106c91 0 132 27 132 92c0 57 -38 93 -132 93h-106v-185zM142 287h97c84 0 112 36 112 89c0 49 -30 80 -112 80h-97v-169z" />
    <glyph glyph-name="c.sc" horiz-adv-x="496" 
d="M117 253c0 -120 43 -208 161 -208c54 0 103 24 125 64l48 -30c-29 -51 -93 -87 -175 -87c-152 0 -221 101 -221 261c0 162 69 262 221 262c82 0 146 -36 175 -87l-48 -31c-22 41 -71 65 -125 65c-118 0 -161 -88 -161 -209z" />
    <glyph glyph-name="d.sc" horiz-adv-x="548" 
d="M82 0v507h150c186 0 260 -74 260 -253c0 -178 -75 -254 -260 -254h-150zM142 51h88c151 0 200 55 200 203c0 145 -49 202 -200 202h-88v-405z" />
    <glyph glyph-name="e.sc" horiz-adv-x="463" 
d="M142 51h266v-51h-326v507h323v-51h-263v-171h235v-51h-235v-183z" />
    <glyph glyph-name="f.sc" horiz-adv-x="447" 
d="M82 0v507h319v-51h-259v-185h222v-51h-222v-220h-60z" />
    <glyph glyph-name="g.sc" horiz-adv-x="536" 
d="M287 218v52h199c1 -10 3 -28 3 -35c0 -134 -53 -243 -209 -243c-152 0 -225 93 -225 261c0 162 67 262 235 262c85 0 140 -34 171 -85l-46 -31c-29 42 -64 63 -127 63c-132 0 -171 -85 -171 -209c0 -132 44 -209 163 -209c112 0 147 78 147 174h-140z" />
    <glyph glyph-name="h.sc" horiz-adv-x="571" 
d="M429 292v215h60v-507h-60v241h-287v-241h-60v507h60v-215h287z" />
    <glyph glyph-name="i.sc" horiz-adv-x="224" 
d="M82 0v507h60v-507h-60z" />
    <glyph glyph-name="j.sc" horiz-adv-x="416" 
d="M29 68l46 29c22 -37 50 -52 96 -52c68 0 110 33 110 132v330h58v-331c0 -130 -67 -184 -168 -184c-70 0 -116 31 -142 76z" />
    <glyph glyph-name="k.sc" horiz-adv-x="511" 
d="M230 254l-88 -81v-173h-60v507h60v-256l265 256h77l-211 -210l211 -297h-75z" />
    <glyph glyph-name="l.sc" horiz-adv-x="407" 
d="M142 51h239v-51h-299v507h60v-456z" />
    <glyph glyph-name="m.sc" horiz-adv-x="717" 
d="M359 76l154 431h81l73 -507h-59l-62 436l-155 -436h-66l-153 436l-63 -436h-60l76 507h83z" />
    <glyph glyph-name="n.sc" horiz-adv-x="576" 
d="M434 97v410h60v-507h-63l-289 413l1 -413h-61v507h65z" />
    <glyph glyph-name="o.sc" horiz-adv-x="551" 
d="M117 253c0 -124 37 -208 157 -208c123 0 160 84 160 208c0 123 -37 209 -159 209c-119 0 -158 -86 -158 -209zM496 253c0 -152 -63 -261 -222 -261s-219 109 -219 261s61 262 220 262s221 -111 221 -262z" />
    <glyph glyph-name="p.sc" horiz-adv-x="476" 
d="M252 202h-110v-202h-60v507h170c125 0 181 -59 181 -152s-56 -153 -181 -153zM142 456v-203h107c92 0 122 41 122 102c0 59 -30 101 -122 101h-107z" />
    <glyph glyph-name="q.sc" horiz-adv-x="551" 
d="M496 253c0 -63 -11 -119 -35 -163l68 -60l-35 -38l-63 57c-36 -36 -87 -57 -157 -57c-159 0 -219 109 -219 261s61 262 220 262s221 -111 221 -262zM117 253c0 -124 37 -208 157 -208c53 0 90 15 115 43l-136 124l33 36l129 -117c14 33 19 75 19 122
c0 123 -37 209 -159 209c-119 0 -158 -86 -158 -209z" />
    <glyph glyph-name="r.sc" horiz-adv-x="505" 
d="M82 0v507h185c127 0 186 -52 186 -140c0 -78 -52 -128 -145 -137l160 -230h-69l-154 225h-103v-225h-60zM391 367c0 55 -34 89 -128 89h-121v-180h121c94 0 128 34 128 91z" />
    <glyph glyph-name="s.sc" horiz-adv-x="463" 
d="M404 441l-45 -33c-24 34 -64 54 -122 54c-75 0 -112 -41 -112 -91c0 -45 28 -65 83 -80l74 -20c78 -22 131 -59 131 -132c0 -87 -68 -147 -184 -147c-124 0 -165 55 -186 96l47 31c18 -39 48 -74 139 -74c82 0 121 36 121 91c0 46 -37 68 -88 82l-74 19
c-79 23 -126 64 -126 131c0 76 57 147 175 147c87 0 143 -36 167 -74z" />
    <glyph glyph-name="t.sc" horiz-adv-x="450" 
d="M34 507h382v-51h-160v-456h-61v456h-161v51z" />
    <glyph glyph-name="u.sc" horiz-adv-x="553" 
d="M276 -8c-117 0 -199 54 -199 196v319h60v-321c0 -102 50 -141 139 -141c88 0 139 39 139 141v321h61v-319c0 -143 -84 -196 -200 -196z" />
    <glyph glyph-name="v.sc" horiz-adv-x="502" 
d="M411 507h65l-187 -507h-77l-186 507h64l161 -445z" />
    <glyph glyph-name="w.sc" horiz-adv-x="806" 
d="M367 507h71l138 -438l135 438h64l-160 -507h-76l-137 425l-136 -425h-75l-161 507h65l135 -438z" />
    <glyph glyph-name="x.sc" horiz-adv-x="484" 
d="M36 507h70l135 -204l136 204h71l-166 -245l175 -262h-71l-145 217l-144 -217h-71l175 262z" />
    <glyph glyph-name="y.sc" horiz-adv-x="482" 
d="M271 0h-60v203l-188 304h68l150 -248l150 248h69l-189 -304v-203z" />
    <glyph glyph-name="z.sc" horiz-adv-x="439" 
d="M388 507v-46l-275 -410h280v-51h-353v45l275 411h-259v51h332z" />
    <glyph glyph-name="agrave.sc" horiz-adv-x="512" 
d="M425 0l-52 136h-234l-52 -136h-65l198 507h73l198 -507h-66zM257 445l-100 -259h199zM141 726h66l78 -151h-57z" />
    <glyph glyph-name="aacute.sc" horiz-adv-x="512" 
d="M425 0l-52 136h-234l-52 -136h-65l198 507h73l198 -507h-66zM257 445l-100 -259h199zM306 726h66l-87 -151h-57z" />
    <glyph glyph-name="acircumflex.sc" horiz-adv-x="512" 
d="M425 0l-52 136h-234l-52 -136h-65l198 507h73l198 -507h-66zM257 445l-100 -259h199zM226 726h61l102 -151h-57l-76 107l-75 -107h-57z" />
    <glyph glyph-name="atilde.sc" horiz-adv-x="512" 
d="M425 0l-52 136h-234l-52 -136h-65l198 507h73l198 -507h-66zM257 445l-100 -259h199zM391 656l-8 -49c-17 15 -38 25 -59 25c-45 0 -80 -37 -136 -37c-28 0 -55 13 -66 26l8 48c14 -15 33 -25 58 -25c49 0 77 38 136 38c33 0 55 -16 67 -26z" />
    <glyph glyph-name="adieresis.sc" horiz-adv-x="512" 
d="M425 0l-52 136h-234l-52 -136h-65l198 507h73l198 -507h-66zM257 445l-100 -259h199zM169 600c-27 0 -47 14 -47 46c0 33 20 47 47 47c24 0 47 -14 47 -47c0 -32 -23 -46 -47 -46zM345 600c-27 0 -47 14 -47 46c0 33 20 47 47 47c24 0 47 -14 47 -47
c0 -32 -23 -46 -47 -46z" />
    <glyph glyph-name="amacron.sc" horiz-adv-x="512" 
d="M425 0l-52 136h-234l-52 -136h-65l198 507h73l198 -507h-66zM257 445l-100 -259h199zM122 663h270v-53h-270v53z" />
    <glyph glyph-name="abreve.sc" horiz-adv-x="512" 
d="M425 0l-52 136h-234l-52 -136h-65l198 507h73l198 -507h-66zM257 445l-100 -259h199zM340 701h47c0 -76 -51 -132 -130 -132c-78 0 -129 56 -129 132h45c2 -48 31 -84 84 -84s82 36 83 84z" />
    <glyph glyph-name="aring.sc" horiz-adv-x="512" 
d="M425 0l-52 136h-234l-52 -136h-65l198 507h73l198 -507h-66zM257 445l-100 -259h199zM156 651c0 54 39 92 101 92c63 0 102 -38 102 -92c0 -53 -39 -92 -102 -92c-62 0 -101 39 -101 92zM201 651c0 -32 21 -53 56 -53s57 21 57 53s-22 53 -57 53s-56 -21 -56 -53z" />
    <glyph glyph-name="aringacute.sc" horiz-adv-x="512" 
d="M155 651c0 49 34 83 84 89l59 77h65l-68 -81c38 -12 63 -44 63 -85c0 -53 -40 -92 -102 -92c-61 0 -101 39 -101 92zM199 651c0 -32 22 -53 57 -53c36 0 57 21 57 53s-21 54 -57 54c-35 0 -57 -22 -57 -54zM425 0l-52 136h-234l-52 -136h-65l198 507h73l198 -507h-66z
M257 445l-100 -259h199z" />
    <glyph glyph-name="aogonek.sc" horiz-adv-x="511" 
d="M490 0l-77 -62c-22 -19 -34 -36 -34 -59c0 -21 16 -44 50 -44c21 0 42 11 61 25v-54c-16 -11 -38 -22 -73 -22c-62 0 -99 37 -99 87c0 39 21 67 50 90l54 44l-50 131h-234l-52 -136h-65l198 507h73zM256 445l-100 -259h199z" />
    <glyph glyph-name="ae.sc" horiz-adv-x="796" 
d="M475 51h266v-51h-327v136h-226l-105 -136h-75l398 507h332v-51h-263v-171h234v-51h-234v-183zM227 186h187v241z" />
    <glyph glyph-name="aeacute.sc" horiz-adv-x="796" 
d="M593 726h66l-87 -151h-57zM475 51h266v-51h-327v136h-226l-105 -136h-75l398 507h332v-51h-263v-171h234v-51h-234v-183zM227 186h187v241z" />
    <glyph glyph-name="cacute.sc" horiz-adv-x="496" 
d="M117 253c0 -120 43 -208 161 -208c54 0 103 24 125 64l48 -30c-29 -51 -93 -87 -175 -87c-152 0 -221 101 -221 261c0 162 69 262 221 262c82 0 146 -36 175 -87l-48 -31c-22 41 -71 65 -125 65c-118 0 -161 -88 -161 -209zM317 726h66l-87 -151h-57z" />
    <glyph glyph-name="ccircumflex.sc" horiz-adv-x="496" 
d="M117 253c0 -120 43 -208 161 -208c54 0 103 24 125 64l48 -30c-29 -51 -93 -87 -175 -87c-152 0 -221 101 -221 261c0 162 69 262 221 262c82 0 146 -36 175 -87l-48 -31c-22 41 -71 65 -125 65c-118 0 -161 -88 -161 -209zM240 726h61l102 -151h-57l-76 107l-75 -107
h-57z" />
    <glyph glyph-name="ccaron.sc" horiz-adv-x="496" 
d="M117 253c0 -120 43 -208 161 -208c54 0 103 24 125 64l48 -30c-29 -51 -93 -87 -175 -87c-152 0 -221 101 -221 261c0 162 69 262 221 262c82 0 146 -36 175 -87l-48 -31c-22 41 -71 65 -125 65c-118 0 -161 -88 -161 -209zM301 575h-61l-102 151h57l76 -107l75 107h57z
" />
    <glyph glyph-name="cdotaccent.sc" horiz-adv-x="496" 
d="M117 253c0 -120 43 -208 161 -208c54 0 103 24 125 64l48 -30c-29 -51 -93 -87 -175 -87c-152 0 -221 101 -221 261c0 162 69 262 221 262c82 0 146 -36 175 -87l-48 -31c-22 41 -71 65 -125 65c-118 0 -161 -88 -161 -209zM271 600c-27 0 -47 14 -47 46
c0 33 20 47 47 47c24 0 47 -14 47 -47c0 -32 -23 -46 -47 -46z" />
    <glyph glyph-name="ccedilla.sc" horiz-adv-x="496" 
d="M117 253c0 -120 43 -208 161 -208c54 0 103 24 125 64l48 -30c-26 -45 -79 -79 -148 -85l-19 -51c48 0 90 -21 90 -81c0 -38 -32 -78 -97 -78c-31 0 -59 11 -81 22v49c22 -16 50 -27 78 -27c31 0 46 16 46 34c0 31 -25 39 -60 39h-31l-3 5l28 87
c-137 9 -199 108 -199 260c0 162 69 262 221 262c82 0 146 -36 175 -87l-48 -31c-22 41 -71 65 -125 65c-118 0 -161 -88 -161 -209z" />
    <glyph glyph-name="dcaron.sc" horiz-adv-x="548" 
d="M82 0v507h150c186 0 260 -74 260 -253c0 -178 -75 -254 -260 -254h-150zM142 51h88c151 0 200 55 200 203c0 145 -49 202 -200 202h-88v-405zM285 575h-61l-102 151h57l76 -107l75 107h57z" />
    <glyph glyph-name="dcroat.sc" horiz-adv-x="556" 
d="M27 283h63v224h150c186 0 260 -74 260 -253c0 -178 -75 -254 -260 -254h-150v233h-63v50zM150 51h88c151 0 200 55 200 203c0 145 -49 202 -200 202h-88v-173h118v-50h-118v-182z" />
    <glyph glyph-name="eth.sc" horiz-adv-x="556" 
d="M27 283h63v224h150c186 0 260 -74 260 -253c0 -178 -75 -254 -260 -254h-150v233h-63v50zM150 51h88c151 0 200 55 200 203c0 145 -49 202 -200 202h-88v-173h118v-50h-118v-182z" />
    <glyph glyph-name="egrave.sc" horiz-adv-x="463" 
d="M142 51h266v-51h-326v507h323v-51h-263v-171h235v-51h-235v-183zM130 726h66l78 -151h-57z" />
    <glyph glyph-name="eacute.sc" horiz-adv-x="463" 
d="M142 51h266v-51h-326v507h323v-51h-263v-171h235v-51h-235v-183zM288 726h66l-87 -151h-57z" />
    <glyph glyph-name="ecircumflex.sc" horiz-adv-x="463" 
d="M142 51h266v-51h-326v507h323v-51h-263v-171h235v-51h-235v-183zM210 726h61l102 -151h-57l-76 107l-75 -107h-57z" />
    <glyph glyph-name="ecaron.sc" horiz-adv-x="463" 
d="M142 51h266v-51h-326v507h323v-51h-263v-171h235v-51h-235v-183zM271 575h-61l-102 151h57l76 -107l75 107h57z" />
    <glyph glyph-name="edieresis.sc" horiz-adv-x="463" 
d="M142 51h266v-51h-326v507h323v-51h-263v-171h235v-51h-235v-183zM153 600c-27 0 -47 14 -47 46c0 33 20 47 47 47c24 0 47 -14 47 -47c0 -32 -23 -46 -47 -46zM329 600c-27 0 -47 14 -47 46c0 33 20 47 47 47c24 0 47 -14 47 -47c0 -32 -23 -46 -47 -46z" />
    <glyph glyph-name="emacron.sc" horiz-adv-x="463" 
d="M142 51h266v-51h-326v507h323v-51h-263v-171h235v-51h-235v-183zM106 663h270v-53h-270v53z" />
    <glyph glyph-name="ebreve.sc" horiz-adv-x="463" 
d="M142 51h266v-51h-326v507h323v-51h-263v-171h235v-51h-235v-183zM323 701h47c0 -76 -51 -132 -130 -132c-78 0 -129 56 -129 132h45c2 -48 31 -84 84 -84s82 36 83 84z" />
    <glyph glyph-name="edotaccent.sc" horiz-adv-x="463" 
d="M142 51h266v-51h-326v507h323v-51h-263v-171h235v-51h-235v-183zM241 600c-27 0 -47 14 -47 46c0 33 20 47 47 47c24 0 47 -14 47 -47c0 -32 -23 -46 -47 -46z" />
    <glyph glyph-name="eogonek.sc" horiz-adv-x="462" 
d="M141 51h266v-51l-77 -62c-22 -19 -34 -36 -34 -59c0 -21 16 -44 50 -44c21 0 42 11 61 25v-54c-16 -11 -38 -22 -73 -22c-62 0 -99 37 -99 87c0 39 21 67 50 90l48 39h-252v507h323v-51h-263v-171h235v-51h-235v-183z" />
    <glyph glyph-name="gcircumflex.sc" horiz-adv-x="536" 
d="M287 218v52h199c1 -10 3 -28 3 -35c0 -134 -53 -243 -209 -243c-152 0 -225 93 -225 261c0 162 67 262 235 262c85 0 140 -34 171 -85l-46 -31c-29 42 -64 63 -127 63c-132 0 -171 -85 -171 -209c0 -132 44 -209 163 -209c112 0 147 78 147 174h-140zM246 726h61
l102 -151h-57l-76 107l-75 -107h-57z" />
    <glyph glyph-name="gbreve.sc" horiz-adv-x="536" 
d="M287 218v52h199c1 -10 3 -28 3 -35c0 -134 -53 -243 -209 -243c-152 0 -225 93 -225 261c0 162 67 262 235 262c85 0 140 -34 171 -85l-46 -31c-29 42 -64 63 -127 63c-132 0 -171 -85 -171 -209c0 -132 44 -209 163 -209c112 0 147 78 147 174h-140zM359 701h47
c0 -76 -51 -132 -130 -132c-78 0 -129 56 -129 132h45c2 -48 31 -84 84 -84s82 36 83 84z" />
    <glyph glyph-name="gdotaccent.sc" horiz-adv-x="536" 
d="M287 218v52h199c1 -10 3 -28 3 -35c0 -134 -53 -243 -209 -243c-152 0 -225 93 -225 261c0 162 67 262 235 262c85 0 140 -34 171 -85l-46 -31c-29 42 -64 63 -127 63c-132 0 -171 -85 -171 -209c0 -132 44 -209 163 -209c112 0 147 78 147 174h-140zM276 600
c-27 0 -47 14 -47 46c0 33 20 47 47 47c24 0 47 -14 47 -47c0 -32 -23 -46 -47 -46z" />
    <glyph glyph-name="gcommaaccent.sc" horiz-adv-x="536" 
d="M287 218v52h199c1 -10 3 -28 3 -35c0 -134 -53 -243 -209 -243c-152 0 -225 93 -225 261c0 162 67 262 235 262c85 0 140 -34 171 -85l-46 -31c-29 42 -64 63 -127 63c-132 0 -171 -85 -171 -209c0 -132 44 -209 163 -209c112 0 147 78 147 174h-140zM317 -70l-48 -146
h-48l25 146h71z" />
    <glyph glyph-name="hcircumflex.sc" horiz-adv-x="571" 
d="M429 292v215h60v-507h-60v241h-287v-241h-60v507h60v-215h287zM255 726h61l102 -151h-57l-76 107l-75 -107h-57z" />
    <glyph glyph-name="hbar.sc" horiz-adv-x="572" 
d="M38 420h45v87h59v-87h287v87h61v-87h41v-47h-41v-373h-61v241h-287v-241h-59v373h-45v47zM429 292v81h-287v-81h287z" />
    <glyph glyph-name="igrave.sc" horiz-adv-x="224" 
d="M82 0v507h60v-507h-60zM-4 726h66l78 -151h-57z" />
    <glyph glyph-name="iacute.sc" horiz-adv-x="224" 
d="M82 0v507h60v-507h-60zM161 726h66l-87 -151h-57z" />
    <glyph glyph-name="ibreve.sc" horiz-adv-x="224" 
d="M82 0v507h60v-507h-60zM195 701h47c0 -76 -51 -132 -130 -132c-78 0 -129 56 -129 132h45c2 -48 31 -84 84 -84s82 36 83 84z" />
    <glyph glyph-name="icircumflex.sc" horiz-adv-x="224" 
d="M82 0v507h60v-507h-60zM82 726h61l102 -151h-57l-76 107l-75 -107h-57z" />
    <glyph glyph-name="itilde.sc" horiz-adv-x="224" 
d="M82 0v507h60v-507h-60zM247 656l-8 -49c-17 15 -38 25 -59 25c-45 0 -80 -37 -136 -37c-28 0 -55 13 -66 26l8 48c14 -15 33 -25 58 -25c49 0 77 38 136 38c33 0 55 -16 67 -26z" />
    <glyph glyph-name="idieresis.sc" horiz-adv-x="224" 
d="M82 0v507h60v-507h-60zM24 600c-27 0 -47 14 -47 46c0 33 20 47 47 47c24 0 47 -14 47 -47c0 -32 -23 -46 -47 -46zM200 600c-27 0 -47 14 -47 46c0 33 20 47 47 47c24 0 47 -14 47 -47c0 -32 -23 -46 -47 -46z" />
    <glyph glyph-name="imacron.sc" horiz-adv-x="224" 
d="M82 0v507h60v-507h-60zM-23 663h270v-53h-270v53z" />
    <glyph glyph-name="idotaccent.sc" horiz-adv-x="224" 
d="M82 0v507h60v-507h-60zM112 600c-27 0 -47 14 -47 46c0 33 20 47 47 47c24 0 47 -14 47 -47c0 -32 -23 -46 -47 -46z" />
    <glyph glyph-name="iogonek.sc" horiz-adv-x="224" 
d="M142 0l-77 -62c-22 -19 -34 -36 -34 -59c0 -21 16 -44 50 -44c21 0 42 11 61 25v-54c-16 -11 -38 -22 -73 -22c-62 0 -99 37 -99 87c0 39 21 67 50 90l62 50v496h60v-507z" />
    <glyph glyph-name="jcircumflex.sc" horiz-adv-x="417" 
d="M30 68l46 29c22 -37 50 -52 96 -52c68 0 110 33 110 132v330h58v-331c0 -130 -67 -184 -168 -184c-70 0 -116 31 -142 76zM279 726h61l102 -151h-57l-76 107l-75 -107h-57z" />
    <glyph glyph-name="kcommaaccent.sc" horiz-adv-x="511" 
d="M230 254l-88 -81v-173h-60v507h60v-256l265 256h77l-211 -210l211 -297h-75zM284 -70l-48 -146h-48l25 146h71z" />
    <glyph glyph-name="lacute.sc" horiz-adv-x="407" 
d="M142 51h239v-51h-299v507h60v-456zM162 726h66l-87 -151h-57z" />
    <glyph glyph-name="lcaron.sc" horiz-adv-x="430" 
d="M142 51h239v-51h-299v507h60v-456zM395 507l-47 -149h-47l25 149h69z" />
    <glyph glyph-name="lcommaaccent.sc" horiz-adv-x="407" 
d="M142 51h239v-51h-299v507h60v-456zM258 -70l-48 -146h-48l25 146h71z" />
    <glyph glyph-name="lslash.sc" horiz-adv-x="416" 
d="M151 51h239v-51h-299v205l-64 -27v53l64 27v249h60v-224l78 33v-53l-78 -33v-179z" />
    <glyph glyph-name="ldot.sc" horiz-adv-x="436" 
d="M142 51h239v-51h-299v507h60v-456zM324 231c-27 0 -47 14 -47 46c0 33 20 47 47 47c24 0 47 -14 47 -47c0 -32 -23 -46 -47 -46z" />
    <glyph glyph-name="nacute.sc" horiz-adv-x="576" 
d="M434 97v410h60v-507h-63l-289 413l1 -413h-61v507h65zM339 726h66l-87 -151h-57z" />
    <glyph glyph-name="ncaron.sc" horiz-adv-x="576" 
d="M434 97v410h60v-507h-63l-289 413l1 -413h-61v507h65zM319 575h-61l-102 151h57l76 -107l75 107h57z" />
    <glyph glyph-name="ntilde.sc" horiz-adv-x="576" 
d="M434 97v410h60v-507h-63l-289 413l1 -413h-61v507h65zM423 656l-8 -49c-17 15 -38 25 -59 25c-45 0 -80 -37 -136 -37c-28 0 -55 13 -66 26l8 48c14 -15 33 -25 58 -25c49 0 77 38 136 38c33 0 55 -16 67 -26z" />
    <glyph glyph-name="ncommaaccent.sc" horiz-adv-x="576" 
d="M434 97v410h60v-507h-63l-289 413l1 -413h-61v507h65zM327 -70l-48 -146h-48l25 146h71z" />
    <glyph glyph-name="ograve.sc" horiz-adv-x="551" 
d="M117 253c0 -124 37 -208 157 -208c123 0 160 84 160 208c0 123 -37 209 -159 209c-119 0 -158 -86 -158 -209zM496 253c0 -152 -63 -261 -222 -261s-219 109 -219 261s61 262 220 262s221 -111 221 -262zM165 726h66l78 -151h-57z" />
    <glyph glyph-name="oacute.sc" horiz-adv-x="551" 
d="M117 253c0 -124 37 -208 157 -208c123 0 160 84 160 208c0 123 -37 209 -159 209c-119 0 -158 -86 -158 -209zM496 253c0 -152 -63 -261 -222 -261s-219 109 -219 261s61 262 220 262s221 -111 221 -262zM324 726h66l-87 -151h-57z" />
    <glyph glyph-name="ocircumflex.sc" horiz-adv-x="551" 
d="M117 253c0 -124 37 -208 157 -208c123 0 160 84 160 208c0 123 -37 209 -159 209c-119 0 -158 -86 -158 -209zM496 253c0 -152 -63 -261 -222 -261s-219 109 -219 261s61 262 220 262s221 -111 221 -262zM245 726h61l102 -151h-57l-76 107l-75 -107h-57z" />
    <glyph glyph-name="otilde.sc" horiz-adv-x="551" 
d="M117 253c0 -124 37 -208 157 -208c123 0 160 84 160 208c0 123 -37 209 -159 209c-119 0 -158 -86 -158 -209zM496 253c0 -152 -63 -261 -222 -261s-219 109 -219 261s61 262 220 262s221 -111 221 -262zM410 656l-8 -49c-17 15 -38 25 -59 25c-45 0 -80 -37 -136 -37
c-28 0 -55 13 -66 26l8 48c14 -15 33 -25 58 -25c49 0 77 38 136 38c33 0 55 -16 67 -26z" />
    <glyph glyph-name="odieresis.sc" horiz-adv-x="551" 
d="M117 253c0 -124 37 -208 157 -208c123 0 160 84 160 208c0 123 -37 209 -159 209c-119 0 -158 -86 -158 -209zM496 253c0 -152 -63 -261 -222 -261s-219 109 -219 261s61 262 220 262s221 -111 221 -262zM188 600c-27 0 -47 14 -47 46c0 33 20 47 47 47
c24 0 47 -14 47 -47c0 -32 -23 -46 -47 -46zM364 600c-27 0 -47 14 -47 46c0 33 20 47 47 47c24 0 47 -14 47 -47c0 -32 -23 -46 -47 -46z" />
    <glyph glyph-name="omacron.sc" horiz-adv-x="551" 
d="M117 253c0 -124 37 -208 157 -208c123 0 160 84 160 208c0 123 -37 209 -159 209c-119 0 -158 -86 -158 -209zM496 253c0 -152 -63 -261 -222 -261s-219 109 -219 261s61 262 220 262s221 -111 221 -262zM141 663h270v-53h-270v53z" />
    <glyph glyph-name="obreve.sc" horiz-adv-x="551" 
d="M117 253c0 -124 37 -208 157 -208c123 0 160 84 160 208c0 123 -37 209 -159 209c-119 0 -158 -86 -158 -209zM496 253c0 -152 -63 -261 -222 -261s-219 109 -219 261s61 262 220 262s221 -111 221 -262zM358 701h47c0 -76 -51 -132 -130 -132c-78 0 -129 56 -129 132h45
c2 -48 31 -84 84 -84s82 36 83 84z" />
    <glyph glyph-name="ohungarumlaut.sc" horiz-adv-x="551" 
d="M117 253c0 -124 37 -208 157 -208c123 0 160 84 160 208c0 123 -37 209 -159 209c-119 0 -158 -86 -158 -209zM496 253c0 -152 -63 -261 -222 -261s-219 109 -219 261s61 262 220 262s221 -111 221 -262zM251 726h66l-87 -151h-57zM393 726h66l-87 -151h-57z" />
    <glyph glyph-name="oslash.sc" horiz-adv-x="551" 
d="M496 253c0 -152 -63 -261 -222 -261c-60 0 -106 15 -140 43l-26 -35h-58l52 69c-33 46 -47 110 -47 184c0 152 61 262 220 262c57 0 102 -15 136 -40l24 32h61l-51 -67c35 -46 51 -112 51 -187zM434 253c0 55 -8 102 -27 138l-238 -311c24 -23 58 -35 105 -35
c123 0 160 84 160 208zM117 253c0 -53 7 -99 24 -134l236 311c-24 21 -58 32 -102 32c-119 0 -158 -86 -158 -209z" />
    <glyph glyph-name="oslashacute.sc" horiz-adv-x="551" 
d="M321 726h66l-87 -151h-57zM496 253c0 -152 -63 -261 -222 -261c-60 0 -106 15 -140 43l-26 -35h-58l52 69c-33 46 -47 110 -47 184c0 152 61 262 220 262c57 0 102 -15 136 -40l24 32h61l-51 -67c35 -46 51 -112 51 -187zM434 253c0 55 -8 102 -27 138l-238 -311
c24 -23 58 -35 105 -35c123 0 160 84 160 208zM117 253c0 -53 7 -99 24 -134l236 311c-24 21 -58 32 -102 32c-119 0 -158 -86 -158 -209z" />
    <glyph glyph-name="oe.sc" horiz-adv-x="728" 
d="M408 51h265v-51h-320c-23 -6 -50 -8 -79 -8c-159 0 -219 109 -219 261s61 262 220 262c29 0 55 -2 78 -8h317v-51h-262v-171h234v-51h-234v-183zM274 45c29 0 53 3 73 10v396c-20 7 -44 11 -72 11c-119 0 -158 -86 -158 -209c0 -124 37 -208 157 -208z" />
    <glyph glyph-name="racute.sc" horiz-adv-x="505" 
d="M82 0v507h185c127 0 186 -52 186 -140c0 -78 -52 -128 -145 -137l160 -230h-69l-154 225h-103v-225h-60zM391 367c0 55 -34 89 -128 89h-121v-180h121c94 0 128 34 128 91zM281 726h66l-87 -151h-57z" />
    <glyph glyph-name="rcaron.sc" horiz-adv-x="505" 
d="M82 0v507h185c127 0 186 -52 186 -140c0 -78 -52 -128 -145 -137l160 -230h-69l-154 225h-103v-225h-60zM391 367c0 55 -34 89 -128 89h-121v-180h121c94 0 128 34 128 91zM264 575h-61l-102 151h57l76 -107l75 107h57z" />
    <glyph glyph-name="rcommaaccent.sc" horiz-adv-x="505" 
d="M82 0v507h185c127 0 186 -52 186 -140c0 -78 -52 -128 -145 -137l160 -230h-69l-154 225h-103v-225h-60zM391 367c0 55 -34 89 -128 89h-121v-180h121c94 0 128 34 128 91zM278 -70l-48 -146h-48l25 146h71z" />
    <glyph glyph-name="sacute.sc" horiz-adv-x="463" 
d="M404 441l-45 -33c-24 34 -64 54 -122 54c-75 0 -112 -41 -112 -91c0 -45 28 -65 83 -80l74 -20c78 -22 131 -59 131 -132c0 -87 -68 -147 -184 -147c-124 0 -165 55 -186 96l47 31c18 -39 48 -74 139 -74c82 0 121 36 121 91c0 46 -37 68 -88 82l-74 19
c-79 23 -126 64 -126 131c0 76 57 147 175 147c87 0 143 -36 167 -74zM282 726h66l-87 -151h-57z" />
    <glyph glyph-name="scircumflex.sc" horiz-adv-x="463" 
d="M404 441l-45 -33c-24 34 -64 54 -122 54c-75 0 -112 -41 -112 -91c0 -45 28 -65 83 -80l74 -20c78 -22 131 -59 131 -132c0 -87 -68 -147 -184 -147c-124 0 -165 55 -186 96l47 31c18 -39 48 -74 139 -74c82 0 121 36 121 91c0 46 -37 68 -88 82l-74 19
c-79 23 -126 64 -126 131c0 76 57 147 175 147c87 0 143 -36 167 -74zM202 726h61l102 -151h-57l-76 107l-75 -107h-57z" />
    <glyph glyph-name="scaron.sc" horiz-adv-x="463" 
d="M404 441l-45 -33c-24 34 -64 54 -122 54c-75 0 -112 -41 -112 -91c0 -45 28 -65 83 -80l74 -20c78 -22 131 -59 131 -132c0 -87 -68 -147 -184 -147c-124 0 -165 55 -186 96l47 31c18 -39 48 -74 139 -74c82 0 121 36 121 91c0 46 -37 68 -88 82l-74 19
c-79 23 -126 64 -126 131c0 76 57 147 175 147c87 0 143 -36 167 -74zM263 575h-61l-102 151h57l76 -107l75 107h57z" />
    <glyph glyph-name="scedilla.sc" horiz-adv-x="463" 
d="M404 441l-45 -33c-24 34 -64 54 -122 54c-75 0 -112 -41 -112 -91c0 -45 28 -65 83 -80l74 -20c78 -22 131 -59 131 -132c0 -80 -57 -136 -155 -145l-19 -51c48 0 90 -21 90 -81c0 -38 -32 -78 -97 -78c-31 0 -59 11 -81 22v49c22 -16 50 -27 78 -27c31 0 46 16 46 34
c0 31 -25 39 -60 39h-31l-3 5l28 87c-109 5 -146 56 -166 95l47 31c18 -39 48 -74 139 -74c82 0 121 36 121 91c0 46 -37 68 -88 82l-74 19c-79 23 -126 64 -126 131c0 76 57 147 175 147c87 0 143 -36 167 -74z" />
    <glyph glyph-name="scommaaccent.sc" horiz-adv-x="463" 
d="M404 441l-45 -33c-24 34 -64 54 -122 54c-75 0 -112 -41 -112 -91c0 -45 28 -65 83 -80l74 -20c78 -22 131 -59 131 -132c0 -87 -68 -147 -184 -147c-124 0 -165 55 -186 96l47 31c18 -39 48 -74 139 -74c82 0 121 36 121 91c0 46 -37 68 -88 82l-74 19
c-79 23 -126 64 -126 131c0 76 57 147 175 147c87 0 143 -36 167 -74zM272 -70l-48 -146h-48l25 146h71z" />
    <glyph glyph-name="tcaron.sc" horiz-adv-x="451" 
d="M34 507h382v-51h-160v-456h-61v456h-161v51zM256 575h-61l-102 151h57l76 -107l75 107h57z" />
    <glyph glyph-name="tcommaaccent.sc" horiz-adv-x="450" 
d="M34 507h382v-51h-160v-456h-7l-22 -57c48 0 90 -21 90 -81c0 -38 -32 -78 -97 -78c-31 0 -59 11 -81 22v49c22 -16 50 -27 78 -27c31 0 46 16 46 34c0 31 -25 39 -60 39h-31l-3 5l30 94h-4v456h-161v51z" />
    <glyph glyph-name="uni021A.sc" horiz-adv-x="454" 
d="M262 -70l-48 -146h-48l25 146h71zM36 507h382v-51h-160v-456h-61v456h-161v51z" />
    <glyph glyph-name="tbar.sc" horiz-adv-x="457" 
d="M108 274h90v182h-161v51h382v-51h-160v-182h90v-50h-90v-224h-61v224h-90v50z" />
    <glyph glyph-name="thorn.sc" horiz-adv-x="476" 
d="M252 101h-110v-101h-60v507h60v-101h110c125 0 181 -59 181 -152s-56 -153 -181 -153zM142 355v-203h107c92 0 122 41 122 102c0 59 -30 101 -122 101h-107z" />
    <glyph glyph-name="ugrave.sc" horiz-adv-x="553" 
d="M276 -8c-117 0 -199 54 -199 196v319h60v-321c0 -102 50 -141 139 -141c88 0 139 39 139 141v321h61v-319c0 -143 -84 -196 -200 -196zM162 726h66l78 -151h-57z" />
    <glyph glyph-name="uacute.sc" horiz-adv-x="553" 
d="M276 -8c-117 0 -199 54 -199 196v319h60v-321c0 -102 50 -141 139 -141c88 0 139 39 139 141v321h61v-319c0 -143 -84 -196 -200 -196zM323 726h66l-87 -151h-57z" />
    <glyph glyph-name="ucircumflex.sc" horiz-adv-x="553" 
d="M276 -8c-117 0 -199 54 -199 196v319h60v-321c0 -102 50 -141 139 -141c88 0 139 39 139 141v321h61v-319c0 -143 -84 -196 -200 -196zM246 726h61l102 -151h-57l-76 107l-75 -107h-57z" />
    <glyph glyph-name="utilde.sc" horiz-adv-x="553" 
d="M276 -8c-117 0 -199 54 -199 196v319h60v-321c0 -102 50 -141 139 -141c88 0 139 39 139 141v321h61v-319c0 -143 -84 -196 -200 -196zM411 656l-8 -49c-17 15 -38 25 -59 25c-45 0 -80 -37 -136 -37c-28 0 -55 13 -66 26l8 48c14 -15 33 -25 58 -25c49 0 77 38 136 38
c33 0 55 -16 67 -26z" />
    <glyph glyph-name="udieresis.sc" horiz-adv-x="553" 
d="M276 -8c-117 0 -199 54 -199 196v319h60v-321c0 -102 50 -141 139 -141c88 0 139 39 139 141v321h61v-319c0 -143 -84 -196 -200 -196zM188 600c-27 0 -47 14 -47 46c0 33 20 47 47 47c24 0 47 -14 47 -47c0 -32 -23 -46 -47 -46zM364 600c-27 0 -47 14 -47 46
c0 33 20 47 47 47c24 0 47 -14 47 -47c0 -32 -23 -46 -47 -46z" />
    <glyph glyph-name="umacron.sc" horiz-adv-x="553" 
d="M276 -8c-117 0 -199 54 -199 196v319h60v-321c0 -102 50 -141 139 -141c88 0 139 39 139 141v321h61v-319c0 -143 -84 -196 -200 -196zM141 663h270v-53h-270v53z" />
    <glyph glyph-name="ubreve.sc" horiz-adv-x="553" 
d="M276 -8c-117 0 -199 54 -199 196v319h60v-321c0 -102 50 -141 139 -141c88 0 139 39 139 141v321h61v-319c0 -143 -84 -196 -200 -196zM359 701h47c0 -76 -51 -132 -130 -132c-78 0 -129 56 -129 132h45c2 -48 31 -84 84 -84s82 36 83 84z" />
    <glyph glyph-name="uring.sc" horiz-adv-x="553" 
d="M276 -8c-117 0 -199 54 -199 196v319h60v-321c0 -102 50 -141 139 -141c88 0 139 39 139 141v321h61v-319c0 -143 -84 -196 -200 -196zM175 651c0 54 39 92 101 92c63 0 102 -38 102 -92c0 -53 -39 -92 -102 -92c-62 0 -101 39 -101 92zM220 651c0 -32 21 -53 56 -53
s57 21 57 53s-22 53 -57 53s-56 -21 -56 -53z" />
    <glyph glyph-name="uhungarumlaut.sc" horiz-adv-x="553" 
d="M276 -8c-117 0 -199 54 -199 196v319h60v-321c0 -102 50 -141 139 -141c88 0 139 39 139 141v321h61v-319c0 -143 -84 -196 -200 -196zM252 726h66l-87 -151h-57zM394 726h66l-87 -151h-57z" />
    <glyph glyph-name="uogonek.sc" horiz-adv-x="553" 
d="M476 188c0 -113 -52 -170 -131 -188l-69 -56c-22 -19 -34 -36 -34 -59c0 -21 16 -44 50 -44c21 0 42 11 61 25v-54c-16 -11 -38 -22 -73 -22c-62 0 -99 37 -99 87c0 39 21 67 50 90l31 26c-110 4 -185 58 -185 195v319h60v-321c0 -102 50 -141 139 -141
c88 0 139 39 139 141v321h61v-319z" />
    <glyph glyph-name="wacute.sc" horiz-adv-x="806" 
d="M367 507h71l138 -438l135 438h64l-160 -507h-76l-137 425l-136 -425h-75l-161 507h65l135 -438zM452 726h66l-87 -151h-57z" />
    <glyph glyph-name="wcircumflex.sc" horiz-adv-x="806" 
d="M367 507h71l138 -438l135 438h64l-160 -507h-76l-137 425l-136 -425h-75l-161 507h65l135 -438zM373 726h61l102 -151h-57l-76 107l-75 -107h-57z" />
    <glyph glyph-name="wdieresis.sc" horiz-adv-x="806" 
d="M367 507h71l138 -438l135 438h64l-160 -507h-76l-137 425l-136 -425h-75l-161 507h65l135 -438zM315 600c-27 0 -47 14 -47 46c0 33 20 47 47 47c24 0 47 -14 47 -47c0 -32 -23 -46 -47 -46zM491 600c-27 0 -47 14 -47 46c0 33 20 47 47 47c24 0 47 -14 47 -47
c0 -32 -23 -46 -47 -46z" />
    <glyph glyph-name="wgrave.sc" horiz-adv-x="806" 
d="M367 507h71l138 -438l135 438h64l-160 -507h-76l-137 425l-136 -425h-75l-161 507h65l135 -438zM286 726h66l78 -151h-57z" />
    <glyph glyph-name="yacute.sc" horiz-adv-x="482" 
d="M271 0h-60v203l-188 304h68l150 -248l150 248h69l-189 -304v-203zM290 726h66l-87 -151h-57z" />
    <glyph glyph-name="ycircumflex.sc" horiz-adv-x="482" 
d="M271 0h-60v203l-188 304h68l150 -248l150 248h69l-189 -304v-203zM211 726h61l102 -151h-57l-76 107l-75 -107h-57z" />
    <glyph glyph-name="ydieresis.sc" horiz-adv-x="482" 
d="M271 0h-60v203l-188 304h68l150 -248l150 248h69l-189 -304v-203zM153 600c-27 0 -47 14 -47 46c0 33 20 47 47 47c24 0 47 -14 47 -47c0 -32 -23 -46 -47 -46zM329 600c-27 0 -47 14 -47 46c0 33 20 47 47 47c24 0 47 -14 47 -47c0 -32 -23 -46 -47 -46z" />
    <glyph glyph-name="ygrave.sc" horiz-adv-x="482" 
d="M271 0h-60v203l-188 304h68l150 -248l150 248h69l-189 -304v-203zM131 726h66l78 -151h-57z" />
    <glyph glyph-name="zacute.sc" horiz-adv-x="438" 
d="M388 507v-46l-275 -410h280v-51h-353v45l275 411h-259v51h332zM266 726h66l-87 -151h-57z" />
    <glyph glyph-name="zcaron.sc" horiz-adv-x="438" 
d="M388 507v-46l-275 -410h280v-51h-353v45l275 411h-259v51h332zM249 575h-61l-102 151h57l76 -107l75 107h57z" />
    <glyph glyph-name="zdotaccent.sc" horiz-adv-x="438" 
d="M388 507v-46l-275 -410h280v-51h-353v45l275 411h-259v51h332zM218 600c-27 0 -47 14 -47 46c0 33 20 47 47 47c24 0 47 -14 47 -47c0 -32 -23 -46 -47 -46z" />
    <glyph glyph-name="ij.sc" horiz-adv-x="630" 
d="M81 0v507h60v-507h-60zM242 68l46 29c22 -37 50 -52 96 -52c68 0 110 33 110 132v330h58v-331c0 -130 -67 -184 -168 -184c-70 0 -116 31 -142 76z" />
    <glyph glyph-name="germandbls.sc" horiz-adv-x="908" 
d="M849 441l-45 -33c-24 34 -64 54 -122 54c-75 0 -112 -41 -112 -91c0 -45 28 -65 83 -80l74 -20c78 -22 131 -59 131 -132c0 -87 -68 -147 -184 -147c-124 0 -165 55 -186 96l47 31c18 -39 48 -74 139 -74c82 0 121 36 121 91c0 46 -37 68 -88 82l-74 19
c-79 23 -126 64 -126 131c0 76 57 147 175 147c87 0 143 -36 167 -74zM404 441l-45 -33c-24 34 -64 54 -122 54c-75 0 -112 -41 -112 -91c0 -45 28 -65 83 -80l74 -20c78 -22 131 -59 131 -132c0 -87 -68 -147 -184 -147c-124 0 -165 55 -186 96l47 31
c18 -39 48 -74 139 -74c82 0 121 36 121 91c0 46 -37 68 -88 82l-74 19c-79 23 -126 64 -126 131c0 76 57 147 175 147c87 0 143 -36 167 -74z" />
    <glyph glyph-name="fi.sc" horiz-adv-x="684" 
d="M82 0v507h319v-51h-259v-185h222v-51h-222v-220h-60zM542 0v507h60v-507h-60z" />
    <glyph glyph-name="fl.sc" horiz-adv-x="866" 
d="M82 0v507h319v-51h-259v-185h222v-51h-222v-220h-60zM601 51h239v-51h-299v507h60v-456z" />
    <glyph glyph-name="eng.sc" horiz-adv-x="575" 
d="M433 97v410h60v-525c0 -68 -17 -126 -94 -155l-33 44c53 21 66 51 67 125l-292 417c0 -138 1 -275 1 -413h-61v507h65z" />
    <glyph glyph-name="grave.sc" horiz-adv-x="600" 
d="M228 726h66l78 -151h-57z" />
    <glyph glyph-name="acute.sc" horiz-adv-x="600" 
d="M306 726h66l-87 -151h-57z" />
    <glyph glyph-name="circumflex.sc" horiz-adv-x="600" 
d="M269 726h61l102 -151h-57l-76 107l-75 -107h-57z" />
    <glyph glyph-name="caron.sc" horiz-adv-x="600" 
d="M330 575h-61l-102 151h57l76 -107l75 107h57z" />
    <glyph glyph-name="caronalt.sc" horiz-adv-x="600" 
d="M347 507l-47 -149h-47l25 149h69z" />
    <glyph glyph-name="tilde.sc" horiz-adv-x="600" 
d="M434 656l-8 -49c-17 15 -38 25 -59 25c-45 0 -80 -37 -136 -37c-28 0 -55 13 -66 26l8 48c14 -15 33 -25 58 -25c49 0 77 38 136 38c33 0 55 -16 67 -26z" />
    <glyph glyph-name="dieresis.sc" horiz-adv-x="600" 
d="M212 600c-27 0 -47 14 -47 46c0 33 20 47 47 47c24 0 47 -14 47 -47c0 -32 -23 -46 -47 -46zM388 600c-27 0 -47 14 -47 46c0 33 20 47 47 47c24 0 47 -14 47 -47c0 -32 -23 -46 -47 -46z" />
    <glyph glyph-name="macron.sc" horiz-adv-x="600" 
d="M165 663h270v-53h-270v53z" />
    <glyph glyph-name="breve.sc" horiz-adv-x="600" 
d="M382 701h47c0 -76 -51 -132 -130 -132c-78 0 -129 56 -129 132h45c2 -48 31 -84 84 -84s82 36 83 84z" />
    <glyph glyph-name="ring.sc" horiz-adv-x="600" 
d="M198 651c0 54 39 92 101 92c63 0 102 -38 102 -92c0 -53 -39 -92 -102 -92c-62 0 -101 39 -101 92zM243 651c0 -32 21 -53 56 -53s57 21 57 53s-22 53 -57 53s-56 -21 -56 -53z" />
    <glyph glyph-name="hungarumlaut.sc" horiz-adv-x="600" 
d="M235 726h66l-87 -151h-57zM377 726h66l-87 -151h-57z" />
    <glyph glyph-name="dotaccent.sc" horiz-adv-x="600" 
d="M300 600c-27 0 -47 14 -47 46c0 33 20 47 47 47c24 0 47 -14 47 -47c0 -32 -23 -46 -47 -46z" />
    <glyph glyph-name="exclamdown.sc" horiz-adv-x="216" 
d="M86 349h47l10 -349h-69zM108 512c27 0 46 -18 46 -42c0 -25 -19 -43 -46 -43c-26 0 -46 18 -46 43c0 24 20 42 46 42z" />
    <glyph glyph-name="questiondown.sc" horiz-adv-x="384" 
d="M201 512c26 0 45 -18 45 -42c0 -25 -19 -43 -45 -43c-27 0 -46 18 -46 43c0 24 19 42 46 42zM199 -8c-99 0 -156 57 -156 128c0 104 128 128 128 229h58c0 -117 -126 -147 -126 -227c0 -39 31 -77 92 -77c53 0 90 27 90 70l56 -5c0 -65 -45 -118 -142 -118z" />
    <glyph glyph-name="Euro.sc" horiz-adv-x="495" 
d="M49 323h45c16 116 80 192 204 192c55 0 99 -13 140 -33l-21 -50c-32 17 -71 29 -120 29c-87 0 -130 -57 -142 -138h215l-18 -41h-201c-1 -9 -1 -18 -1 -27c0 -12 0 -24 1 -34h176l-17 -42h-153c14 -78 56 -134 143 -134c38 0 85 10 127 36l16 -53
c-43 -22 -90 -36 -145 -36c-123 0 -186 70 -203 187h-46v42h41c-1 10 -1 23 -1 34c0 9 0 18 1 27h-41v41z" />
    <glyph glyph-name="cent.sc" horiz-adv-x="410" 
d="M55 170c0 101 49 180 162 180c9 0 17 -1 25 -2l15 57l38 -8l-15 -57c32 -11 56 -31 73 -59l-41 -28c-11 18 -26 31 -45 38l-65 -248c5 -1 12 -1 18 -1c41 0 73 15 93 47l40 -28c-26 -45 -73 -69 -136 -69c-10 0 -19 1 -28 2l-12 -46l-37 8l12 46c-67 25 -97 89 -97 168z
M111 170c0 -54 16 -97 54 -116l64 246h-9c-78 0 -109 -54 -109 -130z" />
    <glyph glyph-name="sterling.sc" horiz-adv-x="479" 
d="M45 245h55v89c0 98 46 181 168 181c76 0 129 -27 164 -71l-38 -37c-35 39 -74 54 -124 54c-83 0 -111 -56 -111 -129v-87h160v-42h-160v-154h244v-49h-303v203h-55v42z" />
    <glyph glyph-name="florin.sc" horiz-adv-x="316" 
d="M172 292v-345c0 -63 -29 -117 -108 -117c-21 0 -39 4 -49 7v51c14 -4 27 -6 41 -6c47 0 60 29 60 73v337h-81v49h81v68c0 62 28 116 109 116c18 0 37 -4 47 -6v-51c-14 3 -27 5 -41 5c-46 0 -59 -27 -59 -72v-60h87v-49h-87z" />
    <glyph glyph-name="yen.sc" horiz-adv-x="493" 
d="M74 221h133l-37 60h-96v42h72l-111 184h66l144 -245l145 245h68l-115 -184h73v-42h-97l-38 -60h135v-41h-144v-180h-58v180h-140v41z" />
    <glyph glyph-name="rupee.sc" horiz-adv-x="453" 
d="M61 507h341v-45h-101c25 -20 39 -46 42 -80h59v-41h-59c-6 -65 -53 -110 -128 -122l149 -219h-72l-144 213h-87v51h85c89 0 126 26 133 77h-218v41h218c-7 47 -35 75 -114 75h-104v50z" />
    <glyph glyph-name="perthousand.sc" horiz-adv-x="918" 
d="M522 507l-330 -507h-51l329 507h52zM505 34c47 0 65 34 65 97c0 64 -18 98 -65 98c-48 0 -66 -34 -66 -98c0 -63 18 -97 66 -97zM505 266c80 0 114 -53 114 -135s-34 -135 -114 -135c-81 0 -115 53 -115 135s34 135 115 135zM158 278c49 0 66 34 66 98
c0 63 -17 97 -66 97c-47 0 -66 -34 -66 -97c0 -64 19 -98 66 -98zM158 511c82 0 115 -53 115 -135s-34 -135 -115 -135c-80 0 -113 53 -113 135s33 135 113 135zM761 34c48 0 66 34 66 97c0 64 -18 98 -66 98c-47 0 -66 -34 -66 -98c0 -63 19 -97 66 -97zM761 266
c81 0 114 -53 114 -135s-34 -135 -114 -135c-81 0 -114 53 -114 135s34 135 114 135z" />
    <glyph glyph-name="zero.tf" 
d="M280 46c120 0 170 108 170 292s-50 292 -170 292s-170 -108 -170 -292s50 -292 170 -292zM280 686c163 0 234 -135 234 -348s-71 -348 -234 -348s-234 135 -234 348s71 348 234 348z" />
    <glyph glyph-name="one.tf" 
d="M91 0v55h185v559l-179 -75l-18 52l202 85h57v-621h158v-55h-405z" />
    <glyph glyph-name="two.tf" 
d="M271 686c125 0 199 -81 199 -192c0 -97 -57 -166 -131 -245l-181 -194h330v-55h-413v49l220 238c69 75 111 135 111 207c0 79 -48 136 -135 136c-86 0 -132 -58 -132 -140h-62c0 115 68 196 194 196z" />
    <glyph glyph-name="three.tf" 
d="M355 349c66 -12 139 -69 139 -170c0 -111 -85 -190 -219 -190c-148 0 -215 80 -215 171h62c0 -65 56 -115 153 -115c99 0 155 56 155 136c0 86 -71 140 -171 140h-60v55h60c91 0 160 45 160 127c0 74 -53 127 -144 127c-95 0 -143 -54 -143 -117h-63c0 88 64 173 206 173
c129 0 208 -79 208 -181c0 -91 -62 -140 -128 -156z" />
    <glyph glyph-name="four.tf" 
d="M527 209v-55h-105v-154h-62v154h-332v50l330 472h64v-467h105zM97 209h263v375z" />
    <glyph glyph-name="five.tf" 
d="M492 217c0 -123 -72 -228 -218 -228c-151 0 -212 90 -212 189h63c0 -72 44 -133 149 -133s154 76 154 172c0 94 -53 154 -148 154c-53 0 -98 -20 -134 -46l-53 5l41 346h338v-55h-286l-29 -235c23 14 74 41 132 41c120 0 203 -73 203 -210z" />
    <glyph glyph-name="six.tf" 
d="M126 268c0 -114 47 -223 161 -223c104 0 158 68 158 168c0 98 -55 158 -158 158c-72 0 -134 -50 -161 -103zM429 513c0 71 -52 117 -137 117c-112 0 -170 -117 -170 -294c24 37 90 90 174 90c136 0 212 -87 212 -213c0 -120 -72 -224 -221 -224c-159 0 -229 133 -229 329
c0 226 79 368 234 368c133 0 200 -78 200 -173h-63z" />
    <glyph glyph-name="seven.tf" 
d="M165 0l250 621h-335v55h404v-50l-250 -626h-69z" />
    <glyph glyph-name="eight.tf" 
d="M280 -11c-135 0 -228 68 -228 191c0 102 71 155 137 170c-65 17 -123 64 -123 153c0 111 84 183 214 183c129 0 213 -72 213 -183c0 -89 -57 -136 -123 -153c66 -15 137 -68 137 -170c0 -123 -94 -191 -227 -191zM280 630c-91 0 -150 -45 -150 -129
c0 -78 64 -124 150 -124c84 0 149 45 149 124c0 84 -59 129 -149 129zM279 45c99 0 164 50 164 141c0 86 -72 136 -164 136c-93 0 -163 -50 -163 -136c0 -91 65 -141 163 -141z" />
    <glyph glyph-name="nine.tf" 
d="M434 408c0 114 -47 223 -161 223c-104 0 -158 -68 -158 -168c0 -98 55 -158 158 -158c72 0 134 50 161 103zM68 163h63c0 -71 52 -117 136 -117c114 0 171 118 171 294c-23 -34 -90 -91 -174 -91c-136 0 -212 88 -212 214c0 120 72 224 221 224c159 0 229 -134 229 -329
c0 -226 -79 -368 -235 -368c-132 0 -199 78 -199 173z" />
    <glyph glyph-name="zero.tosf" 
d="M280 47c120 0 171 91 171 241s-51 241 -171 241s-171 -91 -171 -241s51 -241 171 -241zM280 586c161 0 235 -116 235 -298s-75 -298 -235 -298c-161 0 -235 116 -235 298s75 298 235 298z" />
    <glyph glyph-name="one.tosf" 
d="M110 0v56h170v455l-172 -63l-18 51l194 76h57v-519h148v-56h-379z" />
    <glyph glyph-name="two.tosf" 
d="M475 0h-386v46l232 205c60 53 88 90 88 151c0 62 -38 128 -135 128c-96 0 -132 -61 -132 -142h-61c0 113 70 198 193 198c141 0 199 -94 199 -182c0 -87 -53 -142 -112 -193l-180 -158h294v-53z" />
    <glyph glyph-name="three.tosf" 
d="M355 249c66 -12 139 -69 139 -170c0 -111 -85 -190 -219 -190c-148 0 -215 80 -215 171h62c0 -65 56 -115 153 -115c99 0 155 56 155 136c0 86 -71 140 -171 140h-60v55h60c91 0 160 45 160 127c0 74 -53 127 -144 127c-95 0 -143 -54 -143 -117h-63c0 88 64 173 206 173
c129 0 208 -79 208 -181c0 -91 -62 -140 -128 -156z" />
    <glyph glyph-name="four.tosf" 
d="M525 109v-55h-105v-154h-62v154h-332v50l330 472h64v-467h105zM95 109h263v375z" />
    <glyph glyph-name="five.tosf" 
d="M489 115c0 -123 -72 -228 -218 -228c-151 0 -212 90 -212 189h63c0 -72 44 -133 149 -133s154 76 154 172c0 94 -53 154 -148 154c-53 0 -98 -20 -134 -46l-53 5l41 346h338v-55h-286l-29 -235c23 14 74 41 132 41c120 0 203 -73 203 -210z" />
    <glyph glyph-name="six.tosf" 
d="M126 268c0 -114 47 -223 161 -223c104 0 158 68 158 168c0 98 -55 158 -158 158c-72 0 -134 -50 -161 -103zM429 513c0 71 -52 117 -137 117c-112 0 -170 -117 -170 -294c24 37 90 90 174 90c136 0 212 -87 212 -213c0 -120 -72 -224 -221 -224c-159 0 -229 133 -229 329
c0 226 79 368 234 368c133 0 200 -78 200 -173h-63z" />
    <glyph glyph-name="seven.tosf" 
d="M167 -100l250 621h-335v55h404v-50l-250 -626h-69z" />
    <glyph glyph-name="eight.tosf" 
d="M280 -11c-135 0 -228 68 -228 191c0 102 71 155 137 170c-65 17 -123 64 -123 153c0 111 84 183 214 183c129 0 213 -72 213 -183c0 -89 -57 -136 -123 -153c66 -15 137 -68 137 -170c0 -123 -94 -191 -227 -191zM280 630c-91 0 -150 -45 -150 -129
c0 -78 64 -124 150 -124c84 0 149 45 149 124c0 84 -59 129 -149 129zM279 45c99 0 164 50 164 141c0 86 -72 136 -164 136c-93 0 -163 -50 -163 -136c0 -91 65 -141 163 -141z" />
    <glyph glyph-name="nine.tosf" 
d="M434 308c0 114 -47 223 -161 223c-104 0 -158 -68 -158 -168c0 -98 55 -158 158 -158c72 0 134 50 161 103zM68 63h63c0 -71 52 -117 136 -117c114 0 171 118 171 294c-23 -34 -90 -91 -174 -91c-136 0 -212 88 -212 214c0 120 72 224 221 224c159 0 229 -134 229 -329
c0 -226 -79 -368 -235 -368c-132 0 -199 78 -199 173z" />
    <glyph glyph-name="Euro.tf" 
d="M37 427h55c20 157 99 259 250 259c67 0 123 -18 172 -44l-23 -56c-42 25 -88 42 -150 42c-113 0 -169 -83 -184 -201h269l-21 -48h-253c-1 -13 -1 -27 -1 -39c0 -17 1 -34 2 -50h219l-20 -48h-194c18 -112 71 -195 186 -195c48 0 107 15 160 51l17 -58
c-53 -31 -111 -51 -179 -51c-153 0 -229 96 -249 253h-56v48h51c-1 16 -1 33 -1 50c0 12 0 26 1 39h-51v48z" />
    <glyph glyph-name="cent.tf" 
d="M99 227c0 136 61 239 198 239c10 0 20 -1 30 -2l19 76l44 -10l-19 -76c39 -14 69 -39 90 -76l-45 -31c-15 26 -34 43 -58 54l-86 -355c9 -1 18 -2 28 -2c52 0 91 20 116 64l45 -31c-32 -56 -89 -87 -164 -87c-13 0 -26 1 -38 3l-14 -61l-43 10l15 62
c-81 32 -118 116 -118 223zM160 227c0 -77 20 -139 70 -167l85 351c-5 1 -10 1 -15 1c-102 0 -140 -79 -140 -185z" />
    <glyph glyph-name="sterling.tf" 
d="M42 323h68v123c0 132 57 240 205 240c91 0 158 -35 202 -90l-43 -41c-44 55 -94 73 -157 73c-109 0 -145 -82 -145 -185v-120h204v-48h-204v-221h309v-54h-370l-1 275h-68v48z" />
    <glyph glyph-name="florin.tf" 
d="M304 401v-471c0 -84 -34 -156 -131 -156c-23 0 -44 4 -56 7v57c17 -5 33 -8 50 -8c61 0 77 41 77 106v465h-101v54h101v89c0 84 33 156 132 156c22 0 42 -4 54 -7v-57c-17 5 -32 8 -50 8c-60 0 -76 -40 -76 -106v-83h110v-54h-110z" />
    <glyph glyph-name="yen.tf" 
d="M75 291h165l-49 89h-116v48h89l-141 248h70l186 -340l189 340h71l-145 -248h88v-48h-116l-51 -89h167v-48h-174v-243h-62v243h-171v48z" />
    <glyph glyph-name="rupee.tf" 
d="M81 676h411v-48h-128c35 -27 54 -71 58 -119h70v-48h-70c-8 -89 -72 -154 -175 -165l192 -296h-74l-187 291h-97v54h107c110 0 158 44 168 116h-275v48h276c-11 69 -50 113 -154 113h-122v54z" />
    <glyph glyph-name="dollar.tf" 
d="M303 -103h-47v93c-137 6 -181 76 -205 129l52 30c20 -50 53 -97 153 -103v270l-28 8c-93 28 -154 79 -154 170c0 93 61 178 182 190v75h47v-74c95 -5 160 -49 188 -97l-50 -35c-28 45 -74 71 -138 75v-262l38 -11c91 -27 160 -72 160 -173c0 -104 -69 -182 -198 -192v-93
zM321 297l-18 5v-255c90 8 134 59 134 132c0 68 -50 99 -116 118zM139 496c0 -65 38 -93 109 -114l8 -3v248c-79 -11 -117 -65 -117 -131z" />
    <glyph glyph-name="zero.osf" horiz-adv-x="596" 
d="M298 47c121 0 173 91 173 241s-52 241 -173 241c-122 0 -173 -91 -173 -241s51 -241 173 -241zM298 586c162 0 237 -116 237 -298s-75 -298 -237 -298c-163 0 -237 116 -237 298s75 298 237 298z" />
    <glyph glyph-name="one.osf" horiz-adv-x="368" 
d="M278 0h-61v515l-172 -72l-17 51l193 81h57v-575z" />
    <glyph glyph-name="two.osf" horiz-adv-x="512" 
d="M451 0h-386v46l232 205c60 53 88 90 88 151c0 62 -38 128 -135 128c-96 0 -132 -61 -132 -142h-61c0 113 70 198 193 198c141 0 199 -94 199 -182c0 -87 -53 -142 -112 -193l-180 -158h294v-53z" />
    <glyph glyph-name="three.osf" horiz-adv-x="548" 
d="M349 249c66 -12 139 -69 139 -170c0 -111 -85 -190 -219 -190c-148 0 -215 80 -215 171h62c0 -65 56 -115 153 -115c99 0 155 56 155 136c0 86 -71 140 -171 140h-60v55h60c91 0 160 45 160 127c0 74 -53 127 -144 127c-95 0 -143 -54 -143 -117h-63c0 88 64 173 206 173
c129 0 208 -79 208 -181c0 -91 -62 -140 -128 -156z" />
    <glyph glyph-name="four.osf" horiz-adv-x="583" 
d="M537 109v-55h-105v-154h-62v154h-332v50l330 472h64v-467h105zM107 109h263v375z" />
    <glyph glyph-name="five.osf" horiz-adv-x="534" 
d="M477 117c0 -123 -72 -228 -218 -228c-151 0 -212 90 -212 189h63c0 -72 44 -133 149 -133s154 76 154 172c0 94 -53 154 -148 154c-53 0 -98 -20 -134 -46l-53 5l41 346h338v-55h-286l-29 -235c23 14 74 41 132 41c120 0 203 -73 203 -210z" />
    <glyph glyph-name="six.osf" horiz-adv-x="565" 
d="M128 268c0 -114 47 -223 161 -223c104 0 158 68 158 168c0 98 -55 158 -158 158c-72 0 -134 -50 -161 -103zM431 513c0 71 -52 117 -137 117c-112 0 -170 -117 -170 -294c24 37 90 90 174 90c136 0 212 -87 212 -213c0 -120 -72 -224 -221 -224c-159 0 -229 133 -229 329
c0 226 79 368 234 368c133 0 200 -78 200 -173h-63z" />
    <glyph glyph-name="seven.osf" horiz-adv-x="485" 
d="M129 -100l250 621h-335v55h404v-50l-250 -626h-69z" />
    <glyph glyph-name="eight.osf" horiz-adv-x="573" 
d="M287 -11c-135 0 -228 68 -228 191c0 102 71 155 137 170c-65 17 -123 64 -123 153c0 111 84 183 214 183c129 0 213 -72 213 -183c0 -89 -57 -136 -123 -153c66 -15 137 -68 137 -170c0 -123 -94 -191 -227 -191zM287 630c-91 0 -150 -45 -150 -129
c0 -78 64 -124 150 -124c84 0 149 45 149 124c0 84 -59 129 -149 129zM286 45c99 0 164 50 164 141c0 86 -72 136 -164 136c-93 0 -163 -50 -163 -136c0 -91 65 -141 163 -141z" />
    <glyph glyph-name="nine.osf" horiz-adv-x="564" 
d="M436 308c0 114 -47 223 -161 223c-104 0 -158 -68 -158 -168c0 -98 55 -158 158 -158c72 0 134 50 161 103zM70 63h63c0 -71 52 -117 136 -117c114 0 171 118 171 294c-23 -34 -90 -91 -174 -91c-136 0 -212 88 -212 214c0 120 72 224 221 224c159 0 229 -134 229 -329
c0 -226 -79 -368 -235 -368c-132 0 -199 78 -199 173z" />
    <glyph glyph-name="zerosuperior" unicode="&#x2070;" horiz-adv-x="346" 
d="M172 479c62 0 86 49 86 136s-24 136 -86 136s-86 -49 -86 -136s24 -136 86 -136zM172 791c96 0 137 -69 137 -176s-41 -177 -137 -177s-137 70 -137 177s42 176 137 176z" />
    <glyph glyph-name="foursuperior" unicode="&#x2074;" horiz-adv-x="327" 
d="M302 556v-41h-53v-72h-50v72h-180v38l179 233h51v-230h53zM72 556h127v164z" />
    <glyph glyph-name="fivesuperior" unicode="&#x2075;" horiz-adv-x="308" 
d="M274 554c0 -65 -42 -117 -125 -117c-87 0 -122 45 -122 98h50c0 -32 22 -56 72 -56s75 33 75 75c0 39 -27 67 -73 67c-26 0 -49 -9 -66 -20l-41 4l24 181h194v-41h-154l-14 -99c13 6 38 17 65 17c65 0 115 -36 115 -109z" />
    <glyph glyph-name="sixsuperior" unicode="&#x2076;" horiz-adv-x="328" 
d="M87 576c0 -52 23 -98 79 -98c51 0 77 30 77 73c0 42 -26 70 -77 70c-37 0 -66 -23 -79 -45zM172 750c-58 0 -87 -53 -87 -127c14 16 48 38 92 38c74 0 116 -44 116 -110c0 -61 -41 -115 -127 -115c-92 0 -131 70 -131 166c0 113 43 188 137 188c78 0 113 -41 113 -91h-49
c0 31 -24 51 -64 51z" />
    <glyph glyph-name="sevensuperior" unicode="&#x2077;" horiz-adv-x="271" 
d="M59 443l138 302h-178v41h232v-35l-138 -308h-54z" />
    <glyph glyph-name="eightsuperior" unicode="&#x2078;" horiz-adv-x="333" 
d="M166 437c-78 0 -131 36 -131 99c0 48 30 74 68 84c-37 12 -61 34 -61 76c0 59 48 95 124 95s122 -36 122 -95c0 -42 -24 -64 -61 -76c38 -10 69 -35 69 -84c0 -63 -52 -99 -130 -99zM165 600c-46 0 -80 -24 -80 -61c0 -39 34 -60 81 -60c46 0 79 21 79 60
c0 37 -33 61 -80 61zM165 751c-43 0 -72 -20 -72 -57c0 -35 31 -54 72 -54s73 19 73 54c0 37 -28 57 -73 57z" />
    <glyph glyph-name="ninesuperior" unicode="&#x2079;" horiz-adv-x="328" 
d="M239 651c0 51 -24 99 -79 99c-52 0 -77 -30 -77 -74c0 -43 26 -69 77 -69c36 0 66 21 79 44zM40 528h50c0 -31 26 -50 64 -50c60 0 86 52 86 127c-13 -15 -48 -39 -91 -39c-74 0 -117 45 -117 109c0 63 42 115 128 115c92 0 131 -69 131 -166c0 -111 -42 -188 -137 -188
c-75 0 -114 42 -114 92z" />
    <glyph glyph-name="zeroinferior" unicode="&#x2080;" horiz-adv-x="346" 
d="M172 -64c62 0 86 49 86 136s-24 136 -86 136s-86 -49 -86 -136s24 -136 86 -136zM172 248c96 0 137 -69 137 -176s-41 -177 -137 -177s-137 70 -137 177s42 176 137 176z" />
    <glyph glyph-name="oneinferior" unicode="&#x2081;" horiz-adv-x="226" 
d="M172 -100h-49v297l-103 -38l-13 39l121 45h44v-343z" />
    <glyph glyph-name="twoinferior" unicode="&#x2082;" horiz-adv-x="303" 
d="M147 248c71 0 115 -42 115 -100c0 -49 -33 -86 -75 -126l-86 -81h168v-41h-235v35l120 116c36 34 57 63 57 97s-23 60 -64 60c-44 0 -65 -26 -65 -65h-49c0 62 38 105 114 105z" />
    <glyph glyph-name="threeinferior" unicode="&#x2083;" horiz-adv-x="316" 
d="M205 76c38 -6 74 -36 74 -85c0 -56 -48 -97 -125 -97c-85 0 -123 42 -123 92h49c0 -29 26 -50 74 -50c46 0 75 23 75 57c0 39 -33 62 -86 62h-33v41h33c47 0 80 20 80 56c0 33 -26 56 -69 56c-46 0 -68 -23 -68 -51h-51c0 49 37 91 119 91c74 0 120 -39 120 -94
c0 -42 -32 -70 -69 -78z" />
    <glyph glyph-name="fourinferior" unicode="&#x2084;" horiz-adv-x="328" 
d="M302 13v-41h-53v-72h-50v72h-180v38l179 233h51v-230h53zM72 13h127v164z" />
    <glyph glyph-name="fiveinferior" unicode="&#x2085;" horiz-adv-x="307" 
d="M274 11c0 -65 -42 -117 -125 -117c-87 0 -122 45 -122 98h50c0 -32 22 -56 72 -56s75 33 75 75c0 39 -27 67 -73 67c-26 0 -49 -9 -66 -20l-41 4l24 181h194v-41h-154l-14 -99c13 6 38 17 65 17c65 0 115 -36 115 -109z" />
    <glyph glyph-name="sixinferior" unicode="&#x2086;" horiz-adv-x="327" 
d="M87 34c0 -52 23 -98 79 -98c51 0 77 30 77 73c0 42 -26 70 -77 70c-37 0 -66 -23 -79 -45zM172 208c-58 0 -87 -53 -87 -127c14 16 48 38 92 38c74 0 116 -44 116 -110c0 -61 -41 -115 -127 -115c-92 0 -131 70 -131 166c0 113 43 188 137 188c78 0 113 -41 113 -91h-49
c0 31 -24 51 -64 51z" />
    <glyph glyph-name="seveninferior" unicode="&#x2087;" horiz-adv-x="272" 
d="M59 -100l138 302h-178v41h232v-35l-138 -308h-54z" />
    <glyph glyph-name="eightinferior" unicode="&#x2088;" horiz-adv-x="333" 
d="M166 -106c-78 0 -131 36 -131 99c0 48 30 74 68 84c-37 12 -61 34 -61 76c0 59 48 95 124 95s122 -36 122 -95c0 -42 -24 -64 -61 -76c38 -10 69 -35 69 -84c0 -63 -52 -99 -130 -99zM165 57c-46 0 -80 -24 -80 -61c0 -39 34 -60 81 -60c46 0 79 21 79 60
c0 37 -33 61 -80 61zM165 208c-43 0 -72 -20 -72 -57c0 -35 31 -54 72 -54s73 19 73 54c0 37 -28 57 -73 57z" />
    <glyph glyph-name="nineinferior" unicode="&#x2089;" horiz-adv-x="328" 
d="M239 109c0 51 -24 99 -79 99c-52 0 -77 -30 -77 -74c0 -43 26 -69 77 -69c36 0 66 21 79 44zM40 -14h50c0 -31 26 -50 64 -50c60 0 86 52 86 127c-13 -15 -48 -39 -91 -39c-74 0 -117 45 -117 109c0 63 42 115 128 115c92 0 131 -69 131 -166c0 -111 -42 -188 -137 -188
c-75 0 -114 42 -114 92z" />
    <glyph glyph-name="zero.denom" horiz-adv-x="341" 
d="M170 36c62 0 86 49 86 136s-24 136 -86 136s-86 -49 -86 -136s24 -136 86 -136zM170 348c96 0 137 -69 137 -176s-41 -177 -137 -177s-137 70 -137 177s42 176 137 176z" />
    <glyph glyph-name="one.denom" horiz-adv-x="220" 
d="M170 0h-49v297l-103 -38l-13 39l121 45h44v-343z" />
    <glyph glyph-name="two.denom" horiz-adv-x="298" 
d="M145 348c71 0 115 -42 115 -100c0 -49 -33 -86 -75 -126l-86 -81h168v-41h-235v35l120 116c36 34 57 63 57 97s-23 60 -64 60c-44 0 -65 -26 -65 -65h-49c0 62 38 105 114 105z" />
    <glyph glyph-name="three.denom" horiz-adv-x="310" 
d="M203 176c38 -6 74 -36 74 -85c0 -56 -48 -97 -125 -97c-85 0 -123 42 -123 92h49c0 -29 26 -50 74 -50c46 0 75 23 75 57c0 39 -33 62 -86 62h-33v41h33c47 0 80 20 80 56c0 33 -26 56 -69 56c-46 0 -68 -23 -68 -51h-51c0 49 37 91 119 91c74 0 120 -39 120 -94
c0 -42 -32 -70 -69 -78z" />
    <glyph glyph-name="four.denom" horiz-adv-x="320" 
d="M300 113v-41h-53v-72h-50v72h-180v38l179 233h51v-230h53zM70 113h127v164z" />
    <glyph glyph-name="five.denom" horiz-adv-x="301" 
d="M272 111c0 -65 -42 -117 -125 -117c-87 0 -122 45 -122 98h50c0 -32 22 -56 72 -56s75 33 75 75c0 39 -27 67 -73 67c-26 0 -49 -9 -66 -20l-41 4l24 181h194v-41h-154l-14 -99c13 6 38 17 65 17c65 0 115 -36 115 -109z" />
    <glyph glyph-name="six.denom" horiz-adv-x="321" 
d="M85 134c0 -52 23 -98 79 -98c51 0 77 30 77 73c0 42 -26 70 -77 70c-37 0 -66 -23 -79 -45zM170 308c-58 0 -87 -53 -87 -127c14 16 48 38 92 38c74 0 116 -44 116 -110c0 -61 -41 -115 -127 -115c-92 0 -131 70 -131 166c0 113 43 188 137 188c78 0 113 -41 113 -91h-49
c0 31 -24 51 -64 51z" />
    <glyph glyph-name="seven.denom" horiz-adv-x="264" 
d="M57 0l138 302h-178v41h232v-35l-138 -308h-54z" />
    <glyph glyph-name="eight.denom" horiz-adv-x="327" 
d="M164 -6c-78 0 -131 36 -131 99c0 48 30 74 68 84c-37 12 -61 34 -61 76c0 59 48 95 124 95s122 -36 122 -95c0 -42 -24 -64 -61 -76c38 -10 69 -35 69 -84c0 -63 -52 -99 -130 -99zM163 157c-46 0 -80 -24 -80 -61c0 -39 34 -60 81 -60c46 0 79 21 79 60
c0 37 -33 61 -80 61zM163 308c-43 0 -72 -20 -72 -57c0 -35 31 -54 72 -54s73 19 73 54c0 37 -28 57 -73 57z" />
    <glyph glyph-name="nine.denom" horiz-adv-x="321" 
d="M237 209c0 51 -24 99 -79 99c-52 0 -77 -30 -77 -74c0 -43 26 -69 77 -69c36 0 66 21 79 44zM38 86h50c0 -31 26 -50 64 -50c60 0 86 52 86 127c-13 -15 -48 -39 -91 -39c-74 0 -117 45 -117 109c0 63 42 115 128 115c92 0 131 -69 131 -166c0 -111 -42 -188 -137 -188
c-75 0 -114 42 -114 92z" />
    <glyph glyph-name="zero.num" horiz-adv-x="346" 
d="M172 367c62 0 86 49 86 136s-24 136 -86 136s-86 -49 -86 -136s24 -136 86 -136zM172 679c96 0 137 -69 137 -176s-41 -177 -137 -177s-137 70 -137 177s42 176 137 176z" />
    <glyph glyph-name="one.num" horiz-adv-x="226" 
d="M172 331h-49v297l-103 -38l-13 39l121 45h44v-343z" />
    <glyph glyph-name="two.num" horiz-adv-x="304" 
d="M147 679c71 0 115 -42 115 -100c0 -49 -33 -86 -75 -126l-86 -81h168v-41h-235v35l120 116c36 34 57 63 57 97s-23 60 -64 60c-44 0 -65 -26 -65 -65h-49c0 62 38 105 114 105z" />
    <glyph glyph-name="three.num" horiz-adv-x="317" 
d="M205 507c38 -6 74 -36 74 -85c0 -56 -48 -97 -125 -97c-85 0 -123 42 -123 92h49c0 -29 26 -50 74 -50c46 0 75 23 75 57c0 39 -33 62 -86 62h-33v41h33c47 0 80 20 80 56c0 33 -26 56 -69 56c-46 0 -68 -23 -68 -51h-51c0 49 37 91 119 91c74 0 120 -39 120 -94
c0 -42 -32 -70 -69 -78z" />
    <glyph glyph-name="four.num" horiz-adv-x="327" 
d="M302 444v-41h-53v-72h-50v72h-180v38l179 233h51v-230h53zM72 444h127v164z" />
    <glyph glyph-name="five.num" horiz-adv-x="309" 
d="M274 442c0 -65 -42 -117 -125 -117c-87 0 -122 45 -122 98h50c0 -32 22 -56 72 -56s75 33 75 75c0 39 -27 67 -73 67c-26 0 -49 -9 -66 -20l-41 4l24 181h194v-41h-154l-14 -99c13 6 38 17 65 17c65 0 115 -36 115 -109z" />
    <glyph glyph-name="six.num" horiz-adv-x="329" 
d="M87 465c0 -52 23 -98 79 -98c51 0 77 30 77 73c0 42 -26 70 -77 70c-37 0 -66 -23 -79 -45zM172 639c-58 0 -87 -53 -87 -127c14 16 48 38 92 38c74 0 116 -44 116 -110c0 -61 -41 -115 -127 -115c-92 0 -131 70 -131 166c0 113 43 188 137 188c78 0 113 -41 113 -91h-49
c0 31 -24 51 -64 51z" />
    <glyph glyph-name="seven.num" horiz-adv-x="272" 
d="M59 331l138 302h-178v41h232v-35l-138 -308h-54z" />
    <glyph glyph-name="eight.num" horiz-adv-x="334" 
d="M166 325c-78 0 -131 36 -131 99c0 48 30 74 68 84c-37 12 -61 34 -61 76c0 59 48 95 124 95s122 -36 122 -95c0 -42 -24 -64 -61 -76c38 -10 69 -35 69 -84c0 -63 -52 -99 -130 -99zM165 488c-46 0 -80 -24 -80 -61c0 -39 34 -60 81 -60c46 0 79 21 79 60
c0 37 -33 61 -80 61zM165 639c-43 0 -72 -20 -72 -57c0 -35 31 -54 72 -54s73 19 73 54c0 37 -28 57 -73 57z" />
    <glyph glyph-name="nine.num" horiz-adv-x="329" 
d="M239 540c0 51 -24 99 -79 99c-52 0 -77 -30 -77 -74c0 -43 26 -69 77 -69c36 0 66 21 79 44zM40 417h50c0 -31 26 -50 64 -50c60 0 86 52 86 127c-13 -15 -48 -39 -91 -39c-74 0 -117 45 -117 109c0 63 42 115 128 115c92 0 131 -69 131 -166c0 -111 -42 -188 -137 -188
c-75 0 -114 42 -114 92z" />
    <glyph glyph-name="arrowleft" unicode="&#x2190;" horiz-adv-x="750" 
d="M59 275l258 261l38 -38l-195 -196h513v-53h-513l194 -195l-37 -38z" />
    <glyph glyph-name="arrowup" unicode="&#x2191;" horiz-adv-x="750" 
d="M374 596l261 -258l-38 -38l-196 195v-514h-53v514l-195 -194l-38 37z" />
    <glyph glyph-name="arrowright" unicode="&#x2192;" horiz-adv-x="750" 
d="M691 279l-258 -261l-38 38l195 196h-513v53h513l-194 195l37 38z" />
    <glyph glyph-name="arrowdown" unicode="&#x2193;" horiz-adv-x="750" 
d="M376 -44l-261 259l38 38l196 -195v513h53v-513l195 194l38 -37z" />
    <glyph glyph-name="uni2196" unicode="&#x2196;" horiz-adv-x="750" 
d="M164 503h367v-53h-276l364 -364l-39 -38l-363 363v-275h-53v367z" />
    <glyph glyph-name="uni2197" unicode="&#x2197;" horiz-adv-x="750" 
d="M586 503v-368h-53v276l-364 -363l-38 38l363 364h-275v53h367z" />
    <glyph glyph-name="uni2198" unicode="&#x2198;" horiz-adv-x="750" 
d="M581 51h-367v53h276l-364 364l39 38l363 -363v275h53v-367z" />
    <glyph glyph-name="uni2199" unicode="&#x2199;" horiz-adv-x="750" 
d="M168 51v368h54v-276l363 363l39 -38l-364 -364h275v-53h-367z" />
    <glyph glyph-name="parenleft.case" horiz-adv-x="276" 
d="M239 -106l-46 -16c-84 135 -135 264 -135 462c0 215 61 341 135 463l48 -16c-67 -126 -119 -253 -119 -447c0 -175 41 -301 117 -446z" />
    <glyph glyph-name="parenright.case" horiz-adv-x="276" 
d="M37 -106c76 145 118 271 118 446c0 194 -53 321 -120 447l49 16c73 -122 134 -248 134 -463c0 -198 -51 -327 -134 -462z" />
    <glyph glyph-name="hyphen.case" horiz-adv-x="390" 
d="M73 356h245v-53h-245v53z" />
    <glyph glyph-name="bracketleft.case" horiz-adv-x="303" 
d="M78 790h182v-52h-122v-802h122v-52h-182v906z" />
    <glyph glyph-name="bracketright.case" horiz-adv-x="303" 
d="M43 790h182v-906h-182v52h122v802h-122v52z" />
    <glyph glyph-name="braceleft.case" horiz-adv-x="302" 
d="M179 655v-216c0 -81 -38 -98 -65 -102c27 -4 65 -22 65 -104v-213c0 -67 21 -86 76 -86v-50c-93 0 -136 28 -136 135v211c0 62 -23 82 -88 82v50c65 0 88 19 88 81v212c0 102 42 135 136 135v-50c-54 0 -76 -19 -76 -85z" />
    <glyph glyph-name="bar.case" horiz-adv-x="202" 
d="M125 -116h-47v906h47v-906z" />
    <glyph glyph-name="braceright.case" horiz-adv-x="302" 
d="M123 439v216c0 66 -22 85 -76 85v50c94 0 136 -33 136 -135v-212c0 -62 23 -81 88 -81v-50c-65 0 -88 -20 -88 -82v-211c0 -107 -43 -135 -136 -135v50c55 0 76 19 76 86v213c0 82 38 100 65 104c-27 4 -65 21 -65 102z" />
    <glyph glyph-name="guilsinglleft.case" horiz-adv-x="326" 
d="M48 330l170 208l40 -30l-135 -178l136 -178l-41 -30z" />
    <glyph glyph-name="guilsinglright.case" horiz-adv-x="326" 
d="M108 538l170 -208l-170 -208l-40 30l136 178l-136 178z" />
    <glyph glyph-name="guillemotleft.case" horiz-adv-x="503" 
d="M48 330l170 208l40 -30l-135 -178l136 -178l-41 -30zM225 330l170 208l40 -30l-135 -178l136 -178l-41 -30z" />
    <glyph glyph-name="guillemotright.case" horiz-adv-x="503" 
d="M285 538l170 -208l-170 -208l-40 30l136 178l-136 178zM108 538l170 -208l-170 -208l-40 30l136 178l-136 178z" />
    <glyph glyph-name="endash.case" horiz-adv-x="590" 
d="M73 356h446v-53h-446v53z" />
    <glyph glyph-name="emdash.case" horiz-adv-x="730" 
d="M73 356h586v-53h-586v53z" />
    <glyph glyph-name="bullet.case" horiz-adv-x="370" 
d="M185 232c-58 0 -101 41 -101 97c0 57 43 98 101 98c59 0 100 -41 100 -98c0 -56 -41 -97 -100 -97z" />
    <glyph glyph-name="periodcentered.case" horiz-adv-x="247" 
d="M123 318c-31 0 -53 22 -53 52s22 52 53 52s53 -22 53 -52s-22 -52 -53 -52z" />
    <glyph glyph-name="a.alt" horiz-adv-x="515" 
d="M382 409v47h58v-456h-58v46c-25 -31 -74 -56 -138 -56c-134 0 -194 94 -194 239c0 143 59 237 194 237c65 0 111 -23 138 -57zM111 229c0 -104 34 -184 142 -184c65 0 108 31 128 67v232c-22 35 -60 67 -128 67c-110 0 -142 -79 -142 -182z" />
    <glyph glyph-name="agrave.alt" horiz-adv-x="515" 
d="M382 409v47h58v-456h-58v46c-25 -31 -74 -56 -138 -56c-134 0 -194 94 -194 239c0 143 59 237 194 237c65 0 111 -23 138 -57zM111 229c0 -104 34 -184 142 -184c65 0 108 31 128 67v232c-22 35 -60 67 -128 67c-110 0 -142 -79 -142 -182zM152 696h67l77 -151h-57z" />
    <glyph glyph-name="aacute.alt" horiz-adv-x="515" 
d="M382 409v47h58v-456h-58v46c-25 -31 -74 -56 -138 -56c-134 0 -194 94 -194 239c0 143 59 237 194 237c65 0 111 -23 138 -57zM111 229c0 -104 34 -184 142 -184c65 0 108 31 128 67v232c-22 35 -60 67 -128 67c-110 0 -142 -79 -142 -182zM308 696h67l-87 -151h-57z" />
    <glyph glyph-name="acircumflex.alt" horiz-adv-x="515" 
d="M382 409v47h58v-456h-58v46c-25 -31 -74 -56 -138 -56c-134 0 -194 94 -194 239c0 143 59 237 194 237c65 0 111 -23 138 -57zM111 229c0 -104 34 -184 142 -184c65 0 108 31 128 67v232c-22 35 -60 67 -128 67c-110 0 -142 -79 -142 -182zM232 696h61l102 -151h-57
l-76 107l-75 -107h-57z" />
    <glyph glyph-name="atilde.alt" horiz-adv-x="515" 
d="M382 409v47h58v-456h-58v46c-25 -31 -74 -56 -138 -56c-134 0 -194 94 -194 239c0 143 59 237 194 237c65 0 111 -23 138 -57zM111 229c0 -104 34 -184 142 -184c65 0 108 31 128 67v232c-22 35 -60 67 -128 67c-110 0 -142 -79 -142 -182zM397 626l-8 -49
c-17 15 -38 25 -59 25c-45 0 -80 -37 -136 -37c-28 0 -55 13 -66 26l8 48c14 -15 33 -25 58 -25c49 0 77 38 136 38c33 0 55 -16 67 -26z" />
    <glyph glyph-name="adieresis.alt" horiz-adv-x="515" 
d="M382 409v47h58v-456h-58v46c-25 -31 -74 -56 -138 -56c-134 0 -194 94 -194 239c0 143 59 237 194 237c65 0 111 -23 138 -57zM111 229c0 -104 34 -184 142 -184c65 0 108 31 128 67v232c-22 35 -60 67 -128 67c-110 0 -142 -79 -142 -182zM174 569c-27 0 -48 14 -48 47
s21 48 48 48c24 0 47 -15 47 -48s-23 -47 -47 -47zM350 569c-27 0 -47 14 -47 47s20 48 47 48c24 0 48 -15 48 -48s-24 -47 -48 -47z" />
    <glyph glyph-name="amacron.alt" horiz-adv-x="515" 
d="M382 409v47h58v-456h-58v46c-25 -31 -74 -56 -138 -56c-134 0 -194 94 -194 239c0 143 59 237 194 237c65 0 111 -23 138 -57zM111 229c0 -104 34 -184 142 -184c65 0 108 31 128 67v232c-22 35 -60 67 -128 67c-110 0 -142 -79 -142 -182zM126 635h272v-51h-272v51z" />
    <glyph glyph-name="abreve.alt" horiz-adv-x="515" 
d="M382 409v47h58v-456h-58v46c-25 -31 -74 -56 -138 -56c-134 0 -194 94 -194 239c0 143 59 237 194 237c65 0 111 -23 138 -57zM111 229c0 -104 34 -184 142 -184c65 0 108 31 128 67v232c-22 35 -60 67 -128 67c-110 0 -142 -79 -142 -182zM345 681h47
c0 -76 -51 -132 -130 -132c-78 0 -129 56 -129 132h45c2 -48 31 -84 84 -84s82 36 83 84z" />
    <glyph glyph-name="aring.alt" horiz-adv-x="515" 
d="M161 624c0 53 39 92 101 92c63 0 102 -39 102 -92s-39 -93 -102 -93c-62 0 -101 40 -101 93zM206 624c0 -32 21 -54 56 -54s57 22 57 54s-22 53 -57 53s-56 -21 -56 -53zM382 409v47h58v-456h-58v46c-25 -31 -74 -56 -138 -56c-134 0 -194 94 -194 239
c0 143 59 237 194 237c65 0 111 -23 138 -57zM111 229c0 -104 34 -184 142 -184c65 0 108 31 128 67v232c-22 35 -60 67 -128 67c-110 0 -142 -79 -142 -182z" />
    <glyph glyph-name="aringacute.alt" horiz-adv-x="515" 
d="M162 613c0 50 33 86 86 92l52 71h67l-65 -78c39 -12 62 -44 62 -85c0 -52 -39 -92 -102 -92c-61 0 -100 40 -100 92zM206 613c0 -31 22 -52 56 -52c36 0 57 21 57 52c0 32 -21 54 -57 54c-34 0 -56 -22 -56 -54zM382 409v47h58v-456h-58v46c-25 -31 -74 -56 -138 -56
c-134 0 -194 94 -194 239c0 143 59 237 194 237c65 0 111 -23 138 -57zM111 229c0 -104 34 -184 142 -184c65 0 108 31 128 67v232c-22 35 -60 67 -128 67c-110 0 -142 -79 -142 -182z" />
    <glyph glyph-name="g.alt" horiz-adv-x="485" 
d="M450 464v-58h-75c27 -26 42 -60 42 -105c0 -99 -66 -156 -180 -156c-29 0 -58 4 -72 8c-9 -12 -22 -28 -22 -47c0 -24 14 -40 48 -40h90c107 0 160 -45 160 -122c0 -92 -82 -152 -216 -152c-132 0 -190 56 -190 123c0 53 39 95 78 109c-19 8 -31 36 -31 58
c0 36 25 64 45 85c-46 24 -75 67 -75 136c0 102 63 163 183 163c47 0 81 -8 99 -18zM236 195c85 0 120 37 120 107c0 66 -32 110 -121 110c-92 0 -123 -46 -123 -109c0 -66 33 -108 124 -108zM150 12c-35 -19 -55 -47 -55 -84c0 -52 37 -84 130 -84c92 0 153 30 153 95
c0 42 -25 73 -98 73h-130z" />
    <glyph glyph-name="gcircumflex.alt" horiz-adv-x="485" 
d="M450 464v-58h-75c27 -26 42 -60 42 -105c0 -99 -66 -156 -180 -156c-29 0 -58 4 -72 8c-9 -12 -22 -28 -22 -47c0 -24 14 -40 48 -40h90c107 0 160 -45 160 -122c0 -92 -82 -152 -216 -152c-132 0 -190 56 -190 123c0 53 39 95 78 109c-19 8 -31 36 -31 58
c0 36 25 64 45 85c-46 24 -75 67 -75 136c0 102 63 163 183 163c47 0 81 -8 99 -18zM236 195c85 0 120 37 120 107c0 66 -32 110 -121 110c-92 0 -123 -46 -123 -109c0 -66 33 -108 124 -108zM150 12c-35 -19 -55 -47 -55 -84c0 -52 37 -84 130 -84c92 0 153 30 153 95
c0 42 -25 73 -98 73h-130zM214 696h61l102 -151h-57l-76 107l-75 -107h-57z" />
    <glyph glyph-name="gbreve.alt" horiz-adv-x="485" 
d="M319 681h47c0 -76 -51 -132 -130 -132c-78 0 -129 56 -129 132h45c2 -48 31 -84 84 -84s82 36 83 84zM450 464v-58h-75c27 -26 42 -60 42 -105c0 -99 -66 -156 -180 -156c-29 0 -58 4 -72 8c-9 -12 -22 -28 -22 -47c0 -24 14 -40 48 -40h90c107 0 160 -45 160 -122
c0 -92 -82 -152 -216 -152c-132 0 -190 56 -190 123c0 53 39 95 78 109c-19 8 -31 36 -31 58c0 36 25 64 45 85c-46 24 -75 67 -75 136c0 102 63 163 183 163c47 0 81 -8 99 -18zM236 195c85 0 120 37 120 107c0 66 -32 110 -121 110c-92 0 -123 -46 -123 -109
c0 -66 33 -108 124 -108zM150 12c-35 -19 -55 -47 -55 -84c0 -52 37 -84 130 -84c92 0 153 30 153 95c0 42 -25 73 -98 73h-130z" />
    <glyph glyph-name="gdotaccent.alt" horiz-adv-x="485" 
d="M232 569c-27 0 -48 14 -48 47s21 48 48 48c24 0 47 -15 47 -48s-23 -47 -47 -47zM450 464v-58h-75c27 -26 42 -60 42 -105c0 -99 -66 -156 -180 -156c-29 0 -58 4 -72 8c-9 -12 -22 -28 -22 -47c0 -24 14 -40 48 -40h90c107 0 160 -45 160 -122c0 -92 -82 -152 -216 -152
c-132 0 -190 56 -190 123c0 53 39 95 78 109c-19 8 -31 36 -31 58c0 36 25 64 45 85c-46 24 -75 67 -75 136c0 102 63 163 183 163c47 0 81 -8 99 -18zM236 195c85 0 120 37 120 107c0 66 -32 110 -121 110c-92 0 -123 -46 -123 -109c0 -66 33 -108 124 -108zM150 12
c-35 -19 -55 -47 -55 -84c0 -52 37 -84 130 -84c92 0 153 30 153 95c0 42 -25 73 -98 73h-130z" />
    <glyph glyph-name="circle" unicode="&#x25cb;" horiz-adv-x="791" 
d="M57 339c0 211 145 347 339 347s338 -136 338 -347s-144 -350 -338 -350s-339 139 -339 350zM108 339c0 -190 118 -300 288 -300s287 110 287 300c0 189 -117 297 -287 297s-288 -108 -288 -297z" />
    <glyph glyph-name="brokenbar.sc" horiz-adv-x="204" 
d="M123 290h-42v292h42v-292zM81 188h42v-290h-42v290z" />
    <glyph glyph-name="gcommaaccent.alt" horiz-adv-x="485" 
d="M450 464v-58h-75c27 -26 42 -60 42 -105c0 -99 -66 -156 -180 -156c-29 0 -58 4 -72 8c-9 -12 -22 -28 -22 -47c0 -24 14 -40 48 -40h90c107 0 160 -45 160 -122c0 -92 -82 -152 -216 -152c-132 0 -190 56 -190 123c0 53 39 95 78 109c-19 8 -31 36 -31 58
c0 36 25 64 45 85c-46 24 -75 67 -75 136c0 102 63 163 183 163c47 0 81 -8 99 -18zM236 195c85 0 120 37 120 107c0 66 -32 110 -121 110c-92 0 -123 -46 -123 -109c0 -66 33 -108 124 -108zM150 12c-35 -19 -55 -47 -55 -84c0 -52 37 -84 130 -84c92 0 153 30 153 95
c0 42 -25 73 -98 73h-130zM203 555l49 170h48l-25 -170h-72z" />
    <glyph glyph-name="aogonek.alt" horiz-adv-x="515" 
d="M383 409v47h58v-456h-1l-77 -62c-22 -19 -34 -36 -34 -59c0 -21 16 -44 50 -44c21 0 42 11 61 25v-54c-16 -11 -38 -22 -73 -22c-62 0 -99 37 -99 87c0 39 21 67 50 90l65 52v33c-25 -31 -74 -56 -138 -56c-134 0 -194 94 -194 239c0 143 59 237 194 237
c65 0 111 -23 138 -57zM112 229c0 -104 34 -184 142 -184c65 0 108 31 128 67v232c-22 35 -60 67 -128 67c-110 0 -142 -79 -142 -182z" />
    </font>
</defs>
</svg>
